<?xml version="1.0" encoding="UTF-8" standalone="no"?>
<!DOCTYPE svg PUBLIC "-//W3C//DTD SVG 1.1//EN"
 "http://www.w3.org/Graphics/SVG/1.1/DTD/svg11.dtd">
<!-- Generated by graphviz version 2.43.0 (0)
 -->
<!-- Title: mpMovableObject Pages: 1 -->
<svg width="686pt" height="415pt"
 viewBox="0.00 0.00 686.00 415.00" xmlns="http://www.w3.org/2000/svg" xmlns:xlink="http://www.w3.org/1999/xlink">
<g id="graph0" class="graph" transform="scale(1 1) rotate(0) translate(4 411)">
<title>mpMovableObject</title>
<!-- Node1 -->
<g id="Node000001" class="node">
<title>Node1</title>
<g id="a_Node000001"><a xlink:title=" ">
<polygon fill="#999999" stroke="#666666" points="678,-92 572,-92 572,-73 678,-73 678,-92"/>
<text text-anchor="middle" x="625" y="-80" font-family="Helvetica,sans-Serif" font-size="10.00">mpMovableObject</text>
</a>
</g>
</g>
<!-- Node2 -->
<g id="Node000002" class="node">
<title>Node2</title>
<g id="a_Node000002"><a xlink:href="classmpFunction.html" target="_top" xlink:title=" ">
<polygon fill="white" stroke="#666666" points="544,-407 470,-407 470,-388 544,-388 544,-407"/>
<text text-anchor="middle" x="507" y="-395" font-family="Helvetica,sans-Serif" font-size="10.00">mpFunction</text>
</a>
</g>
</g>
<!-- Node2&#45;&gt;Node1 -->
<g id="edge1_Node000001_Node000002" class="edge">
<title>Node2&#45;&gt;Node1</title>
<g id="a_edge1_Node000001_Node000002"><a xlink:title=" ">
<path fill="none" stroke="#63b8ff" d="M554.01,-389.97C586.91,-382.44 625,-366.4 625,-332.5 625,-332.5 625,-332.5 625,-165.5 625,-138.74 625,-107.06 625,-92.12"/>
<polygon fill="#63b8ff" stroke="#63b8ff" points="553.09,-386.58 544.01,-392.04 554.51,-393.44 553.09,-386.58"/>
</a>
</g>
</g>
<!-- Node13 -->
<g id="Node000013" class="node">
<title>Node13</title>
<g id="a_Node000013"><a xlink:href="classmpInfoLegend.html" target="_top" xlink:title="Implement the legend to be added to the plot This layer allows you to add a legend to describe the pl...">
<polygon fill="white" stroke="#666666" points="86,-341 0,-341 0,-322 86,-322 86,-341"/>
<text text-anchor="middle" x="43" y="-329" font-family="Helvetica,sans-Serif" font-size="10.00">mpInfoLegend</text>
</a>
</g>
</g>
<!-- Node2&#45;&gt;Node13 -->
<g id="edge18_Node000013_Node000002" class="edge">
<title>Node2&#45;&gt;Node13</title>
<g id="a_edge18_Node000013_Node000002"><a xlink:title=" ">
<path fill="none" stroke="#9a32cd" stroke-dasharray="5,2" d="M459.44,-390.54C382.68,-380.81 226.75,-360.64 95,-341 92.1,-340.57 89.12,-340.11 86.12,-339.64"/>
<polygon fill="#9a32cd" stroke="#9a32cd" points="459.38,-394.05 469.74,-391.84 460.26,-387.11 459.38,-394.05"/>
</a>
</g>
<text text-anchor="middle" x="342" y="-362" font-family="Helvetica,sans-Serif" font-size="10.00" fill="grey"> m_selectedSeries</text>
</g>
<!-- Node3 -->
<g id="Node000003" class="node">
<title>Node3</title>
<g id="a_Node000003"><a xlink:href="classmpLayer.html" target="_top" xlink:title=" ">
<polygon fill="white" stroke="#666666" points="413.5,-176 354.5,-176 354.5,-157 413.5,-157 413.5,-176"/>
<text text-anchor="middle" x="384" y="-164" font-family="Helvetica,sans-Serif" font-size="10.00">mpLayer</text>
</a>
</g>
</g>
<!-- Node3&#45;&gt;Node2 -->
<g id="edge2_Node000002_Node000003" class="edge">
<title>Node3&#45;&gt;Node2</title>
<g id="a_edge2_Node000002_Node000003"><a xlink:title=" ">
<path fill="none" stroke="#63b8ff" d="M423.52,-179.3C445.21,-187.87 470.56,-201.77 485,-223 521.37,-276.48 512.45,-361.07 508.42,-387.99"/>
<polygon fill="#63b8ff" stroke="#63b8ff" points="424.46,-175.91 413.87,-175.73 422.03,-182.48 424.46,-175.91"/>
</a>
</g>
</g>
<!-- Node8 -->
<g id="Node000008" class="node">
<title>Node8</title>
<g id="a_Node000008"><a xlink:href="classmpScale.html" target="_top" xlink:title=" ">
<polygon fill="white" stroke="#666666" points="425.5,-92 366.5,-92 366.5,-73 425.5,-73 425.5,-92"/>
<text text-anchor="middle" x="396" y="-80" font-family="Helvetica,sans-Serif" font-size="10.00">mpScale</text>
</a>
</g>
</g>
<!-- Node3&#45;&gt;Node8 -->
<g id="edge8_Node000008_Node000003" class="edge">
<title>Node3&#45;&gt;Node8</title>
<g id="a_edge8_Node000008_Node000003"><a xlink:title=" ">
<path fill="none" stroke="#63b8ff" d="M386.74,-146.75C389.25,-129.64 392.84,-105.12 394.73,-92.21"/>
<polygon fill="#63b8ff" stroke="#63b8ff" points="383.27,-146.32 385.28,-156.72 390.2,-147.34 383.27,-146.32"/>
</a>
</g>
</g>
<!-- Node11 -->
<g id="Node000011" class="node">
<title>Node11</title>
<g id="a_Node000011"><a xlink:href="classmpInfoLayer.html" target="_top" xlink:title="Base class to create small rectangular info boxes mpInfoLayer is the base class to create a small rec...">
<polygon fill="white" stroke="#666666" points="139,-92 61,-92 61,-73 139,-73 139,-92"/>
<text text-anchor="middle" x="100" y="-80" font-family="Helvetica,sans-Serif" font-size="10.00">mpInfoLayer</text>
</a>
</g>
</g>
<!-- Node3&#45;&gt;Node11 -->
<g id="edge13_Node000011_Node000003" class="edge">
<title>Node3&#45;&gt;Node11</title>
<g id="a_edge13_Node000011_Node000003"><a xlink:title=" ">
<path fill="none" stroke="#63b8ff" d="M344.19,-166.24C301.21,-165.74 231.46,-161.07 176,-139 148.68,-128.13 122.2,-105.11 108.89,-92.4"/>
<polygon fill="#63b8ff" stroke="#63b8ff" points="344.24,-169.75 354.26,-166.29 344.27,-162.75 344.24,-169.75"/>
</a>
</g>
</g>
<!-- Node4 -->
<g id="Node000004" class="node">
<title>Node4</title>
<g id="a_Node000004"><a xlink:title=" ">
<polygon fill="white" stroke="#666666" points="597,-242 535,-242 535,-223 597,-223 597,-242"/>
<text text-anchor="middle" x="566" y="-230" font-family="Helvetica,sans-Serif" font-size="10.00">wxObject</text>
</a>
</g>
</g>
<!-- Node4&#45;&gt;Node3 -->
<g id="edge3_Node000003_Node000004" class="edge">
<title>Node4&#45;&gt;Node3</title>
<g id="a_edge3_Node000003_Node000004"><a xlink:title=" ">
<path fill="none" stroke="#63b8ff" d="M551.03,-215.71C542.87,-208.01 532.16,-199.3 521,-194 518.56,-192.84 453.28,-180.48 413.73,-173.06"/>
<polygon fill="#63b8ff" stroke="#63b8ff" points="548.71,-218.34 558.27,-222.9 553.65,-213.37 548.71,-218.34"/>
</a>
</g>
</g>
<!-- Node5 -->
<g id="Node000005" class="node">
<title>Node5</title>
<g id="a_Node000005"><a xlink:href="classmpWindow.html" target="_top" xlink:title=" ">
<polygon fill="white" stroke="#666666" points="220.5,-242 149.5,-242 149.5,-223 220.5,-223 220.5,-242"/>
<text text-anchor="middle" x="185" y="-230" font-family="Helvetica,sans-Serif" font-size="10.00">mpWindow</text>
</a>
</g>
</g>
<!-- Node5&#45;&gt;Node3 -->
<g id="edge4_Node000003_Node000005" class="edge">
<title>Node5&#45;&gt;Node3</title>
<g id="a_edge4_Node000003_Node000005"><a xlink:title=" ">
<path fill="none" stroke="#9a32cd" stroke-dasharray="5,2" d="M230.67,-224.43C254.16,-220.1 283.02,-213.7 308,-205 330.23,-197.25 354.36,-184.54 369.33,-176.1"/>
<polygon fill="#9a32cd" stroke="#9a32cd" points="229.86,-221.02 220.62,-226.21 231.08,-227.91 229.86,-221.02"/>
</a>
</g>
<text text-anchor="middle" x="351" y="-197" font-family="Helvetica,sans-Serif" font-size="10.00" fill="grey"> m_win</text>
</g>
<!-- Node6 -->
<g id="Node000006" class="node">
<title>Node6</title>
<g id="a_Node000006"><a xlink:title=" ">
<polygon fill="white" stroke="#666666" points="174,-341 104,-341 104,-322 174,-322 174,-341"/>
<text text-anchor="middle" x="139" y="-329" font-family="Helvetica,sans-Serif" font-size="10.00">wxWindow</text>
</a>
</g>
</g>
<!-- Node6&#45;&gt;Node5 -->
<g id="edge5_Node000005_Node000006" class="edge">
<title>Node6&#45;&gt;Node5</title>
<g id="a_edge5_Node000005_Node000006"><a xlink:title=" ">
<path fill="none" stroke="#63b8ff" d="M143.33,-311.95C147.21,-297.26 153.74,-276.54 163,-260 166.62,-253.53 171.9,-247.11 176.37,-242.21"/>
<polygon fill="#63b8ff" stroke="#63b8ff" points="139.89,-311.28 140.87,-321.83 146.68,-312.97 139.89,-311.28"/>
</a>
</g>
</g>
<!-- Node7 -->
<g id="Node000007" class="node">
<title>Node7</title>
<g id="a_Node000007"><a xlink:href="structmpAxisData.html" target="_top" xlink:title="Represents all the informations needed for plotting a layer in one direction (X or Y) This struct hol...">
<polygon fill="white" stroke="#666666" points="434.5,-19 357.5,-19 357.5,0 434.5,0 434.5,-19"/>
<text text-anchor="middle" x="396" y="-7" font-family="Helvetica,sans-Serif" font-size="10.00">mpAxisData</text>
</a>
</g>
</g>
<!-- Node7&#45;&gt;Node5 -->
<g id="edge6_Node000005_Node000007" class="edge">
<title>Node7&#45;&gt;Node5</title>
<g id="a_edge6_Node000005_Node000007"><a xlink:title=" ">
<path fill="none" stroke="#9a32cd" stroke-dasharray="5,2" d="M380.4,-26.83C338.57,-70.65 224.91,-189.7 193.27,-222.84"/>
<polygon fill="#9a32cd" stroke="#9a32cd" points="383.18,-28.99 387.56,-19.34 378.12,-24.16 383.18,-28.99"/>
</a>
</g>
<text text-anchor="middle" x="327" y="-125.5" font-family="Helvetica,sans-Serif" font-size="10.00" fill="grey"> m_AxisDataX</text>
</g>
<!-- Node8&#45;&gt;Node7 -->
<g id="edge7_Node000007_Node000008" class="edge">
<title>Node8&#45;&gt;Node7</title>
<g id="a_edge7_Node000007_Node000008"><a xlink:title=" ">
<path fill="none" stroke="#9a32cd" stroke-dasharray="5,2" d="M396,-62.73C396,-48.66 396,-30.06 396,-19.28"/>
<polygon fill="#9a32cd" stroke="#9a32cd" points="392.5,-62.79 396,-72.79 399.5,-62.79 392.5,-62.79"/>
</a>
</g>
<text text-anchor="middle" x="408" y="-40" font-family="Helvetica,sans-Serif" font-size="10.00" fill="grey"> axis</text>
</g>
<!-- Node9 -->
<g id="Node000009" class="node">
<title>Node9</title>
<g id="a_Node000009"><a xlink:href="structmpRange.html" target="_top" xlink:title=" ">
<polygon fill="white" stroke="#666666" points="557.5,-176 438.5,-176 438.5,-157 557.5,-157 557.5,-176"/>
<text text-anchor="middle" x="498" y="-164" font-family="Helvetica,sans-Serif" font-size="10.00">mpRange&lt; double &gt;</text>
</a>
</g>
</g>
<!-- Node9&#45;&gt;Node1 -->
<g id="edge21_Node000001_Node000009" class="edge">
<title>Node9&#45;&gt;Node1</title>
<g id="a_edge21_Node000001_Node000009"><a xlink:title=" ">
<path fill="none" stroke="#9a32cd" stroke-dasharray="5,2" d="M514.55,-150.14C525.96,-140.01 541.76,-126.83 557,-117 572.26,-107.16 590.83,-98.19 604.7,-92.02"/>
<polygon fill="#9a32cd" stroke="#9a32cd" points="512.15,-147.59 507.09,-156.89 516.85,-152.78 512.15,-147.59"/>
</a>
</g>
<text text-anchor="middle" x="584" y="-131" font-family="Helvetica,sans-Serif" font-size="10.00" fill="grey"> m_bbox_x</text>
<text text-anchor="middle" x="584" y="-120" font-family="Helvetica,sans-Serif" font-size="10.00" fill="grey">m_bbox_y</text>
</g>
<!-- Node9&#45;&gt;Node7 -->
<g id="edge10_Node000007_Node000009" class="edge">
<title>Node9&#45;&gt;Node7</title>
<g id="a_edge10_Node000007_Node000009"><a xlink:title=" ">
<path fill="none" stroke="#9a32cd" stroke-dasharray="5,2" d="M494.36,-147.12C492.1,-137.8 488.72,-126.47 484,-117 464.18,-77.22 453.58,-70.17 424,-37 418.39,-30.71 411.52,-24.19 405.99,-19.19"/>
<polygon fill="#9a32cd" stroke="#9a32cd" points="490.94,-147.9 496.5,-156.92 497.78,-146.4 490.94,-147.9"/>
</a>
</g>
<text text-anchor="middle" x="502" y="-91" font-family="Helvetica,sans-Serif" font-size="10.00" fill="grey"> bound</text>
<text text-anchor="middle" x="502" y="-80" font-family="Helvetica,sans-Serif" font-size="10.00" fill="grey">desired</text>
<text text-anchor="middle" x="502" y="-69" font-family="Helvetica,sans-Serif" font-size="10.00" fill="grey">lastDesired</text>
</g>
<!-- Node9&#45;&gt;Node8 -->
<g id="edge9_Node000008_Node000009" class="edge">
<title>Node9&#45;&gt;Node8</title>
<g id="a_edge9_Node000008_Node000009"><a xlink:title=" ">
<path fill="none" stroke="#9a32cd" stroke-dasharray="5,2" d="M435.15,-153.17C427.34,-149.58 420.01,-144.96 414,-139 401.2,-126.3 397.5,-104.43 396.43,-92.28"/>
<polygon fill="#9a32cd" stroke="#9a32cd" points="433.9,-156.43 444.49,-156.91 436.51,-149.94 433.9,-156.43"/>
</a>
</g>
<text text-anchor="middle" x="449" y="-125.5" font-family="Helvetica,sans-Serif" font-size="10.00" fill="grey"> m_axisRange</text>
</g>
<!-- Node10 -->
<g id="Node000010" class="node">
<title>Node10</title>
<g id="a_Node000010"><a xlink:href="structmpRect.html" target="_top" xlink:title="A rectangle structure in several (integer) flavors.">
<polygon fill="white" stroke="#666666" points="375,-341 321,-341 321,-322 375,-322 375,-341"/>
<text text-anchor="middle" x="348" y="-329" font-family="Helvetica,sans-Serif" font-size="10.00">mpRect</text>
</a>
</g>
</g>
<!-- Node10&#45;&gt;Node3 -->
<g id="edge20_Node000003_Node000010" class="edge">
<title>Node10&#45;&gt;Node3</title>
<g id="a_edge20_Node000003_Node000010"><a xlink:title=" ">
<path fill="none" stroke="#9a32cd" stroke-dasharray="5,2" d="M367.5,-314.94C370.49,-311.65 373.18,-307.96 375,-304 395.31,-259.75 388.86,-198.84 385.49,-176.33"/>
<polygon fill="#9a32cd" stroke="#9a32cd" points="365.09,-312.41 360.26,-321.84 369.92,-317.48 365.09,-312.41"/>
</a>
</g>
<text text-anchor="middle" x="435" y="-230" font-family="Helvetica,sans-Serif" font-size="10.00" fill="grey"> m_plotBoundaries</text>
</g>
<!-- Node10&#45;&gt;Node5 -->
<g id="edge11_Node000005_Node000010" class="edge">
<title>Node10&#45;&gt;Node5</title>
<g id="a_edge11_Node000005_Node000010"><a xlink:title=" ">
<path fill="none" stroke="#9a32cd" stroke-dasharray="5,2" d="M310.94,-327.35C291.64,-324.08 268.65,-317.44 252,-304 234.83,-290.14 244.12,-276.07 229,-260 222.03,-252.6 212.54,-246.53 204.16,-242.08"/>
<polygon fill="#9a32cd" stroke="#9a32cd" points="310.54,-330.83 320.94,-328.81 311.55,-323.9 310.54,-330.83"/>
</a>
</g>
<text text-anchor="middle" x="313.5" y="-296" font-family="Helvetica,sans-Serif" font-size="10.00" fill="grey"> m_margin</text>
<text text-anchor="middle" x="313.5" y="-285" font-family="Helvetica,sans-Serif" font-size="10.00" fill="grey">m_marginOuter</text>
<text text-anchor="middle" x="313.5" y="-274" font-family="Helvetica,sans-Serif" font-size="10.00" fill="grey">m_plotBoundaries</text>
<text text-anchor="middle" x="313.5" y="-263" font-family="Helvetica,sans-Serif" font-size="10.00" fill="grey">m_plotBoundariesMargin</text>
</g>
<!-- Node11&#45;&gt;Node5 -->
<g id="edge12_Node000005_Node000011" class="edge">
<title>Node11&#45;&gt;Node5</title>
<g id="a_edge12_Node000005_Node000011"><a xlink:title=" ">
<path fill="none" stroke="#9a32cd" stroke-dasharray="5,2" d="M90.05,-101.1C80.42,-120.7 69.15,-152.69 83,-176 97.63,-200.61 127.41,-214.99 151.03,-222.92"/>
<polygon fill="#9a32cd" stroke="#9a32cd" points="93.23,-102.57 94.79,-92.09 87.04,-99.31 93.23,-102.57"/>
</a>
</g>
<text text-anchor="middle" x="133.5" y="-164" font-family="Helvetica,sans-Serif" font-size="10.00" fill="grey"> m_movingInfoLayer</text>
</g>
<!-- Node12 -->
<g id="Node000012" class="node">
<title>Node12</title>
<g id="a_Node000012"><a xlink:href="classmpInfoCoords.html" target="_top" xlink:title="Implements an overlay box which shows the mouse coordinates in plot units. When mouse is moved over t...">
<polygon fill="white" stroke="#666666" points="228.5,-19 143.5,-19 143.5,0 228.5,0 228.5,-19"/>
<text text-anchor="middle" x="186" y="-7" font-family="Helvetica,sans-Serif" font-size="10.00">mpInfoCoords</text>
</a>
</g>
</g>
<!-- Node11&#45;&gt;Node12 -->
<g id="edge15_Node000012_Node000011" class="edge">
<title>Node11&#45;&gt;Node12</title>
<g id="a_edge15_Node000012_Node000011"><a xlink:title=" ">
<path fill="none" stroke="#63b8ff" d="M118.38,-66.33C135.84,-51.91 161.47,-30.75 175.64,-19.06"/>
<polygon fill="#63b8ff" stroke="#63b8ff" points="116.03,-63.73 110.55,-72.79 120.49,-69.13 116.03,-63.73"/>
</a>
</g>
</g>
<!-- Node11&#45;&gt;Node13 -->
<g id="edge17_Node000013_Node000011" class="edge">
<title>Node11&#45;&gt;Node13</title>
<g id="a_edge17_Node000013_Node000011"><a xlink:title=" ">
<path fill="none" stroke="#63b8ff" d="M84.87,-99.97C80.82,-105.11 76.79,-111.02 74,-117 46.49,-175.93 49.93,-195.34 43,-260 40.63,-282.15 41.63,-308.44 42.41,-321.79"/>
<polygon fill="#63b8ff" stroke="#63b8ff" points="87.71,-102.04 91.51,-92.15 82.37,-97.51 87.71,-102.04"/>
</a>
</g>
</g>
<!-- Node12&#45;&gt;Node5 -->
<g id="edge14_Node000005_Node000012" class="edge">
<title>Node12&#45;&gt;Node5</title>
<g id="a_edge14_Node000005_Node000012"><a xlink:title=" ">
<path fill="none" stroke="#9a32cd" stroke-dasharray="5,2" d="M185.91,-29.37C185.71,-75.07 185.19,-190.32 185.04,-222.84"/>
<polygon fill="#9a32cd" stroke="#9a32cd" points="189.41,-29.36 185.96,-19.34 182.41,-29.33 189.41,-29.36"/>
</a>
</g>
<text text-anchor="middle" x="220.5" y="-125.5" font-family="Helvetica,sans-Serif" font-size="10.00" fill="grey"> m_InfoCoords</text>
</g>
<!-- Node13&#45;&gt;Node5 -->
<g id="edge16_Node000005_Node000013" class="edge">
<title>Node13&#45;&gt;Node5</title>
<g id="a_edge16_Node000005_Node000013"><a xlink:title=" ">
<path fill="none" stroke="#9a32cd" stroke-dasharray="5,2" d="M44.75,-311.31C47.25,-295.29 53.31,-273.05 68,-260 90.19,-240.29 123.93,-234.31 149.48,-232.88"/>
<polygon fill="#9a32cd" stroke="#9a32cd" points="41.23,-311.3 43.49,-321.65 48.18,-312.15 41.23,-311.3"/>
</a>
</g>
<text text-anchor="middle" x="104.5" y="-279.5" font-family="Helvetica,sans-Serif" font-size="10.00" fill="grey"> m_InfoLegend</text>
</g>
<!-- Node14 -->
<g id="Node000014" class="node">
<title>Node14</title>
<g id="a_Node000014"><a xlink:href="classmpMagnet.html" target="_top" xlink:title=" ">
<polygon fill="white" stroke="#666666" points="261.5,-341 192.5,-341 192.5,-322 261.5,-322 261.5,-341"/>
<text text-anchor="middle" x="227" y="-329" font-family="Helvetica,sans-Serif" font-size="10.00">mpMagnet</text>
</a>
</g>
</g>
<!-- Node14&#45;&gt;Node5 -->
<g id="edge19_Node000005_Node000014" class="edge">
<title>Node14&#45;&gt;Node5</title>
<g id="a_edge19_Node000005_Node000014"><a xlink:title=" ">
<path fill="none" stroke="#9a32cd" stroke-dasharray="5,2" d="M186.61,-317.21C181.2,-313.75 176.37,-309.41 173,-304 160.79,-284.4 172.66,-256.07 180.06,-242.03"/>
<polygon fill="#9a32cd" stroke="#9a32cd" points="184.99,-320.31 195.45,-321.98 188.31,-314.15 184.99,-320.31"/>
</a>
</g>
<text text-anchor="middle" x="201" y="-279.5" font-family="Helvetica,sans-Serif" font-size="10.00" fill="grey"> m_magnet</text>
</g>
</g>
</svg>
