<?xml version="1.0" encoding="UTF-8" standalone="no"?>
<!DOCTYPE svg PUBLIC "-//W3C//DTD SVG 1.1//EN"
 "http://www.w3.org/Graphics/SVG/1.1/DTD/svg11.dtd">
<!-- Generated by graphviz version 2.43.0 (0)
 -->
<!-- Title: mpScale Pages: 1 -->
<!--zoomable 470 -->

<svg id="main" version="1.1" xmlns="http://www.w3.org/2000/svg" xmlns:xlink="http://www.w3.org/1999/xlink" xml:space="preserve" onload="init(evt)">
<style type="text/css"><![CDATA[
.node, .edge {opacity: 0.7;}
.node.selected, .edge.selected {opacity: 1;}
.edge:hover path { stroke: red; }
.edge:hover polygon { stroke: red; fill: red; }
]]></style>

<defs>
  <circle id="rim" cx="0" cy="0" r="7"/>
  <circle id="rim2" cx="0" cy="0" r="3.5"/>
  <g id="zoomPlus">
    <use xlink:href="#rim" fill="#404040"><set attributeName="fill" to="#808080" begin="zoomplus.mouseover" end="zoomplus.mouseout"/></use>
    <path d="M-4,0h8M0,-4v8" fill="none" stroke="white" stroke-width="1.5" pointer-events="none"/>
  </g>
  <g id="zoomMin">
    <use xlink:href="#rim" fill="#404040"><set attributeName="fill" to="#808080" begin="zoomminus.mouseover" end="zoomminus.mouseout"/></use>
    <path d="M-4,0h8" fill="none" stroke="white" stroke-width="1.5" pointer-events="none"/>
  </g>
  <g id="arrowUp" transform="translate(30 24)">
    <use xlink:href="#rim"/>
    <path pointer-events="none" fill="none" stroke="white" stroke-width="1.5" d="M0,-3.0v7 M-2.5,-0.5L0,-3.0L2.5,-0.5"/>
  </g>
  <g id="arrowRight" transform="rotate(90) translate(36 -43)">
    <use xlink:href="#rim"/>
    <path pointer-events="none" fill="none" stroke="white" stroke-width="1.5" d="M0,-3.0v7 M-2.5,-0.5L0,-3.0L2.5,-0.5"/>
  </g>
  <g id="arrowDown" transform="rotate(180) translate(-30 -48)">
    <use xlink:href="#rim"/>
    <path pointer-events="none" fill="none" stroke="white" stroke-width="1.5" d="M0,-3.0v7 M-2.5,-0.5L0,-3.0L2.5,-0.5"/>
  </g>
  <g id="arrowLeft" transform="rotate(270) translate(-36 17)">
    <use xlink:href="#rim"/>
    <path pointer-events="none" fill="none" stroke="white" stroke-width="1.5" d="M0,-3.0v7 M-2.5,-0.5L0,-3.0L2.5,-0.5"/>
  </g>
  <g id="resetDef">
    <use xlink:href="#rim2" fill="#404040"><set attributeName="fill" to="#808080" begin="reset.mouseover" end="reset.mouseout"/></use>
  </g>
</defs>
<script type="application/ecmascript">
var viewWidth = 495;
var viewHeight = 470;
var sectionId = 'dynsection-1';
</script>
<script type="application/ecmascript" xlink:href="svg.min.js"/>
<svg id="graph" class="graph">
<g id="viewport">
<title>mpScale</title>
<!-- Node1 -->
<g id="Node000001" class="node">
<title>Node1</title>
<g id="a_Node000001"><a xlink:title=" ">
<polygon fill="#999999" stroke="#666666" points="323.34,-389 264.34,-389 264.34,-370 323.34,-370 323.34,-389"/>
<text text-anchor="middle" x="293.84" y="-377" font-family="Helvetica,sans-Serif" font-size="10.00">mpScale</text>
</a>
</g>
</g>
<!-- Node6 -->
<g id="Node000006" class="node">
<title>Node6</title>
<g id="a_Node000006"><a xlink:href="structmpAxisData.html" target="_top" xlink:title="Represents all the informations needed for plotting a layer in one direction (X or Y) This struct hol...">
<polygon fill="white" stroke="#666666" points="417.34,-316 340.34,-316 340.34,-297 417.34,-297 417.34,-316"/>
<text text-anchor="middle" x="378.84" y="-304" font-family="Helvetica,sans-Serif" font-size="10.00">mpAxisData</text>
</a>
</g>
</g>
<!-- Node1&#45;&gt;Node6 -->
<g id="edge6_Node000006_Node000001" class="edge">
<title>Node1&#45;&gt;Node6</title>
<g id="a_edge6_Node000006_Node000001"><a xlink:title=" ">
<path fill="none" stroke="#9a32cd" stroke-dasharray="5,2" d="M309.21,-362.82C318.15,-354.01 329.78,-343 340.84,-334 348.69,-327.6 358.02,-321.08 365.47,-316.11"/>
<polygon fill="#9a32cd" stroke="#9a32cd" points="306.74,-360.35 302.15,-369.9 311.69,-365.3 306.74,-360.35"/>
</a>
</g>
<text text-anchor="middle" x="352.84" y="-337" font-family="Helvetica,sans-Serif" font-size="10.00" fill="grey"> axis</text>
</g>
<!-- Node2 -->
<g id="Node000002" class="node">
<title>Node2</title>
<g id="a_Node000002"><a xlink:href="classmpLayer.html" target="_top" xlink:title=" ">
<polygon fill="white" stroke="#666666" points="166.34,-151 107.34,-151 107.34,-132 166.34,-132 166.34,-151"/>
<text text-anchor="middle" x="136.84" y="-139" font-family="Helvetica,sans-Serif" font-size="10.00">mpLayer</text>
</a>
</g>
</g>
<!-- Node2&#45;&gt;Node1 -->
<g id="edge1_Node000001_Node000002" class="edge">
<title>Node2&#45;&gt;Node1</title>
<g id="a_edge1_Node000001_Node000002"><a xlink:title=" ">
<path fill="none" stroke="#63b8ff" d="M97.31,-150.33C83.6,-154.35 68.71,-160.31 56.84,-169 2.65,-208.67 -20,-263.46 21.84,-316 51.87,-353.71 199.57,-370.56 263.85,-376.19"/>
<polygon fill="#63b8ff" stroke="#63b8ff" points="98.27,-153.7 107.02,-147.73 96.46,-146.93 98.27,-153.7"/>
</a>
</g>
</g>
<!-- Node9 -->
<g id="Node000009" class="node">
<title>Node9</title>
<g id="a_Node000009"><a xlink:href="classmpInfoLayer.html" target="_top" xlink:title="Base class to create small rectangular info boxes mpInfoLayer is the base class to create a small rec...">
<polygon fill="white" stroke="#666666" points="339.84,-85 261.84,-85 261.84,-66 339.84,-66 339.84,-85"/>
<text text-anchor="middle" x="300.84" y="-73" font-family="Helvetica,sans-Serif" font-size="10.00">mpInfoLayer</text>
</a>
</g>
</g>
<!-- Node2&#45;&gt;Node9 -->
<g id="edge10_Node000009_Node000002" class="edge">
<title>Node2&#45;&gt;Node9</title>
<g id="a_edge10_Node000009_Node000002"><a xlink:title=" ">
<path fill="none" stroke="#63b8ff" d="M157.92,-126.44C170.3,-118.68 186.49,-109.35 201.84,-103 220.91,-95.11 243.02,-88.93 261.51,-84.53"/>
<polygon fill="#63b8ff" stroke="#63b8ff" points="155.8,-123.65 149.28,-132 159.58,-129.54 155.8,-123.65"/>
</a>
</g>
</g>
<!-- Node12 -->
<g id="Node000012" class="node">
<title>Node12</title>
<g id="a_Node000012"><a xlink:href="classmpFunction.html" target="_top" xlink:title=" ">
<polygon fill="white" stroke="#666666" points="160.84,-85 86.84,-85 86.84,-66 160.84,-66 160.84,-85"/>
<text text-anchor="middle" x="123.84" y="-73" font-family="Helvetica,sans-Serif" font-size="10.00">mpFunction</text>
</a>
</g>
</g>
<!-- Node2&#45;&gt;Node12 -->
<g id="edge16_Node000012_Node000002" class="edge">
<title>Node2&#45;&gt;Node12</title>
<g id="a_edge16_Node000012_Node000002"><a xlink:title=" ">
<path fill="none" stroke="#63b8ff" d="M133.07,-121.95C130.63,-109.93 127.56,-94.82 125.64,-85.41"/>
<polygon fill="#63b8ff" stroke="#63b8ff" points="129.66,-122.77 135.08,-131.87 136.52,-121.37 129.66,-122.77"/>
</a>
</g>
</g>
<!-- Node3 -->
<g id="Node000003" class="node">
<title>Node3</title>
<g id="a_Node000003"><a xlink:title=" ">
<polygon fill="white" stroke="#666666" points="208.84,-217 146.84,-217 146.84,-198 208.84,-198 208.84,-217"/>
<text text-anchor="middle" x="177.84" y="-205" font-family="Helvetica,sans-Serif" font-size="10.00">wxObject</text>
</a>
</g>
</g>
<!-- Node3&#45;&gt;Node2 -->
<g id="edge2_Node000002_Node000003" class="edge">
<title>Node3&#45;&gt;Node2</title>
<g id="a_edge2_Node000002_Node000003"><a xlink:title=" ">
<path fill="none" stroke="#63b8ff" d="M161.74,-190.3C158.91,-187.03 156.14,-183.52 153.84,-180 147.8,-170.8 142.87,-159.1 139.9,-151.23"/>
<polygon fill="#63b8ff" stroke="#63b8ff" points="159.28,-192.8 168.64,-197.76 164.42,-188.04 159.28,-192.8"/>
</a>
</g>
</g>
<!-- Node4 -->
<g id="Node000004" class="node">
<title>Node4</title>
<g id="a_Node000004"><a xlink:href="classmpWindow.html" target="_top" xlink:title=" ">
<polygon fill="white" stroke="#666666" points="310.34,-217 239.34,-217 239.34,-198 310.34,-198 310.34,-217"/>
<text text-anchor="middle" x="274.84" y="-205" font-family="Helvetica,sans-Serif" font-size="10.00">mpWindow</text>
</a>
</g>
</g>
<!-- Node4&#45;&gt;Node2 -->
<g id="edge3_Node000002_Node000004" class="edge">
<title>Node4&#45;&gt;Node2</title>
<g id="a_edge3_Node000002_Node000004"><a xlink:title=" ">
<path fill="none" stroke="#9a32cd" stroke-dasharray="5,2" d="M228.91,-199.85C210.9,-195.89 190.57,-189.68 173.84,-180 161.17,-172.67 149.88,-159.86 143.2,-151.27"/>
<polygon fill="#9a32cd" stroke="#9a32cd" points="228.43,-203.32 238.93,-201.88 229.82,-196.46 228.43,-203.32"/>
</a>
</g>
<text text-anchor="middle" x="191.84" y="-172" font-family="Helvetica,sans-Serif" font-size="10.00" fill="grey"> m_win</text>
</g>
<!-- Node5 -->
<g id="Node000005" class="node">
<title>Node5</title>
<g id="a_Node000005"><a xlink:title=" ">
<polygon fill="white" stroke="#666666" points="321.84,-316 251.84,-316 251.84,-297 321.84,-297 321.84,-316"/>
<text text-anchor="middle" x="286.84" y="-304" font-family="Helvetica,sans-Serif" font-size="10.00">wxWindow</text>
</a>
</g>
</g>
<!-- Node5&#45;&gt;Node4 -->
<g id="edge4_Node000004_Node000005" class="edge">
<title>Node5&#45;&gt;Node4</title>
<g id="a_edge4_Node000004_Node000005"><a xlink:title=" ">
<path fill="none" stroke="#63b8ff" d="M284.51,-286.68C281.92,-265.74 277.84,-232.81 275.91,-217.23"/>
<polygon fill="#63b8ff" stroke="#63b8ff" points="281.07,-287.4 285.77,-296.89 288.02,-286.54 281.07,-287.4"/>
</a>
</g>
</g>
<!-- Node6&#45;&gt;Node4 -->
<g id="edge5_Node000004_Node000006" class="edge">
<title>Node6&#45;&gt;Node4</title>
<g id="a_edge5_Node000004_Node000006"><a xlink:title=" ">
<path fill="none" stroke="#9a32cd" stroke-dasharray="5,2" d="M362.27,-290.05C340.19,-269.45 301.83,-233.68 284.19,-217.23"/>
<polygon fill="#9a32cd" stroke="#9a32cd" points="359.91,-292.63 369.61,-296.89 364.68,-287.51 359.91,-292.63"/>
</a>
</g>
<text text-anchor="middle" x="383.84" y="-254.5" font-family="Helvetica,sans-Serif" font-size="10.00" fill="grey"> m_AxisDataX</text>
</g>
<!-- Node7 -->
<g id="Node000007" class="node">
<title>Node7</title>
<g id="a_Node000007"><a xlink:href="structmpRange.html" target="_top" xlink:title=" ">
<polygon fill="white" stroke="#666666" points="395.34,-462 276.34,-462 276.34,-443 395.34,-443 395.34,-462"/>
<text text-anchor="middle" x="335.84" y="-450" font-family="Helvetica,sans-Serif" font-size="10.00">mpRange&lt; double &gt;</text>
</a>
</g>
</g>
<!-- Node7&#45;&gt;Node1 -->
<g id="edge19_Node000001_Node000007" class="edge">
<title>Node7&#45;&gt;Node1</title>
<g id="a_edge19_Node000001_Node000007"><a xlink:title=" ">
<path fill="none" stroke="#9a32cd" stroke-dasharray="5,2" d="M306.17,-437.48C301.64,-434.04 297.57,-429.9 294.84,-425 288.65,-413.94 289.98,-398.79 291.73,-389.32"/>
<polygon fill="#9a32cd" stroke="#9a32cd" points="304.32,-440.46 314.62,-442.94 308.12,-434.58 304.32,-440.46"/>
</a>
</g>
<text text-anchor="middle" x="329.84" y="-417" font-family="Helvetica,sans-Serif" font-size="10.00" fill="grey"> m_axisRange</text>
</g>
<!-- Node7&#45;&gt;Node6 -->
<g id="edge7_Node000006_Node000007" class="edge">
<title>Node7&#45;&gt;Node6</title>
<g id="a_edge7_Node000006_Node000007"><a xlink:title=" ">
<path fill="none" stroke="#9a32cd" stroke-dasharray="5,2" d="M356.32,-436.32C359.66,-432.95 362.71,-429.14 364.84,-425 383.8,-388.09 381.55,-336.27 379.76,-316.05"/>
<polygon fill="#9a32cd" stroke="#9a32cd" points="354.01,-433.7 348.83,-442.94 358.64,-438.95 354.01,-433.7"/>
</a>
</g>
<text text-anchor="middle" x="407.84" y="-388" font-family="Helvetica,sans-Serif" font-size="10.00" fill="grey"> bound</text>
<text text-anchor="middle" x="407.84" y="-377" font-family="Helvetica,sans-Serif" font-size="10.00" fill="grey">desired</text>
<text text-anchor="middle" x="407.84" y="-366" font-family="Helvetica,sans-Serif" font-size="10.00" fill="grey">lastDesired</text>
</g>
<!-- Node8 -->
<g id="Node000008" class="node">
<title>Node8</title>
<g id="a_Node000008"><a xlink:href="structmpRect.html" target="_top" xlink:title="A rectangle structure in several (integer) flavors.">
<polygon fill="white" stroke="#666666" points="84.84,-316 30.84,-316 30.84,-297 84.84,-297 84.84,-316"/>
<text text-anchor="middle" x="57.84" y="-304" font-family="Helvetica,sans-Serif" font-size="10.00">mpRect</text>
</a>
</g>
</g>
<!-- Node8&#45;&gt;Node2 -->
<g id="edge18_Node000002_Node000008" class="edge">
<title>Node8&#45;&gt;Node2</title>
<g id="a_edge18_Node000002_Node000008"><a xlink:title=" ">
<path fill="none" stroke="#9a32cd" stroke-dasharray="5,2" d="M49.67,-287.39C40.85,-264.92 30.04,-226.13 45.84,-198 59.24,-174.12 87.56,-159.3 109.07,-151.05"/>
<polygon fill="#9a32cd" stroke="#9a32cd" points="46.49,-288.87 53.59,-296.73 52.95,-286.16 46.49,-288.87"/>
</a>
</g>
<text text-anchor="middle" x="91.84" y="-205" font-family="Helvetica,sans-Serif" font-size="10.00" fill="grey"> m_plotBoundaries</text>
</g>
<!-- Node8&#45;&gt;Node4 -->
<g id="edge8_Node000004_Node000008" class="edge">
<title>Node8&#45;&gt;Node4</title>
<g id="a_edge8_Node000004_Node000008"><a xlink:title=" ">
<path fill="none" stroke="#9a32cd" stroke-dasharray="5,2" d="M56.91,-286.14C57.28,-270.01 60.64,-247.7 74.84,-235 98.71,-213.65 186.11,-221.36 217.84,-217 224.77,-216.05 232.18,-214.98 239.28,-213.93"/>
<polygon fill="#9a32cd" stroke="#9a32cd" points="53.42,-286.61 57.06,-296.56 60.42,-286.51 53.42,-286.61"/>
</a>
</g>
<text text-anchor="middle" x="136.34" y="-271" font-family="Helvetica,sans-Serif" font-size="10.00" fill="grey"> m_margin</text>
<text text-anchor="middle" x="136.34" y="-260" font-family="Helvetica,sans-Serif" font-size="10.00" fill="grey">m_marginOuter</text>
<text text-anchor="middle" x="136.34" y="-249" font-family="Helvetica,sans-Serif" font-size="10.00" fill="grey">m_plotBoundaries</text>
<text text-anchor="middle" x="136.34" y="-238" font-family="Helvetica,sans-Serif" font-size="10.00" fill="grey">m_plotBoundariesMargin</text>
</g>
<!-- Node9&#45;&gt;Node4 -->
<g id="edge9_Node000004_Node000009" class="edge">
<title>Node9&#45;&gt;Node4</title>
<g id="a_edge9_Node000004_Node000009"><a xlink:title=" ">
<path fill="none" stroke="#9a32cd" stroke-dasharray="5,2" d="M299.92,-95.53C299.47,-101.47 298.81,-108.03 297.84,-114 292.72,-145.36 282.34,-181.71 277.47,-197.93"/>
<polygon fill="#9a32cd" stroke="#9a32cd" points="303.44,-95.38 300.54,-85.19 296.45,-94.96 303.44,-95.38"/>
</a>
</g>
<text text-anchor="middle" x="345.34" y="-139" font-family="Helvetica,sans-Serif" font-size="10.00" fill="grey"> m_movingInfoLayer</text>
</g>
<!-- Node10 -->
<g id="Node000010" class="node">
<title>Node10</title>
<g id="a_Node000010"><a xlink:href="classmpInfoCoords.html" target="_top" xlink:title="Implements an overlay box which shows the mouse coordinates in plot units. When mouse is moved over t...">
<polygon fill="white" stroke="#666666" points="448.34,-19 363.34,-19 363.34,0 448.34,0 448.34,-19"/>
<text text-anchor="middle" x="405.84" y="-7" font-family="Helvetica,sans-Serif" font-size="10.00">mpInfoCoords</text>
</a>
</g>
</g>
<!-- Node9&#45;&gt;Node10 -->
<g id="edge12_Node000010_Node000009" class="edge">
<title>Node9&#45;&gt;Node10</title>
<g id="a_edge12_Node000010_Node000009"><a xlink:title=" ">
<path fill="none" stroke="#63b8ff" d="M323.77,-60.52C344.42,-47.93 374.13,-29.82 391.56,-19.2"/>
<polygon fill="#63b8ff" stroke="#63b8ff" points="321.71,-57.68 315,-65.87 325.36,-63.65 321.71,-57.68"/>
</a>
</g>
</g>
<!-- Node11 -->
<g id="Node000011" class="node">
<title>Node11</title>
<g id="a_Node000011"><a xlink:href="classmpInfoLegend.html" target="_top" xlink:title="Implement the legend to be added to the plot This layer allows you to add a legend to describe the pl...">
<polygon fill="white" stroke="#666666" points="266.84,-19 180.84,-19 180.84,0 266.84,0 266.84,-19"/>
<text text-anchor="middle" x="223.84" y="-7" font-family="Helvetica,sans-Serif" font-size="10.00">mpInfoLegend</text>
</a>
</g>
</g>
<!-- Node9&#45;&gt;Node11 -->
<g id="edge14_Node000011_Node000009" class="edge">
<title>Node9&#45;&gt;Node11</title>
<g id="a_edge14_Node000011_Node000009"><a xlink:title=" ">
<path fill="none" stroke="#63b8ff" d="M282.4,-59.18C267.46,-46.76 246.91,-29.68 234.55,-19.41"/>
<polygon fill="#63b8ff" stroke="#63b8ff" points="280.52,-62.17 290.45,-65.87 285,-56.78 280.52,-62.17"/>
</a>
</g>
</g>
<!-- Node10&#45;&gt;Node4 -->
<g id="edge11_Node000004_Node000010" class="edge">
<title>Node10&#45;&gt;Node4</title>
<g id="a_edge11_Node000004_Node000010"><a xlink:title=" ">
<path fill="none" stroke="#9a32cd" stroke-dasharray="5,2" d="M410.72,-28.95C417.19,-57.76 425.07,-113.94 399.84,-151 379.66,-180.64 339.79,-194.62 310.49,-201.11"/>
<polygon fill="#9a32cd" stroke="#9a32cd" points="414.07,-27.92 408.3,-19.04 407.27,-29.58 414.07,-27.92"/>
</a>
</g>
<text text-anchor="middle" x="451.34" y="-106" font-family="Helvetica,sans-Serif" font-size="10.00" fill="grey"> m_InfoCoords</text>
</g>
<!-- Node11&#45;&gt;Node4 -->
<g id="edge13_Node000004_Node000011" class="edge">
<title>Node11&#45;&gt;Node4</title>
<g id="a_edge13_Node000004_Node000011"><a xlink:title=" ">
<path fill="none" stroke="#9a32cd" stroke-dasharray="5,2" d="M220.11,-29.12C216.63,-50.14 213.03,-85.16 220.84,-114 229.96,-147.75 254.81,-181.81 267.36,-197.53"/>
<polygon fill="#9a32cd" stroke="#9a32cd" points="223.6,-29.48 221.96,-19.01 216.71,-28.22 223.6,-29.48"/>
</a>
</g>
<text text-anchor="middle" x="257.34" y="-106" font-family="Helvetica,sans-Serif" font-size="10.00" fill="grey"> m_InfoLegend</text>
</g>
<!-- Node12&#45;&gt;Node11 -->
<g id="edge15_Node000011_Node000012" class="edge">
<title>Node12&#45;&gt;Node11</title>
<g id="a_edge15_Node000011_Node000012"><a xlink:title=" ">
<path fill="none" stroke="#9a32cd" stroke-dasharray="5,2" d="M116.85,-56.16C115.53,-49.53 115.67,-42.36 119.84,-37 127.5,-27.14 155.63,-20.34 180.71,-16.1"/>
<polygon fill="#9a32cd" stroke="#9a32cd" points="113.52,-57.23 119.73,-65.81 120.22,-55.23 113.52,-57.23"/>
</a>
</g>
<text text-anchor="middle" x="164.84" y="-40" font-family="Helvetica,sans-Serif" font-size="10.00" fill="grey"> m_selectedSeries</text>
</g>
<!-- Node13 -->
<g id="Node000013" class="node">
<title>Node13</title>
<g id="a_Node000013"><a xlink:href="classmpMagnet.html" target="_top" xlink:title=" ">
<polygon fill="white" stroke="#666666" points="233.34,-316 164.34,-316 164.34,-297 233.34,-297 233.34,-316"/>
<text text-anchor="middle" x="198.84" y="-304" font-family="Helvetica,sans-Serif" font-size="10.00">mpMagnet</text>
</a>
</g>
</g>
<!-- Node13&#45;&gt;Node4 -->
<g id="edge17_Node000004_Node000013" class="edge">
<title>Node13&#45;&gt;Node4</title>
<g id="a_edge17_Node000004_Node000013"><a xlink:title=" ">
<path fill="none" stroke="#9a32cd" stroke-dasharray="5,2" d="M199.95,-286.64C201.78,-271.17 206.53,-249.53 218.84,-235 225.72,-226.87 235.65,-221.07 245.25,-217.01"/>
<polygon fill="#9a32cd" stroke="#9a32cd" points="196.46,-286.35 199.07,-296.62 203.44,-286.97 196.46,-286.35"/>
</a>
</g>
<text text-anchor="middle" x="246.84" y="-254.5" font-family="Helvetica,sans-Serif" font-size="10.00" fill="grey"> m_magnet</text>
</g>
</g>
</svg>

<g id="navigator" transform="translate(0 0)" fill="#404254">
  <rect fill="#f2f5e9" fill-opacity="0.5" stroke="#606060" stroke-width=".5" x="0" y="0" width="60" height="60"/>
  <use id="zoomplus" xlink:href="#zoomPlus" x="17" y="9" onmousedown="handleZoom(evt,'in')"/>
  <use id="zoomminus" xlink:href="#zoomMin" x="42" y="9" onmousedown="handleZoom(evt,'out')"/>
  <use id="reset" xlink:href="#resetDef" x="30" y="36" onmousedown="handleReset()"/>
   <use id="arrowup" xlink:href="#arrowUp" x="0" y="0" onmousedown="handlePan(0,-1)"/>
  <use id="arrowright" xlink:href="#arrowRight" x="0" y="0" onmousedown="handlePan(1,0)"/>
  <use id="arrowdown" xlink:href="#arrowDown" x="0" y="0" onmousedown="handlePan(0,1)"/>
  <use id="arrowleft" xlink:href="#arrowLeft" x="0" y="0" onmousedown="handlePan(-1,0)"/>
</g>
<svg viewBox="0 0 15 15" width="100%" height="30px" preserveAspectRatio="xMaxYMin meet">
 <g id="arrow_out" transform="scale(0.3 0.3)">
  <a xlink:href="classmpScale__coll__graph_org.svg" target="_base">
   <rect id="button" ry="5" rx="5" y="6" x="6" height="38" width="38"
        fill="#f2f5e9" fill-opacity="0.5" stroke="#606060" stroke-width="1.0"/>
   <path id="arrow"
     d="M 11.500037,31.436501 C 11.940474,20.09759 22.043105,11.32322 32.158766,21.979434 L 37.068811,17.246167 C 37.068811,17.246167 37.088388,32 37.088388,32 L 22.160133,31.978069 C 22.160133,31.978069 26.997745,27.140456 26.997745,27.140456 C 18.528582,18.264221 13.291696,25.230495 11.500037,31.436501 z"
     style="fill:#404040;"/>
  </a>
 </g>
</svg>

<style type='text/css'>
<![CDATA[
[data-mouse-over-selected='false'] { opacity: 0.7; }
[data-mouse-over-selected='true']  { opacity: 1.0; }
]]>
</style>
<script type="application/ecmascript"><![CDATA[
document.addEventListener('DOMContentLoaded', (event) => {
  highlightEdges();
  highlightAdjacentNodes();
});
]]></script>
</svg>
