<?xml version="1.0" encoding="UTF-8" standalone="no"?>
<!DOCTYPE svg PUBLIC "-//W3C//DTD SVG 1.1//EN"
 "http://www.w3.org/Graphics/SVG/1.1/DTD/svg11.dtd">
<!-- Generated by graphviz version 2.43.0 (0)
 -->
<!-- Title: mpNormal Pages: 1 -->
<!--zoomable 404 -->

<svg id="main" version="1.1" xmlns="http://www.w3.org/2000/svg" xmlns:xlink="http://www.w3.org/1999/xlink" xml:space="preserve" onload="init(evt)">
<style type="text/css"><![CDATA[
.node, .edge {opacity: 0.7;}
.node.selected, .edge.selected {opacity: 1;}
.edge:hover path { stroke: red; }
.edge:hover polygon { stroke: red; fill: red; }
]]></style>

<defs>
  <circle id="rim" cx="0" cy="0" r="7"/>
  <circle id="rim2" cx="0" cy="0" r="3.5"/>
  <g id="zoomPlus">
    <use xlink:href="#rim" fill="#404040"><set attributeName="fill" to="#808080" begin="zoomplus.mouseover" end="zoomplus.mouseout"/></use>
    <path d="M-4,0h8M0,-4v8" fill="none" stroke="white" stroke-width="1.5" pointer-events="none"/>
  </g>
  <g id="zoomMin">
    <use xlink:href="#rim" fill="#404040"><set attributeName="fill" to="#808080" begin="zoomminus.mouseover" end="zoomminus.mouseout"/></use>
    <path d="M-4,0h8" fill="none" stroke="white" stroke-width="1.5" pointer-events="none"/>
  </g>
  <g id="arrowUp" transform="translate(30 24)">
    <use xlink:href="#rim"/>
    <path pointer-events="none" fill="none" stroke="white" stroke-width="1.5" d="M0,-3.0v7 M-2.5,-0.5L0,-3.0L2.5,-0.5"/>
  </g>
  <g id="arrowRight" transform="rotate(90) translate(36 -43)">
    <use xlink:href="#rim"/>
    <path pointer-events="none" fill="none" stroke="white" stroke-width="1.5" d="M0,-3.0v7 M-2.5,-0.5L0,-3.0L2.5,-0.5"/>
  </g>
  <g id="arrowDown" transform="rotate(180) translate(-30 -48)">
    <use xlink:href="#rim"/>
    <path pointer-events="none" fill="none" stroke="white" stroke-width="1.5" d="M0,-3.0v7 M-2.5,-0.5L0,-3.0L2.5,-0.5"/>
  </g>
  <g id="arrowLeft" transform="rotate(270) translate(-36 17)">
    <use xlink:href="#rim"/>
    <path pointer-events="none" fill="none" stroke="white" stroke-width="1.5" d="M0,-3.0v7 M-2.5,-0.5L0,-3.0L2.5,-0.5"/>
  </g>
  <g id="resetDef">
    <use xlink:href="#rim2" fill="#404040"><set attributeName="fill" to="#808080" begin="reset.mouseover" end="reset.mouseout"/></use>
  </g>
</defs>
<script type="application/ecmascript">
var viewWidth = 768;
var viewHeight = 404;
var sectionId = 'dynsection-1';
</script>
<script type="application/ecmascript" xlink:href="svg.min.js"/>
<svg id="graph" class="graph">
<g id="viewport">
<title>mpNormal</title>
<!-- Node1 -->
<g id="Node000001" class="node">
<title>Node1</title>
<g id="a_Node000001"><a xlink:title="Classic Normal distribution f(x) = exp(&#45;(ln(x)&#45;μ)²/2σ²)/(xσ.sqrt(2π))">
<polygon fill="#999999" stroke="#666666" points="752,-19 684,-19 684,0 752,0 752,-19"/>
<text text-anchor="middle" x="718" y="-7" font-family="Helvetica,sans-Serif" font-size="10.00">mpNormal</text>
</a>
</g>
</g>
<!-- Node2 -->
<g id="Node000002" class="node">
<title>Node2</title>
<g id="a_Node000002"><a xlink:href="classmp_f_x_generic.html" target="_top" xlink:title="Create a generic FX function Override the ComputeY() function with your function.">
<polygon fill="white" stroke="#666666" points="759.5,-92 676.5,-92 676.5,-73 759.5,-73 759.5,-92"/>
<text text-anchor="middle" x="718" y="-80" font-family="Helvetica,sans-Serif" font-size="10.00">mpFXGeneric</text>
</a>
</g>
</g>
<!-- Node2&#45;&gt;Node1 -->
<g id="edge1_Node000001_Node000002" class="edge">
<title>Node2&#45;&gt;Node1</title>
<g id="a_edge1_Node000001_Node000002"><a xlink:title=" ">
<path fill="none" stroke="#63b8ff" d="M718,-62.73C718,-48.66 718,-30.06 718,-19.28"/>
<polygon fill="#63b8ff" stroke="#63b8ff" points="714.5,-62.79 718,-72.79 721.5,-62.79 714.5,-62.79"/>
</a>
</g>
</g>
<!-- Node3 -->
<g id="Node000003" class="node">
<title>Node3</title>
<g id="a_Node000003"><a xlink:href="classmp_f_x.html" target="_top" xlink:title="Abstract base class providing plot and labeling functionality for functions F:X&#45;&gt;Y.">
<polygon fill="white" stroke="#666666" points="732.5,-280.5 687.5,-280.5 687.5,-261.5 732.5,-261.5 732.5,-280.5"/>
<text text-anchor="middle" x="710" y="-268.5" font-family="Helvetica,sans-Serif" font-size="10.00">mpFX</text>
</a>
</g>
</g>
<!-- Node3&#45;&gt;Node2 -->
<g id="edge2_Node000002_Node000003" class="edge">
<title>Node3&#45;&gt;Node2</title>
<g id="a_edge2_Node000002_Node000003"><a xlink:title=" ">
<path fill="none" stroke="#63b8ff" d="M712.25,-251.37C715.4,-224.27 720.97,-172.36 723,-128 723.22,-123.12 723.36,-121.88 723,-117 722.37,-108.56 720.87,-99.01 719.67,-92.28"/>
<polygon fill="#63b8ff" stroke="#63b8ff" points="708.77,-251.03 711.07,-261.37 715.72,-251.86 708.77,-251.03"/>
</a>
</g>
</g>
<!-- Node4 -->
<g id="Node000004" class="node">
<title>Node4</title>
<g id="a_Node000004"><a xlink:href="classmp_function.html" target="_top" xlink:title="Plot layer implementing an abstract function plot class.">
<polygon fill="white" stroke="#666666" points="639,-396 565,-396 565,-377 639,-377 639,-396"/>
<text text-anchor="middle" x="602" y="-384" font-family="Helvetica,sans-Serif" font-size="10.00">mpFunction</text>
</a>
</g>
</g>
<!-- Node4&#45;&gt;Node3 -->
<g id="edge3_Node000003_Node000004" class="edge">
<title>Node4&#45;&gt;Node3</title>
<g id="a_edge3_Node000003_Node000004"><a xlink:title=" ">
<path fill="none" stroke="#63b8ff" d="M617.13,-369.6C640.28,-345.27 683.72,-299.62 701.79,-280.63"/>
<polygon fill="#63b8ff" stroke="#63b8ff" points="614.48,-367.31 610.12,-376.97 619.55,-372.14 614.48,-367.31"/>
</a>
</g>
</g>
<!-- Node15 -->
<g id="Node000015" class="node">
<title>Node15</title>
<g id="a_Node000015"><a xlink:href="classmp_info_legend.html" target="_top" xlink:title="Implement the legend to be added to the plot This layer allows you to add a legend to describe the pl...">
<polygon fill="white" stroke="#666666" points="437,-330 351,-330 351,-311 437,-311 437,-330"/>
<text text-anchor="middle" x="394" y="-318" font-family="Helvetica,sans-Serif" font-size="10.00">mpInfoLegend</text>
</a>
</g>
</g>
<!-- Node4&#45;&gt;Node15 -->
<g id="edge20_Node000015_Node000004" class="edge">
<title>Node4&#45;&gt;Node15</title>
<g id="a_edge20_Node000015_Node000004"><a xlink:title=" ">
<path fill="none" stroke="#9a32cd" stroke-dasharray="5,2" d="M554.78,-374.49C536.89,-370.05 516.4,-364.65 498,-359 469.19,-350.16 436.6,-338.06 415.71,-330.02"/>
<polygon fill="#9a32cd" stroke="#9a32cd" points="554.15,-377.94 564.7,-376.92 555.81,-371.14 554.15,-377.94"/>
</a>
</g>
<text text-anchor="middle" x="543" y="-351" font-family="Helvetica,sans-Serif" font-size="10.00" fill="grey"> m_selectedSeries</text>
</g>
<!-- Node5 -->
<g id="Node000005" class="node">
<title>Node5</title>
<g id="a_Node000005"><a xlink:href="classmp_layer.html" target="_top" xlink:title="Plot layer, abstract base class.">
<polygon fill="white" stroke="#666666" points="523.5,-165 464.5,-165 464.5,-146 523.5,-146 523.5,-165"/>
<text text-anchor="middle" x="494" y="-153" font-family="Helvetica,sans-Serif" font-size="10.00">mpLayer</text>
</a>
</g>
</g>
<!-- Node5&#45;&gt;Node4 -->
<g id="edge4_Node000004_Node000005" class="edge">
<title>Node5&#45;&gt;Node4</title>
<g id="a_edge4_Node000004_Node000005"><a xlink:title=" ">
<path fill="none" stroke="#63b8ff" d="M529.64,-169.02C549.34,-177.87 572.32,-191.79 585,-212 619.1,-266.35 608.38,-349.67 603.69,-376.7"/>
<polygon fill="#63b8ff" stroke="#63b8ff" points="530.87,-165.73 520.3,-165.07 528.15,-172.18 530.87,-165.73"/>
</a>
</g>
</g>
<!-- Node10 -->
<g id="Node000010" class="node">
<title>Node10</title>
<g id="a_Node000010"><a xlink:href="classmp_scale.html" target="_top" xlink:title="Plot layer implementing an abstract scale ruler.">
<polygon fill="white" stroke="#666666" points="650.5,-92 591.5,-92 591.5,-73 650.5,-73 650.5,-92"/>
<text text-anchor="middle" x="621" y="-80" font-family="Helvetica,sans-Serif" font-size="10.00">mpScale</text>
</a>
</g>
</g>
<!-- Node5&#45;&gt;Node10 -->
<g id="edge10_Node000010_Node000005" class="edge">
<title>Node5&#45;&gt;Node10</title>
<g id="a_edge10_Node000010_Node000005"><a xlink:title=" ">
<path fill="none" stroke="#63b8ff" d="M518.37,-140.87C544.15,-126.46 584.02,-104.17 605.7,-92.06"/>
<polygon fill="#63b8ff" stroke="#63b8ff" points="516.59,-137.86 509.57,-145.79 520.01,-143.97 516.59,-137.86"/>
</a>
</g>
</g>
<!-- Node13 -->
<g id="Node000013" class="node">
<title>Node13</title>
<g id="a_Node000013"><a xlink:href="classmp_info_layer.html" target="_top" xlink:title="Base class to create small rectangular info boxes mpInfoLayer is the base class to create a small rec...">
<polygon fill="white" stroke="#666666" points="410,-92 332,-92 332,-73 410,-73 410,-92"/>
<text text-anchor="middle" x="371" y="-80" font-family="Helvetica,sans-Serif" font-size="10.00">mpInfoLayer</text>
</a>
</g>
</g>
<!-- Node5&#45;&gt;Node13 -->
<g id="edge15_Node000013_Node000005" class="edge">
<title>Node5&#45;&gt;Node13</title>
<g id="a_edge15_Node000013_Node000005"><a xlink:title=" ">
<path fill="none" stroke="#63b8ff" d="M478.06,-138.85C470.08,-131.57 460.01,-123.19 450,-117 433.14,-106.59 412.48,-97.95 396.51,-92.06"/>
<polygon fill="#63b8ff" stroke="#63b8ff" points="475.85,-141.57 485.52,-145.89 480.65,-136.48 475.85,-141.57"/>
</a>
</g>
</g>
<!-- Node6 -->
<g id="Node000006" class="node">
<title>Node6</title>
<g id="a_Node000006"><a xlink:title=" ">
<polygon fill="white" stroke="#bfbfbf" points="692,-231 630,-231 630,-212 692,-212 692,-231"/>
<text text-anchor="middle" x="661" y="-219" font-family="Helvetica,sans-Serif" font-size="10.00">wxObject</text>
</a>
</g>
</g>
<!-- Node6&#45;&gt;Node5 -->
<g id="edge5_Node000005_Node000006" class="edge">
<title>Node6&#45;&gt;Node5</title>
<g id="a_edge5_Node000005_Node000006"><a xlink:title=" ">
<path fill="none" stroke="#63b8ff" d="M645.98,-204.81C637.8,-197.14 627.1,-188.42 616,-183 582.08,-166.44 569.88,-173.02 533,-165 530.02,-164.35 526.91,-163.68 523.81,-163"/>
<polygon fill="#63b8ff" stroke="#63b8ff" points="643.66,-207.44 653.24,-211.97 648.58,-202.46 643.66,-207.44"/>
</a>
</g>
</g>
<!-- Node7 -->
<g id="Node000007" class="node">
<title>Node7</title>
<g id="a_Node000007"><a xlink:href="classmp_window.html" target="_top" xlink:title="Canvas for plotting mpLayer implementations.">
<polygon fill="white" stroke="#666666" points="247.5,-231 176.5,-231 176.5,-212 247.5,-212 247.5,-231"/>
<text text-anchor="middle" x="212" y="-219" font-family="Helvetica,sans-Serif" font-size="10.00">mpWindow</text>
</a>
</g>
</g>
<!-- Node7&#45;&gt;Node5 -->
<g id="edge6_Node000005_Node000007" class="edge">
<title>Node7&#45;&gt;Node5</title>
<g id="a_edge6_Node000005_Node000007"><a xlink:title=" ">
<path fill="none" stroke="#9a32cd" stroke-dasharray="5,2" d="M257.74,-210.12C315.94,-196.91 414.81,-174.47 464.15,-163.27"/>
<polygon fill="#9a32cd" stroke="#9a32cd" points="256.69,-206.77 247.72,-212.39 258.24,-213.59 256.69,-206.77"/>
</a>
</g>
<text text-anchor="middle" x="387" y="-186" font-family="Helvetica,sans-Serif" font-size="10.00" fill="grey"> m_win</text>
</g>
<!-- Node8 -->
<g id="Node000008" class="node">
<title>Node8</title>
<g id="a_Node000008"><a xlink:title=" ">
<polygon fill="white" stroke="#bfbfbf" points="70,-330 0,-330 0,-311 70,-311 70,-330"/>
<text text-anchor="middle" x="35" y="-318" font-family="Helvetica,sans-Serif" font-size="10.00">wxWindow</text>
</a>
</g>
</g>
<!-- Node8&#45;&gt;Node7 -->
<g id="edge7_Node000007_Node000008" class="edge">
<title>Node8&#45;&gt;Node7</title>
<g id="a_edge7_Node000007_Node000008"><a xlink:title=" ">
<path fill="none" stroke="#63b8ff" d="M48.76,-302.62C62.78,-286.52 85.98,-262.74 111,-249 131.18,-237.92 156.19,-231.31 176.28,-227.46"/>
<polygon fill="#63b8ff" stroke="#63b8ff" points="45.74,-300.77 41.96,-310.67 51.09,-305.29 45.74,-300.77"/>
</a>
</g>
</g>
<!-- Node9 -->
<g id="Node000009" class="node">
<title>Node9</title>
<g id="a_Node000009"><a xlink:href="structmp_axis_data.html" target="_top" xlink:title="Represents all the informations needed for plotting a layer in one direction (X or Y) This struct hol...">
<polygon fill="white" stroke="#666666" points="555.5,-19 478.5,-19 478.5,0 555.5,0 555.5,-19"/>
<text text-anchor="middle" x="517" y="-7" font-family="Helvetica,sans-Serif" font-size="10.00">mpAxisData</text>
</a>
</g>
</g>
<!-- Node9&#45;&gt;Node7 -->
<g id="edge8_Node000007_Node000009" class="edge">
<title>Node9&#45;&gt;Node7</title>
<g id="a_edge8_Node000007_Node000009"><a xlink:title=" ">
<path fill="none" stroke="#9a32cd" stroke-dasharray="5,2" d="M468.14,-14.71C405.73,-22.91 299.43,-46.94 246,-117 223.17,-146.93 215.29,-192.87 212.91,-211.84"/>
<polygon fill="#9a32cd" stroke="#9a32cd" points="468.64,-18.18 478.13,-13.48 467.78,-11.23 468.64,-18.18"/>
</a>
</g>
<text text-anchor="middle" x="281" y="-120" font-family="Helvetica,sans-Serif" font-size="10.00" fill="grey"> m_AxisDataX</text>
</g>
<!-- Node10&#45;&gt;Node9 -->
<g id="edge9_Node000009_Node000010" class="edge">
<title>Node10&#45;&gt;Node9</title>
<g id="a_edge9_Node000009_Node000010"><a xlink:title=" ">
<path fill="none" stroke="#9a32cd" stroke-dasharray="5,2" d="M599.92,-67.11C578.79,-52.69 546.97,-30.96 529.53,-19.06"/>
<polygon fill="#9a32cd" stroke="#9a32cd" points="598.02,-70.05 608.25,-72.79 601.96,-64.27 598.02,-70.05"/>
</a>
</g>
<text text-anchor="middle" x="581" y="-40" font-family="Helvetica,sans-Serif" font-size="10.00" fill="grey"> axis</text>
</g>
<!-- Node11 -->
<g id="Node000011" class="node">
<title>Node11</title>
<g id="a_Node000011"><a xlink:href="structmp_range.html" target="_top" xlink:title=" ">
<polygon fill="white" stroke="#666666" points="660.5,-165 541.5,-165 541.5,-146 660.5,-146 660.5,-165"/>
<text text-anchor="middle" x="601" y="-153" font-family="Helvetica,sans-Serif" font-size="10.00">mpRange&lt; double &gt;</text>
</a>
</g>
</g>
<!-- Node11&#45;&gt;Node2 -->
<g id="edge23_Node000002_Node000011" class="edge">
<title>Node11&#45;&gt;Node2</title>
<g id="a_edge23_Node000002_Node000011"><a xlink:title=" ">
<path fill="none" stroke="#9a32cd" stroke-dasharray="5,2" d="M627.33,-141.17C635.05,-137.1 643.44,-132.5 651,-128 670.68,-116.29 692.64,-101.32 705.89,-92.07"/>
<polygon fill="#9a32cd" stroke="#9a32cd" points="625.61,-138.12 618.36,-145.84 628.84,-144.33 625.61,-138.12"/>
</a>
</g>
<text text-anchor="middle" x="693" y="-120" font-family="Helvetica,sans-Serif" font-size="10.00" fill="grey"> m_rangeY</text>
</g>
<!-- Node11&#45;&gt;Node9 -->
<g id="edge12_Node000009_Node000011" class="edge">
<title>Node11&#45;&gt;Node9</title>
<g id="a_edge12_Node000009_Node000011"><a xlink:title=" ">
<path fill="none" stroke="#9a32cd" stroke-dasharray="5,2" d="M572.87,-140.84C556.65,-131.41 537.47,-117.29 527,-99 512.17,-73.1 514.02,-35.95 515.83,-19.24"/>
<polygon fill="#9a32cd" stroke="#9a32cd" points="571.53,-144.09 581.98,-145.84 574.9,-137.96 571.53,-144.09"/>
</a>
</g>
<text text-anchor="middle" x="555" y="-91" font-family="Helvetica,sans-Serif" font-size="10.00" fill="grey"> bound</text>
<text text-anchor="middle" x="555" y="-80" font-family="Helvetica,sans-Serif" font-size="10.00" fill="grey">desired</text>
<text text-anchor="middle" x="555" y="-69" font-family="Helvetica,sans-Serif" font-size="10.00" fill="grey">lastDesired</text>
</g>
<!-- Node11&#45;&gt;Node10 -->
<g id="edge11_Node000010_Node000011" class="edge">
<title>Node11&#45;&gt;Node10</title>
<g id="a_edge11_Node000010_Node000011"><a xlink:title=" ">
<path fill="none" stroke="#9a32cd" stroke-dasharray="5,2" d="M584.85,-137.99C580.47,-131.52 577.74,-123.99 581,-117 585.98,-106.33 596.22,-97.86 605.09,-92.1"/>
<polygon fill="#9a32cd" stroke="#9a32cd" points="582.38,-140.49 591.43,-145.99 587.79,-136.04 582.38,-140.49"/>
</a>
</g>
<text text-anchor="middle" x="616" y="-120" font-family="Helvetica,sans-Serif" font-size="10.00" fill="grey"> m_axisRange</text>
</g>
<!-- Node12 -->
<g id="Node000012" class="node">
<title>Node12</title>
<g id="a_Node000012"><a xlink:href="structmp_rect.html" target="_top" xlink:title="A rectangle structure in several (integer) flavors.">
<polygon fill="white" stroke="#666666" points="509,-330 455,-330 455,-311 509,-311 509,-330"/>
<text text-anchor="middle" x="482" y="-318" font-family="Helvetica,sans-Serif" font-size="10.00">mpRect</text>
</a>
</g>
</g>
<!-- Node12&#45;&gt;Node5 -->
<g id="edge22_Node000005_Node000012" class="edge">
<title>Node12&#45;&gt;Node5</title>
<g id="a_edge22_Node000005_Node000012"><a xlink:title=" ">
<path fill="none" stroke="#9a32cd" stroke-dasharray="5,2" d="M483.41,-300.37C486.01,-265.03 491.48,-190.79 493.35,-165.31"/>
<polygon fill="#9a32cd" stroke="#9a32cd" points="479.89,-300.51 482.65,-310.74 486.87,-301.02 479.89,-300.51"/>
</a>
</g>
<text text-anchor="middle" x="535" y="-219" font-family="Helvetica,sans-Serif" font-size="10.00" fill="grey"> m_plotBoundaries</text>
</g>
<!-- Node12&#45;&gt;Node7 -->
<g id="edge13_Node000007_Node000012" class="edge">
<title>Node12&#45;&gt;Node7</title>
<g id="a_edge13_Node000007_Node000012"><a xlink:title=" ">
<path fill="none" stroke="#9a32cd" stroke-dasharray="5,2" d="M445.03,-311C399.44,-302.66 384.74,-308.51 345,-293 311.12,-279.78 308.26,-265.8 276,-249 262.99,-242.22 247.84,-235.89 235.55,-231.11"/>
<polygon fill="#9a32cd" stroke="#9a32cd" points="444.42,-314.45 454.91,-312.93 445.77,-307.58 444.42,-314.45"/>
</a>
</g>
<text text-anchor="middle" x="406.5" y="-285" font-family="Helvetica,sans-Serif" font-size="10.00" fill="grey"> m_margin</text>
<text text-anchor="middle" x="406.5" y="-274" font-family="Helvetica,sans-Serif" font-size="10.00" fill="grey">m_marginOuter</text>
<text text-anchor="middle" x="406.5" y="-263" font-family="Helvetica,sans-Serif" font-size="10.00" fill="grey">m_plotBoundaries</text>
<text text-anchor="middle" x="406.5" y="-252" font-family="Helvetica,sans-Serif" font-size="10.00" fill="grey">m_plotBoundariesMargin</text>
</g>
<!-- Node13&#45;&gt;Node7 -->
<g id="edge14_Node000007_Node000013" class="edge">
<title>Node13&#45;&gt;Node7</title>
<g id="a_edge14_Node000007_Node000013"><a xlink:title=" ">
<path fill="none" stroke="#9a32cd" stroke-dasharray="5,2" d="M353.44,-98.63C320.02,-127.43 248.27,-189.25 221.95,-211.93"/>
<polygon fill="#9a32cd" stroke="#9a32cd" points="355.77,-101.25 361.06,-92.07 351.2,-95.94 355.77,-101.25"/>
</a>
</g>
<text text-anchor="middle" x="346.5" y="-153" font-family="Helvetica,sans-Serif" font-size="10.00" fill="grey"> m_movingInfoLayer</text>
</g>
<!-- Node14 -->
<g id="Node000014" class="node">
<title>Node14</title>
<g id="a_Node000014"><a xlink:href="classmp_info_coords.html" target="_top" xlink:title="Implements an overlay box which shows the mouse coordinates in plot units.">
<polygon fill="white" stroke="#666666" points="194.5,-19 109.5,-19 109.5,0 194.5,0 194.5,-19"/>
<text text-anchor="middle" x="152" y="-7" font-family="Helvetica,sans-Serif" font-size="10.00">mpInfoCoords</text>
</a>
</g>
</g>
<!-- Node13&#45;&gt;Node14 -->
<g id="edge17_Node000014_Node000013" class="edge">
<title>Node13&#45;&gt;Node14</title>
<g id="a_edge17_Node000014_Node000013"><a xlink:title=" ">
<path fill="none" stroke="#63b8ff" d="M334.87,-69.79C290.87,-55.52 217.62,-31.77 178.51,-19.09"/>
<polygon fill="#63b8ff" stroke="#63b8ff" points="333.99,-73.18 344.58,-72.94 336.15,-66.52 333.99,-73.18"/>
</a>
</g>
</g>
<!-- Node13&#45;&gt;Node15 -->
<g id="edge19_Node000015_Node000013" class="edge">
<title>Node13&#45;&gt;Node15</title>
<g id="a_edge19_Node000015_Node000013"><a xlink:title=" ">
<path fill="none" stroke="#63b8ff" d="M380.88,-101.21C387.38,-113.48 395.63,-130.34 401,-146 416.15,-190.2 417.46,-202.5 422,-249 423.9,-268.46 429.73,-275.04 422,-293 418.93,-300.13 412.89,-306.24 407.21,-310.79"/>
<polygon fill="#63b8ff" stroke="#63b8ff" points="383.8,-99.24 375.95,-92.13 377.64,-102.58 383.8,-99.24"/>
</a>
</g>
</g>
<!-- Node14&#45;&gt;Node7 -->
<g id="edge16_Node000007_Node000014" class="edge">
<title>Node14&#45;&gt;Node7</title>
<g id="a_edge16_Node000007_Node000014"><a xlink:title=" ">
<path fill="none" stroke="#9a32cd" stroke-dasharray="5,2" d="M142.66,-28.11C131.53,-51.55 115.99,-94.01 129,-128 143.35,-165.48 180.66,-197.33 200,-211.94"/>
<polygon fill="#9a32cd" stroke="#9a32cd" points="145.85,-29.55 147.2,-19.04 139.59,-26.41 145.85,-29.55"/>
</a>
</g>
<text text-anchor="middle" x="164.5" y="-120" font-family="Helvetica,sans-Serif" font-size="10.00" fill="grey"> m_InfoCoords</text>
</g>
<!-- Node15&#45;&gt;Node7 -->
<g id="edge18_Node000007_Node000015" class="edge">
<title>Node15&#45;&gt;Node7</title>
<g id="a_edge18_Node000007_Node000015"><a xlink:title=" ">
<path fill="none" stroke="#9a32cd" stroke-dasharray="5,2" d="M340.53,-319.63C290.37,-318.47 220.53,-313.14 203,-293 187.77,-275.51 199.76,-245.69 207.21,-231.08"/>
<polygon fill="#9a32cd" stroke="#9a32cd" points="340.53,-323.13 350.59,-319.81 340.65,-316.13 340.53,-323.13"/>
</a>
</g>
<text text-anchor="middle" x="239.5" y="-268.5" font-family="Helvetica,sans-Serif" font-size="10.00" fill="grey"> m_InfoLegend</text>
</g>
<!-- Node16 -->
<g id="Node000016" class="node">
<title>Node16</title>
<g id="a_Node000016"><a xlink:href="classmp_magnet.html" target="_top" xlink:title="Class for drawing mouse magnetization Draw an horizontal and a vertical line at the mouse position.">
<polygon fill="white" stroke="#666666" points="157.5,-330 88.5,-330 88.5,-311 157.5,-311 157.5,-330"/>
<text text-anchor="middle" x="123" y="-318" font-family="Helvetica,sans-Serif" font-size="10.00">mpMagnet</text>
</a>
</g>
</g>
<!-- Node16&#45;&gt;Node7 -->
<g id="edge21_Node000007_Node000016" class="edge">
<title>Node16&#45;&gt;Node7</title>
<g id="a_edge21_Node000007_Node000016"><a xlink:title=" ">
<path fill="none" stroke="#9a32cd" stroke-dasharray="5,2" d="M117.66,-300.69C114.49,-285.25 112.97,-263.63 124,-249 136.11,-232.95 157.61,-226.28 176.33,-223.64"/>
<polygon fill="#9a32cd" stroke="#9a32cd" points="114.33,-301.77 120.11,-310.65 121.12,-300.1 114.33,-301.77"/>
</a>
</g>
<text text-anchor="middle" x="152" y="-268.5" font-family="Helvetica,sans-Serif" font-size="10.00" fill="grey"> m_magnet</text>
</g>
</g>
</svg>

<g id="navigator" transform="translate(0 0)" fill="#404254">
  <rect fill="#f2f5e9" fill-opacity="0.5" stroke="#606060" stroke-width=".5" x="0" y="0" width="60" height="60"/>
  <use id="zoomplus" xlink:href="#zoomPlus" x="17" y="9" onmousedown="handleZoom(evt,'in')"/>
  <use id="zoomminus" xlink:href="#zoomMin" x="42" y="9" onmousedown="handleZoom(evt,'out')"/>
  <use id="reset" xlink:href="#resetDef" x="30" y="36" onmousedown="handleReset()"/>
   <use id="arrowup" xlink:href="#arrowUp" x="0" y="0" onmousedown="handlePan(0,-1)"/>
  <use id="arrowright" xlink:href="#arrowRight" x="0" y="0" onmousedown="handlePan(1,0)"/>
  <use id="arrowdown" xlink:href="#arrowDown" x="0" y="0" onmousedown="handlePan(0,1)"/>
  <use id="arrowleft" xlink:href="#arrowLeft" x="0" y="0" onmousedown="handlePan(-1,0)"/>
</g>
<svg viewBox="0 0 15 15" width="100%" height="30px" preserveAspectRatio="xMaxYMin meet">
 <g id="arrow_out" transform="scale(0.3 0.3)">
  <a xlink:href="classmp_normal__coll__graph_org.svg" target="_base">
   <rect id="button" ry="5" rx="5" y="6" x="6" height="38" width="38"
        fill="#f2f5e9" fill-opacity="0.5" stroke="#606060" stroke-width="1.0"/>
   <path id="arrow"
     d="M 11.500037,31.436501 C 11.940474,20.09759 22.043105,11.32322 32.158766,21.979434 L 37.068811,17.246167 C 37.068811,17.246167 37.088388,32 37.088388,32 L 22.160133,31.978069 C 22.160133,31.978069 26.997745,27.140456 26.997745,27.140456 C 18.528582,18.264221 13.291696,25.230495 11.500037,31.436501 z"
     style="fill:#404040;"/>
  </a>
 </g>
</svg>

<style type='text/css'>
<![CDATA[
[data-mouse-over-selected='false'] { opacity: 0.7; }
[data-mouse-over-selected='true']  { opacity: 1.0; }
]]>
</style>
<script type="application/ecmascript"><![CDATA[
document.addEventListener('DOMContentLoaded', (event) => {
  highlightEdges();
  highlightAdjacentNodes();
});
]]></script>
</svg>
