<?xml version="1.0" encoding="UTF-8" standalone="no"?>
<!DOCTYPE svg PUBLIC "-//W3C//DTD SVG 1.1//EN"
 "http://www.w3.org/Graphics/SVG/1.1/DTD/svg11.dtd">
<!-- Generated by graphviz version 2.43.0 (0)
 -->
<!-- Title: mpFX Pages: 1 -->
<svg width="604pt" height="404pt"
 viewBox="0.00 0.00 604.00 404.00" xmlns="http://www.w3.org/2000/svg" xmlns:xlink="http://www.w3.org/1999/xlink">
<g id="graph0" class="graph" transform="scale(1 1) rotate(0) translate(4 400)">
<title>mpFX</title>
<!-- Node1 -->
<g id="Node000001" class="node">
<title>Node1</title>
<g id="a_Node000001"><a xlink:title="Abstract base class providing plot and labeling functionality for functions F:X&#45;&gt;Y.">
<polygon fill="#999999" stroke="#666666" points="45,-330 0,-330 0,-311 45,-311 45,-330"/>
<text text-anchor="middle" x="22.5" y="-318" font-family="Helvetica,sans-Serif" font-size="10.00">mpFX</text>
</a>
</g>
</g>
<!-- Node2 -->
<g id="Node000002" class="node">
<title>Node2</title>
<g id="a_Node000002"><a xlink:href="classmp_function.html" target="_top" xlink:title="Plot layer implementing an abstract function plot class.">
<polygon fill="white" stroke="#666666" points="143.5,-396 69.5,-396 69.5,-377 143.5,-377 143.5,-396"/>
<text text-anchor="middle" x="106.5" y="-384" font-family="Helvetica,sans-Serif" font-size="10.00">mpFunction</text>
</a>
</g>
</g>
<!-- Node2&#45;&gt;Node1 -->
<g id="edge1_Node000001_Node000002" class="edge">
<title>Node2&#45;&gt;Node1</title>
<g id="a_edge1_Node000001_Node000002"><a xlink:title=" ">
<path fill="none" stroke="#63b8ff" d="M86.8,-370.49C70.35,-357.96 47.49,-340.54 33.92,-330.2"/>
<polygon fill="#63b8ff" stroke="#63b8ff" points="85.1,-373.59 95.17,-376.87 89.34,-368.02 85.1,-373.59"/>
</a>
</g>
</g>
<!-- Node13 -->
<g id="Node000013" class="node">
<title>Node13</title>
<g id="a_Node000013"><a xlink:href="classmp_info_legend.html" target="_top" xlink:title="Implement the legend to be added to the plot This layer allows you to add a legend to describe the pl...">
<polygon fill="white" stroke="#666666" points="149.5,-330 63.5,-330 63.5,-311 149.5,-311 149.5,-330"/>
<text text-anchor="middle" x="106.5" y="-318" font-family="Helvetica,sans-Serif" font-size="10.00">mpInfoLegend</text>
</a>
</g>
</g>
<!-- Node2&#45;&gt;Node13 -->
<g id="edge18_Node000013_Node000002" class="edge">
<title>Node2&#45;&gt;Node13</title>
<g id="a_edge18_Node000013_Node000002"><a xlink:title=" ">
<path fill="none" stroke="#9a32cd" stroke-dasharray="5,2" d="M106.5,-366.58C106.5,-354.63 106.5,-339.72 106.5,-330.41"/>
<polygon fill="#9a32cd" stroke="#9a32cd" points="103,-366.87 106.5,-376.87 110,-366.87 103,-366.87"/>
</a>
</g>
<text text-anchor="middle" x="151.5" y="-351" font-family="Helvetica,sans-Serif" font-size="10.00" fill="grey"> m_selectedSeries</text>
</g>
<!-- Node3 -->
<g id="Node000003" class="node">
<title>Node3</title>
<g id="a_Node000003"><a xlink:href="classmp_layer.html" target="_top" xlink:title="Plot layer, abstract base class.">
<polygon fill="white" stroke="#666666" points="454,-165 395,-165 395,-146 454,-146 454,-165"/>
<text text-anchor="middle" x="424.5" y="-153" font-family="Helvetica,sans-Serif" font-size="10.00">mpLayer</text>
</a>
</g>
</g>
<!-- Node3&#45;&gt;Node2 -->
<g id="edge2_Node000002_Node000003" class="edge">
<title>Node3&#45;&gt;Node2</title>
<g id="a_edge2_Node000002_Node000003"><a xlink:title=" ">
<path fill="none" stroke="#63b8ff" d="M464.06,-165.46C488.68,-173.3 518.43,-187.42 533.5,-212 567.97,-268.23 501.44,-298.49 443.5,-330 392.19,-357.9 220.29,-375.73 143.77,-382.46"/>
<polygon fill="#63b8ff" stroke="#63b8ff" points="464.81,-162.03 454.23,-162.56 462.84,-168.75 464.81,-162.03"/>
</a>
</g>
</g>
<!-- Node8 -->
<g id="Node000008" class="node">
<title>Node8</title>
<g id="a_Node000008"><a xlink:href="classmp_scale.html" target="_top" xlink:title="Plot layer implementing an abstract scale ruler.">
<polygon fill="white" stroke="#666666" points="482,-92 423,-92 423,-73 482,-73 482,-92"/>
<text text-anchor="middle" x="452.5" y="-80" font-family="Helvetica,sans-Serif" font-size="10.00">mpScale</text>
</a>
</g>
</g>
<!-- Node3&#45;&gt;Node8 -->
<g id="edge8_Node000008_Node000003" class="edge">
<title>Node3&#45;&gt;Node8</title>
<g id="a_edge8_Node000008_Node000003"><a xlink:title=" ">
<path fill="none" stroke="#63b8ff" d="M431.74,-136.14C437.3,-122.03 444.74,-103.17 449.04,-92.28"/>
<polygon fill="#63b8ff" stroke="#63b8ff" points="428.35,-135.21 427.93,-145.79 434.86,-137.78 428.35,-135.21"/>
</a>
</g>
</g>
<!-- Node11 -->
<g id="Node000011" class="node">
<title>Node11</title>
<g id="a_Node000011"><a xlink:href="classmp_info_layer.html" target="_top" xlink:title="Base class to create small rectangular info boxes mpInfoLayer is the base class to create a small rec...">
<polygon fill="white" stroke="#666666" points="227.5,-92 149.5,-92 149.5,-73 227.5,-73 227.5,-92"/>
<text text-anchor="middle" x="188.5" y="-80" font-family="Helvetica,sans-Serif" font-size="10.00">mpInfoLayer</text>
</a>
</g>
</g>
<!-- Node3&#45;&gt;Node11 -->
<g id="edge13_Node000011_Node000003" class="edge">
<title>Node3&#45;&gt;Node11</title>
<g id="a_edge13_Node000011_Node000003"><a xlink:title=" ">
<path fill="none" stroke="#63b8ff" d="M415.67,-136.61C411.2,-129.4 405.1,-121.69 397.5,-117 369.74,-99.87 280,-90.39 227.57,-86.19"/>
<polygon fill="#63b8ff" stroke="#63b8ff" points="412.84,-138.73 420.73,-145.81 418.97,-135.36 412.84,-138.73"/>
</a>
</g>
</g>
<!-- Node4 -->
<g id="Node000004" class="node">
<title>Node4</title>
<g id="a_Node000004"><a xlink:title=" ">
<polygon fill="white" stroke="#bfbfbf" points="408.5,-231 346.5,-231 346.5,-212 408.5,-212 408.5,-231"/>
<text text-anchor="middle" x="377.5" y="-219" font-family="Helvetica,sans-Serif" font-size="10.00">wxObject</text>
</a>
</g>
</g>
<!-- Node4&#45;&gt;Node3 -->
<g id="edge3_Node000003_Node000004" class="edge">
<title>Node4&#45;&gt;Node3</title>
<g id="a_edge3_Node000003_Node000004"><a xlink:title=" ">
<path fill="none" stroke="#63b8ff" d="M389.79,-203.77C398.8,-191.49 410.7,-175.3 417.96,-165.41"/>
<polygon fill="#63b8ff" stroke="#63b8ff" points="386.94,-201.74 383.84,-211.87 392.58,-205.88 386.94,-201.74"/>
</a>
</g>
</g>
<!-- Node5 -->
<g id="Node000005" class="node">
<title>Node5</title>
<g id="a_Node000005"><a xlink:href="classmp_window.html" target="_top" xlink:title="Canvas for plotting mpLayer implementations.">
<polygon fill="white" stroke="#666666" points="273,-231 202,-231 202,-212 273,-212 273,-231"/>
<text text-anchor="middle" x="237.5" y="-219" font-family="Helvetica,sans-Serif" font-size="10.00">mpWindow</text>
</a>
</g>
</g>
<!-- Node5&#45;&gt;Node3 -->
<g id="edge4_Node000003_Node000005" class="edge">
<title>Node5&#45;&gt;Node3</title>
<g id="a_edge4_Node000003_Node000005"><a xlink:title=" ">
<path fill="none" stroke="#9a32cd" stroke-dasharray="5,2" d="M283.23,-210.87C300.54,-206.58 320.22,-200.92 337.5,-194 346.92,-190.23 348.32,-187.32 357.5,-183 371.54,-176.4 387.69,-169.97 400.62,-165.1"/>
<polygon fill="#9a32cd" stroke="#9a32cd" points="282.26,-207.5 273.35,-213.23 283.89,-214.31 282.26,-207.5"/>
</a>
</g>
<text text-anchor="middle" x="375.5" y="-186" font-family="Helvetica,sans-Serif" font-size="10.00" fill="grey"> m_win</text>
</g>
<!-- Node6 -->
<g id="Node000006" class="node">
<title>Node6</title>
<g id="a_Node000006"><a xlink:title=" ">
<polygon fill="white" stroke="#bfbfbf" points="325.5,-330 255.5,-330 255.5,-311 325.5,-311 325.5,-330"/>
<text text-anchor="middle" x="290.5" y="-318" font-family="Helvetica,sans-Serif" font-size="10.00">wxWindow</text>
</a>
</g>
</g>
<!-- Node6&#45;&gt;Node5 -->
<g id="edge5_Node000005_Node000006" class="edge">
<title>Node6&#45;&gt;Node5</title>
<g id="a_edge5_Node000005_Node000006"><a xlink:title=" ">
<path fill="none" stroke="#63b8ff" d="M284.16,-301.45C278.65,-286.78 269.91,-265.84 259.5,-249 255.6,-242.69 250.32,-236.28 245.91,-231.34"/>
<polygon fill="#63b8ff" stroke="#63b8ff" points="280.88,-302.67 287.59,-310.87 287.46,-300.28 280.88,-302.67"/>
</a>
</g>
</g>
<!-- Node7 -->
<g id="Node000007" class="node">
<title>Node7</title>
<g id="a_Node000007"><a xlink:href="structmp_axis_data.html" target="_top" xlink:title="Represents all the informations needed for plotting a layer in one direction (X or Y) This struct hol...">
<polygon fill="white" stroke="#666666" points="491,-19 414,-19 414,0 491,0 491,-19"/>
<text text-anchor="middle" x="452.5" y="-7" font-family="Helvetica,sans-Serif" font-size="10.00">mpAxisData</text>
</a>
</g>
</g>
<!-- Node7&#45;&gt;Node5 -->
<g id="edge6_Node000005_Node000007" class="edge">
<title>Node7&#45;&gt;Node5</title>
<g id="a_edge6_Node000005_Node000007"><a xlink:title=" ">
<path fill="none" stroke="#9a32cd" stroke-dasharray="5,2" d="M438.38,-26.89C408.43,-61.52 339.09,-140.92 312.5,-165 292.21,-183.37 266.02,-201.68 250.57,-211.99"/>
<polygon fill="#9a32cd" stroke="#9a32cd" points="441.21,-28.97 445.1,-19.11 435.91,-24.39 441.21,-28.97"/>
</a>
</g>
<text text-anchor="middle" x="392.5" y="-120" font-family="Helvetica,sans-Serif" font-size="10.00" fill="grey"> m_AxisDataX</text>
</g>
<!-- Node8&#45;&gt;Node7 -->
<g id="edge7_Node000007_Node000008" class="edge">
<title>Node8&#45;&gt;Node7</title>
<g id="a_edge7_Node000007_Node000008"><a xlink:title=" ">
<path fill="none" stroke="#9a32cd" stroke-dasharray="5,2" d="M452.5,-62.73C452.5,-48.66 452.5,-30.06 452.5,-19.28"/>
<polygon fill="#9a32cd" stroke="#9a32cd" points="449,-62.79 452.5,-72.79 456,-62.79 449,-62.79"/>
</a>
</g>
<text text-anchor="middle" x="464.5" y="-40" font-family="Helvetica,sans-Serif" font-size="10.00" fill="grey"> axis</text>
</g>
<!-- Node9 -->
<g id="Node000009" class="node">
<title>Node9</title>
<g id="a_Node000009"><a xlink:href="structmp_range.html" target="_top" xlink:title=" ">
<polygon fill="white" stroke="#666666" points="596,-165 477,-165 477,-146 596,-146 596,-165"/>
<text text-anchor="middle" x="536.5" y="-153" font-family="Helvetica,sans-Serif" font-size="10.00">mpRange&lt; double &gt;</text>
</a>
</g>
</g>
<!-- Node9&#45;&gt;Node7 -->
<g id="edge10_Node000007_Node000009" class="edge">
<title>Node9&#45;&gt;Node7</title>
<g id="a_edge10_Node000007_Node000009"><a xlink:title=" ">
<path fill="none" stroke="#9a32cd" stroke-dasharray="5,2" d="M541.56,-135.9C542.42,-129.76 542.49,-122.98 540.5,-117 526.01,-73.54 484.16,-35.65 463.84,-19.21"/>
<polygon fill="#9a32cd" stroke="#9a32cd" points="538.08,-135.43 539.42,-145.94 544.92,-136.89 538.08,-135.43"/>
</a>
</g>
<text text-anchor="middle" x="559.5" y="-91" font-family="Helvetica,sans-Serif" font-size="10.00" fill="grey"> bound</text>
<text text-anchor="middle" x="559.5" y="-80" font-family="Helvetica,sans-Serif" font-size="10.00" fill="grey">desired</text>
<text text-anchor="middle" x="559.5" y="-69" font-family="Helvetica,sans-Serif" font-size="10.00" fill="grey">lastDesired</text>
</g>
<!-- Node9&#45;&gt;Node8 -->
<g id="edge9_Node000008_Node000009" class="edge">
<title>Node9&#45;&gt;Node8</title>
<g id="a_edge9_Node000008_Node000009"><a xlink:title=" ">
<path fill="none" stroke="#9a32cd" stroke-dasharray="5,2" d="M490.97,-141.9C483.47,-138.32 476.28,-133.76 470.5,-128 460.59,-118.11 455.93,-102.04 453.9,-92.15"/>
<polygon fill="#9a32cd" stroke="#9a32cd" points="489.96,-145.28 500.53,-145.94 492.68,-138.83 489.96,-145.28"/>
</a>
</g>
<text text-anchor="middle" x="505.5" y="-120" font-family="Helvetica,sans-Serif" font-size="10.00" fill="grey"> m_axisRange</text>
</g>
<!-- Node10 -->
<g id="Node000010" class="node">
<title>Node10</title>
<g id="a_Node000010"><a xlink:href="structmp_rect.html" target="_top" xlink:title="A rectangle structure in several (integer) flavors.">
<polygon fill="white" stroke="#666666" points="434.5,-330 380.5,-330 380.5,-311 434.5,-311 434.5,-330"/>
<text text-anchor="middle" x="407.5" y="-318" font-family="Helvetica,sans-Serif" font-size="10.00">mpRect</text>
</a>
</g>
</g>
<!-- Node10&#45;&gt;Node3 -->
<g id="edge20_Node000003_Node000010" class="edge">
<title>Node10&#45;&gt;Node3</title>
<g id="a_edge20_Node000003_Node000010"><a xlink:title=" ">
<path fill="none" stroke="#9a32cd" stroke-dasharray="5,2" d="M424.63,-303.27C427.03,-300.11 429.14,-296.64 430.5,-293 447.51,-247.45 433.43,-187.32 427.15,-165.17"/>
<polygon fill="#9a32cd" stroke="#9a32cd" points="421.95,-301.01 417.91,-310.81 427.18,-305.67 421.95,-301.01"/>
</a>
</g>
<text text-anchor="middle" x="483.5" y="-219" font-family="Helvetica,sans-Serif" font-size="10.00" fill="grey"> m_plotBoundaries</text>
</g>
<!-- Node10&#45;&gt;Node5 -->
<g id="edge11_Node000005_Node000010" class="edge">
<title>Node10&#45;&gt;Node5</title>
<g id="a_edge11_Node000005_Node000010"><a xlink:title=" ">
<path fill="none" stroke="#9a32cd" stroke-dasharray="5,2" d="M370.12,-316.75C349.82,-313.61 325.31,-306.97 307.5,-293 289.97,-279.25 299.07,-264.93 283.5,-249 276.29,-241.62 266.58,-235.62 257.94,-231.21"/>
<polygon fill="#9a32cd" stroke="#9a32cd" points="369.92,-320.25 380.29,-318.09 370.83,-313.31 369.92,-320.25"/>
</a>
</g>
<text text-anchor="middle" x="369" y="-285" font-family="Helvetica,sans-Serif" font-size="10.00" fill="grey"> m_margin</text>
<text text-anchor="middle" x="369" y="-274" font-family="Helvetica,sans-Serif" font-size="10.00" fill="grey">m_marginOuter</text>
<text text-anchor="middle" x="369" y="-263" font-family="Helvetica,sans-Serif" font-size="10.00" fill="grey">m_plotBoundaries</text>
<text text-anchor="middle" x="369" y="-252" font-family="Helvetica,sans-Serif" font-size="10.00" fill="grey">m_plotBoundariesMargin</text>
</g>
<!-- Node11&#45;&gt;Node5 -->
<g id="edge12_Node000005_Node000011" class="edge">
<title>Node11&#45;&gt;Node5</title>
<g id="a_edge12_Node000005_Node000011"><a xlink:title=" ">
<path fill="none" stroke="#9a32cd" stroke-dasharray="5,2" d="M192.88,-102.31C196.99,-119.01 203.66,-143.96 211.5,-165 217.81,-181.95 227.21,-200.86 232.81,-211.66"/>
<polygon fill="#9a32cd" stroke="#9a32cd" points="196.2,-101.12 190.46,-92.21 189.39,-102.75 196.2,-101.12"/>
</a>
</g>
<text text-anchor="middle" x="262" y="-153" font-family="Helvetica,sans-Serif" font-size="10.00" fill="grey"> m_movingInfoLayer</text>
</g>
<!-- Node12 -->
<g id="Node000012" class="node">
<title>Node12</title>
<g id="a_Node000012"><a xlink:href="classmp_info_coords.html" target="_top" xlink:title="Implements an overlay box which shows the mouse coordinates in plot units.">
<polygon fill="white" stroke="#666666" points="173,-19 88,-19 88,0 173,0 173,-19"/>
<text text-anchor="middle" x="130.5" y="-7" font-family="Helvetica,sans-Serif" font-size="10.00">mpInfoCoords</text>
</a>
</g>
</g>
<!-- Node11&#45;&gt;Node12 -->
<g id="edge15_Node000012_Node000011" class="edge">
<title>Node11&#45;&gt;Node12</title>
<g id="a_edge15_Node000012_Node000011"><a xlink:title=" ">
<path fill="none" stroke="#63b8ff" d="M174.84,-64.78C163.2,-50.52 146.92,-30.6 137.67,-19.28"/>
<polygon fill="#63b8ff" stroke="#63b8ff" points="172.35,-67.26 181.39,-72.79 177.77,-62.84 172.35,-67.26"/>
</a>
</g>
</g>
<!-- Node11&#45;&gt;Node13 -->
<g id="edge17_Node000013_Node000011" class="edge">
<title>Node11&#45;&gt;Node13</title>
<g id="a_edge17_Node000013_Node000011"><a xlink:title=" ">
<path fill="none" stroke="#63b8ff" d="M139.2,-88.12C120.51,-92.55 100.98,-101 89.5,-117 45.08,-178.92 87.72,-280.51 102.13,-310.75"/>
<polygon fill="#63b8ff" stroke="#63b8ff" points="140.05,-91.52 149.15,-86.1 138.66,-84.66 140.05,-91.52"/>
</a>
</g>
</g>
<!-- Node12&#45;&gt;Node5 -->
<g id="edge14_Node000005_Node000012" class="edge">
<title>Node12&#45;&gt;Node5</title>
<g id="a_edge14_Node000005_Node000012"><a xlink:title=" ">
<path fill="none" stroke="#9a32cd" stroke-dasharray="5,2" d="M123.72,-28.59C115.89,-52.59 105.95,-95.71 121.5,-128 141.62,-169.77 190.79,-198.53 218.22,-211.93"/>
<polygon fill="#9a32cd" stroke="#9a32cd" points="127.08,-29.6 127.07,-19.01 120.47,-27.29 127.08,-29.6"/>
</a>
</g>
<text text-anchor="middle" x="157" y="-120" font-family="Helvetica,sans-Serif" font-size="10.00" fill="grey"> m_InfoCoords</text>
</g>
<!-- Node13&#45;&gt;Node5 -->
<g id="edge16_Node000005_Node000013" class="edge">
<title>Node13&#45;&gt;Node5</title>
<g id="a_edge16_Node000005_Node000013"><a xlink:title=" ">
<path fill="none" stroke="#9a32cd" stroke-dasharray="5,2" d="M104.69,-300.57C104.28,-284.72 106.45,-262.57 119.5,-249 130.75,-237.31 171.4,-230.08 201.86,-226.18"/>
<polygon fill="#9a32cd" stroke="#9a32cd" points="101.21,-301.03 105.33,-310.79 108.2,-300.59 101.21,-301.03"/>
</a>
</g>
<text text-anchor="middle" x="156" y="-268.5" font-family="Helvetica,sans-Serif" font-size="10.00" fill="grey"> m_InfoLegend</text>
</g>
<!-- Node14 -->
<g id="Node000014" class="node">
<title>Node14</title>
<g id="a_Node000014"><a xlink:href="classmp_magnet.html" target="_top" xlink:title="Class for drawing mouse magnetization Draw an horizontal and a vertical line at the mouse position.">
<polygon fill="white" stroke="#666666" points="237,-330 168,-330 168,-311 237,-311 237,-330"/>
<text text-anchor="middle" x="202.5" y="-318" font-family="Helvetica,sans-Serif" font-size="10.00">mpMagnet</text>
</a>
</g>
</g>
<!-- Node14&#45;&gt;Node5 -->
<g id="edge19_Node000005_Node000014" class="edge">
<title>Node14&#45;&gt;Node5</title>
<g id="a_edge19_Node000005_Node000014"><a xlink:title=" ">
<path fill="none" stroke="#9a32cd" stroke-dasharray="5,2" d="M198.52,-300.69C196.34,-285.86 195.51,-265.07 203.5,-249 207.23,-241.49 214.21,-235.48 220.87,-231.1"/>
<polygon fill="#9a32cd" stroke="#9a32cd" points="195.1,-301.47 200.31,-310.69 201.99,-300.23 195.1,-301.47"/>
</a>
</g>
<text text-anchor="middle" x="231.5" y="-268.5" font-family="Helvetica,sans-Serif" font-size="10.00" fill="grey"> m_magnet</text>
</g>
</g>
</svg>
