<?xml version="1.0" encoding="UTF-8" standalone="no"?>
<!DOCTYPE svg PUBLIC "-//W3C//DTD SVG 1.1//EN"
 "http://www.w3.org/Graphics/SVG/1.1/DTD/svg11.dtd">
<!-- Generated by graphviz version 2.43.0 (0)
 -->
<!-- Title: mpFXYVector Pages: 1 -->
<svg width="775pt" height="426pt"
 viewBox="0.00 0.00 775.00 426.00" xmlns="http://www.w3.org/2000/svg" xmlns:xlink="http://www.w3.org/1999/xlink">
<g id="graph0" class="graph" transform="scale(1 1) rotate(0) translate(4 422)">
<title>mpFXYVector</title>
<!-- Node1 -->
<g id="Node000001" class="node">
<title>Node1</title>
<g id="a_Node000001"><a xlink:title="A class providing graphs functionality for a 2D plot (either continuous or a set of points),...">
<polygon fill="#999999" stroke="#666666" points="671,-92 589,-92 589,-73 671,-73 671,-92"/>
<text text-anchor="middle" x="630" y="-80" font-family="Helvetica,sans-Serif" font-size="10.00">mpFXYVector</text>
</a>
</g>
</g>
<!-- Node2 -->
<g id="Node000002" class="node">
<title>Node2</title>
<g id="a_Node000002"><a xlink:href="classmp_f_x_y.html" target="_top" xlink:title="Abstract base class providing plot and labeling functionality for a locus plot F:N&#45;&gt;X,...">
<polygon fill="white" stroke="#666666" points="580.5,-341 529.5,-341 529.5,-322 580.5,-322 580.5,-341"/>
<text text-anchor="middle" x="555" y="-329" font-family="Helvetica,sans-Serif" font-size="10.00">mpFXY</text>
</a>
</g>
</g>
<!-- Node2&#45;&gt;Node1 -->
<g id="edge1_Node000001_Node000002" class="edge">
<title>Node2&#45;&gt;Node1</title>
<g id="a_edge1_Node000001_Node000002"><a xlink:title=" ">
<path fill="none" stroke="#63b8ff" d="M548.61,-312.25C536.05,-272.87 512.69,-178.49 553,-117 561.15,-104.56 575.03,-96.72 588.78,-91.78"/>
<polygon fill="#63b8ff" stroke="#63b8ff" points="545.32,-313.45 551.8,-321.83 551.96,-311.23 545.32,-313.45"/>
</a>
</g>
</g>
<!-- Node3 -->
<g id="Node000003" class="node">
<title>Node3</title>
<g id="a_Node000003"><a xlink:href="classmp_function.html" target="_top" xlink:title="Plot layer implementing an abstract function plot class.">
<polygon fill="white" stroke="#666666" points="522,-418 448,-418 448,-399 522,-399 522,-418"/>
<text text-anchor="middle" x="485" y="-406" font-family="Helvetica,sans-Serif" font-size="10.00">mpFunction</text>
</a>
</g>
</g>
<!-- Node3&#45;&gt;Node2 -->
<g id="edge2_Node000002_Node000003" class="edge">
<title>Node3&#45;&gt;Node2</title>
<g id="a_edge2_Node000002_Node000003"><a xlink:title=" ">
<path fill="none" stroke="#63b8ff" d="M503.38,-392.08C507.32,-388.55 511.39,-384.74 515,-381 527.74,-367.82 540.99,-351.05 548.59,-341.08"/>
<polygon fill="#63b8ff" stroke="#63b8ff" points="500.89,-389.61 495.64,-398.81 505.49,-394.89 500.89,-389.61"/>
</a>
</g>
</g>
<!-- Node14 -->
<g id="Node000014" class="node">
<title>Node14</title>
<g id="a_Node000014"><a xlink:href="classmp_info_legend.html" target="_top" xlink:title="Implement the legend to be added to the plot This layer allows you to add a legend to describe the pl...">
<polygon fill="white" stroke="#666666" points="86,-341 0,-341 0,-322 86,-322 86,-341"/>
<text text-anchor="middle" x="43" y="-329" font-family="Helvetica,sans-Serif" font-size="10.00">mpInfoLegend</text>
</a>
</g>
</g>
<!-- Node3&#45;&gt;Node14 -->
<g id="edge19_Node000014_Node000003" class="edge">
<title>Node3&#45;&gt;Node14</title>
<g id="a_edge19_Node000014_Node000003"><a xlink:title=" ">
<path fill="none" stroke="#9a32cd" stroke-dasharray="5,2" d="M437.65,-399.47C351.26,-384.81 169.34,-353.94 86.16,-339.82"/>
<polygon fill="#9a32cd" stroke="#9a32cd" points="437.25,-402.95 447.7,-401.17 438.42,-396.05 437.25,-402.95"/>
</a>
</g>
<text text-anchor="middle" x="362" y="-367.5" font-family="Helvetica,sans-Serif" font-size="10.00" fill="grey"> m_selectedSeries</text>
</g>
<!-- Node4 -->
<g id="Node000004" class="node">
<title>Node4</title>
<g id="a_Node000004"><a xlink:href="classmp_layer.html" target="_top" xlink:title="Plot layer, abstract base class.">
<polygon fill="white" stroke="#666666" points="404.5,-176 345.5,-176 345.5,-157 404.5,-157 404.5,-176"/>
<text text-anchor="middle" x="375" y="-164" font-family="Helvetica,sans-Serif" font-size="10.00">mpLayer</text>
</a>
</g>
</g>
<!-- Node4&#45;&gt;Node3 -->
<g id="edge3_Node000003_Node000004" class="edge">
<title>Node4&#45;&gt;Node3</title>
<g id="a_edge3_Node000003_Node000004"><a xlink:title=" ">
<path fill="none" stroke="#63b8ff" d="M414.4,-178.61C436.47,-187.02 462.24,-200.98 476,-223 512.37,-281.2 494.22,-371.02 487.29,-398.93"/>
<polygon fill="#63b8ff" stroke="#63b8ff" points="415.5,-175.28 404.9,-175.23 413.15,-181.88 415.5,-175.28"/>
</a>
</g>
</g>
<!-- Node9 -->
<g id="Node000009" class="node">
<title>Node9</title>
<g id="a_Node000009"><a xlink:href="classmp_scale.html" target="_top" xlink:title="Plot layer implementing an abstract scale ruler.">
<polygon fill="white" stroke="#666666" points="526.5,-92 467.5,-92 467.5,-73 526.5,-73 526.5,-92"/>
<text text-anchor="middle" x="497" y="-80" font-family="Helvetica,sans-Serif" font-size="10.00">mpScale</text>
</a>
</g>
</g>
<!-- Node4&#45;&gt;Node9 -->
<g id="edge9_Node000009_Node000004" class="edge">
<title>Node4&#45;&gt;Node9</title>
<g id="a_edge9_Node000009_Node000004"><a xlink:title=" ">
<path fill="none" stroke="#63b8ff" d="M396.61,-150.97C421.97,-133.93 463.19,-106.23 484.04,-92.21"/>
<polygon fill="#63b8ff" stroke="#63b8ff" points="394.4,-148.24 388.06,-156.72 398.31,-154.05 394.4,-148.24"/>
</a>
</g>
</g>
<!-- Node12 -->
<g id="Node000012" class="node">
<title>Node12</title>
<g id="a_Node000012"><a xlink:href="classmp_info_layer.html" target="_top" xlink:title="Base class to create small rectangular info boxes mpInfoLayer is the base class to create a small rec...">
<polygon fill="white" stroke="#666666" points="173,-92 95,-92 95,-73 173,-73 173,-92"/>
<text text-anchor="middle" x="134" y="-80" font-family="Helvetica,sans-Serif" font-size="10.00">mpInfoLayer</text>
</a>
</g>
</g>
<!-- Node4&#45;&gt;Node12 -->
<g id="edge14_Node000012_Node000004" class="edge">
<title>Node4&#45;&gt;Node12</title>
<g id="a_edge14_Node000012_Node000004"><a xlink:title=" ">
<path fill="none" stroke="#63b8ff" d="M368.57,-147.13C363.94,-136.63 356.61,-124.17 346,-117 318.52,-98.43 226.76,-89.49 173.4,-85.76"/>
<polygon fill="#63b8ff" stroke="#63b8ff" points="365.42,-148.67 372.33,-156.7 371.93,-146.11 365.42,-148.67"/>
</a>
</g>
</g>
<!-- Node5 -->
<g id="Node000005" class="node">
<title>Node5</title>
<g id="a_Node000005"><a xlink:title=" ">
<polygon fill="white" stroke="#bfbfbf" points="345,-242 283,-242 283,-223 345,-223 345,-242"/>
<text text-anchor="middle" x="314" y="-230" font-family="Helvetica,sans-Serif" font-size="10.00">wxObject</text>
</a>
</g>
</g>
<!-- Node5&#45;&gt;Node4 -->
<g id="edge4_Node000004_Node000005" class="edge">
<title>Node5&#45;&gt;Node4</title>
<g id="a_edge4_Node000004_Node000005"><a xlink:title=" ">
<path fill="none" stroke="#63b8ff" d="M331.12,-215.77C334.77,-212.28 338.56,-208.57 342,-205 351.27,-195.39 361.33,-183.77 367.87,-176.04"/>
<polygon fill="#63b8ff" stroke="#63b8ff" points="328.44,-213.48 323.54,-222.87 333.23,-218.59 328.44,-213.48"/>
</a>
</g>
</g>
<!-- Node6 -->
<g id="Node000006" class="node">
<title>Node6</title>
<g id="a_Node000006"><a xlink:href="classmp_window.html" target="_top" xlink:title="Canvas for plotting mpLayer implementations.">
<polygon fill="white" stroke="#666666" points="212.5,-242 141.5,-242 141.5,-223 212.5,-223 212.5,-242"/>
<text text-anchor="middle" x="177" y="-230" font-family="Helvetica,sans-Serif" font-size="10.00">mpWindow</text>
</a>
</g>
</g>
<!-- Node6&#45;&gt;Node4 -->
<g id="edge5_Node000004_Node000006" class="edge">
<title>Node6&#45;&gt;Node4</title>
<g id="a_edge5_Node000004_Node000006"><a xlink:title=" ">
<path fill="none" stroke="#9a32cd" stroke-dasharray="5,2" d="M222.58,-223.04C241.63,-218.76 263.78,-212.79 283,-205 292.04,-201.34 293.16,-198.13 302,-194 316.78,-187.1 333.9,-180.81 347.84,-176.08"/>
<polygon fill="#9a32cd" stroke="#9a32cd" points="221.67,-219.66 212.63,-225.19 223.15,-226.5 221.67,-219.66"/>
</a>
</g>
<text text-anchor="middle" x="320" y="-197" font-family="Helvetica,sans-Serif" font-size="10.00" fill="grey"> m_win</text>
</g>
<!-- Node7 -->
<g id="Node000007" class="node">
<title>Node7</title>
<g id="a_Node000007"><a xlink:title=" ">
<polygon fill="white" stroke="#bfbfbf" points="262,-341 192,-341 192,-322 262,-322 262,-341"/>
<text text-anchor="middle" x="227" y="-329" font-family="Helvetica,sans-Serif" font-size="10.00">wxWindow</text>
</a>
</g>
</g>
<!-- Node7&#45;&gt;Node6 -->
<g id="edge6_Node000006_Node000007" class="edge">
<title>Node7&#45;&gt;Node6</title>
<g id="a_edge6_Node000006_Node000007"><a xlink:title=" ">
<path fill="none" stroke="#63b8ff" d="M220.18,-312.22C214.47,-297.68 205.71,-277.03 196,-260 192.41,-253.71 187.66,-247.08 183.81,-242.03"/>
<polygon fill="#63b8ff" stroke="#63b8ff" points="217.07,-313.89 223.91,-321.98 223.61,-311.39 217.07,-313.89"/>
</a>
</g>
</g>
<!-- Node8 -->
<g id="Node000008" class="node">
<title>Node8</title>
<g id="a_Node000008"><a xlink:href="structmp_axis_data.html" target="_top" xlink:title="Represents all the informations needed for plotting a layer in one direction (X or Y) This struct hol...">
<polygon fill="white" stroke="#666666" points="535.5,-19 458.5,-19 458.5,0 535.5,0 535.5,-19"/>
<text text-anchor="middle" x="497" y="-7" font-family="Helvetica,sans-Serif" font-size="10.00">mpAxisData</text>
</a>
</g>
</g>
<!-- Node8&#45;&gt;Node6 -->
<g id="edge7_Node000006_Node000008" class="edge">
<title>Node8&#45;&gt;Node6</title>
<g id="a_edge7_Node000006_Node000008"><a xlink:title=" ">
<path fill="none" stroke="#9a32cd" stroke-dasharray="5,2" d="M475.53,-24.97C445.37,-45.34 388.79,-83.7 341,-117 303.86,-142.87 295.11,-150.1 258,-176 233.96,-192.78 205.66,-212.07 189.67,-222.92"/>
<polygon fill="#9a32cd" stroke="#9a32cd" points="477.67,-27.75 484,-19.25 473.75,-21.95 477.67,-27.75"/>
</a>
</g>
<text text-anchor="middle" x="376" y="-125.5" font-family="Helvetica,sans-Serif" font-size="10.00" fill="grey"> m_AxisDataX</text>
</g>
<!-- Node9&#45;&gt;Node8 -->
<g id="edge8_Node000008_Node000009" class="edge">
<title>Node9&#45;&gt;Node8</title>
<g id="a_edge8_Node000008_Node000009"><a xlink:title=" ">
<path fill="none" stroke="#9a32cd" stroke-dasharray="5,2" d="M497,-62.73C497,-48.66 497,-30.06 497,-19.28"/>
<polygon fill="#9a32cd" stroke="#9a32cd" points="493.5,-62.79 497,-72.79 500.5,-62.79 493.5,-62.79"/>
</a>
</g>
<text text-anchor="middle" x="509" y="-40" font-family="Helvetica,sans-Serif" font-size="10.00" fill="grey"> axis</text>
</g>
<!-- Node10 -->
<g id="Node000010" class="node">
<title>Node10</title>
<g id="a_Node000010"><a xlink:href="structmp_range.html" target="_top" xlink:title=" ">
<polygon fill="white" stroke="#666666" points="724.5,-176 605.5,-176 605.5,-157 724.5,-157 724.5,-176"/>
<text text-anchor="middle" x="665" y="-164" font-family="Helvetica,sans-Serif" font-size="10.00">mpRange&lt; double &gt;</text>
</a>
</g>
</g>
<!-- Node10&#45;&gt;Node1 -->
<g id="edge23_Node000001_Node000010" class="edge">
<title>Node10&#45;&gt;Node1</title>
<g id="a_edge23_Node000001_Node000010"><a xlink:title=" ">
<path fill="none" stroke="#9a32cd" stroke-dasharray="5,2" d="M657.2,-147.24C649.89,-130.11 639.28,-105.24 633.72,-92.21"/>
<polygon fill="#9a32cd" stroke="#9a32cd" points="654.11,-148.9 661.25,-156.72 660.55,-146.15 654.11,-148.9"/>
</a>
</g>
<text text-anchor="middle" x="679.5" y="-131" font-family="Helvetica,sans-Serif" font-size="10.00" fill="grey"> m_rangeX</text>
<text text-anchor="middle" x="679.5" y="-120" font-family="Helvetica,sans-Serif" font-size="10.00" fill="grey">m_rangeY</text>
</g>
<!-- Node10&#45;&gt;Node8 -->
<g id="edge11_Node000008_Node000010" class="edge">
<title>Node10&#45;&gt;Node8</title>
<g id="a_edge11_Node000008_Node000010"><a xlink:title=" ">
<path fill="none" stroke="#9a32cd" stroke-dasharray="5,2" d="M698.17,-151.6C702.9,-148.18 707.13,-144.02 710,-139 727.41,-108.55 707.56,-87.69 680,-66 637.74,-32.74 575.68,-19.35 535.81,-14"/>
<polygon fill="#9a32cd" stroke="#9a32cd" points="696.02,-148.81 689.28,-156.98 699.65,-154.8 696.02,-148.81"/>
</a>
</g>
<text text-anchor="middle" x="739" y="-91" font-family="Helvetica,sans-Serif" font-size="10.00" fill="grey"> bound</text>
<text text-anchor="middle" x="739" y="-80" font-family="Helvetica,sans-Serif" font-size="10.00" fill="grey">desired</text>
<text text-anchor="middle" x="739" y="-69" font-family="Helvetica,sans-Serif" font-size="10.00" fill="grey">lastDesired</text>
</g>
<!-- Node10&#45;&gt;Node9 -->
<g id="edge10_Node000009_Node000010" class="edge">
<title>Node10&#45;&gt;Node9</title>
<g id="a_edge10_Node000009_Node000010"><a xlink:title=" ">
<path fill="none" stroke="#9a32cd" stroke-dasharray="5,2" d="M612.25,-154.3C598.45,-150.39 583.84,-145.35 571,-139 545.38,-126.33 519.61,-104.45 506.29,-92.29"/>
<polygon fill="#9a32cd" stroke="#9a32cd" points="611.56,-157.74 622.13,-156.95 613.37,-150.98 611.56,-157.74"/>
</a>
</g>
<text text-anchor="middle" x="606" y="-125.5" font-family="Helvetica,sans-Serif" font-size="10.00" fill="grey"> m_axisRange</text>
</g>
<!-- Node11 -->
<g id="Node000011" class="node">
<title>Node11</title>
<g id="a_Node000011"><a xlink:href="structmp_rect.html" target="_top" xlink:title="A rectangle structure in several (integer) flavors.">
<polygon fill="white" stroke="#666666" points="371,-341 317,-341 317,-322 371,-322 371,-341"/>
<text text-anchor="middle" x="344" y="-329" font-family="Helvetica,sans-Serif" font-size="10.00">mpRect</text>
</a>
</g>
</g>
<!-- Node11&#45;&gt;Node4 -->
<g id="edge21_Node000004_Node000011" class="edge">
<title>Node11&#45;&gt;Node4</title>
<g id="a_edge21_Node000004_Node000011"><a xlink:title=" ">
<path fill="none" stroke="#9a32cd" stroke-dasharray="5,2" d="M360.95,-314.2C363.37,-311.05 365.54,-307.6 367,-304 385.35,-258.93 379.44,-198.51 376.36,-176.23"/>
<polygon fill="#9a32cd" stroke="#9a32cd" points="358.27,-311.94 354.24,-321.74 363.5,-316.6 358.27,-311.94"/>
</a>
</g>
<text text-anchor="middle" x="426" y="-230" font-family="Helvetica,sans-Serif" font-size="10.00" fill="grey"> m_plotBoundaries</text>
</g>
<!-- Node11&#45;&gt;Node6 -->
<g id="edge12_Node000006_Node000011" class="edge">
<title>Node11&#45;&gt;Node6</title>
<g id="a_edge12_Node000006_Node000011"><a xlink:title=" ">
<path fill="none" stroke="#9a32cd" stroke-dasharray="5,2" d="M306.52,-327.87C286.19,-324.77 261.68,-318.13 244,-304 226.76,-290.23 236.12,-276.07 221,-260 214.03,-252.6 204.54,-246.53 196.16,-242.08"/>
<polygon fill="#9a32cd" stroke="#9a32cd" points="306.35,-331.38 316.71,-329.19 307.24,-324.43 306.35,-331.38"/>
</a>
</g>
<text text-anchor="middle" x="305.5" y="-296" font-family="Helvetica,sans-Serif" font-size="10.00" fill="grey"> m_margin</text>
<text text-anchor="middle" x="305.5" y="-285" font-family="Helvetica,sans-Serif" font-size="10.00" fill="grey">m_marginOuter</text>
<text text-anchor="middle" x="305.5" y="-274" font-family="Helvetica,sans-Serif" font-size="10.00" fill="grey">m_plotBoundaries</text>
<text text-anchor="middle" x="305.5" y="-263" font-family="Helvetica,sans-Serif" font-size="10.00" fill="grey">m_plotBoundariesMargin</text>
</g>
<!-- Node12&#45;&gt;Node6 -->
<g id="edge13_Node000006_Node000012" class="edge">
<title>Node12&#45;&gt;Node6</title>
<g id="a_edge13_Node000006_Node000012"><a xlink:title=" ">
<path fill="none" stroke="#9a32cd" stroke-dasharray="5,2" d="M138.05,-102.17C142.27,-120.96 149.32,-150.7 157,-176 162.12,-192.86 169.39,-212.12 173.61,-222.94"/>
<polygon fill="#9a32cd" stroke="#9a32cd" points="141.44,-101.26 135.86,-92.25 134.6,-102.77 141.44,-101.26"/>
</a>
</g>
<text text-anchor="middle" x="207.5" y="-164" font-family="Helvetica,sans-Serif" font-size="10.00" fill="grey"> m_movingInfoLayer</text>
</g>
<!-- Node13 -->
<g id="Node000013" class="node">
<title>Node13</title>
<g id="a_Node000013"><a xlink:href="classmp_info_coords.html" target="_top" xlink:title="Implements an overlay box which shows the mouse coordinates in plot units.">
<polygon fill="white" stroke="#666666" points="118.5,-19 33.5,-19 33.5,0 118.5,0 118.5,-19"/>
<text text-anchor="middle" x="76" y="-7" font-family="Helvetica,sans-Serif" font-size="10.00">mpInfoCoords</text>
</a>
</g>
</g>
<!-- Node12&#45;&gt;Node13 -->
<g id="edge16_Node000013_Node000012" class="edge">
<title>Node12&#45;&gt;Node13</title>
<g id="a_edge16_Node000013_Node000012"><a xlink:title=" ">
<path fill="none" stroke="#63b8ff" d="M120.34,-64.78C108.7,-50.52 92.42,-30.6 83.17,-19.28"/>
<polygon fill="#63b8ff" stroke="#63b8ff" points="117.85,-67.26 126.89,-72.79 123.27,-62.84 117.85,-67.26"/>
</a>
</g>
</g>
<!-- Node12&#45;&gt;Node14 -->
<g id="edge18_Node000014_Node000012" class="edge">
<title>Node12&#45;&gt;Node14</title>
<g id="a_edge18_Node000014_Node000012"><a xlink:title=" ">
<path fill="none" stroke="#63b8ff" d="M84.7,-88.12C66.01,-92.55 46.48,-101 35,-117 -11.91,-182.4 26.45,-290.33 39.23,-321.7"/>
<polygon fill="#63b8ff" stroke="#63b8ff" points="85.55,-91.52 94.65,-86.1 84.16,-84.66 85.55,-91.52"/>
</a>
</g>
</g>
<!-- Node13&#45;&gt;Node6 -->
<g id="edge15_Node000006_Node000013" class="edge">
<title>Node13&#45;&gt;Node6</title>
<g id="a_edge15_Node000006_Node000013"><a xlink:title=" ">
<path fill="none" stroke="#9a32cd" stroke-dasharray="5,2" d="M69.39,-28.75C61.17,-54.62 50.15,-102.81 67,-139 86.06,-179.94 133.16,-209.23 159.12,-222.88"/>
<polygon fill="#9a32cd" stroke="#9a32cd" points="72.76,-29.73 72.65,-19.13 66.13,-27.48 72.76,-29.73"/>
</a>
</g>
<text text-anchor="middle" x="102.5" y="-125.5" font-family="Helvetica,sans-Serif" font-size="10.00" fill="grey"> m_InfoCoords</text>
</g>
<!-- Node14&#45;&gt;Node6 -->
<g id="edge17_Node000006_Node000014" class="edge">
<title>Node14&#45;&gt;Node6</title>
<g id="a_edge17_Node000006_Node000014"><a xlink:title=" ">
<path fill="none" stroke="#9a32cd" stroke-dasharray="5,2" d="M41.48,-311.53C41.31,-295.66 43.79,-273.49 57,-260 68.6,-248.15 110.39,-240.92 141.4,-237.06"/>
<polygon fill="#9a32cd" stroke="#9a32cd" points="38,-311.94 41.96,-321.77 44.99,-311.61 38,-311.94"/>
</a>
</g>
<text text-anchor="middle" x="93.5" y="-279.5" font-family="Helvetica,sans-Serif" font-size="10.00" fill="grey"> m_InfoLegend</text>
</g>
<!-- Node15 -->
<g id="Node000015" class="node">
<title>Node15</title>
<g id="a_Node000015"><a xlink:href="classmp_magnet.html" target="_top" xlink:title="Class for drawing mouse magnetization Draw an horizontal and a vertical line at the mouse position.">
<polygon fill="white" stroke="#666666" points="173.5,-341 104.5,-341 104.5,-322 173.5,-322 173.5,-341"/>
<text text-anchor="middle" x="139" y="-329" font-family="Helvetica,sans-Serif" font-size="10.00">mpMagnet</text>
</a>
</g>
</g>
<!-- Node15&#45;&gt;Node6 -->
<g id="edge20_Node000006_Node000015" class="edge">
<title>Node15&#45;&gt;Node6</title>
<g id="a_edge20_Node000006_Node000015"><a xlink:title=" ">
<path fill="none" stroke="#9a32cd" stroke-dasharray="5,2" d="M134.84,-311.6C132.57,-296.72 131.68,-275.91 140,-260 144.03,-252.3 151.42,-246.32 158.55,-242.01"/>
<polygon fill="#9a32cd" stroke="#9a32cd" points="131.44,-312.46 136.72,-321.64 138.32,-311.17 131.44,-312.46"/>
</a>
</g>
<text text-anchor="middle" x="168" y="-279.5" font-family="Helvetica,sans-Serif" font-size="10.00" fill="grey"> m_magnet</text>
</g>
<!-- Node16 -->
<g id="Node000016" class="node">
<title>Node16</title>
<g id="a_Node000016"><a xlink:href="structmp_range.html" target="_top" xlink:title=" ">
<polygon fill="white" stroke="#666666" points="638,-418 540,-418 540,-399 638,-399 638,-418"/>
<text text-anchor="middle" x="589" y="-406" font-family="Helvetica,sans-Serif" font-size="10.00">mpRange&lt; int &gt;</text>
</a>
</g>
</g>
<!-- Node16&#45;&gt;Node2 -->
<g id="edge22_Node000002_Node000016" class="edge">
<title>Node16&#45;&gt;Node2</title>
<g id="a_edge22_Node000002_Node000016"><a xlink:title=" ">
<path fill="none" stroke="#9a32cd" stroke-dasharray="5,2" d="M580.8,-389.42C573.84,-374.06 564.16,-352.7 558.85,-341"/>
<polygon fill="#9a32cd" stroke="#9a32cd" points="577.78,-391.23 585.1,-398.9 584.16,-388.34 577.78,-391.23"/>
</a>
</g>
<text text-anchor="middle" x="601.5" y="-373" font-family="Helvetica,sans-Serif" font-size="10.00" fill="grey"> m_drawX</text>
<text text-anchor="middle" x="601.5" y="-362" font-family="Helvetica,sans-Serif" font-size="10.00" fill="grey">m_drawY</text>
</g>
</g>
</svg>
