<?xml version="1.0" encoding="UTF-8" standalone="no"?>
<!DOCTYPE svg PUBLIC "-//W3C//DTD SVG 1.1//EN"
 "http://www.w3.org/Graphics/SVG/1.1/DTD/svg11.dtd">
<!-- Generated by graphviz version 2.43.0 (0)
 -->
<!-- Title: mpFY Pages: 1 -->
<svg width="603pt" height="404pt"
 viewBox="0.00 0.00 602.50 404.00" xmlns="http://www.w3.org/2000/svg" xmlns:xlink="http://www.w3.org/1999/xlink">
<g id="graph0" class="graph" transform="scale(1 1) rotate(0) translate(4 400)">
<title>mpFY</title>
<!-- Node1 -->
<g id="Node000001" class="node">
<title>Node1</title>
<g id="a_Node000001"><a xlink:title="Abstract base class providing plot and labeling functionality for functions F:Y&#45;&gt;X.">
<polygon fill="#999999" stroke="#666666" points="44,-330 0,-330 0,-311 44,-311 44,-330"/>
<text text-anchor="middle" x="22" y="-318" font-family="Helvetica,sans-Serif" font-size="10.00">mpFY</text>
</a>
</g>
</g>
<!-- Node2 -->
<g id="Node000002" class="node">
<title>Node2</title>
<g id="a_Node000002"><a xlink:href="classmp_function.html" target="_top" xlink:title="Plot layer implementing an abstract function plot class.">
<polygon fill="white" stroke="#666666" points="142,-396 68,-396 68,-377 142,-377 142,-396"/>
<text text-anchor="middle" x="105" y="-384" font-family="Helvetica,sans-Serif" font-size="10.00">mpFunction</text>
</a>
</g>
</g>
<!-- Node2&#45;&gt;Node1 -->
<g id="edge1_Node000001_Node000002" class="edge">
<title>Node2&#45;&gt;Node1</title>
<g id="a_edge1_Node000001_Node000002"><a xlink:title=" ">
<path fill="none" stroke="#63b8ff" d="M85.53,-370.49C69.28,-357.96 46.69,-340.54 33.28,-330.2"/>
<polygon fill="#63b8ff" stroke="#63b8ff" points="83.75,-373.53 93.81,-376.87 88.02,-367.99 83.75,-373.53"/>
</a>
</g>
</g>
<!-- Node13 -->
<g id="Node000013" class="node">
<title>Node13</title>
<g id="a_Node000013"><a xlink:href="classmp_info_legend.html" target="_top" xlink:title="Implement the legend to be added to the plot This layer allows you to add a legend to describe the pl...">
<polygon fill="white" stroke="#666666" points="148,-330 62,-330 62,-311 148,-311 148,-330"/>
<text text-anchor="middle" x="105" y="-318" font-family="Helvetica,sans-Serif" font-size="10.00">mpInfoLegend</text>
</a>
</g>
</g>
<!-- Node2&#45;&gt;Node13 -->
<g id="edge18_Node000013_Node000002" class="edge">
<title>Node2&#45;&gt;Node13</title>
<g id="a_edge18_Node000013_Node000002"><a xlink:title=" ">
<path fill="none" stroke="#9a32cd" stroke-dasharray="5,2" d="M105,-366.58C105,-354.63 105,-339.72 105,-330.41"/>
<polygon fill="#9a32cd" stroke="#9a32cd" points="101.5,-366.87 105,-376.87 108.5,-366.87 101.5,-366.87"/>
</a>
</g>
<text text-anchor="middle" x="150" y="-351" font-family="Helvetica,sans-Serif" font-size="10.00" fill="grey"> m_selectedSeries</text>
</g>
<!-- Node3 -->
<g id="Node000003" class="node">
<title>Node3</title>
<g id="a_Node000003"><a xlink:href="classmp_layer.html" target="_top" xlink:title="Plot layer, abstract base class.">
<polygon fill="white" stroke="#666666" points="452.5,-165 393.5,-165 393.5,-146 452.5,-146 452.5,-165"/>
<text text-anchor="middle" x="423" y="-153" font-family="Helvetica,sans-Serif" font-size="10.00">mpLayer</text>
</a>
</g>
</g>
<!-- Node3&#45;&gt;Node2 -->
<g id="edge2_Node000002_Node000003" class="edge">
<title>Node3&#45;&gt;Node2</title>
<g id="a_edge2_Node000002_Node000003"><a xlink:title=" ">
<path fill="none" stroke="#63b8ff" d="M462.56,-165.46C487.18,-173.3 516.93,-187.42 532,-212 566.47,-268.23 499.94,-298.49 442,-330 390.69,-357.9 218.79,-375.73 142.27,-382.46"/>
<polygon fill="#63b8ff" stroke="#63b8ff" points="463.31,-162.03 452.73,-162.56 461.34,-168.75 463.31,-162.03"/>
</a>
</g>
</g>
<!-- Node8 -->
<g id="Node000008" class="node">
<title>Node8</title>
<g id="a_Node000008"><a xlink:href="classmp_scale.html" target="_top" xlink:title="Plot layer implementing an abstract scale ruler.">
<polygon fill="white" stroke="#666666" points="480.5,-92 421.5,-92 421.5,-73 480.5,-73 480.5,-92"/>
<text text-anchor="middle" x="451" y="-80" font-family="Helvetica,sans-Serif" font-size="10.00">mpScale</text>
</a>
</g>
</g>
<!-- Node3&#45;&gt;Node8 -->
<g id="edge8_Node000008_Node000003" class="edge">
<title>Node3&#45;&gt;Node8</title>
<g id="a_edge8_Node000008_Node000003"><a xlink:title=" ">
<path fill="none" stroke="#63b8ff" d="M430.24,-136.14C435.8,-122.03 443.24,-103.17 447.54,-92.28"/>
<polygon fill="#63b8ff" stroke="#63b8ff" points="426.85,-135.21 426.43,-145.79 433.36,-137.78 426.85,-135.21"/>
</a>
</g>
</g>
<!-- Node11 -->
<g id="Node000011" class="node">
<title>Node11</title>
<g id="a_Node000011"><a xlink:href="classmp_info_layer.html" target="_top" xlink:title="Base class to create small rectangular info boxes mpInfoLayer is the base class to create a small rec...">
<polygon fill="white" stroke="#666666" points="226,-92 148,-92 148,-73 226,-73 226,-92"/>
<text text-anchor="middle" x="187" y="-80" font-family="Helvetica,sans-Serif" font-size="10.00">mpInfoLayer</text>
</a>
</g>
</g>
<!-- Node3&#45;&gt;Node11 -->
<g id="edge13_Node000011_Node000003" class="edge">
<title>Node3&#45;&gt;Node11</title>
<g id="a_edge13_Node000011_Node000003"><a xlink:title=" ">
<path fill="none" stroke="#63b8ff" d="M414.17,-136.61C409.7,-129.4 403.6,-121.69 396,-117 368.24,-99.87 278.5,-90.39 226.07,-86.19"/>
<polygon fill="#63b8ff" stroke="#63b8ff" points="411.34,-138.73 419.23,-145.81 417.47,-135.36 411.34,-138.73"/>
</a>
</g>
</g>
<!-- Node4 -->
<g id="Node000004" class="node">
<title>Node4</title>
<g id="a_Node000004"><a xlink:title=" ">
<polygon fill="white" stroke="#bfbfbf" points="407,-231 345,-231 345,-212 407,-212 407,-231"/>
<text text-anchor="middle" x="376" y="-219" font-family="Helvetica,sans-Serif" font-size="10.00">wxObject</text>
</a>
</g>
</g>
<!-- Node4&#45;&gt;Node3 -->
<g id="edge3_Node000003_Node000004" class="edge">
<title>Node4&#45;&gt;Node3</title>
<g id="a_edge3_Node000003_Node000004"><a xlink:title=" ">
<path fill="none" stroke="#63b8ff" d="M388.29,-203.77C397.3,-191.49 409.2,-175.3 416.46,-165.41"/>
<polygon fill="#63b8ff" stroke="#63b8ff" points="385.44,-201.74 382.34,-211.87 391.08,-205.88 385.44,-201.74"/>
</a>
</g>
</g>
<!-- Node5 -->
<g id="Node000005" class="node">
<title>Node5</title>
<g id="a_Node000005"><a xlink:href="classmp_window.html" target="_top" xlink:title="Canvas for plotting mpLayer implementations.">
<polygon fill="white" stroke="#666666" points="271.5,-231 200.5,-231 200.5,-212 271.5,-212 271.5,-231"/>
<text text-anchor="middle" x="236" y="-219" font-family="Helvetica,sans-Serif" font-size="10.00">mpWindow</text>
</a>
</g>
</g>
<!-- Node5&#45;&gt;Node3 -->
<g id="edge4_Node000003_Node000005" class="edge">
<title>Node5&#45;&gt;Node3</title>
<g id="a_edge4_Node000003_Node000005"><a xlink:title=" ">
<path fill="none" stroke="#9a32cd" stroke-dasharray="5,2" d="M281.73,-210.87C299.04,-206.58 318.72,-200.92 336,-194 345.42,-190.23 346.82,-187.32 356,-183 370.04,-176.4 386.19,-169.97 399.12,-165.1"/>
<polygon fill="#9a32cd" stroke="#9a32cd" points="280.76,-207.5 271.85,-213.23 282.39,-214.31 280.76,-207.5"/>
</a>
</g>
<text text-anchor="middle" x="374" y="-186" font-family="Helvetica,sans-Serif" font-size="10.00" fill="grey"> m_win</text>
</g>
<!-- Node6 -->
<g id="Node000006" class="node">
<title>Node6</title>
<g id="a_Node000006"><a xlink:title=" ">
<polygon fill="white" stroke="#bfbfbf" points="324,-330 254,-330 254,-311 324,-311 324,-330"/>
<text text-anchor="middle" x="289" y="-318" font-family="Helvetica,sans-Serif" font-size="10.00">wxWindow</text>
</a>
</g>
</g>
<!-- Node6&#45;&gt;Node5 -->
<g id="edge5_Node000005_Node000006" class="edge">
<title>Node6&#45;&gt;Node5</title>
<g id="a_edge5_Node000005_Node000006"><a xlink:title=" ">
<path fill="none" stroke="#63b8ff" d="M282.66,-301.45C277.15,-286.78 268.41,-265.84 258,-249 254.1,-242.69 248.82,-236.28 244.41,-231.34"/>
<polygon fill="#63b8ff" stroke="#63b8ff" points="279.38,-302.67 286.09,-310.87 285.96,-300.28 279.38,-302.67"/>
</a>
</g>
</g>
<!-- Node7 -->
<g id="Node000007" class="node">
<title>Node7</title>
<g id="a_Node000007"><a xlink:href="structmp_axis_data.html" target="_top" xlink:title="Represents all the informations needed for plotting a layer in one direction (X or Y) This struct hol...">
<polygon fill="white" stroke="#666666" points="489.5,-19 412.5,-19 412.5,0 489.5,0 489.5,-19"/>
<text text-anchor="middle" x="451" y="-7" font-family="Helvetica,sans-Serif" font-size="10.00">mpAxisData</text>
</a>
</g>
</g>
<!-- Node7&#45;&gt;Node5 -->
<g id="edge6_Node000005_Node000007" class="edge">
<title>Node7&#45;&gt;Node5</title>
<g id="a_edge6_Node000005_Node000007"><a xlink:title=" ">
<path fill="none" stroke="#9a32cd" stroke-dasharray="5,2" d="M436.88,-26.89C406.93,-61.52 337.59,-140.92 311,-165 290.71,-183.37 264.52,-201.68 249.07,-211.99"/>
<polygon fill="#9a32cd" stroke="#9a32cd" points="439.71,-28.97 443.6,-19.11 434.41,-24.39 439.71,-28.97"/>
</a>
</g>
<text text-anchor="middle" x="391" y="-120" font-family="Helvetica,sans-Serif" font-size="10.00" fill="grey"> m_AxisDataX</text>
</g>
<!-- Node8&#45;&gt;Node7 -->
<g id="edge7_Node000007_Node000008" class="edge">
<title>Node8&#45;&gt;Node7</title>
<g id="a_edge7_Node000007_Node000008"><a xlink:title=" ">
<path fill="none" stroke="#9a32cd" stroke-dasharray="5,2" d="M451,-62.73C451,-48.66 451,-30.06 451,-19.28"/>
<polygon fill="#9a32cd" stroke="#9a32cd" points="447.5,-62.79 451,-72.79 454.5,-62.79 447.5,-62.79"/>
</a>
</g>
<text text-anchor="middle" x="463" y="-40" font-family="Helvetica,sans-Serif" font-size="10.00" fill="grey"> axis</text>
</g>
<!-- Node9 -->
<g id="Node000009" class="node">
<title>Node9</title>
<g id="a_Node000009"><a xlink:href="structmp_range.html" target="_top" xlink:title=" ">
<polygon fill="white" stroke="#666666" points="594.5,-165 475.5,-165 475.5,-146 594.5,-146 594.5,-165"/>
<text text-anchor="middle" x="535" y="-153" font-family="Helvetica,sans-Serif" font-size="10.00">mpRange&lt; double &gt;</text>
</a>
</g>
</g>
<!-- Node9&#45;&gt;Node7 -->
<g id="edge10_Node000007_Node000009" class="edge">
<title>Node9&#45;&gt;Node7</title>
<g id="a_edge10_Node000007_Node000009"><a xlink:title=" ">
<path fill="none" stroke="#9a32cd" stroke-dasharray="5,2" d="M540.06,-135.9C540.92,-129.76 540.99,-122.98 539,-117 524.51,-73.54 482.66,-35.65 462.34,-19.21"/>
<polygon fill="#9a32cd" stroke="#9a32cd" points="536.58,-135.43 537.92,-145.94 543.42,-136.89 536.58,-135.43"/>
</a>
</g>
<text text-anchor="middle" x="558" y="-91" font-family="Helvetica,sans-Serif" font-size="10.00" fill="grey"> bound</text>
<text text-anchor="middle" x="558" y="-80" font-family="Helvetica,sans-Serif" font-size="10.00" fill="grey">desired</text>
<text text-anchor="middle" x="558" y="-69" font-family="Helvetica,sans-Serif" font-size="10.00" fill="grey">lastDesired</text>
</g>
<!-- Node9&#45;&gt;Node8 -->
<g id="edge9_Node000008_Node000009" class="edge">
<title>Node9&#45;&gt;Node8</title>
<g id="a_edge9_Node000008_Node000009"><a xlink:title=" ">
<path fill="none" stroke="#9a32cd" stroke-dasharray="5,2" d="M489.47,-141.9C481.97,-138.32 474.78,-133.76 469,-128 459.09,-118.11 454.43,-102.04 452.4,-92.15"/>
<polygon fill="#9a32cd" stroke="#9a32cd" points="488.46,-145.28 499.03,-145.94 491.18,-138.83 488.46,-145.28"/>
</a>
</g>
<text text-anchor="middle" x="504" y="-120" font-family="Helvetica,sans-Serif" font-size="10.00" fill="grey"> m_axisRange</text>
</g>
<!-- Node10 -->
<g id="Node000010" class="node">
<title>Node10</title>
<g id="a_Node000010"><a xlink:href="structmp_rect.html" target="_top" xlink:title="A rectangle structure in several (integer) flavors.">
<polygon fill="white" stroke="#666666" points="433,-330 379,-330 379,-311 433,-311 433,-330"/>
<text text-anchor="middle" x="406" y="-318" font-family="Helvetica,sans-Serif" font-size="10.00">mpRect</text>
</a>
</g>
</g>
<!-- Node10&#45;&gt;Node3 -->
<g id="edge20_Node000003_Node000010" class="edge">
<title>Node10&#45;&gt;Node3</title>
<g id="a_edge20_Node000003_Node000010"><a xlink:title=" ">
<path fill="none" stroke="#9a32cd" stroke-dasharray="5,2" d="M423.13,-303.27C425.53,-300.11 427.64,-296.64 429,-293 446.01,-247.45 431.93,-187.32 425.65,-165.17"/>
<polygon fill="#9a32cd" stroke="#9a32cd" points="420.45,-301.01 416.41,-310.81 425.68,-305.67 420.45,-301.01"/>
</a>
</g>
<text text-anchor="middle" x="482" y="-219" font-family="Helvetica,sans-Serif" font-size="10.00" fill="grey"> m_plotBoundaries</text>
</g>
<!-- Node10&#45;&gt;Node5 -->
<g id="edge11_Node000005_Node000010" class="edge">
<title>Node10&#45;&gt;Node5</title>
<g id="a_edge11_Node000005_Node000010"><a xlink:title=" ">
<path fill="none" stroke="#9a32cd" stroke-dasharray="5,2" d="M368.62,-316.75C348.32,-313.61 323.81,-306.97 306,-293 288.47,-279.25 297.57,-264.93 282,-249 274.79,-241.62 265.08,-235.62 256.44,-231.21"/>
<polygon fill="#9a32cd" stroke="#9a32cd" points="368.42,-320.25 378.79,-318.09 369.33,-313.31 368.42,-320.25"/>
</a>
</g>
<text text-anchor="middle" x="367.5" y="-285" font-family="Helvetica,sans-Serif" font-size="10.00" fill="grey"> m_margin</text>
<text text-anchor="middle" x="367.5" y="-274" font-family="Helvetica,sans-Serif" font-size="10.00" fill="grey">m_marginOuter</text>
<text text-anchor="middle" x="367.5" y="-263" font-family="Helvetica,sans-Serif" font-size="10.00" fill="grey">m_plotBoundaries</text>
<text text-anchor="middle" x="367.5" y="-252" font-family="Helvetica,sans-Serif" font-size="10.00" fill="grey">m_plotBoundariesMargin</text>
</g>
<!-- Node11&#45;&gt;Node5 -->
<g id="edge12_Node000005_Node000011" class="edge">
<title>Node11&#45;&gt;Node5</title>
<g id="a_edge12_Node000005_Node000011"><a xlink:title=" ">
<path fill="none" stroke="#9a32cd" stroke-dasharray="5,2" d="M191.38,-102.31C195.49,-119.01 202.16,-143.96 210,-165 216.31,-181.95 225.71,-200.86 231.31,-211.66"/>
<polygon fill="#9a32cd" stroke="#9a32cd" points="194.7,-101.12 188.96,-92.21 187.89,-102.75 194.7,-101.12"/>
</a>
</g>
<text text-anchor="middle" x="260.5" y="-153" font-family="Helvetica,sans-Serif" font-size="10.00" fill="grey"> m_movingInfoLayer</text>
</g>
<!-- Node12 -->
<g id="Node000012" class="node">
<title>Node12</title>
<g id="a_Node000012"><a xlink:href="classmp_info_coords.html" target="_top" xlink:title="Implements an overlay box which shows the mouse coordinates in plot units.">
<polygon fill="white" stroke="#666666" points="171.5,-19 86.5,-19 86.5,0 171.5,0 171.5,-19"/>
<text text-anchor="middle" x="129" y="-7" font-family="Helvetica,sans-Serif" font-size="10.00">mpInfoCoords</text>
</a>
</g>
</g>
<!-- Node11&#45;&gt;Node12 -->
<g id="edge15_Node000012_Node000011" class="edge">
<title>Node11&#45;&gt;Node12</title>
<g id="a_edge15_Node000012_Node000011"><a xlink:title=" ">
<path fill="none" stroke="#63b8ff" d="M173.34,-64.78C161.7,-50.52 145.42,-30.6 136.17,-19.28"/>
<polygon fill="#63b8ff" stroke="#63b8ff" points="170.85,-67.26 179.89,-72.79 176.27,-62.84 170.85,-67.26"/>
</a>
</g>
</g>
<!-- Node11&#45;&gt;Node13 -->
<g id="edge17_Node000013_Node000011" class="edge">
<title>Node11&#45;&gt;Node13</title>
<g id="a_edge17_Node000013_Node000011"><a xlink:title=" ">
<path fill="none" stroke="#63b8ff" d="M137.7,-88.12C119.01,-92.55 99.48,-101 88,-117 43.58,-178.92 86.22,-280.51 100.63,-310.75"/>
<polygon fill="#63b8ff" stroke="#63b8ff" points="138.55,-91.52 147.65,-86.1 137.16,-84.66 138.55,-91.52"/>
</a>
</g>
</g>
<!-- Node12&#45;&gt;Node5 -->
<g id="edge14_Node000005_Node000012" class="edge">
<title>Node12&#45;&gt;Node5</title>
<g id="a_edge14_Node000005_Node000012"><a xlink:title=" ">
<path fill="none" stroke="#9a32cd" stroke-dasharray="5,2" d="M122.22,-28.59C114.39,-52.59 104.45,-95.71 120,-128 140.12,-169.77 189.29,-198.53 216.72,-211.93"/>
<polygon fill="#9a32cd" stroke="#9a32cd" points="125.58,-29.6 125.57,-19.01 118.97,-27.29 125.58,-29.6"/>
</a>
</g>
<text text-anchor="middle" x="155.5" y="-120" font-family="Helvetica,sans-Serif" font-size="10.00" fill="grey"> m_InfoCoords</text>
</g>
<!-- Node13&#45;&gt;Node5 -->
<g id="edge16_Node000005_Node000013" class="edge">
<title>Node13&#45;&gt;Node5</title>
<g id="a_edge16_Node000005_Node000013"><a xlink:title=" ">
<path fill="none" stroke="#9a32cd" stroke-dasharray="5,2" d="M103.19,-300.57C102.78,-284.72 104.95,-262.57 118,-249 129.25,-237.31 169.9,-230.08 200.36,-226.18"/>
<polygon fill="#9a32cd" stroke="#9a32cd" points="99.71,-301.03 103.83,-310.79 106.7,-300.59 99.71,-301.03"/>
</a>
</g>
<text text-anchor="middle" x="154.5" y="-268.5" font-family="Helvetica,sans-Serif" font-size="10.00" fill="grey"> m_InfoLegend</text>
</g>
<!-- Node14 -->
<g id="Node000014" class="node">
<title>Node14</title>
<g id="a_Node000014"><a xlink:href="classmp_magnet.html" target="_top" xlink:title="Class for drawing mouse magnetization Draw an horizontal and a vertical line at the mouse position.">
<polygon fill="white" stroke="#666666" points="235.5,-330 166.5,-330 166.5,-311 235.5,-311 235.5,-330"/>
<text text-anchor="middle" x="201" y="-318" font-family="Helvetica,sans-Serif" font-size="10.00">mpMagnet</text>
</a>
</g>
</g>
<!-- Node14&#45;&gt;Node5 -->
<g id="edge19_Node000005_Node000014" class="edge">
<title>Node14&#45;&gt;Node5</title>
<g id="a_edge19_Node000005_Node000014"><a xlink:title=" ">
<path fill="none" stroke="#9a32cd" stroke-dasharray="5,2" d="M197.02,-300.69C194.84,-285.86 194.01,-265.07 202,-249 205.73,-241.49 212.71,-235.48 219.37,-231.1"/>
<polygon fill="#9a32cd" stroke="#9a32cd" points="193.6,-301.47 198.81,-310.69 200.49,-300.23 193.6,-301.47"/>
</a>
</g>
<text text-anchor="middle" x="230" y="-268.5" font-family="Helvetica,sans-Serif" font-size="10.00" fill="grey"> m_magnet</text>
</g>
</g>
</svg>
