<?xml version="1.0" encoding="UTF-8" standalone="no"?>
<!DOCTYPE svg PUBLIC "-//W3C//DTD SVG 1.1//EN"
 "http://www.w3.org/Graphics/SVG/1.1/DTD/svg11.dtd">
<!-- Generated by graphviz version 2.43.0 (0)
 -->
<!-- Title: mpLayer Pages: 1 -->
<!--zoomable 471 -->

<svg id="main" version="1.1" xmlns="http://www.w3.org/2000/svg" xmlns:xlink="http://www.w3.org/1999/xlink" xml:space="preserve" onload="init(evt)">
<style type="text/css"><![CDATA[
.node, .edge {opacity: 0.7;}
.node.selected, .edge.selected {opacity: 1;}
.edge:hover path { stroke: red; }
.edge:hover polygon { stroke: red; fill: red; }
]]></style>

<defs>
  <circle id="rim" cx="0" cy="0" r="7"/>
  <circle id="rim2" cx="0" cy="0" r="3.5"/>
  <g id="zoomPlus">
    <use xlink:href="#rim" fill="#404040"><set attributeName="fill" to="#808080" begin="zoomplus.mouseover" end="zoomplus.mouseout"/></use>
    <path d="M-4,0h8M0,-4v8" fill="none" stroke="white" stroke-width="1.5" pointer-events="none"/>
  </g>
  <g id="zoomMin">
    <use xlink:href="#rim" fill="#404040"><set attributeName="fill" to="#808080" begin="zoomminus.mouseover" end="zoomminus.mouseout"/></use>
    <path d="M-4,0h8" fill="none" stroke="white" stroke-width="1.5" pointer-events="none"/>
  </g>
  <g id="arrowUp" transform="translate(30 24)">
    <use xlink:href="#rim"/>
    <path pointer-events="none" fill="none" stroke="white" stroke-width="1.5" d="M0,-3.0v7 M-2.5,-0.5L0,-3.0L2.5,-0.5"/>
  </g>
  <g id="arrowRight" transform="rotate(90) translate(36 -43)">
    <use xlink:href="#rim"/>
    <path pointer-events="none" fill="none" stroke="white" stroke-width="1.5" d="M0,-3.0v7 M-2.5,-0.5L0,-3.0L2.5,-0.5"/>
  </g>
  <g id="arrowDown" transform="rotate(180) translate(-30 -48)">
    <use xlink:href="#rim"/>
    <path pointer-events="none" fill="none" stroke="white" stroke-width="1.5" d="M0,-3.0v7 M-2.5,-0.5L0,-3.0L2.5,-0.5"/>
  </g>
  <g id="arrowLeft" transform="rotate(270) translate(-36 17)">
    <use xlink:href="#rim"/>
    <path pointer-events="none" fill="none" stroke="white" stroke-width="1.5" d="M0,-3.0v7 M-2.5,-0.5L0,-3.0L2.5,-0.5"/>
  </g>
  <g id="resetDef">
    <use xlink:href="#rim2" fill="#404040"><set attributeName="fill" to="#808080" begin="reset.mouseover" end="reset.mouseout"/></use>
  </g>
</defs>
<script type="application/ecmascript">
var viewWidth = 706;
var viewHeight = 471;
var sectionId = 'dynsection-0';
</script>
<script type="application/ecmascript" xlink:href="svg.min.js"/>
<svg id="graph" class="graph">
<g id="viewport">
<title>mpLayer</title>
<!-- Node1 -->
<g id="Node000001" class="node">
<title>Node1</title>
<g id="a_Node000001"><a xlink:title=" ">
<polygon fill="#999999" stroke="#666666" points="157,-148 98,-148 98,-129 157,-129 157,-148"/>
<text text-anchor="middle" x="127.5" y="-136" font-family="Helvetica,sans-Serif" font-size="10.00">mpLayer</text>
</a>
</g>
</g>
<!-- Node3 -->
<g id="Node000003" class="node">
<title>Node3</title>
<g id="a_Node000003"><a xlink:href="classmpBitmapLayer.html" target="_top" xlink:title=" ">
<polygon fill="white" stroke="#666666" points="288,-315 193,-315 193,-296 288,-296 288,-315"/>
<text text-anchor="middle" x="240.5" y="-303" font-family="Helvetica,sans-Serif" font-size="10.00">mpBitmapLayer</text>
</a>
</g>
</g>
<!-- Node1&#45;&gt;Node3 -->
<g id="edge2_Node000001_Node000003" class="edge">
<title>Node1&#45;&gt;Node3</title>
<g id="a_edge2_Node000001_Node000003"><a xlink:title=" ">
<path fill="none" stroke="#63b8ff" d="M132.03,-158.51C138.58,-190.07 155.54,-251.48 193,-287.5 196.49,-290.86 200.69,-293.61 205.1,-295.86"/>
<polygon fill="#63b8ff" stroke="#63b8ff" points="135.39,-157.5 130.06,-148.34 128.52,-158.82 135.39,-157.5"/>
</a>
</g>
</g>
<!-- Node4 -->
<g id="Node000004" class="node">
<title>Node4</title>
<g id="a_Node000004"><a xlink:href="classmpFunction.html" target="_top" xlink:title=" ">
<polygon fill="white" stroke="#666666" points="277.5,-278 203.5,-278 203.5,-259 277.5,-259 277.5,-278"/>
<text text-anchor="middle" x="240.5" y="-266" font-family="Helvetica,sans-Serif" font-size="10.00">mpFunction</text>
</a>
</g>
</g>
<!-- Node1&#45;&gt;Node4 -->
<g id="edge3_Node000001_Node000004" class="edge">
<title>Node1&#45;&gt;Node4</title>
<g id="a_edge3_Node000001_Node000004"><a xlink:title=" ">
<path fill="none" stroke="#63b8ff" d="M143.47,-156.03C167.24,-183.87 212.83,-237.26 231.36,-258.97"/>
<polygon fill="#63b8ff" stroke="#63b8ff" points="146,-153.6 136.84,-148.27 140.67,-158.15 146,-153.6"/>
</a>
</g>
</g>
<!-- Node22 -->
<g id="Node000022" class="node">
<title>Node22</title>
<g id="a_Node000022"><a xlink:href="classmpInfoLayer.html" target="_top" xlink:title="Base class to create small rectangular info boxes mpInfoLayer is the base class to create a small rec...">
<polygon fill="white" stroke="#666666" points="279.5,-148 201.5,-148 201.5,-129 279.5,-129 279.5,-148"/>
<text text-anchor="middle" x="240.5" y="-136" font-family="Helvetica,sans-Serif" font-size="10.00">mpInfoLayer</text>
</a>
</g>
</g>
<!-- Node1&#45;&gt;Node22 -->
<g id="edge21_Node000001_Node000022" class="edge">
<title>Node1&#45;&gt;Node22</title>
<g id="a_edge21_Node000001_Node000022"><a xlink:title=" ">
<path fill="none" stroke="#63b8ff" d="M167.31,-138.5C178.36,-138.5 190.38,-138.5 201.39,-138.5"/>
<polygon fill="#63b8ff" stroke="#63b8ff" points="167.09,-135 157.09,-138.5 167.09,-142 167.09,-135"/>
</a>
</g>
</g>
<!-- Node25 -->
<g id="Node000025" class="node">
<title>Node25</title>
<g id="a_Node000025"><a xlink:href="classmpScale.html" target="_top" xlink:title=" ">
<polygon fill="white" stroke="#666666" points="270,-93 211,-93 211,-74 270,-74 270,-93"/>
<text text-anchor="middle" x="240.5" y="-81" font-family="Helvetica,sans-Serif" font-size="10.00">mpScale</text>
</a>
</g>
</g>
<!-- Node1&#45;&gt;Node25 -->
<g id="edge24_Node000001_Node000025" class="edge">
<title>Node1&#45;&gt;Node25</title>
<g id="a_edge24_Node000001_Node000025"><a xlink:title=" ">
<path fill="none" stroke="#63b8ff" d="M156.99,-124.38C176.75,-114.59 202.56,-101.8 220.01,-93.16"/>
<polygon fill="#63b8ff" stroke="#63b8ff" points="155.24,-121.34 147.83,-128.92 158.35,-127.62 155.24,-121.34"/>
</a>
</g>
</g>
<!-- Node28 -->
<g id="Node000028" class="node">
<title>Node28</title>
<g id="a_Node000028"><a xlink:href="classmpText.html" target="_top" xlink:title=" ">
<polygon fill="white" stroke="#666666" points="267,-37 214,-37 214,-18 267,-18 267,-37"/>
<text text-anchor="middle" x="240.5" y="-25" font-family="Helvetica,sans-Serif" font-size="10.00">mpText</text>
</a>
</g>
</g>
<!-- Node1&#45;&gt;Node28 -->
<g id="edge27_Node000001_Node000028" class="edge">
<title>Node1&#45;&gt;Node28</title>
<g id="a_edge27_Node000001_Node000028"><a xlink:title=" ">
<path fill="none" stroke="#63b8ff" d="M142.48,-120.69C155.01,-105.18 174.26,-82.42 193,-64.5 203.44,-54.52 216.37,-44.39 225.94,-37.26"/>
<polygon fill="#63b8ff" stroke="#63b8ff" points="139.43,-118.9 135.93,-128.9 144.91,-123.26 139.43,-118.9"/>
</a>
</g>
</g>
<!-- Node2 -->
<g id="Node000002" class="node">
<title>Node2</title>
<g id="a_Node000002"><a xlink:title=" ">
<polygon fill="white" stroke="#666666" points="62,-148 0,-148 0,-129 62,-129 62,-148"/>
<text text-anchor="middle" x="31" y="-136" font-family="Helvetica,sans-Serif" font-size="10.00">wxObject</text>
</a>
</g>
</g>
<!-- Node2&#45;&gt;Node1 -->
<g id="edge1_Node000001_Node000002" class="edge">
<title>Node2&#45;&gt;Node1</title>
<g id="a_edge1_Node000001_Node000002"><a xlink:title=" ">
<path fill="none" stroke="#63b8ff" d="M72.4,-138.5C80.98,-138.5 89.88,-138.5 97.91,-138.5"/>
<polygon fill="#63b8ff" stroke="#63b8ff" points="72.16,-135 62.16,-138.5 72.16,-142 72.16,-135"/>
</a>
</g>
</g>
<!-- Node5 -->
<g id="Node000005" class="node">
<title>Node5</title>
<g id="a_Node000005"><a xlink:href="classmpChart.html" target="_top" xlink:title="abstract Layer for chart (bar and pie).">
<polygon fill="white" stroke="#666666" points="406.5,-426 347.5,-426 347.5,-407 406.5,-407 406.5,-426"/>
<text text-anchor="middle" x="377" y="-414" font-family="Helvetica,sans-Serif" font-size="10.00">mpChart</text>
</a>
</g>
</g>
<!-- Node4&#45;&gt;Node5 -->
<g id="edge4_Node000004_Node000005" class="edge">
<title>Node4&#45;&gt;Node5</title>
<g id="a_edge4_Node000004_Node000005"><a xlink:title=" ">
<path fill="none" stroke="#63b8ff" d="M284.04,-283.81C285.45,-284.95 286.78,-286.18 288,-287.5 323.29,-325.51 287.69,-361.47 324,-398.5 330.29,-404.91 338.97,-409.04 347.44,-411.7"/>
<polygon fill="#63b8ff" stroke="#63b8ff" points="285.57,-280.63 275.27,-278.11 281.75,-286.5 285.57,-280.63"/>
</a>
</g>
</g>
<!-- Node8 -->
<g id="Node000008" class="node">
<title>Node8</title>
<g id="a_Node000008"><a xlink:href="classmpFX.html" target="_top" xlink:title=" ">
<polygon fill="white" stroke="#666666" points="399.5,-389 354.5,-389 354.5,-370 399.5,-370 399.5,-389"/>
<text text-anchor="middle" x="377" y="-377" font-family="Helvetica,sans-Serif" font-size="10.00">mpFX</text>
</a>
</g>
</g>
<!-- Node4&#45;&gt;Node8 -->
<g id="edge7_Node000004_Node000008" class="edge">
<title>Node4&#45;&gt;Node8</title>
<g id="a_edge7_Node000004_Node000008"><a xlink:title=" ">
<path fill="none" stroke="#63b8ff" d="M282.65,-283.2C284.55,-284.52 286.35,-285.95 288,-287.5 314.69,-312.51 296.64,-337.23 324,-361.5 332.43,-368.98 344.14,-373.39 354.31,-375.97"/>
<polygon fill="#63b8ff" stroke="#63b8ff" points="284.27,-280.09 273.86,-278.09 280.75,-286.14 284.27,-280.09"/>
</a>
</g>
</g>
<!-- Node12 -->
<g id="Node000012" class="node">
<title>Node12</title>
<g id="a_Node000012"><a xlink:href="classmpFXY.html" target="_top" xlink:title=" ">
<polygon fill="white" stroke="#666666" points="402.5,-352 351.5,-352 351.5,-333 402.5,-333 402.5,-352"/>
<text text-anchor="middle" x="377" y="-340" font-family="Helvetica,sans-Serif" font-size="10.00">mpFXY</text>
</a>
</g>
</g>
<!-- Node4&#45;&gt;Node12 -->
<g id="edge11_Node000004_Node000012" class="edge">
<title>Node4&#45;&gt;Node12</title>
<g id="a_edge11_Node000004_Node000012"><a xlink:title=" ">
<path fill="none" stroke="#63b8ff" d="M279.77,-282.61C282.63,-284.12 285.41,-285.75 288,-287.5 307.02,-300.33 304.64,-312.19 324,-324.5 332.3,-329.78 342.34,-333.72 351.38,-336.55"/>
<polygon fill="#63b8ff" stroke="#63b8ff" points="281.01,-279.32 270.48,-278.18 278,-285.64 281.01,-279.32"/>
</a>
</g>
</g>
<!-- Node14 -->
<g id="Node000014" class="node">
<title>Node14</title>
<g id="a_Node000014"><a xlink:href="classmpFY.html" target="_top" xlink:title=" ">
<polygon fill="white" stroke="#666666" points="399,-315 355,-315 355,-296 399,-296 399,-315"/>
<text text-anchor="middle" x="377" y="-303" font-family="Helvetica,sans-Serif" font-size="10.00">mpFY</text>
</a>
</g>
</g>
<!-- Node4&#45;&gt;Node14 -->
<g id="edge13_Node000004_Node000014" class="edge">
<title>Node4&#45;&gt;Node14</title>
<g id="a_edge13_Node000004_Node000014"><a xlink:title=" ">
<path fill="none" stroke="#63b8ff" d="M285.81,-280.69C309.06,-287.08 336.46,-294.62 354.91,-299.7"/>
<polygon fill="#63b8ff" stroke="#63b8ff" points="286.71,-277.31 276.14,-278.03 284.85,-284.06 286.71,-277.31"/>
</a>
</g>
</g>
<!-- Node15 -->
<g id="Node000015" class="node">
<title>Node15</title>
<g id="a_Node000015"><a xlink:href="classmpLine.html" target="_top" xlink:title=" ">
<polygon fill="white" stroke="#666666" points="403.5,-278 350.5,-278 350.5,-259 403.5,-259 403.5,-278"/>
<text text-anchor="middle" x="377" y="-266" font-family="Helvetica,sans-Serif" font-size="10.00">mpLine</text>
</a>
</g>
</g>
<!-- Node4&#45;&gt;Node15 -->
<g id="edge14_Node000004_Node000015" class="edge">
<title>Node4&#45;&gt;Node15</title>
<g id="a_edge14_Node000004_Node000015"><a xlink:title=" ">
<path fill="none" stroke="#63b8ff" d="M287.81,-268.5C308.65,-268.5 332.47,-268.5 350.09,-268.5"/>
<polygon fill="#63b8ff" stroke="#63b8ff" points="287.54,-265 277.54,-268.5 287.54,-272 287.54,-265"/>
</a>
</g>
</g>
<!-- Node18 -->
<g id="Node000018" class="node">
<title>Node18</title>
<g id="a_Node000018"><a xlink:href="classmpMovableObject.html" target="_top" xlink:title=" ">
<polygon fill="white" stroke="#666666" points="430,-241 324,-241 324,-222 430,-222 430,-241"/>
<text text-anchor="middle" x="377" y="-229" font-family="Helvetica,sans-Serif" font-size="10.00">mpMovableObject</text>
</a>
</g>
</g>
<!-- Node4&#45;&gt;Node18 -->
<g id="edge17_Node000004_Node000018" class="edge">
<title>Node4&#45;&gt;Node18</title>
<g id="a_edge17_Node000004_Node000018"><a xlink:title=" ">
<path fill="none" stroke="#63b8ff" d="M285.81,-256.31C303.74,-251.38 324.15,-245.76 341.01,-241.12"/>
<polygon fill="#63b8ff" stroke="#63b8ff" points="284.85,-252.94 276.14,-258.97 286.71,-259.69 284.85,-252.94"/>
</a>
</g>
</g>
<!-- Node21 -->
<g id="Node000021" class="node">
<title>Node21</title>
<g id="a_Node000021"><a xlink:href="classmpProfile.html" target="_top" xlink:title=" ">
<polygon fill="white" stroke="#666666" points="408.5,-204 345.5,-204 345.5,-185 408.5,-185 408.5,-204"/>
<text text-anchor="middle" x="377" y="-192" font-family="Helvetica,sans-Serif" font-size="10.00">mpProfile</text>
</a>
</g>
</g>
<!-- Node4&#45;&gt;Node21 -->
<g id="edge20_Node000004_Node000021" class="edge">
<title>Node4&#45;&gt;Node21</title>
<g id="a_edge20_Node000004_Node000021"><a xlink:title=" ">
<path fill="none" stroke="#63b8ff" d="M261.6,-252.63C277.76,-240.44 301.41,-223.83 324,-212.5 330.75,-209.12 338.28,-206.11 345.47,-203.56"/>
<polygon fill="#63b8ff" stroke="#63b8ff" points="259.25,-250.03 253.45,-258.89 263.51,-255.58 259.25,-250.03"/>
</a>
</g>
</g>
<!-- Node6 -->
<g id="Node000006" class="node">
<title>Node6</title>
<g id="a_Node000006"><a xlink:href="classmpBarChart.html" target="_top" xlink:title="Layer for bar chart.">
<polygon fill="white" stroke="#666666" points="563,-463 488,-463 488,-444 563,-444 563,-463"/>
<text text-anchor="middle" x="525.5" y="-451" font-family="Helvetica,sans-Serif" font-size="10.00">mpBarChart</text>
</a>
</g>
</g>
<!-- Node5&#45;&gt;Node6 -->
<g id="edge5_Node000005_Node000006" class="edge">
<title>Node5&#45;&gt;Node6</title>
<g id="a_edge5_Node000005_Node000006"><a xlink:title=" ">
<path fill="none" stroke="#63b8ff" d="M416.32,-426.18C438.44,-431.76 466.09,-438.75 487.9,-444.26"/>
<polygon fill="#63b8ff" stroke="#63b8ff" points="417.15,-422.78 406.59,-423.72 415.43,-429.56 417.15,-422.78"/>
</a>
</g>
</g>
<!-- Node7 -->
<g id="Node000007" class="node">
<title>Node7</title>
<g id="a_Node000007"><a xlink:href="classmpPieChart.html" target="_top" xlink:title="Layer for pie chart. Create a very basic Pie Chart.">
<polygon fill="white" stroke="#666666" points="562.5,-426 488.5,-426 488.5,-407 562.5,-407 562.5,-426"/>
<text text-anchor="middle" x="525.5" y="-414" font-family="Helvetica,sans-Serif" font-size="10.00">mpPieChart</text>
</a>
</g>
</g>
<!-- Node5&#45;&gt;Node7 -->
<g id="edge6_Node000005_Node000007" class="edge">
<title>Node5&#45;&gt;Node7</title>
<g id="a_edge6_Node000005_Node000007"><a xlink:title=" ">
<path fill="none" stroke="#63b8ff" d="M416.7,-416.5C438.93,-416.5 466.67,-416.5 488.44,-416.5"/>
<polygon fill="#63b8ff" stroke="#63b8ff" points="416.59,-413 406.59,-416.5 416.59,-420 416.59,-413"/>
</a>
</g>
</g>
<!-- Node9 -->
<g id="Node000009" class="node">
<title>Node9</title>
<g id="a_Node000009"><a xlink:href="classmpFXGeneric.html" target="_top" xlink:title=" ">
<polygon fill="white" stroke="#666666" points="567,-389 484,-389 484,-370 567,-370 567,-389"/>
<text text-anchor="middle" x="525.5" y="-377" font-family="Helvetica,sans-Serif" font-size="10.00">mpFXGeneric</text>
</a>
</g>
</g>
<!-- Node8&#45;&gt;Node9 -->
<g id="edge8_Node000008_Node000009" class="edge">
<title>Node8&#45;&gt;Node9</title>
<g id="a_edge8_Node000008_Node000009"><a xlink:title=" ">
<path fill="none" stroke="#63b8ff" d="M409.65,-379.5C431.41,-379.5 460.5,-379.5 483.95,-379.5"/>
<polygon fill="#63b8ff" stroke="#63b8ff" points="409.62,-376 399.62,-379.5 409.62,-383 409.62,-376"/>
</a>
</g>
</g>
<!-- Node10 -->
<g id="Node000010" class="node">
<title>Node10</title>
<g id="a_Node000010"><a xlink:href="classmpGaussian.html" target="_top" xlink:title=" ">
<polygon fill="white" stroke="#666666" points="698,-407 621,-407 621,-388 698,-388 698,-407"/>
<text text-anchor="middle" x="659.5" y="-395" font-family="Helvetica,sans-Serif" font-size="10.00">mpGaussian</text>
</a>
</g>
</g>
<!-- Node9&#45;&gt;Node10 -->
<g id="edge9_Node000009_Node000010" class="edge">
<title>Node9&#45;&gt;Node10</title>
<g id="a_edge9_Node000009_Node000010"><a xlink:title=" ">
<path fill="none" stroke="#63b8ff" d="M577.48,-386.45C591.92,-388.42 607.38,-390.53 620.88,-392.37"/>
<polygon fill="#63b8ff" stroke="#63b8ff" points="577.56,-382.93 567.18,-385.05 576.62,-389.87 577.56,-382.93"/>
</a>
</g>
</g>
<!-- Node11 -->
<g id="Node000011" class="node">
<title>Node11</title>
<g id="a_Node000011"><a xlink:href="classmpNormal.html" target="_top" xlink:title=" ">
<polygon fill="white" stroke="#666666" points="693.5,-370 625.5,-370 625.5,-351 693.5,-351 693.5,-370"/>
<text text-anchor="middle" x="659.5" y="-358" font-family="Helvetica,sans-Serif" font-size="10.00">mpNormal</text>
</a>
</g>
</g>
<!-- Node9&#45;&gt;Node11 -->
<g id="edge10_Node000009_Node000011" class="edge">
<title>Node9&#45;&gt;Node11</title>
<g id="a_edge10_Node000009_Node000011"><a xlink:title=" ">
<path fill="none" stroke="#63b8ff" d="M577.49,-372.16C593.52,-369.85 610.79,-367.37 625.26,-365.29"/>
<polygon fill="#63b8ff" stroke="#63b8ff" points="576.58,-368.76 567.18,-373.64 577.58,-375.68 576.58,-368.76"/>
</a>
</g>
</g>
<!-- Node13 -->
<g id="Node000013" class="node">
<title>Node13</title>
<g id="a_Node000013"><a xlink:href="classmpFXYVector.html" target="_top" xlink:title=" ">
<polygon fill="white" stroke="#666666" points="566.5,-352 484.5,-352 484.5,-333 566.5,-333 566.5,-352"/>
<text text-anchor="middle" x="525.5" y="-340" font-family="Helvetica,sans-Serif" font-size="10.00">mpFXYVector</text>
</a>
</g>
</g>
<!-- Node12&#45;&gt;Node13 -->
<g id="edge12_Node000012_Node000013" class="edge">
<title>Node12&#45;&gt;Node13</title>
<g id="a_edge12_Node000012_Node000013"><a xlink:title=" ">
<path fill="none" stroke="#63b8ff" d="M412.54,-342.5C434.08,-342.5 461.89,-342.5 484.4,-342.5"/>
<polygon fill="#63b8ff" stroke="#63b8ff" points="412.52,-339 402.52,-342.5 412.52,-346 412.52,-339"/>
</a>
</g>
</g>
<!-- Node16 -->
<g id="Node000016" class="node">
<title>Node16</title>
<g id="a_Node000016"><a xlink:href="classmpHorizontalLine.html" target="_top" xlink:title=" ">
<polygon fill="white" stroke="#666666" points="577,-315 474,-315 474,-296 577,-296 577,-315"/>
<text text-anchor="middle" x="525.5" y="-303" font-family="Helvetica,sans-Serif" font-size="10.00">mpHorizontalLine</text>
</a>
</g>
</g>
<!-- Node15&#45;&gt;Node16 -->
<g id="edge15_Node000015_Node000016" class="edge">
<title>Node15&#45;&gt;Node16</title>
<g id="a_edge15_Node000015_Node000016"><a xlink:title=" ">
<path fill="none" stroke="#63b8ff" d="M413.51,-277.47C435.63,-283.05 464.07,-290.24 486.63,-295.94"/>
<polygon fill="#63b8ff" stroke="#63b8ff" points="414.07,-274 403.52,-274.94 412.36,-280.79 414.07,-274"/>
</a>
</g>
</g>
<!-- Node17 -->
<g id="Node000017" class="node">
<title>Node17</title>
<g id="a_Node000017"><a xlink:href="classmpVerticalLine.html" target="_top" xlink:title=" ">
<polygon fill="white" stroke="#666666" points="570,-278 481,-278 481,-259 570,-259 570,-278"/>
<text text-anchor="middle" x="525.5" y="-266" font-family="Helvetica,sans-Serif" font-size="10.00">mpVerticalLine</text>
</a>
</g>
</g>
<!-- Node15&#45;&gt;Node17 -->
<g id="edge16_Node000015_Node000017" class="edge">
<title>Node15&#45;&gt;Node17</title>
<g id="a_edge16_Node000015_Node000017"><a xlink:title=" ">
<path fill="none" stroke="#63b8ff" d="M413.59,-268.5C433.87,-268.5 459.44,-268.5 480.92,-268.5"/>
<polygon fill="#63b8ff" stroke="#63b8ff" points="413.52,-265 403.52,-268.5 413.52,-272 413.52,-265"/>
</a>
</g>
</g>
<!-- Node19 -->
<g id="Node000019" class="node">
<title>Node19</title>
<g id="a_Node000019"><a xlink:href="classmpCovarianceEllipse.html" target="_top" xlink:title=" ">
<polygon fill="white" stroke="#666666" points="585,-241 466,-241 466,-222 585,-222 585,-241"/>
<text text-anchor="middle" x="525.5" y="-229" font-family="Helvetica,sans-Serif" font-size="10.00">mpCovarianceEllipse</text>
</a>
</g>
</g>
<!-- Node18&#45;&gt;Node19 -->
<g id="edge18_Node000018_Node000019" class="edge">
<title>Node18&#45;&gt;Node19</title>
<g id="a_edge18_Node000018_Node000019"><a xlink:title=" ">
<path fill="none" stroke="#63b8ff" d="M440.28,-231.5C448.77,-231.5 457.45,-231.5 465.87,-231.5"/>
<polygon fill="#63b8ff" stroke="#63b8ff" points="440.06,-228 430.06,-231.5 440.06,-235 440.06,-228"/>
</a>
</g>
</g>
<!-- Node20 -->
<g id="Node000020" class="node">
<title>Node20</title>
<g id="a_Node000020"><a xlink:href="classmpPolygon.html" target="_top" xlink:title=" ">
<polygon fill="white" stroke="#666666" points="561,-204 490,-204 490,-185 561,-185 561,-204"/>
<text text-anchor="middle" x="525.5" y="-192" font-family="Helvetica,sans-Serif" font-size="10.00">mpPolygon</text>
</a>
</g>
</g>
<!-- Node18&#45;&gt;Node20 -->
<g id="edge19_Node000018_Node000020" class="edge">
<title>Node18&#45;&gt;Node20</title>
<g id="a_edge19_Node000018_Node000020"><a xlink:title=" ">
<path fill="none" stroke="#63b8ff" d="M425.43,-219.52C446.42,-214.22 470.66,-208.1 489.91,-203.24"/>
<polygon fill="#63b8ff" stroke="#63b8ff" points="424.57,-216.13 415.73,-221.97 426.28,-222.92 424.57,-216.13"/>
</a>
</g>
</g>
<!-- Node23 -->
<g id="Node000023" class="node">
<title>Node23</title>
<g id="a_Node000023"><a xlink:href="classmpInfoCoords.html" target="_top" xlink:title="Implements an overlay box which shows the mouse coordinates in plot units. When mouse is moved over t...">
<polygon fill="white" stroke="#666666" points="419.5,-167 334.5,-167 334.5,-148 419.5,-148 419.5,-167"/>
<text text-anchor="middle" x="377" y="-155" font-family="Helvetica,sans-Serif" font-size="10.00">mpInfoCoords</text>
</a>
</g>
</g>
<!-- Node22&#45;&gt;Node23 -->
<g id="edge22_Node000022_Node000023" class="edge">
<title>Node22&#45;&gt;Node23</title>
<g id="a_edge22_Node000022_Node000023"><a xlink:title=" ">
<path fill="none" stroke="#63b8ff" d="M290.01,-145.35C304.55,-147.41 320.37,-149.64 334.42,-151.63"/>
<polygon fill="#63b8ff" stroke="#63b8ff" points="290.07,-141.83 279.68,-143.89 289.09,-148.76 290.07,-141.83"/>
</a>
</g>
</g>
<!-- Node24 -->
<g id="Node000024" class="node">
<title>Node24</title>
<g id="a_Node000024"><a xlink:href="classmpInfoLegend.html" target="_top" xlink:title="Implement the legend to be added to the plot This layer allows you to add a legend to describe the pl...">
<polygon fill="white" stroke="#666666" points="420,-130 334,-130 334,-111 420,-111 420,-130"/>
<text text-anchor="middle" x="377" y="-118" font-family="Helvetica,sans-Serif" font-size="10.00">mpInfoLegend</text>
</a>
</g>
</g>
<!-- Node22&#45;&gt;Node24 -->
<g id="edge23_Node000022_Node000024" class="edge">
<title>Node22&#45;&gt;Node24</title>
<g id="a_edge23_Node000022_Node000024"><a xlink:title=" ">
<path fill="none" stroke="#63b8ff" d="M289.91,-132.02C304.32,-130.09 319.98,-128 333.94,-126.13"/>
<polygon fill="#63b8ff" stroke="#63b8ff" points="289.13,-128.59 279.68,-133.39 290.06,-135.53 289.13,-128.59"/>
</a>
</g>
</g>
<!-- Node26 -->
<g id="Node000026" class="node">
<title>Node26</title>
<g id="a_Node000026"><a xlink:href="classmpScaleX.html" target="_top" xlink:title=" ">
<polygon fill="white" stroke="#666666" points="409.5,-93 344.5,-93 344.5,-74 409.5,-74 409.5,-93"/>
<text text-anchor="middle" x="377" y="-81" font-family="Helvetica,sans-Serif" font-size="10.00">mpScaleX</text>
</a>
</g>
</g>
<!-- Node25&#45;&gt;Node26 -->
<g id="edge25_Node000025_Node000026" class="edge">
<title>Node25&#45;&gt;Node26</title>
<g id="a_edge25_Node000025_Node000026"><a xlink:title=" ">
<path fill="none" stroke="#63b8ff" d="M280.2,-83.5C300.49,-83.5 325.05,-83.5 344.22,-83.5"/>
<polygon fill="#63b8ff" stroke="#63b8ff" points="280.02,-80 270.02,-83.5 280.02,-87 280.02,-80"/>
</a>
</g>
</g>
<!-- Node27 -->
<g id="Node000027" class="node">
<title>Node27</title>
<g id="a_Node000027"><a xlink:href="classmpScaleY.html" target="_top" xlink:title=" ">
<polygon fill="white" stroke="#666666" points="409.5,-56 344.5,-56 344.5,-37 409.5,-37 409.5,-56"/>
<text text-anchor="middle" x="377" y="-44" font-family="Helvetica,sans-Serif" font-size="10.00">mpScaleY</text>
</a>
</g>
</g>
<!-- Node25&#45;&gt;Node27 -->
<g id="edge26_Node000025_Node000027" class="edge">
<title>Node25&#45;&gt;Node27</title>
<g id="a_edge26_Node000025_Node000027"><a xlink:title=" ">
<path fill="none" stroke="#63b8ff" d="M279.92,-72.93C300.27,-67.33 324.96,-60.54 344.22,-55.24"/>
<polygon fill="#63b8ff" stroke="#63b8ff" points="278.74,-69.63 270.02,-75.65 280.59,-76.38 278.74,-69.63"/>
</a>
</g>
</g>
<!-- Node29 -->
<g id="Node000029" class="node">
<title>Node29</title>
<g id="a_Node000029"><a xlink:href="classmpTitle.html" target="_top" xlink:title=" ">
<polygon fill="white" stroke="#666666" points="404,-19 350,-19 350,0 404,0 404,-19"/>
<text text-anchor="middle" x="377" y="-7" font-family="Helvetica,sans-Serif" font-size="10.00">mpTitle</text>
</a>
</g>
</g>
<!-- Node28&#45;&gt;Node29 -->
<g id="edge28_Node000028_Node000029" class="edge">
<title>Node28&#45;&gt;Node29</title>
<g id="a_edge28_Node000028_Node000029"><a xlink:title=" ">
<path fill="none" stroke="#63b8ff" d="M277.08,-22.74C299.83,-19.69 328.85,-15.81 349.56,-13.04"/>
<polygon fill="#63b8ff" stroke="#63b8ff" points="276.56,-19.28 267.12,-24.07 277.49,-26.21 276.56,-19.28"/>
</a>
</g>
</g>
</g>
</svg>

<g id="navigator" transform="translate(0 0)" fill="#404254">
  <rect fill="#f2f5e9" fill-opacity="0.5" stroke="#606060" stroke-width=".5" x="0" y="0" width="60" height="60"/>
  <use id="zoomplus" xlink:href="#zoomPlus" x="17" y="9" onmousedown="handleZoom(evt,'in')"/>
  <use id="zoomminus" xlink:href="#zoomMin" x="42" y="9" onmousedown="handleZoom(evt,'out')"/>
  <use id="reset" xlink:href="#resetDef" x="30" y="36" onmousedown="handleReset()"/>
   <use id="arrowup" xlink:href="#arrowUp" x="0" y="0" onmousedown="handlePan(0,-1)"/>
  <use id="arrowright" xlink:href="#arrowRight" x="0" y="0" onmousedown="handlePan(1,0)"/>
  <use id="arrowdown" xlink:href="#arrowDown" x="0" y="0" onmousedown="handlePan(0,1)"/>
  <use id="arrowleft" xlink:href="#arrowLeft" x="0" y="0" onmousedown="handlePan(-1,0)"/>
</g>
<svg viewBox="0 0 15 15" width="100%" height="30px" preserveAspectRatio="xMaxYMin meet">
 <g id="arrow_out" transform="scale(0.3 0.3)">
  <a xlink:href="classmpLayer__inherit__graph_org.svg" target="_base">
   <rect id="button" ry="5" rx="5" y="6" x="6" height="38" width="38"
        fill="#f2f5e9" fill-opacity="0.5" stroke="#606060" stroke-width="1.0"/>
   <path id="arrow"
     d="M 11.500037,31.436501 C 11.940474,20.09759 22.043105,11.32322 32.158766,21.979434 L 37.068811,17.246167 C 37.068811,17.246167 37.088388,32 37.088388,32 L 22.160133,31.978069 C 22.160133,31.978069 26.997745,27.140456 26.997745,27.140456 C 18.528582,18.264221 13.291696,25.230495 11.500037,31.436501 z"
     style="fill:#404040;"/>
  </a>
 </g>
</svg>

<style type='text/css'>
<![CDATA[
[data-mouse-over-selected='false'] { opacity: 0.7; }
[data-mouse-over-selected='true']  { opacity: 1.0; }
]]>
</style>
<script type="application/ecmascript"><![CDATA[
document.addEventListener('DOMContentLoaded', (event) => {
  highlightEdges();
  highlightAdjacentNodes();
});
]]></script>
</svg>
