<?xml version="1.0" encoding="UTF-8" standalone="no"?>
<!DOCTYPE svg PUBLIC "-//W3C//DTD SVG 1.1//EN"
 "http://www.w3.org/Graphics/SVG/1.1/DTD/svg11.dtd">
<!-- Generated by graphviz version 2.43.0 (0)
 -->
<!-- Title: mpText Pages: 1 -->
<!--zoomable 316 -->

<svg id="main" version="1.1" xmlns="http://www.w3.org/2000/svg" xmlns:xlink="http://www.w3.org/1999/xlink" xml:space="preserve" onload="init(evt)">
<style type="text/css"><![CDATA[
.node, .edge {opacity: 0.7;}
.node.selected, .edge.selected {opacity: 1;}
.edge:hover path { stroke: red; }
.edge:hover polygon { stroke: red; fill: red; }
]]></style>

<defs>
  <circle id="rim" cx="0" cy="0" r="7"/>
  <circle id="rim2" cx="0" cy="0" r="3.5"/>
  <g id="zoomPlus">
    <use xlink:href="#rim" fill="#404040"><set attributeName="fill" to="#808080" begin="zoomplus.mouseover" end="zoomplus.mouseout"/></use>
    <path d="M-4,0h8M0,-4v8" fill="none" stroke="white" stroke-width="1.5" pointer-events="none"/>
  </g>
  <g id="zoomMin">
    <use xlink:href="#rim" fill="#404040"><set attributeName="fill" to="#808080" begin="zoomminus.mouseover" end="zoomminus.mouseout"/></use>
    <path d="M-4,0h8" fill="none" stroke="white" stroke-width="1.5" pointer-events="none"/>
  </g>
  <g id="arrowUp" transform="translate(30 24)">
    <use xlink:href="#rim"/>
    <path pointer-events="none" fill="none" stroke="white" stroke-width="1.5" d="M0,-3.0v7 M-2.5,-0.5L0,-3.0L2.5,-0.5"/>
  </g>
  <g id="arrowRight" transform="rotate(90) translate(36 -43)">
    <use xlink:href="#rim"/>
    <path pointer-events="none" fill="none" stroke="white" stroke-width="1.5" d="M0,-3.0v7 M-2.5,-0.5L0,-3.0L2.5,-0.5"/>
  </g>
  <g id="arrowDown" transform="rotate(180) translate(-30 -48)">
    <use xlink:href="#rim"/>
    <path pointer-events="none" fill="none" stroke="white" stroke-width="1.5" d="M0,-3.0v7 M-2.5,-0.5L0,-3.0L2.5,-0.5"/>
  </g>
  <g id="arrowLeft" transform="rotate(270) translate(-36 17)">
    <use xlink:href="#rim"/>
    <path pointer-events="none" fill="none" stroke="white" stroke-width="1.5" d="M0,-3.0v7 M-2.5,-0.5L0,-3.0L2.5,-0.5"/>
  </g>
  <g id="resetDef">
    <use xlink:href="#rim2" fill="#404040"><set attributeName="fill" to="#808080" begin="reset.mouseover" end="reset.mouseout"/></use>
  </g>
</defs>
<script type="application/ecmascript">
var viewWidth = 795;
var viewHeight = 316;
var sectionId = 'dynsection-1';
</script>
<script type="application/ecmascript" xlink:href="svg.min.js"/>
<svg id="graph" class="graph">
<g id="viewport">
<title>mpText</title>
<!-- Node1 -->
<g id="Node000001" class="node">
<title>Node1</title>
<g id="a_Node000001"><a xlink:title=" ">
<polygon fill="#999999" stroke="#666666" points="422.5,-163.5 369.5,-163.5 369.5,-144.5 422.5,-144.5 422.5,-163.5"/>
<text text-anchor="middle" x="396" y="-151.5" font-family="Helvetica,sans-Serif" font-size="10.00">mpText</text>
</a>
</g>
</g>
<!-- Node2 -->
<g id="Node000002" class="node">
<title>Node2</title>
<g id="a_Node000002"><a xlink:href="classmpLayer.html" target="_top" xlink:title=" ">
<polygon fill="white" stroke="#666666" points="404.5,-242 345.5,-242 345.5,-223 404.5,-223 404.5,-242"/>
<text text-anchor="middle" x="375" y="-230" font-family="Helvetica,sans-Serif" font-size="10.00">mpLayer</text>
</a>
</g>
</g>
<!-- Node2&#45;&gt;Node1 -->
<g id="edge1_Node000001_Node000002" class="edge">
<title>Node2&#45;&gt;Node1</title>
<g id="a_edge1_Node000001_Node000002"><a xlink:title=" ">
<path fill="none" stroke="#63b8ff" d="M380.06,-213.05C384.36,-197.39 390.34,-175.61 393.62,-163.67"/>
<polygon fill="#63b8ff" stroke="#63b8ff" points="376.68,-212.15 377.41,-222.72 383.43,-214.01 376.68,-212.15"/>
</a>
</g>
</g>
<!-- Node7 -->
<g id="Node000007" class="node">
<title>Node7</title>
<g id="a_Node000007"><a xlink:href="classmpScale.html" target="_top" xlink:title=" ">
<polygon fill="white" stroke="#666666" points="605.5,-163.5 546.5,-163.5 546.5,-144.5 605.5,-144.5 605.5,-163.5"/>
<text text-anchor="middle" x="576" y="-151.5" font-family="Helvetica,sans-Serif" font-size="10.00">mpScale</text>
</a>
</g>
</g>
<!-- Node2&#45;&gt;Node7 -->
<g id="edge7_Node000007_Node000002" class="edge">
<title>Node2&#45;&gt;Node7</title>
<g id="a_edge7_Node000007_Node000002"><a xlink:title=" ">
<path fill="none" stroke="#63b8ff" d="M409.63,-219.65C440.8,-208.82 487.75,-192.09 528,-176 537.63,-172.15 548.2,-167.57 556.97,-163.66"/>
<polygon fill="#63b8ff" stroke="#63b8ff" points="408.4,-216.37 400.1,-222.95 410.69,-222.99 408.4,-216.37"/>
</a>
</g>
</g>
<!-- Node10 -->
<g id="Node000010" class="node">
<title>Node10</title>
<g id="a_Node000010"><a xlink:href="classmpInfoLayer.html" target="_top" xlink:title="Base class to create small rectangular info boxes mpInfoLayer is the base class to create a small rec...">
<polygon fill="white" stroke="#666666" points="519,-163.5 441,-163.5 441,-144.5 519,-144.5 519,-163.5"/>
<text text-anchor="middle" x="480" y="-151.5" font-family="Helvetica,sans-Serif" font-size="10.00">mpInfoLayer</text>
</a>
</g>
</g>
<!-- Node2&#45;&gt;Node10 -->
<g id="edge12_Node000010_Node000002" class="edge">
<title>Node2&#45;&gt;Node10</title>
<g id="a_edge12_Node000010_Node000002"><a xlink:title=" ">
<path fill="none" stroke="#63b8ff" d="M395.23,-216.76C416.84,-201.02 450.38,-176.58 468.1,-163.67"/>
<polygon fill="#63b8ff" stroke="#63b8ff" points="393.07,-214.01 387.04,-222.72 397.19,-219.66 393.07,-214.01"/>
</a>
</g>
</g>
<!-- Node13 -->
<g id="Node000013" class="node">
<title>Node13</title>
<g id="a_Node000013"><a xlink:href="classmpFunction.html" target="_top" xlink:title=" ">
<polygon fill="white" stroke="#666666" points="351,-163.5 277,-163.5 277,-144.5 351,-144.5 351,-163.5"/>
<text text-anchor="middle" x="314" y="-151.5" font-family="Helvetica,sans-Serif" font-size="10.00">mpFunction</text>
</a>
</g>
</g>
<!-- Node2&#45;&gt;Node13 -->
<g id="edge18_Node000013_Node000002" class="edge">
<title>Node2&#45;&gt;Node13</title>
<g id="a_edge18_Node000013_Node000002"><a xlink:title=" ">
<path fill="none" stroke="#63b8ff" d="M361.71,-214.83C349.15,-199.08 330.8,-176.07 320.92,-163.67"/>
<polygon fill="#63b8ff" stroke="#63b8ff" points="359.03,-217.09 368,-222.72 364.5,-212.72 359.03,-217.09"/>
</a>
</g>
</g>
<!-- Node3 -->
<g id="Node000003" class="node">
<title>Node3</title>
<g id="a_Node000003"><a xlink:title=" ">
<polygon fill="white" stroke="#666666" points="406,-308 344,-308 344,-289 406,-289 406,-308"/>
<text text-anchor="middle" x="375" y="-296" font-family="Helvetica,sans-Serif" font-size="10.00">wxObject</text>
</a>
</g>
</g>
<!-- Node3&#45;&gt;Node2 -->
<g id="edge2_Node000002_Node000003" class="edge">
<title>Node3&#45;&gt;Node2</title>
<g id="a_edge2_Node000002_Node000003"><a xlink:title=" ">
<path fill="none" stroke="#63b8ff" d="M375,-278.58C375,-266.63 375,-251.72 375,-242.41"/>
<polygon fill="#63b8ff" stroke="#63b8ff" points="371.5,-278.87 375,-288.87 378.5,-278.87 371.5,-278.87"/>
</a>
</g>
</g>
<!-- Node4 -->
<g id="Node000004" class="node">
<title>Node4</title>
<g id="a_Node000004"><a xlink:href="classmpWindow.html" target="_top" xlink:title=" ">
<polygon fill="white" stroke="#666666" points="403.5,-19 332.5,-19 332.5,0 403.5,0 403.5,-19"/>
<text text-anchor="middle" x="368" y="-7" font-family="Helvetica,sans-Serif" font-size="10.00">mpWindow</text>
</a>
</g>
</g>
<!-- Node4&#45;&gt;Node2 -->
<g id="edge3_Node000002_Node000004" class="edge">
<title>Node4&#45;&gt;Node2</title>
<g id="a_edge3_Node000002_Node000004"><a xlink:title=" ">
<path fill="none" stroke="#9a32cd" stroke-dasharray="5,2" d="M324.78,-22.58C303.5,-31 279.91,-44.65 268,-66 244.18,-108.69 242.61,-134.22 268,-176 284.63,-203.36 319.6,-217.84 345.05,-225.06"/>
<polygon fill="#9a32cd" stroke="#9a32cd" points="326.16,-25.8 334.34,-19.07 323.75,-19.23 326.16,-25.8"/>
</a>
</g>
<text text-anchor="middle" x="271" y="-106" font-family="Helvetica,sans-Serif" font-size="10.00" fill="grey"> m_win</text>
</g>
<!-- Node5 -->
<g id="Node000005" class="node">
<title>Node5</title>
<g id="a_Node000005"><a xlink:title=" ">
<polygon fill="white" stroke="#666666" points="70,-85 0,-85 0,-66 70,-66 70,-85"/>
<text text-anchor="middle" x="35" y="-73" font-family="Helvetica,sans-Serif" font-size="10.00">wxWindow</text>
</a>
</g>
</g>
<!-- Node5&#45;&gt;Node4 -->
<g id="edge4_Node000004_Node000005" class="edge">
<title>Node5&#45;&gt;Node4</title>
<g id="a_edge4_Node000004_Node000005"><a xlink:title=" ">
<path fill="none" stroke="#63b8ff" d="M50.44,-59.03C59.45,-51.02 71.47,-41.9 84,-37 128.38,-19.63 266.6,-13.4 332.44,-11.38"/>
<polygon fill="#63b8ff" stroke="#63b8ff" points="47.99,-56.54 43.1,-65.93 52.78,-61.64 47.99,-56.54"/>
</a>
</g>
</g>
<!-- Node6 -->
<g id="Node000006" class="node">
<title>Node6</title>
<g id="a_Node000006"><a xlink:href="structmpAxisData.html" target="_top" xlink:title="Represents all the informations needed for plotting a layer in one direction (X or Y) This struct hol...">
<polygon fill="white" stroke="#666666" points="699.5,-85 622.5,-85 622.5,-66 699.5,-66 699.5,-85"/>
<text text-anchor="middle" x="661" y="-73" font-family="Helvetica,sans-Serif" font-size="10.00">mpAxisData</text>
</a>
</g>
</g>
<!-- Node6&#45;&gt;Node4 -->
<g id="edge5_Node000004_Node000006" class="edge">
<title>Node6&#45;&gt;Node4</title>
<g id="a_edge5_Node000004_Node000006"><a xlink:title=" ">
<path fill="none" stroke="#9a32cd" stroke-dasharray="5,2" d="M621.41,-63.29C592.59,-55.35 552.56,-44.78 517,-37 478.5,-28.58 433.96,-20.93 403.68,-16.04"/>
<polygon fill="#9a32cd" stroke="#9a32cd" points="620.53,-66.68 631.1,-65.98 622.4,-59.94 620.53,-66.68"/>
</a>
</g>
<text text-anchor="middle" x="595" y="-40" font-family="Helvetica,sans-Serif" font-size="10.00" fill="grey"> m_AxisDataX</text>
</g>
<!-- Node7&#45;&gt;Node6 -->
<g id="edge6_Node000006_Node000007" class="edge">
<title>Node7&#45;&gt;Node6</title>
<g id="a_edge6_Node000006_Node000007"><a xlink:title=" ">
<path fill="none" stroke="#9a32cd" stroke-dasharray="5,2" d="M589.86,-136.6C598.83,-126.41 611.03,-113.35 623,-103 630.55,-96.48 639.7,-90.06 647.13,-85.17"/>
<polygon fill="#9a32cd" stroke="#9a32cd" points="587.05,-134.49 583.16,-144.35 592.35,-139.07 587.05,-134.49"/>
</a>
</g>
<text text-anchor="middle" x="635" y="-106" font-family="Helvetica,sans-Serif" font-size="10.00" fill="grey"> axis</text>
</g>
<!-- Node8 -->
<g id="Node000008" class="node">
<title>Node8</title>
<g id="a_Node000008"><a xlink:href="structmpRange.html" target="_top" xlink:title=" ">
<polygon fill="white" stroke="#666666" points="677.5,-242 558.5,-242 558.5,-223 677.5,-223 677.5,-242"/>
<text text-anchor="middle" x="618" y="-230" font-family="Helvetica,sans-Serif" font-size="10.00">mpRange&lt; double &gt;</text>
</a>
</g>
</g>
<!-- Node8&#45;&gt;Node6 -->
<g id="edge9_Node000006_Node000008" class="edge">
<title>Node8&#45;&gt;Node6</title>
<g id="a_edge9_Node000006_Node000008"><a xlink:title=" ">
<path fill="none" stroke="#9a32cd" stroke-dasharray="5,2" d="M638.52,-216.34C641.85,-212.97 644.9,-209.15 647,-205 667.71,-164.17 664.3,-106.82 662.07,-85.2"/>
<polygon fill="#9a32cd" stroke="#9a32cd" points="636.2,-213.72 631.02,-222.96 640.84,-218.97 636.2,-213.72"/>
</a>
</g>
<text text-anchor="middle" x="691" y="-162.5" font-family="Helvetica,sans-Serif" font-size="10.00" fill="grey"> bound</text>
<text text-anchor="middle" x="691" y="-151.5" font-family="Helvetica,sans-Serif" font-size="10.00" fill="grey">desired</text>
<text text-anchor="middle" x="691" y="-140.5" font-family="Helvetica,sans-Serif" font-size="10.00" fill="grey">lastDesired</text>
</g>
<!-- Node8&#45;&gt;Node7 -->
<g id="edge8_Node000007_Node000008" class="edge">
<title>Node8&#45;&gt;Node7</title>
<g id="a_edge8_Node000007_Node000008"><a xlink:title=" ">
<path fill="none" stroke="#9a32cd" stroke-dasharray="5,2" d="M588.32,-217.49C583.8,-214.05 579.73,-209.9 577,-205 569.81,-192.11 571.73,-174.29 573.83,-163.77"/>
<polygon fill="#9a32cd" stroke="#9a32cd" points="586.47,-220.46 596.77,-222.95 590.27,-214.58 586.47,-220.46"/>
</a>
</g>
<text text-anchor="middle" x="612" y="-197" font-family="Helvetica,sans-Serif" font-size="10.00" fill="grey"> m_axisRange</text>
</g>
<!-- Node9 -->
<g id="Node000009" class="node">
<title>Node9</title>
<g id="a_Node000009"><a xlink:href="structmpRect.html" target="_top" xlink:title="A rectangle structure in several (integer) flavors.">
<polygon fill="white" stroke="#666666" points="200,-308 146,-308 146,-289 200,-289 200,-308"/>
<text text-anchor="middle" x="173" y="-296" font-family="Helvetica,sans-Serif" font-size="10.00">mpRect</text>
</a>
</g>
</g>
<!-- Node9&#45;&gt;Node2 -->
<g id="edge20_Node000002_Node000009" class="edge">
<title>Node9&#45;&gt;Node2</title>
<g id="a_edge20_Node000002_Node000009"><a xlink:title=" ">
<path fill="none" stroke="#9a32cd" stroke-dasharray="5,2" d="M205.25,-285.42C226.15,-277.76 254.04,-267.85 279,-260 301.1,-253.05 326.37,-246.11 345.43,-241.08"/>
<polygon fill="#9a32cd" stroke="#9a32cd" points="203.76,-282.24 195.59,-288.99 206.18,-288.81 203.76,-282.24"/>
</a>
</g>
<text text-anchor="middle" x="325" y="-263" font-family="Helvetica,sans-Serif" font-size="10.00" fill="grey"> m_plotBoundaries</text>
</g>
<!-- Node9&#45;&gt;Node4 -->
<g id="edge10_Node000004_Node000009" class="edge">
<title>Node9&#45;&gt;Node4</title>
<g id="a_edge10_Node000004_Node000009"><a xlink:title=" ">
<path fill="none" stroke="#9a32cd" stroke-dasharray="5,2" d="M140.59,-284.66C120.31,-274.27 98,-257.4 98,-233.5 98,-233.5 98,-233.5 98,-74.5 98,-26.87 259.11,-14.64 332.42,-11.53"/>
<polygon fill="#9a32cd" stroke="#9a32cd" points="139.15,-287.85 149.68,-288.99 142.15,-281.53 139.15,-287.85"/>
</a>
</g>
<text text-anchor="middle" x="159.5" y="-168" font-family="Helvetica,sans-Serif" font-size="10.00" fill="grey"> m_margin</text>
<text text-anchor="middle" x="159.5" y="-157" font-family="Helvetica,sans-Serif" font-size="10.00" fill="grey">m_marginOuter</text>
<text text-anchor="middle" x="159.5" y="-146" font-family="Helvetica,sans-Serif" font-size="10.00" fill="grey">m_plotBoundaries</text>
<text text-anchor="middle" x="159.5" y="-135" font-family="Helvetica,sans-Serif" font-size="10.00" fill="grey">m_plotBoundariesMargin</text>
</g>
<!-- Node10&#45;&gt;Node4 -->
<g id="edge11_Node000004_Node000010" class="edge">
<title>Node10&#45;&gt;Node4</title>
<g id="a_edge11_Node000004_Node000010"><a xlink:title=" ">
<path fill="none" stroke="#9a32cd" stroke-dasharray="5,2" d="M486.14,-134.57C493.2,-109.58 501.19,-64.86 479,-37 469.65,-25.26 432.49,-18.13 403.71,-14.27"/>
<polygon fill="#9a32cd" stroke="#9a32cd" points="482.75,-133.67 483.16,-144.26 489.45,-135.72 482.75,-133.67"/>
</a>
</g>
<text text-anchor="middle" x="543.5" y="-73" font-family="Helvetica,sans-Serif" font-size="10.00" fill="grey"> m_movingInfoLayer</text>
</g>
<!-- Node11 -->
<g id="Node000011" class="node">
<title>Node11</title>
<g id="a_Node000011"><a xlink:href="classmpInfoCoords.html" target="_top" xlink:title="Implements an overlay box which shows the mouse coordinates in plot units. When mouse is moved over t...">
<polygon fill="white" stroke="#666666" points="466.5,-85 381.5,-85 381.5,-66 466.5,-66 466.5,-85"/>
<text text-anchor="middle" x="424" y="-73" font-family="Helvetica,sans-Serif" font-size="10.00">mpInfoCoords</text>
</a>
</g>
</g>
<!-- Node10&#45;&gt;Node11 -->
<g id="edge14_Node000011_Node000010" class="edge">
<title>Node10&#45;&gt;Node11</title>
<g id="a_edge14_Node000011_Node000010"><a xlink:title=" ">
<path fill="none" stroke="#63b8ff" d="M467.98,-136.11C461.03,-126.39 452.08,-113.96 444,-103 439.62,-97.06 434.62,-90.44 430.72,-85.3"/>
<polygon fill="#63b8ff" stroke="#63b8ff" points="465.29,-138.36 473.94,-144.46 470.98,-134.29 465.29,-138.36"/>
</a>
</g>
</g>
<!-- Node12 -->
<g id="Node000012" class="node">
<title>Node12</title>
<g id="a_Node000012"><a xlink:href="classmpInfoLegend.html" target="_top" xlink:title="Implement the legend to be added to the plot This layer allows you to add a legend to describe the pl...">
<polygon fill="white" stroke="#666666" points="363,-85 277,-85 277,-66 363,-66 363,-85"/>
<text text-anchor="middle" x="320" y="-73" font-family="Helvetica,sans-Serif" font-size="10.00">mpInfoLegend</text>
</a>
</g>
</g>
<!-- Node10&#45;&gt;Node12 -->
<g id="edge16_Node000012_Node000010" class="edge">
<title>Node10&#45;&gt;Node12</title>
<g id="a_edge16_Node000012_Node000010"><a xlink:title=" ">
<path fill="none" stroke="#63b8ff" d="M462.87,-137.72C449.75,-126.71 430.77,-112.23 412,-103 396.04,-95.15 377.35,-89.23 361,-85"/>
<polygon fill="#63b8ff" stroke="#63b8ff" points="460.72,-140.49 470.58,-144.36 465.29,-135.18 460.72,-140.49"/>
</a>
</g>
</g>
<!-- Node11&#45;&gt;Node4 -->
<g id="edge13_Node000004_Node000011" class="edge">
<title>Node11&#45;&gt;Node4</title>
<g id="a_edge13_Node000004_Node000011"><a xlink:title=" ">
<path fill="none" stroke="#9a32cd" stroke-dasharray="5,2" d="M411.75,-57.66C406.75,-51.05 400.79,-43.51 395,-37 389.42,-30.72 382.67,-24.09 377.31,-19.04"/>
<polygon fill="#9a32cd" stroke="#9a32cd" points="409.1,-59.95 417.87,-65.9 414.72,-55.78 409.1,-59.95"/>
</a>
</g>
<text text-anchor="middle" x="439.5" y="-40" font-family="Helvetica,sans-Serif" font-size="10.00" fill="grey"> m_InfoCoords</text>
</g>
<!-- Node12&#45;&gt;Node4 -->
<g id="edge15_Node000004_Node000012" class="edge">
<title>Node12&#45;&gt;Node4</title>
<g id="a_edge15_Node000004_Node000012"><a xlink:title=" ">
<path fill="none" stroke="#9a32cd" stroke-dasharray="5,2" d="M317.53,-55.4C317.59,-49.15 318.67,-42.42 322,-37 326.92,-28.99 335.22,-23.15 343.43,-19.03"/>
<polygon fill="#9a32cd" stroke="#9a32cd" points="314.06,-56.04 318.24,-65.77 321.04,-55.55 314.06,-56.04"/>
</a>
</g>
<text text-anchor="middle" x="358.5" y="-40" font-family="Helvetica,sans-Serif" font-size="10.00" fill="grey"> m_InfoLegend</text>
</g>
<!-- Node13&#45;&gt;Node12 -->
<g id="edge17_Node000012_Node000013" class="edge">
<title>Node13&#45;&gt;Node12</title>
<g id="a_edge17_Node000012_Node000013"><a xlink:title=" ">
<path fill="none" stroke="#9a32cd" stroke-dasharray="5,2" d="M315.48,-134.1C316.71,-118.47 318.39,-96.99 319.32,-85.17"/>
<polygon fill="#9a32cd" stroke="#9a32cd" points="311.98,-133.98 314.69,-144.22 318.96,-134.53 311.98,-133.98"/>
</a>
</g>
<text text-anchor="middle" x="363" y="-106" font-family="Helvetica,sans-Serif" font-size="10.00" fill="grey"> m_selectedSeries</text>
</g>
<!-- Node14 -->
<g id="Node000014" class="node">
<title>Node14</title>
<g id="a_Node000014"><a xlink:href="classmpMagnet.html" target="_top" xlink:title=" ">
<polygon fill="white" stroke="#666666" points="786.5,-85 717.5,-85 717.5,-66 786.5,-66 786.5,-85"/>
<text text-anchor="middle" x="752" y="-73" font-family="Helvetica,sans-Serif" font-size="10.00">mpMagnet</text>
</a>
</g>
</g>
<!-- Node14&#45;&gt;Node4 -->
<g id="edge19_Node000004_Node000014" class="edge">
<title>Node14&#45;&gt;Node4</title>
<g id="a_edge19_Node000004_Node000014"><a xlink:title=" ">
<path fill="none" stroke="#9a32cd" stroke-dasharray="5,2" d="M720.3,-62.44C696.81,-53.99 663.84,-43.16 634,-37 552.64,-20.21 455.01,-13.94 403.64,-11.69"/>
<polygon fill="#9a32cd" stroke="#9a32cd" points="719.16,-65.75 729.75,-65.89 721.56,-59.17 719.16,-65.75"/>
</a>
</g>
<text text-anchor="middle" x="701" y="-40" font-family="Helvetica,sans-Serif" font-size="10.00" fill="grey"> m_magnet</text>
</g>
</g>
</svg>

<g id="navigator" transform="translate(0 0)" fill="#404254">
  <rect fill="#f2f5e9" fill-opacity="0.5" stroke="#606060" stroke-width=".5" x="0" y="0" width="60" height="60"/>
  <use id="zoomplus" xlink:href="#zoomPlus" x="17" y="9" onmousedown="handleZoom(evt,'in')"/>
  <use id="zoomminus" xlink:href="#zoomMin" x="42" y="9" onmousedown="handleZoom(evt,'out')"/>
  <use id="reset" xlink:href="#resetDef" x="30" y="36" onmousedown="handleReset()"/>
   <use id="arrowup" xlink:href="#arrowUp" x="0" y="0" onmousedown="handlePan(0,-1)"/>
  <use id="arrowright" xlink:href="#arrowRight" x="0" y="0" onmousedown="handlePan(1,0)"/>
  <use id="arrowdown" xlink:href="#arrowDown" x="0" y="0" onmousedown="handlePan(0,1)"/>
  <use id="arrowleft" xlink:href="#arrowLeft" x="0" y="0" onmousedown="handlePan(-1,0)"/>
</g>
<svg viewBox="0 0 15 15" width="100%" height="30px" preserveAspectRatio="xMaxYMin meet">
 <g id="arrow_out" transform="scale(0.3 0.3)">
  <a xlink:href="classmpText__coll__graph_org.svg" target="_base">
   <rect id="button" ry="5" rx="5" y="6" x="6" height="38" width="38"
        fill="#f2f5e9" fill-opacity="0.5" stroke="#606060" stroke-width="1.0"/>
   <path id="arrow"
     d="M 11.500037,31.436501 C 11.940474,20.09759 22.043105,11.32322 32.158766,21.979434 L 37.068811,17.246167 C 37.068811,17.246167 37.088388,32 37.088388,32 L 22.160133,31.978069 C 22.160133,31.978069 26.997745,27.140456 26.997745,27.140456 C 18.528582,18.264221 13.291696,25.230495 11.500037,31.436501 z"
     style="fill:#404040;"/>
  </a>
 </g>
</svg>

<style type='text/css'>
<![CDATA[
[data-mouse-over-selected='false'] { opacity: 0.7; }
[data-mouse-over-selected='true']  { opacity: 1.0; }
]]>
</style>
<script type="application/ecmascript"><![CDATA[
document.addEventListener('DOMContentLoaded', (event) => {
  highlightEdges();
  highlightAdjacentNodes();
});
]]></script>
</svg>
