<?xml version="1.0" encoding="UTF-8" standalone="no"?>
<!DOCTYPE svg PUBLIC "-//W3C//DTD SVG 1.1//EN"
 "http://www.w3.org/Graphics/SVG/1.1/DTD/svg11.dtd">
<!-- Generated by graphviz version 2.43.0 (0)
 -->
<!-- Title: mpPieChart Pages: 1 -->
<svg width="639pt" height="404pt"
 viewBox="0.00 0.00 638.50 404.00" xmlns="http://www.w3.org/2000/svg" xmlns:xlink="http://www.w3.org/1999/xlink">
<g id="graph0" class="graph" transform="scale(1 1) rotate(0) translate(4 400)">
<title>mpPieChart</title>
<!-- Node1 -->
<g id="Node000001" class="node">
<title>Node1</title>
<g id="a_Node000001"><a xlink:title="Layer for pie chart. Create a very basic Pie Chart.">
<polygon fill="#999999" stroke="#666666" points="74,-231 0,-231 0,-212 74,-212 74,-231"/>
<text text-anchor="middle" x="37" y="-219" font-family="Helvetica,sans-Serif" font-size="10.00">mpPieChart</text>
</a>
</g>
</g>
<!-- Node2 -->
<g id="Node000002" class="node">
<title>Node2</title>
<g id="a_Node000002"><a xlink:href="classmpChart.html" target="_top" xlink:title="abstract Layer for chart (bar and pie).">
<polygon fill="white" stroke="#666666" points="67.5,-330 8.5,-330 8.5,-311 67.5,-311 67.5,-330"/>
<text text-anchor="middle" x="38" y="-318" font-family="Helvetica,sans-Serif" font-size="10.00">mpChart</text>
</a>
</g>
</g>
<!-- Node2&#45;&gt;Node1 -->
<g id="edge1_Node000001_Node000002" class="edge">
<title>Node2&#45;&gt;Node1</title>
<g id="a_edge1_Node000001_Node000002"><a xlink:title=" ">
<path fill="none" stroke="#63b8ff" d="M37.81,-300.68C37.59,-279.74 37.25,-246.81 37.09,-231.23"/>
<polygon fill="#63b8ff" stroke="#63b8ff" points="34.31,-300.93 37.91,-310.89 41.31,-300.86 34.31,-300.93"/>
</a>
</g>
</g>
<!-- Node3 -->
<g id="Node000003" class="node">
<title>Node3</title>
<g id="a_Node000003"><a xlink:href="classmpFunction.html" target="_top" xlink:title=" ">
<polygon fill="white" stroke="#666666" points="169,-396 95,-396 95,-377 169,-377 169,-396"/>
<text text-anchor="middle" x="132" y="-384" font-family="Helvetica,sans-Serif" font-size="10.00">mpFunction</text>
</a>
</g>
</g>
<!-- Node3&#45;&gt;Node2 -->
<g id="edge2_Node000002_Node000003" class="edge">
<title>Node3&#45;&gt;Node2</title>
<g id="a_edge2_Node000002_Node000003"><a xlink:title=" ">
<path fill="none" stroke="#63b8ff" d="M110.97,-371.18C92.5,-358.61 66.24,-340.73 50.78,-330.2"/>
<polygon fill="#63b8ff" stroke="#63b8ff" points="109.09,-374.13 119.32,-376.87 113.03,-368.35 109.09,-374.13"/>
</a>
</g>
</g>
<!-- Node14 -->
<g id="Node000014" class="node">
<title>Node14</title>
<g id="a_Node000014"><a xlink:href="classmpInfoLegend.html" target="_top" xlink:title="Implement the legend to be added to the plot This layer allows you to add a legend to describe the pl...">
<polygon fill="white" stroke="#666666" points="175,-330 89,-330 89,-311 175,-311 175,-330"/>
<text text-anchor="middle" x="132" y="-318" font-family="Helvetica,sans-Serif" font-size="10.00">mpInfoLegend</text>
</a>
</g>
</g>
<!-- Node3&#45;&gt;Node14 -->
<g id="edge19_Node000014_Node000003" class="edge">
<title>Node3&#45;&gt;Node14</title>
<g id="a_edge19_Node000014_Node000003"><a xlink:title=" ">
<path fill="none" stroke="#9a32cd" stroke-dasharray="5,2" d="M132,-366.58C132,-354.63 132,-339.72 132,-330.41"/>
<polygon fill="#9a32cd" stroke="#9a32cd" points="128.5,-366.87 132,-376.87 135.5,-366.87 128.5,-366.87"/>
</a>
</g>
<text text-anchor="middle" x="177" y="-351" font-family="Helvetica,sans-Serif" font-size="10.00" fill="grey"> m_selectedSeries</text>
</g>
<!-- Node4 -->
<g id="Node000004" class="node">
<title>Node4</title>
<g id="a_Node000004"><a xlink:href="classmpLayer.html" target="_top" xlink:title=" ">
<polygon fill="white" stroke="#666666" points="482.5,-165 423.5,-165 423.5,-146 482.5,-146 482.5,-165"/>
<text text-anchor="middle" x="453" y="-153" font-family="Helvetica,sans-Serif" font-size="10.00">mpLayer</text>
</a>
</g>
</g>
<!-- Node4&#45;&gt;Node3 -->
<g id="edge3_Node000003_Node000004" class="edge">
<title>Node4&#45;&gt;Node3</title>
<g id="a_edge3_Node000003_Node000004"><a xlink:title=" ">
<path fill="none" stroke="#63b8ff" d="M492.56,-165.46C517.18,-173.3 546.93,-187.42 562,-212 596.47,-268.23 529.97,-298.53 472,-330 420.1,-358.18 245.91,-375.91 169.02,-382.54"/>
<polygon fill="#63b8ff" stroke="#63b8ff" points="493.31,-162.03 482.73,-162.56 491.34,-168.75 493.31,-162.03"/>
</a>
</g>
</g>
<!-- Node9 -->
<g id="Node000009" class="node">
<title>Node9</title>
<g id="a_Node000009"><a xlink:href="classmpScale.html" target="_top" xlink:title=" ">
<polygon fill="white" stroke="#666666" points="511.5,-92 452.5,-92 452.5,-73 511.5,-73 511.5,-92"/>
<text text-anchor="middle" x="482" y="-80" font-family="Helvetica,sans-Serif" font-size="10.00">mpScale</text>
</a>
</g>
</g>
<!-- Node4&#45;&gt;Node9 -->
<g id="edge9_Node000009_Node000004" class="edge">
<title>Node4&#45;&gt;Node9</title>
<g id="a_edge9_Node000009_Node000004"><a xlink:title=" ">
<path fill="none" stroke="#63b8ff" d="M460.5,-136.14C466.26,-122.03 473.97,-103.17 478.41,-92.28"/>
<polygon fill="#63b8ff" stroke="#63b8ff" points="457.1,-135.21 456.56,-145.79 463.58,-137.86 457.1,-135.21"/>
</a>
</g>
</g>
<!-- Node12 -->
<g id="Node000012" class="node">
<title>Node12</title>
<g id="a_Node000012"><a xlink:href="classmpInfoLayer.html" target="_top" xlink:title="Base class to create small rectangular info boxes mpInfoLayer is the base class to create a small rec...">
<polygon fill="white" stroke="#666666" points="256,-92 178,-92 178,-73 256,-73 256,-92"/>
<text text-anchor="middle" x="217" y="-80" font-family="Helvetica,sans-Serif" font-size="10.00">mpInfoLayer</text>
</a>
</g>
</g>
<!-- Node4&#45;&gt;Node12 -->
<g id="edge14_Node000012_Node000004" class="edge">
<title>Node4&#45;&gt;Node12</title>
<g id="a_edge14_Node000012_Node000004"><a xlink:title=" ">
<path fill="none" stroke="#63b8ff" d="M444.17,-136.61C439.7,-129.4 433.6,-121.69 426,-117 398.24,-99.87 308.5,-90.39 256.07,-86.19"/>
<polygon fill="#63b8ff" stroke="#63b8ff" points="441.34,-138.73 449.23,-145.81 447.47,-135.36 441.34,-138.73"/>
</a>
</g>
</g>
<!-- Node5 -->
<g id="Node000005" class="node">
<title>Node5</title>
<g id="a_Node000005"><a xlink:title=" ">
<polygon fill="white" stroke="#666666" points="437,-231 375,-231 375,-212 437,-212 437,-231"/>
<text text-anchor="middle" x="406" y="-219" font-family="Helvetica,sans-Serif" font-size="10.00">wxObject</text>
</a>
</g>
</g>
<!-- Node5&#45;&gt;Node4 -->
<g id="edge4_Node000004_Node000005" class="edge">
<title>Node5&#45;&gt;Node4</title>
<g id="a_edge4_Node000004_Node000005"><a xlink:title=" ">
<path fill="none" stroke="#63b8ff" d="M418.29,-203.77C427.3,-191.49 439.2,-175.3 446.46,-165.41"/>
<polygon fill="#63b8ff" stroke="#63b8ff" points="415.44,-201.74 412.34,-211.87 421.08,-205.88 415.44,-201.74"/>
</a>
</g>
</g>
<!-- Node6 -->
<g id="Node000006" class="node">
<title>Node6</title>
<g id="a_Node000006"><a xlink:href="classmpWindow.html" target="_top" xlink:title=" ">
<polygon fill="white" stroke="#666666" points="302.5,-231 231.5,-231 231.5,-212 302.5,-212 302.5,-231"/>
<text text-anchor="middle" x="267" y="-219" font-family="Helvetica,sans-Serif" font-size="10.00">mpWindow</text>
</a>
</g>
</g>
<!-- Node6&#45;&gt;Node4 -->
<g id="edge5_Node000004_Node000006" class="edge">
<title>Node6&#45;&gt;Node4</title>
<g id="a_edge5_Node000004_Node000006"><a xlink:title=" ">
<path fill="none" stroke="#9a32cd" stroke-dasharray="5,2" d="M312.69,-210.72C329.72,-206.44 349.03,-200.82 366,-194 375.41,-190.22 376.82,-187.32 386,-183 400.04,-176.4 416.19,-169.97 429.12,-165.1"/>
<polygon fill="#9a32cd" stroke="#9a32cd" points="311.85,-207.32 302.96,-213.08 313.5,-214.12 311.85,-207.32"/>
</a>
</g>
<text text-anchor="middle" x="404" y="-186" font-family="Helvetica,sans-Serif" font-size="10.00" fill="grey"> m_win</text>
</g>
<!-- Node7 -->
<g id="Node000007" class="node">
<title>Node7</title>
<g id="a_Node000007"><a xlink:title=" ">
<polygon fill="white" stroke="#666666" points="353,-330 283,-330 283,-311 353,-311 353,-330"/>
<text text-anchor="middle" x="318" y="-318" font-family="Helvetica,sans-Serif" font-size="10.00">wxWindow</text>
</a>
</g>
</g>
<!-- Node7&#45;&gt;Node6 -->
<g id="edge6_Node000006_Node000007" class="edge">
<title>Node7&#45;&gt;Node6</title>
<g id="a_edge6_Node000006_Node000007"><a xlink:title=" ">
<path fill="none" stroke="#63b8ff" d="M311.71,-301.07C306.36,-286.45 297.96,-265.77 288,-249 284.28,-242.74 279.24,-236.33 275.03,-231.38"/>
<polygon fill="#63b8ff" stroke="#63b8ff" points="308.55,-302.64 315.18,-310.9 315.15,-300.3 308.55,-302.64"/>
</a>
</g>
</g>
<!-- Node8 -->
<g id="Node000008" class="node">
<title>Node8</title>
<g id="a_Node000008"><a xlink:href="structmpAxisData.html" target="_top" xlink:title="Represents all the informations needed for plotting a layer in one direction (X or Y) This struct hol...">
<polygon fill="white" stroke="#666666" points="520.5,-19 443.5,-19 443.5,0 520.5,0 520.5,-19"/>
<text text-anchor="middle" x="482" y="-7" font-family="Helvetica,sans-Serif" font-size="10.00">mpAxisData</text>
</a>
</g>
</g>
<!-- Node8&#45;&gt;Node6 -->
<g id="edge7_Node000006_Node000008" class="edge">
<title>Node8&#45;&gt;Node6</title>
<g id="a_edge7_Node000006_Node000008"><a xlink:title=" ">
<path fill="none" stroke="#9a32cd" stroke-dasharray="5,2" d="M468.68,-27.04C444.68,-56.37 391.92,-118.76 341,-165 320.91,-183.25 295.09,-201.59 279.87,-211.95"/>
<polygon fill="#9a32cd" stroke="#9a32cd" points="471.58,-29.02 475.17,-19.05 466.15,-24.6 471.58,-29.02"/>
</a>
</g>
<text text-anchor="middle" x="423" y="-120" font-family="Helvetica,sans-Serif" font-size="10.00" fill="grey"> m_AxisDataX</text>
</g>
<!-- Node9&#45;&gt;Node8 -->
<g id="edge8_Node000008_Node000009" class="edge">
<title>Node9&#45;&gt;Node8</title>
<g id="a_edge8_Node000008_Node000009"><a xlink:title=" ">
<path fill="none" stroke="#9a32cd" stroke-dasharray="5,2" d="M482,-62.73C482,-48.66 482,-30.06 482,-19.28"/>
<polygon fill="#9a32cd" stroke="#9a32cd" points="478.5,-62.79 482,-72.79 485.5,-62.79 478.5,-62.79"/>
</a>
</g>
<text text-anchor="middle" x="494" y="-40" font-family="Helvetica,sans-Serif" font-size="10.00" fill="grey"> axis</text>
</g>
<!-- Node10 -->
<g id="Node000010" class="node">
<title>Node10</title>
<g id="a_Node000010"><a xlink:href="structmpRange.html" target="_top" xlink:title=" ">
<polygon fill="white" stroke="#666666" points="630.5,-165 511.5,-165 511.5,-146 630.5,-146 630.5,-165"/>
<text text-anchor="middle" x="571" y="-153" font-family="Helvetica,sans-Serif" font-size="10.00">mpRange&lt; double &gt;</text>
</a>
</g>
</g>
<!-- Node10&#45;&gt;Node8 -->
<g id="edge11_Node000008_Node000010" class="edge">
<title>Node10&#45;&gt;Node8</title>
<g id="a_edge11_Node000008_Node000010"><a xlink:title=" ">
<path fill="none" stroke="#9a32cd" stroke-dasharray="5,2" d="M572.11,-135.82C571.93,-129.67 571.12,-122.91 569,-117 553.52,-73.85 512.32,-35.52 492.69,-19.05"/>
<polygon fill="#9a32cd" stroke="#9a32cd" points="568.61,-135.82 571.91,-145.89 575.61,-135.96 568.61,-135.82"/>
</a>
</g>
<text text-anchor="middle" x="588" y="-91" font-family="Helvetica,sans-Serif" font-size="10.00" fill="grey"> bound</text>
<text text-anchor="middle" x="588" y="-80" font-family="Helvetica,sans-Serif" font-size="10.00" fill="grey">desired</text>
<text text-anchor="middle" x="588" y="-69" font-family="Helvetica,sans-Serif" font-size="10.00" fill="grey">lastDesired</text>
</g>
<!-- Node10&#45;&gt;Node9 -->
<g id="edge10_Node000009_Node000010" class="edge">
<title>Node10&#45;&gt;Node9</title>
<g id="a_edge10_Node000009_Node000010"><a xlink:title=" ">
<path fill="none" stroke="#9a32cd" stroke-dasharray="5,2" d="M519.95,-142.01C512.26,-138.43 504.93,-133.86 499,-128 489.12,-118.24 484.88,-102.12 483.14,-92.2"/>
<polygon fill="#9a32cd" stroke="#9a32cd" points="518.87,-145.34 529.45,-145.88 521.51,-138.86 518.87,-145.34"/>
</a>
</g>
<text text-anchor="middle" x="534" y="-120" font-family="Helvetica,sans-Serif" font-size="10.00" fill="grey"> m_axisRange</text>
</g>
<!-- Node11 -->
<g id="Node000011" class="node">
<title>Node11</title>
<g id="a_Node000011"><a xlink:href="structmpRect.html" target="_top" xlink:title="A rectangle structure in several (integer) flavors.">
<polygon fill="white" stroke="#666666" points="463,-330 409,-330 409,-311 463,-311 463,-330"/>
<text text-anchor="middle" x="436" y="-318" font-family="Helvetica,sans-Serif" font-size="10.00">mpRect</text>
</a>
</g>
</g>
<!-- Node11&#45;&gt;Node4 -->
<g id="edge21_Node000004_Node000011" class="edge">
<title>Node11&#45;&gt;Node4</title>
<g id="a_edge21_Node000004_Node000011"><a xlink:title=" ">
<path fill="none" stroke="#9a32cd" stroke-dasharray="5,2" d="M453.13,-303.27C455.53,-300.11 457.64,-296.64 459,-293 476.01,-247.45 461.93,-187.32 455.65,-165.17"/>
<polygon fill="#9a32cd" stroke="#9a32cd" points="450.45,-301.01 446.41,-310.81 455.68,-305.67 450.45,-301.01"/>
</a>
</g>
<text text-anchor="middle" x="512" y="-219" font-family="Helvetica,sans-Serif" font-size="10.00" fill="grey"> m_plotBoundaries</text>
</g>
<!-- Node11&#45;&gt;Node6 -->
<g id="edge12_Node000006_Node000011" class="edge">
<title>Node11&#45;&gt;Node6</title>
<g id="a_edge12_Node000006_Node000011"><a xlink:title=" ">
<path fill="none" stroke="#9a32cd" stroke-dasharray="5,2" d="M398.62,-316.75C378.32,-313.61 353.81,-306.97 336,-293 318.47,-279.25 327.49,-265.01 312,-249 304.81,-241.57 295.1,-235.5 286.54,-231.06"/>
<polygon fill="#9a32cd" stroke="#9a32cd" points="398.42,-320.25 408.79,-318.09 399.33,-313.31 398.42,-320.25"/>
</a>
</g>
<text text-anchor="middle" x="397.5" y="-285" font-family="Helvetica,sans-Serif" font-size="10.00" fill="grey"> m_margin</text>
<text text-anchor="middle" x="397.5" y="-274" font-family="Helvetica,sans-Serif" font-size="10.00" fill="grey">m_marginOuter</text>
<text text-anchor="middle" x="397.5" y="-263" font-family="Helvetica,sans-Serif" font-size="10.00" fill="grey">m_plotBoundaries</text>
<text text-anchor="middle" x="397.5" y="-252" font-family="Helvetica,sans-Serif" font-size="10.00" fill="grey">m_plotBoundariesMargin</text>
</g>
<!-- Node12&#45;&gt;Node6 -->
<g id="edge13_Node000006_Node000012" class="edge">
<title>Node12&#45;&gt;Node6</title>
<g id="a_edge13_Node000006_Node000012"><a xlink:title=" ">
<path fill="none" stroke="#9a32cd" stroke-dasharray="5,2" d="M221.31,-102.34C225.36,-119.06 232.01,-144.01 240,-165 246.48,-182.02 256.26,-200.91 262.1,-211.68"/>
<polygon fill="#9a32cd" stroke="#9a32cd" points="224.62,-101.16 218.92,-92.23 217.81,-102.77 224.62,-101.16"/>
</a>
</g>
<text text-anchor="middle" x="290.5" y="-153" font-family="Helvetica,sans-Serif" font-size="10.00" fill="grey"> m_movingInfoLayer</text>
</g>
<!-- Node13 -->
<g id="Node000013" class="node">
<title>Node13</title>
<g id="a_Node000013"><a xlink:href="classmpInfoCoords.html" target="_top" xlink:title="Implements an overlay box which shows the mouse coordinates in plot units. When mouse is moved over t...">
<polygon fill="white" stroke="#666666" points="201.5,-19 116.5,-19 116.5,0 201.5,0 201.5,-19"/>
<text text-anchor="middle" x="159" y="-7" font-family="Helvetica,sans-Serif" font-size="10.00">mpInfoCoords</text>
</a>
</g>
</g>
<!-- Node12&#45;&gt;Node13 -->
<g id="edge16_Node000013_Node000012" class="edge">
<title>Node12&#45;&gt;Node13</title>
<g id="a_edge16_Node000013_Node000012"><a xlink:title=" ">
<path fill="none" stroke="#63b8ff" d="M203.34,-64.78C191.7,-50.52 175.42,-30.6 166.17,-19.28"/>
<polygon fill="#63b8ff" stroke="#63b8ff" points="200.85,-67.26 209.89,-72.79 206.27,-62.84 200.85,-67.26"/>
</a>
</g>
</g>
<!-- Node12&#45;&gt;Node14 -->
<g id="edge18_Node000014_Node000012" class="edge">
<title>Node12&#45;&gt;Node14</title>
<g id="a_edge18_Node000014_Node000012"><a xlink:title=" ">
<path fill="none" stroke="#63b8ff" d="M167.7,-88.12C149.01,-92.55 129.48,-101 118,-117 73.63,-178.85 114.1,-280.49 127.83,-310.74"/>
<polygon fill="#63b8ff" stroke="#63b8ff" points="168.55,-91.52 177.65,-86.1 167.16,-84.66 168.55,-91.52"/>
</a>
</g>
</g>
<!-- Node13&#45;&gt;Node6 -->
<g id="edge15_Node000006_Node000013" class="edge">
<title>Node13&#45;&gt;Node6</title>
<g id="a_edge15_Node000006_Node000013"><a xlink:title=" ">
<path fill="none" stroke="#9a32cd" stroke-dasharray="5,2" d="M152.2,-28.6C144.35,-52.62 134.38,-95.74 150,-128 170.31,-169.95 219.9,-198.64 247.56,-211.98"/>
<polygon fill="#9a32cd" stroke="#9a32cd" points="155.56,-29.61 155.56,-19.01 148.95,-27.29 155.56,-29.61"/>
</a>
</g>
<text text-anchor="middle" x="185.5" y="-120" font-family="Helvetica,sans-Serif" font-size="10.00" fill="grey"> m_InfoCoords</text>
</g>
<!-- Node14&#45;&gt;Node6 -->
<g id="edge17_Node000006_Node000014" class="edge">
<title>Node14&#45;&gt;Node6</title>
<g id="a_edge17_Node000006_Node000014"><a xlink:title=" ">
<path fill="none" stroke="#9a32cd" stroke-dasharray="5,2" d="M131.09,-300.49C131.41,-284.58 134.55,-262.4 148,-249 159.62,-237.42 200.8,-230.15 231.47,-226.21"/>
<polygon fill="#9a32cd" stroke="#9a32cd" points="127.59,-300.8 131.25,-310.74 134.59,-300.69 127.59,-300.8"/>
</a>
</g>
<text text-anchor="middle" x="184.5" y="-268.5" font-family="Helvetica,sans-Serif" font-size="10.00" fill="grey"> m_InfoLegend</text>
</g>
<!-- Node15 -->
<g id="Node000015" class="node">
<title>Node15</title>
<g id="a_Node000015"><a xlink:href="classmpMagnet.html" target="_top" xlink:title=" ">
<polygon fill="white" stroke="#666666" points="264.5,-330 195.5,-330 195.5,-311 264.5,-311 264.5,-330"/>
<text text-anchor="middle" x="230" y="-318" font-family="Helvetica,sans-Serif" font-size="10.00">mpMagnet</text>
</a>
</g>
</g>
<!-- Node15&#45;&gt;Node6 -->
<g id="edge20_Node000006_Node000015" class="edge">
<title>Node15&#45;&gt;Node6</title>
<g id="a_edge20_Node000006_Node000015"><a xlink:title=" ">
<path fill="none" stroke="#9a32cd" stroke-dasharray="5,2" d="M226.28,-300.63C224.32,-285.77 223.78,-264.96 232,-249 235.91,-241.41 243.1,-235.39 249.95,-231.02"/>
<polygon fill="#9a32cd" stroke="#9a32cd" points="222.86,-301.36 227.94,-310.66 229.76,-300.22 222.86,-301.36"/>
</a>
</g>
<text text-anchor="middle" x="260" y="-268.5" font-family="Helvetica,sans-Serif" font-size="10.00" fill="grey"> m_magnet</text>
</g>
</g>
</svg>
