<?xml version="1.0" encoding="UTF-8" standalone="no"?>
<!DOCTYPE svg PUBLIC "-//W3C//DTD SVG 1.1//EN"
 "http://www.w3.org/Graphics/SVG/1.1/DTD/svg11.dtd">
<!-- Generated by graphviz version 2.43.0 (0)
 -->
<!-- Title: mpPolygon Pages: 1 -->
<svg width="114pt" height="247pt"
 viewBox="0.00 0.00 114.00 247.00" xmlns="http://www.w3.org/2000/svg" xmlns:xlink="http://www.w3.org/1999/xlink">
<g id="graph0" class="graph" transform="scale(1 1) rotate(0) translate(4 243)">
<title>mpPolygon</title>
<!-- Node1 -->
<g id="Node000001" class="node">
<title>Node1</title>
<g id="a_Node000001"><a xlink:title=" ">
<polygon fill="#999999" stroke="#666666" points="88.5,-19 17.5,-19 17.5,0 88.5,0 88.5,-19"/>
<text text-anchor="middle" x="53" y="-7" font-family="Helvetica,sans-Serif" font-size="10.00">mpPolygon</text>
</a>
</g>
</g>
<!-- Node2 -->
<g id="Node000002" class="node">
<title>Node2</title>
<g id="a_Node000002"><a xlink:href="classmpMovableObject.html" target="_top" xlink:title=" ">
<polygon fill="white" stroke="#666666" points="106,-74 0,-74 0,-55 106,-55 106,-74"/>
<text text-anchor="middle" x="53" y="-62" font-family="Helvetica,sans-Serif" font-size="10.00">mpMovableObject</text>
</a>
</g>
</g>
<!-- Node2&#45;&gt;Node1 -->
<g id="edge1_Node000001_Node000002" class="edge">
<title>Node2&#45;&gt;Node1</title>
<g id="a_edge1_Node000001_Node000002"><a xlink:title=" ">
<path fill="none" stroke="#63b8ff" d="M53,-44.66C53,-35.93 53,-25.99 53,-19.09"/>
<polygon fill="#63b8ff" stroke="#63b8ff" points="49.5,-44.75 53,-54.75 56.5,-44.75 49.5,-44.75"/>
</a>
</g>
</g>
<!-- Node3 -->
<g id="Node000003" class="node">
<title>Node3</title>
<g id="a_Node000003"><a xlink:href="classmpFunction.html" target="_top" xlink:title=" ">
<polygon fill="white" stroke="#666666" points="90,-129 16,-129 16,-110 90,-110 90,-129"/>
<text text-anchor="middle" x="53" y="-117" font-family="Helvetica,sans-Serif" font-size="10.00">mpFunction</text>
</a>
</g>
</g>
<!-- Node3&#45;&gt;Node2 -->
<g id="edge2_Node000002_Node000003" class="edge">
<title>Node3&#45;&gt;Node2</title>
<g id="a_edge2_Node000002_Node000003"><a xlink:title=" ">
<path fill="none" stroke="#63b8ff" d="M53,-99.66C53,-90.93 53,-80.99 53,-74.09"/>
<polygon fill="#63b8ff" stroke="#63b8ff" points="49.5,-99.75 53,-109.75 56.5,-99.75 49.5,-99.75"/>
</a>
</g>
</g>
<!-- Node4 -->
<g id="Node000004" class="node">
<title>Node4</title>
<g id="a_Node000004"><a xlink:href="classmpLayer.html" target="_top" xlink:title=" ">
<polygon fill="white" stroke="#666666" points="82.5,-184 23.5,-184 23.5,-165 82.5,-165 82.5,-184"/>
<text text-anchor="middle" x="53" y="-172" font-family="Helvetica,sans-Serif" font-size="10.00">mpLayer</text>
</a>
</g>
</g>
<!-- Node4&#45;&gt;Node3 -->
<g id="edge3_Node000003_Node000004" class="edge">
<title>Node4&#45;&gt;Node3</title>
<g id="a_edge3_Node000003_Node000004"><a xlink:title=" ">
<path fill="none" stroke="#63b8ff" d="M53,-154.66C53,-145.93 53,-135.99 53,-129.09"/>
<polygon fill="#63b8ff" stroke="#63b8ff" points="49.5,-154.75 53,-164.75 56.5,-154.75 49.5,-154.75"/>
</a>
</g>
</g>
<!-- Node5 -->
<g id="Node000005" class="node">
<title>Node5</title>
<g id="a_Node000005"><a xlink:title=" ">
<polygon fill="white" stroke="#666666" points="84,-239 22,-239 22,-220 84,-220 84,-239"/>
<text text-anchor="middle" x="53" y="-227" font-family="Helvetica,sans-Serif" font-size="10.00">wxObject</text>
</a>
</g>
</g>
<!-- Node5&#45;&gt;Node4 -->
<g id="edge4_Node000004_Node000005" class="edge">
<title>Node5&#45;&gt;Node4</title>
<g id="a_edge4_Node000004_Node000005"><a xlink:title=" ">
<path fill="none" stroke="#63b8ff" d="M53,-209.66C53,-200.93 53,-190.99 53,-184.09"/>
<polygon fill="#63b8ff" stroke="#63b8ff" points="49.5,-209.75 53,-219.75 56.5,-209.75 49.5,-209.75"/>
</a>
</g>
</g>
</g>
</svg>
