<?xml version="1.0" encoding="UTF-8" standalone="no"?>
<!DOCTYPE svg PUBLIC "-//W3C//DTD SVG 1.1//EN"
 "http://www.w3.org/Graphics/SVG/1.1/DTD/svg11.dtd">
<!-- Generated by graphviz version 2.43.0 (0)
 -->
<!-- Title: mpFXGeneric Pages: 1 -->
<svg width="672pt" height="404pt"
 viewBox="0.00 0.00 671.50 404.00" xmlns="http://www.w3.org/2000/svg" xmlns:xlink="http://www.w3.org/1999/xlink">
<g id="graph0" class="graph" transform="scale(1 1) rotate(0) translate(4 400)">
<title>mpFXGeneric</title>
<!-- Node1 -->
<g id="Node000001" class="node">
<title>Node1</title>
<g id="a_Node000001"><a xlink:title="Create a generic FX function Override the ComputeY() function with your function.">
<polygon fill="#999999" stroke="#666666" points="663.5,-92 580.5,-92 580.5,-73 663.5,-73 663.5,-92"/>
<text text-anchor="middle" x="622" y="-80" font-family="Helvetica,sans-Serif" font-size="10.00">mpFXGeneric</text>
</a>
</g>
</g>
<!-- Node2 -->
<g id="Node000002" class="node">
<title>Node2</title>
<g id="a_Node000002"><a xlink:href="classmp_f_x.html" target="_top" xlink:title="Abstract base class providing plot and labeling functionality for functions F:X&#45;&gt;Y.">
<polygon fill="white" stroke="#666666" points="626.5,-280.5 581.5,-280.5 581.5,-261.5 626.5,-261.5 626.5,-280.5"/>
<text text-anchor="middle" x="604" y="-268.5" font-family="Helvetica,sans-Serif" font-size="10.00">mpFX</text>
</a>
</g>
</g>
<!-- Node2&#45;&gt;Node1 -->
<g id="edge1_Node000001_Node000002" class="edge">
<title>Node2&#45;&gt;Node1</title>
<g id="a_edge1_Node000001_Node000002"><a xlink:title=" ">
<path fill="none" stroke="#63b8ff" d="M605.85,-250.81C609.69,-211.05 618.38,-121.02 621.14,-92.41"/>
<polygon fill="#63b8ff" stroke="#63b8ff" points="602.35,-250.71 604.87,-261 609.31,-251.39 602.35,-250.71"/>
</a>
</g>
</g>
<!-- Node3 -->
<g id="Node000003" class="node">
<title>Node3</title>
<g id="a_Node000003"><a xlink:href="classmp_function.html" target="_top" xlink:title="Plot layer implementing an abstract function plot class.">
<polygon fill="white" stroke="#666666" points="543,-396 469,-396 469,-377 543,-377 543,-396"/>
<text text-anchor="middle" x="506" y="-384" font-family="Helvetica,sans-Serif" font-size="10.00">mpFunction</text>
</a>
</g>
</g>
<!-- Node3&#45;&gt;Node2 -->
<g id="edge2_Node000002_Node000003" class="edge">
<title>Node3&#45;&gt;Node2</title>
<g id="a_edge2_Node000002_Node000003"><a xlink:title=" ">
<path fill="none" stroke="#63b8ff" d="M520,-369.29C541.08,-344.88 580.22,-299.54 596.55,-280.63"/>
<polygon fill="#63b8ff" stroke="#63b8ff" points="517.25,-367.11 513.37,-376.97 522.55,-371.69 517.25,-367.11"/>
</a>
</g>
</g>
<!-- Node14 -->
<g id="Node000014" class="node">
<title>Node14</title>
<g id="a_Node000014"><a xlink:href="classmp_info_legend.html" target="_top" xlink:title="Implement the legend to be added to the plot This layer allows you to add a legend to describe the pl...">
<polygon fill="white" stroke="#666666" points="86,-330 0,-330 0,-311 86,-311 86,-330"/>
<text text-anchor="middle" x="43" y="-318" font-family="Helvetica,sans-Serif" font-size="10.00">mpInfoLegend</text>
</a>
</g>
</g>
<!-- Node3&#45;&gt;Node14 -->
<g id="edge19_Node000014_Node000003" class="edge">
<title>Node3&#45;&gt;Node14</title>
<g id="a_edge19_Node000014_Node000003"><a xlink:title=" ">
<path fill="none" stroke="#9a32cd" stroke-dasharray="5,2" d="M458.56,-379.53C381.99,-369.79 226.44,-349.61 95,-330 92.1,-329.57 89.12,-329.11 86.12,-328.64"/>
<polygon fill="#9a32cd" stroke="#9a32cd" points="458.47,-383.05 468.83,-380.83 459.35,-376.1 458.47,-383.05"/>
</a>
</g>
<text text-anchor="middle" x="342" y="-351" font-family="Helvetica,sans-Serif" font-size="10.00" fill="grey"> m_selectedSeries</text>
</g>
<!-- Node4 -->
<g id="Node000004" class="node">
<title>Node4</title>
<g id="a_Node000004"><a xlink:href="classmp_layer.html" target="_top" xlink:title="Plot layer, abstract base class.">
<polygon fill="white" stroke="#666666" points="415.5,-165 356.5,-165 356.5,-146 415.5,-146 415.5,-165"/>
<text text-anchor="middle" x="386" y="-153" font-family="Helvetica,sans-Serif" font-size="10.00">mpLayer</text>
</a>
</g>
</g>
<!-- Node4&#45;&gt;Node3 -->
<g id="edge3_Node000003_Node000004" class="edge">
<title>Node4&#45;&gt;Node3</title>
<g id="a_edge3_Node000003_Node000004"><a xlink:title=" ">
<path fill="none" stroke="#63b8ff" d="M425.23,-168.34C446.74,-176.92 471.83,-190.82 486,-212 521.73,-265.43 512,-349.35 507.6,-376.62"/>
<polygon fill="#63b8ff" stroke="#63b8ff" points="426.25,-164.98 415.65,-164.76 423.8,-171.54 426.25,-164.98"/>
</a>
</g>
</g>
<!-- Node9 -->
<g id="Node000009" class="node">
<title>Node9</title>
<g id="a_Node000009"><a xlink:href="classmp_scale.html" target="_top" xlink:title="Plot layer implementing an abstract scale ruler.">
<polygon fill="white" stroke="#666666" points="432.5,-92 373.5,-92 373.5,-73 432.5,-73 432.5,-92"/>
<text text-anchor="middle" x="403" y="-80" font-family="Helvetica,sans-Serif" font-size="10.00">mpScale</text>
</a>
</g>
</g>
<!-- Node4&#45;&gt;Node9 -->
<g id="edge9_Node000009_Node000004" class="edge">
<title>Node4&#45;&gt;Node9</title>
<g id="a_edge9_Node000009_Node000004"><a xlink:title=" ">
<path fill="none" stroke="#63b8ff" d="M390.5,-135.73C393.86,-121.66 398.32,-103.06 400.9,-92.28"/>
<polygon fill="#63b8ff" stroke="#63b8ff" points="387.01,-135.25 388.08,-145.79 393.82,-136.88 387.01,-135.25"/>
</a>
</g>
</g>
<!-- Node12 -->
<g id="Node000012" class="node">
<title>Node12</title>
<g id="a_Node000012"><a xlink:href="classmp_info_layer.html" target="_top" xlink:title="Base class to create small rectangular info boxes mpInfoLayer is the base class to create a small rec...">
<polygon fill="white" stroke="#666666" points="142,-92 64,-92 64,-73 142,-73 142,-92"/>
<text text-anchor="middle" x="103" y="-80" font-family="Helvetica,sans-Serif" font-size="10.00">mpInfoLayer</text>
</a>
</g>
</g>
<!-- Node4&#45;&gt;Node12 -->
<g id="edge14_Node000012_Node000004" class="edge">
<title>Node4&#45;&gt;Node12</title>
<g id="a_edge14_Node000012_Node000004"><a xlink:title=" ">
<path fill="none" stroke="#63b8ff" d="M346.16,-154.1C303.68,-152.6 234.96,-147.07 179,-128 154.25,-119.56 128.66,-102.54 114.39,-92.17"/>
<polygon fill="#63b8ff" stroke="#63b8ff" points="346.27,-157.6 356.37,-154.4 346.48,-150.61 346.27,-157.6"/>
</a>
</g>
</g>
<!-- Node5 -->
<g id="Node000005" class="node">
<title>Node5</title>
<g id="a_Node000005"><a xlink:title=" ">
<polygon fill="white" stroke="#bfbfbf" points="596,-231 534,-231 534,-212 596,-212 596,-231"/>
<text text-anchor="middle" x="565" y="-219" font-family="Helvetica,sans-Serif" font-size="10.00">wxObject</text>
</a>
</g>
</g>
<!-- Node5&#45;&gt;Node4 -->
<g id="edge4_Node000004_Node000005" class="edge">
<title>Node5&#45;&gt;Node4</title>
<g id="a_edge4_Node000004_Node000005"><a xlink:title=" ">
<path fill="none" stroke="#63b8ff" d="M550.02,-204.73C541.86,-197.04 531.15,-188.32 520,-183 510.69,-178.56 452.13,-167.91 415.57,-161.55"/>
<polygon fill="#63b8ff" stroke="#63b8ff" points="547.7,-207.36 557.27,-211.91 552.63,-202.39 547.7,-207.36"/>
</a>
</g>
</g>
<!-- Node6 -->
<g id="Node000006" class="node">
<title>Node6</title>
<g id="a_Node000006"><a xlink:href="classmp_window.html" target="_top" xlink:title="Canvas for plotting mpLayer implementations.">
<polygon fill="white" stroke="#666666" points="222.5,-231 151.5,-231 151.5,-212 222.5,-212 222.5,-231"/>
<text text-anchor="middle" x="187" y="-219" font-family="Helvetica,sans-Serif" font-size="10.00">mpWindow</text>
</a>
</g>
</g>
<!-- Node6&#45;&gt;Node4 -->
<g id="edge5_Node000004_Node000006" class="edge">
<title>Node6&#45;&gt;Node4</title>
<g id="a_edge5_Node000004_Node000006"><a xlink:title=" ">
<path fill="none" stroke="#9a32cd" stroke-dasharray="5,2" d="M232.74,-213.91C257.02,-209.66 287.1,-203.19 313,-194 318.81,-191.94 350.1,-175.54 369.79,-165.12"/>
<polygon fill="#9a32cd" stroke="#9a32cd" points="232.01,-210.49 222.73,-215.6 233.17,-217.39 232.01,-210.49"/>
</a>
</g>
<text text-anchor="middle" x="352" y="-186" font-family="Helvetica,sans-Serif" font-size="10.00" fill="grey"> m_win</text>
</g>
<!-- Node7 -->
<g id="Node000007" class="node">
<title>Node7</title>
<g id="a_Node000007"><a xlink:title=" ">
<polygon fill="white" stroke="#bfbfbf" points="174,-330 104,-330 104,-311 174,-311 174,-330"/>
<text text-anchor="middle" x="139" y="-318" font-family="Helvetica,sans-Serif" font-size="10.00">wxWindow</text>
</a>
</g>
</g>
<!-- Node7&#45;&gt;Node6 -->
<g id="edge6_Node000006_Node000007" class="edge">
<title>Node7&#45;&gt;Node6</title>
<g id="a_edge6_Node000006_Node000007"><a xlink:title=" ">
<path fill="none" stroke="#63b8ff" d="M143.13,-300.84C146.91,-286.09 153.38,-265.34 163,-249 166.9,-242.37 172.66,-235.94 177.55,-231.08"/>
<polygon fill="#63b8ff" stroke="#63b8ff" points="139.68,-300.23 140.76,-310.77 146.49,-301.86 139.68,-300.23"/>
</a>
</g>
</g>
<!-- Node8 -->
<g id="Node000008" class="node">
<title>Node8</title>
<g id="a_Node000008"><a xlink:href="structmp_axis_data.html" target="_top" xlink:title="Represents all the informations needed for plotting a layer in one direction (X or Y) This struct hol...">
<polygon fill="white" stroke="#666666" points="441.5,-19 364.5,-19 364.5,0 441.5,0 441.5,-19"/>
<text text-anchor="middle" x="403" y="-7" font-family="Helvetica,sans-Serif" font-size="10.00">mpAxisData</text>
</a>
</g>
</g>
<!-- Node8&#45;&gt;Node6 -->
<g id="edge7_Node000006_Node000008" class="edge">
<title>Node8&#45;&gt;Node6</title>
<g id="a_edge7_Node000006_Node000008"><a xlink:title=" ">
<path fill="none" stroke="#9a32cd" stroke-dasharray="5,2" d="M386.59,-26.46C343.64,-68.21 229.01,-179.66 196.01,-211.74"/>
<polygon fill="#9a32cd" stroke="#9a32cd" points="389.23,-28.77 393.96,-19.29 384.35,-23.75 389.23,-28.77"/>
</a>
</g>
<text text-anchor="middle" x="327" y="-120" font-family="Helvetica,sans-Serif" font-size="10.00" fill="grey"> m_AxisDataX</text>
</g>
<!-- Node9&#45;&gt;Node8 -->
<g id="edge8_Node000008_Node000009" class="edge">
<title>Node9&#45;&gt;Node8</title>
<g id="a_edge8_Node000008_Node000009"><a xlink:title=" ">
<path fill="none" stroke="#9a32cd" stroke-dasharray="5,2" d="M403,-62.73C403,-48.66 403,-30.06 403,-19.28"/>
<polygon fill="#9a32cd" stroke="#9a32cd" points="399.5,-62.79 403,-72.79 406.5,-62.79 399.5,-62.79"/>
</a>
</g>
<text text-anchor="middle" x="415" y="-40" font-family="Helvetica,sans-Serif" font-size="10.00" fill="grey"> axis</text>
</g>
<!-- Node10 -->
<g id="Node000010" class="node">
<title>Node10</title>
<g id="a_Node000010"><a xlink:href="structmp_range.html" target="_top" xlink:title=" ">
<polygon fill="white" stroke="#666666" points="563.5,-165 444.5,-165 444.5,-146 563.5,-146 563.5,-165"/>
<text text-anchor="middle" x="504" y="-153" font-family="Helvetica,sans-Serif" font-size="10.00">mpRange&lt; double &gt;</text>
</a>
</g>
</g>
<!-- Node10&#45;&gt;Node1 -->
<g id="edge22_Node000001_Node000010" class="edge">
<title>Node10&#45;&gt;Node1</title>
<g id="a_edge22_Node000001_Node000010"><a xlink:title=" ">
<path fill="none" stroke="#9a32cd" stroke-dasharray="5,2" d="M523.83,-139.84C533.87,-132.65 546.37,-124.04 558,-117 573.23,-107.77 591.26,-98.48 604.29,-92.02"/>
<polygon fill="#9a32cd" stroke="#9a32cd" points="521.77,-137.02 515.73,-145.72 525.88,-142.68 521.77,-137.02"/>
</a>
</g>
<text text-anchor="middle" x="584" y="-120" font-family="Helvetica,sans-Serif" font-size="10.00" fill="grey"> m_rangeY</text>
</g>
<!-- Node10&#45;&gt;Node8 -->
<g id="edge11_Node000008_Node000010" class="edge">
<title>Node10&#45;&gt;Node8</title>
<g id="a_edge11_Node000008_Node000010"><a xlink:title=" ">
<path fill="none" stroke="#9a32cd" stroke-dasharray="5,2" d="M498.34,-136.25C496.09,-129.98 493.27,-123.03 490,-117 468.96,-78.15 460.27,-70.09 431,-37 425.41,-30.68 418.54,-24.16 413.01,-19.17"/>
<polygon fill="#9a32cd" stroke="#9a32cd" points="495.06,-137.48 501.53,-145.87 501.7,-135.27 495.06,-137.48"/>
</a>
</g>
<text text-anchor="middle" x="507" y="-91" font-family="Helvetica,sans-Serif" font-size="10.00" fill="grey"> bound</text>
<text text-anchor="middle" x="507" y="-80" font-family="Helvetica,sans-Serif" font-size="10.00" fill="grey">desired</text>
<text text-anchor="middle" x="507" y="-69" font-family="Helvetica,sans-Serif" font-size="10.00" fill="grey">lastDesired</text>
</g>
<!-- Node10&#45;&gt;Node9 -->
<g id="edge10_Node000009_Node000010" class="edge">
<title>Node10&#45;&gt;Node9</title>
<g id="a_edge10_Node000009_Node000010"><a xlink:title=" ">
<path fill="none" stroke="#9a32cd" stroke-dasharray="5,2" d="M442.31,-142.27C434.13,-138.67 426.39,-134.02 420,-128 409.89,-118.47 405.73,-102.28 404.06,-92.28"/>
<polygon fill="#9a32cd" stroke="#9a32cd" points="441.08,-145.55 451.67,-145.9 443.61,-139.02 441.08,-145.55"/>
</a>
</g>
<text text-anchor="middle" x="455" y="-120" font-family="Helvetica,sans-Serif" font-size="10.00" fill="grey"> m_axisRange</text>
</g>
<!-- Node11 -->
<g id="Node000011" class="node">
<title>Node11</title>
<g id="a_Node000011"><a xlink:href="structmp_rect.html" target="_top" xlink:title="A rectangle structure in several (integer) flavors.">
<polygon fill="white" stroke="#666666" points="375,-330 321,-330 321,-311 375,-311 375,-330"/>
<text text-anchor="middle" x="348" y="-318" font-family="Helvetica,sans-Serif" font-size="10.00">mpRect</text>
</a>
</g>
</g>
<!-- Node11&#45;&gt;Node4 -->
<g id="edge21_Node000004_Node000011" class="edge">
<title>Node11&#45;&gt;Node4</title>
<g id="a_edge21_Node000004_Node000011"><a xlink:title=" ">
<path fill="none" stroke="#9a32cd" stroke-dasharray="5,2" d="M367.46,-303.92C370.45,-300.63 373.15,-296.95 375,-293 395.75,-248.64 390.23,-187.28 387.28,-165.01"/>
<polygon fill="#9a32cd" stroke="#9a32cd" points="365.04,-301.39 360.22,-310.82 369.87,-306.45 365.04,-301.39"/>
</a>
</g>
<text text-anchor="middle" x="436" y="-219" font-family="Helvetica,sans-Serif" font-size="10.00" fill="grey"> m_plotBoundaries</text>
</g>
<!-- Node11&#45;&gt;Node6 -->
<g id="edge12_Node000006_Node000011" class="edge">
<title>Node11&#45;&gt;Node6</title>
<g id="a_edge12_Node000006_Node000011"><a xlink:title=" ">
<path fill="none" stroke="#9a32cd" stroke-dasharray="5,2" d="M310.94,-316.35C291.64,-313.08 268.65,-306.44 252,-293 234.83,-279.14 243.96,-265.22 229,-249 222.22,-241.65 212.96,-235.52 204.86,-231.01"/>
<polygon fill="#9a32cd" stroke="#9a32cd" points="310.54,-319.83 320.94,-317.81 311.55,-312.9 310.54,-319.83"/>
</a>
</g>
<text text-anchor="middle" x="313.5" y="-285" font-family="Helvetica,sans-Serif" font-size="10.00" fill="grey"> m_margin</text>
<text text-anchor="middle" x="313.5" y="-274" font-family="Helvetica,sans-Serif" font-size="10.00" fill="grey">m_marginOuter</text>
<text text-anchor="middle" x="313.5" y="-263" font-family="Helvetica,sans-Serif" font-size="10.00" fill="grey">m_plotBoundaries</text>
<text text-anchor="middle" x="313.5" y="-252" font-family="Helvetica,sans-Serif" font-size="10.00" fill="grey">m_plotBoundariesMargin</text>
</g>
<!-- Node12&#45;&gt;Node6 -->
<g id="edge13_Node000006_Node000012" class="edge">
<title>Node12&#45;&gt;Node6</title>
<g id="a_edge13_Node000006_Node000012"><a xlink:title=" ">
<path fill="none" stroke="#9a32cd" stroke-dasharray="5,2" d="M92.46,-101.27C83.67,-118.63 74.31,-145.24 86,-165 100.57,-189.63 130.37,-204.06 153.85,-212"/>
<polygon fill="#9a32cd" stroke="#9a32cd" points="95.67,-102.7 97.4,-92.24 89.53,-99.33 95.67,-102.7"/>
</a>
</g>
<text text-anchor="middle" x="136.5" y="-153" font-family="Helvetica,sans-Serif" font-size="10.00" fill="grey"> m_movingInfoLayer</text>
</g>
<!-- Node13 -->
<g id="Node000013" class="node">
<title>Node13</title>
<g id="a_Node000013"><a xlink:href="classmp_info_coords.html" target="_top" xlink:title="Implements an overlay box which shows the mouse coordinates in plot units.">
<polygon fill="white" stroke="#666666" points="231.5,-19 146.5,-19 146.5,0 231.5,0 231.5,-19"/>
<text text-anchor="middle" x="189" y="-7" font-family="Helvetica,sans-Serif" font-size="10.00">mpInfoCoords</text>
</a>
</g>
</g>
<!-- Node12&#45;&gt;Node13 -->
<g id="edge16_Node000013_Node000012" class="edge">
<title>Node12&#45;&gt;Node13</title>
<g id="a_edge16_Node000013_Node000012"><a xlink:title=" ">
<path fill="none" stroke="#63b8ff" d="M121.38,-66.33C138.84,-51.91 164.47,-30.75 178.64,-19.06"/>
<polygon fill="#63b8ff" stroke="#63b8ff" points="119.03,-63.73 113.55,-72.79 123.49,-69.13 119.03,-63.73"/>
</a>
</g>
</g>
<!-- Node12&#45;&gt;Node14 -->
<g id="edge18_Node000014_Node000012" class="edge">
<title>Node12&#45;&gt;Node14</title>
<g id="a_edge18_Node000014_Node000012"><a xlink:title=" ">
<path fill="none" stroke="#63b8ff" d="M88.64,-100.13C84.75,-105.27 80.83,-111.14 78,-117 51.59,-171.65 50.84,-188.82 43,-249 40.12,-271.09 41.34,-297.4 42.28,-310.77"/>
<polygon fill="#63b8ff" stroke="#63b8ff" points="91.43,-102.25 94.98,-92.27 85.97,-97.86 91.43,-102.25"/>
</a>
</g>
</g>
<!-- Node13&#45;&gt;Node6 -->
<g id="edge15_Node000006_Node000013" class="edge">
<title>Node13&#45;&gt;Node6</title>
<g id="a_edge15_Node000006_Node000013"><a xlink:title=" ">
<path fill="none" stroke="#9a32cd" stroke-dasharray="5,2" d="M188.82,-29.43C188.4,-73.26 187.38,-180.39 187.08,-211.74"/>
<polygon fill="#9a32cd" stroke="#9a32cd" points="192.32,-29.33 188.92,-19.29 185.32,-29.26 192.32,-29.33"/>
</a>
</g>
<text text-anchor="middle" x="222.5" y="-120" font-family="Helvetica,sans-Serif" font-size="10.00" fill="grey"> m_InfoCoords</text>
</g>
<!-- Node14&#45;&gt;Node6 -->
<g id="edge17_Node000006_Node000014" class="edge">
<title>Node14&#45;&gt;Node6</title>
<g id="a_edge17_Node000006_Node000014"><a xlink:title=" ">
<path fill="none" stroke="#9a32cd" stroke-dasharray="5,2" d="M44.74,-300.3C47.23,-284.27 53.29,-262.02 68,-249 80.24,-238.16 121.05,-230.75 151.49,-226.58"/>
<polygon fill="#9a32cd" stroke="#9a32cd" points="41.22,-300.3 43.49,-310.65 48.17,-301.14 41.22,-300.3"/>
</a>
</g>
<text text-anchor="middle" x="104.5" y="-268.5" font-family="Helvetica,sans-Serif" font-size="10.00" fill="grey"> m_InfoLegend</text>
</g>
<!-- Node15 -->
<g id="Node000015" class="node">
<title>Node15</title>
<g id="a_Node000015"><a xlink:href="classmp_magnet.html" target="_top" xlink:title="Class for drawing mouse magnetization Draw an horizontal and a vertical line at the mouse position.">
<polygon fill="white" stroke="#666666" points="261.5,-330 192.5,-330 192.5,-311 261.5,-311 261.5,-330"/>
<text text-anchor="middle" x="227" y="-318" font-family="Helvetica,sans-Serif" font-size="10.00">mpMagnet</text>
</a>
</g>
</g>
<!-- Node15&#45;&gt;Node6 -->
<g id="edge20_Node000006_Node000015" class="edge">
<title>Node15&#45;&gt;Node6</title>
<g id="a_edge20_Node000006_Node000015"><a xlink:title=" ">
<path fill="none" stroke="#9a32cd" stroke-dasharray="5,2" d="M186.61,-306.21C181.2,-302.75 176.37,-298.41 173,-293 162.66,-276.4 168.29,-267.98 173,-249 174.55,-242.74 177.89,-236.32 180.91,-231.38"/>
<polygon fill="#9a32cd" stroke="#9a32cd" points="184.99,-309.31 195.45,-310.98 188.31,-303.15 184.99,-309.31"/>
</a>
</g>
<text text-anchor="middle" x="201" y="-268.5" font-family="Helvetica,sans-Serif" font-size="10.00" fill="grey"> m_magnet</text>
</g>
</g>
</svg>
