<?xml version="1.0" encoding="UTF-8" standalone="no"?>
<!DOCTYPE svg PUBLIC "-//W3C//DTD SVG 1.1//EN"
 "http://www.w3.org/Graphics/SVG/1.1/DTD/svg11.dtd">
<!-- Generated by graphviz version 2.43.0 (0)
 -->
<!-- Title: mpVerticalLine Pages: 1 -->
<svg width="654pt" height="404pt"
 viewBox="0.00 0.00 654.00 404.00" xmlns="http://www.w3.org/2000/svg" xmlns:xlink="http://www.w3.org/1999/xlink">
<g id="graph0" class="graph" transform="scale(1 1) rotate(0) translate(4 400)">
<title>mpVerticalLine</title>
<!-- Node1 -->
<g id="Node000001" class="node">
<title>Node1</title>
<g id="a_Node000001"><a xlink:title="Abstract class providing an vertical line.">
<polygon fill="#999999" stroke="#666666" points="89,-231 0,-231 0,-212 89,-212 89,-231"/>
<text text-anchor="middle" x="44.5" y="-219" font-family="Helvetica,sans-Serif" font-size="10.00">mpVerticalLine</text>
</a>
</g>
</g>
<!-- Node2 -->
<g id="Node000002" class="node">
<title>Node2</title>
<g id="a_Node000002"><a xlink:href="classmp_line.html" target="_top" xlink:title="Abstract class providing a line.">
<polygon fill="white" stroke="#666666" points="74,-330 21,-330 21,-311 74,-311 74,-330"/>
<text text-anchor="middle" x="47.5" y="-318" font-family="Helvetica,sans-Serif" font-size="10.00">mpLine</text>
</a>
</g>
</g>
<!-- Node2&#45;&gt;Node1 -->
<g id="edge1_Node000001_Node000002" class="edge">
<title>Node2&#45;&gt;Node1</title>
<g id="a_edge1_Node000001_Node000002"><a xlink:title=" ">
<path fill="none" stroke="#63b8ff" d="M46.92,-300.68C46.27,-279.74 45.25,-246.81 44.77,-231.23"/>
<polygon fill="#63b8ff" stroke="#63b8ff" points="43.43,-301 47.23,-310.89 50.42,-300.79 43.43,-301"/>
</a>
</g>
</g>
<!-- Node3 -->
<g id="Node000003" class="node">
<title>Node3</title>
<g id="a_Node000003"><a xlink:href="classmp_function.html" target="_top" xlink:title="Plot layer implementing an abstract function plot class.">
<polygon fill="white" stroke="#666666" points="181.5,-396 107.5,-396 107.5,-377 181.5,-377 181.5,-396"/>
<text text-anchor="middle" x="144.5" y="-384" font-family="Helvetica,sans-Serif" font-size="10.00">mpFunction</text>
</a>
</g>
</g>
<!-- Node3&#45;&gt;Node2 -->
<g id="edge2_Node000002_Node000003" class="edge">
<title>Node3&#45;&gt;Node2</title>
<g id="a_edge2_Node000002_Node000003"><a xlink:title=" ">
<path fill="none" stroke="#63b8ff" d="M123.05,-371.35C103.99,-358.77 76.71,-340.78 60.68,-330.2"/>
<polygon fill="#63b8ff" stroke="#63b8ff" points="121.14,-374.28 131.42,-376.87 125,-368.44 121.14,-374.28"/>
</a>
</g>
</g>
<!-- Node14 -->
<g id="Node000014" class="node">
<title>Node14</title>
<g id="a_Node000014"><a xlink:href="classmp_info_legend.html" target="_top" xlink:title="Implement the legend to be added to the plot This layer allows you to add a legend to describe the pl...">
<polygon fill="white" stroke="#666666" points="187.5,-330 101.5,-330 101.5,-311 187.5,-311 187.5,-330"/>
<text text-anchor="middle" x="144.5" y="-318" font-family="Helvetica,sans-Serif" font-size="10.00">mpInfoLegend</text>
</a>
</g>
</g>
<!-- Node3&#45;&gt;Node14 -->
<g id="edge19_Node000014_Node000003" class="edge">
<title>Node3&#45;&gt;Node14</title>
<g id="a_edge19_Node000014_Node000003"><a xlink:title=" ">
<path fill="none" stroke="#9a32cd" stroke-dasharray="5,2" d="M144.5,-366.58C144.5,-354.63 144.5,-339.72 144.5,-330.41"/>
<polygon fill="#9a32cd" stroke="#9a32cd" points="141,-366.87 144.5,-376.87 148,-366.87 141,-366.87"/>
</a>
</g>
<text text-anchor="middle" x="189.5" y="-351" font-family="Helvetica,sans-Serif" font-size="10.00" fill="grey"> m_selectedSeries</text>
</g>
<!-- Node4 -->
<g id="Node000004" class="node">
<title>Node4</title>
<g id="a_Node000004"><a xlink:href="classmp_layer.html" target="_top" xlink:title="Plot layer, abstract base class.">
<polygon fill="white" stroke="#666666" points="498,-165 439,-165 439,-146 498,-146 498,-165"/>
<text text-anchor="middle" x="468.5" y="-153" font-family="Helvetica,sans-Serif" font-size="10.00">mpLayer</text>
</a>
</g>
</g>
<!-- Node4&#45;&gt;Node3 -->
<g id="edge3_Node000003_Node000004" class="edge">
<title>Node4&#45;&gt;Node3</title>
<g id="a_edge3_Node000003_Node000004"><a xlink:title=" ">
<path fill="none" stroke="#63b8ff" d="M508.06,-165.46C532.68,-173.3 562.43,-187.42 577.5,-212 611.97,-268.23 545.49,-298.57 487.5,-330 435.06,-358.42 258.97,-376.05 181.55,-382.6"/>
<polygon fill="#63b8ff" stroke="#63b8ff" points="508.81,-162.03 498.23,-162.56 506.84,-168.75 508.81,-162.03"/>
</a>
</g>
</g>
<!-- Node9 -->
<g id="Node000009" class="node">
<title>Node9</title>
<g id="a_Node000009"><a xlink:href="classmp_scale.html" target="_top" xlink:title="Plot layer implementing an abstract scale ruler.">
<polygon fill="white" stroke="#666666" points="527,-92 468,-92 468,-73 527,-73 527,-92"/>
<text text-anchor="middle" x="497.5" y="-80" font-family="Helvetica,sans-Serif" font-size="10.00">mpScale</text>
</a>
</g>
</g>
<!-- Node4&#45;&gt;Node9 -->
<g id="edge9_Node000009_Node000004" class="edge">
<title>Node4&#45;&gt;Node9</title>
<g id="a_edge9_Node000009_Node000004"><a xlink:title=" ">
<path fill="none" stroke="#63b8ff" d="M476,-136.14C481.76,-122.03 489.47,-103.17 493.91,-92.28"/>
<polygon fill="#63b8ff" stroke="#63b8ff" points="472.6,-135.21 472.06,-145.79 479.08,-137.86 472.6,-135.21"/>
</a>
</g>
</g>
<!-- Node12 -->
<g id="Node000012" class="node">
<title>Node12</title>
<g id="a_Node000012"><a xlink:href="classmp_info_layer.html" target="_top" xlink:title="Base class to create small rectangular info boxes mpInfoLayer is the base class to create a small rec...">
<polygon fill="white" stroke="#666666" points="271.5,-92 193.5,-92 193.5,-73 271.5,-73 271.5,-92"/>
<text text-anchor="middle" x="232.5" y="-80" font-family="Helvetica,sans-Serif" font-size="10.00">mpInfoLayer</text>
</a>
</g>
</g>
<!-- Node4&#45;&gt;Node12 -->
<g id="edge14_Node000012_Node000004" class="edge">
<title>Node4&#45;&gt;Node12</title>
<g id="a_edge14_Node000012_Node000004"><a xlink:title=" ">
<path fill="none" stroke="#63b8ff" d="M459.67,-136.61C455.2,-129.4 449.1,-121.69 441.5,-117 413.74,-99.87 324,-90.39 271.57,-86.19"/>
<polygon fill="#63b8ff" stroke="#63b8ff" points="456.84,-138.73 464.73,-145.81 462.97,-135.36 456.84,-138.73"/>
</a>
</g>
</g>
<!-- Node5 -->
<g id="Node000005" class="node">
<title>Node5</title>
<g id="a_Node000005"><a xlink:title=" ">
<polygon fill="white" stroke="#bfbfbf" points="452.5,-231 390.5,-231 390.5,-212 452.5,-212 452.5,-231"/>
<text text-anchor="middle" x="421.5" y="-219" font-family="Helvetica,sans-Serif" font-size="10.00">wxObject</text>
</a>
</g>
</g>
<!-- Node5&#45;&gt;Node4 -->
<g id="edge4_Node000004_Node000005" class="edge">
<title>Node5&#45;&gt;Node4</title>
<g id="a_edge4_Node000004_Node000005"><a xlink:title=" ">
<path fill="none" stroke="#63b8ff" d="M433.79,-203.77C442.8,-191.49 454.7,-175.3 461.96,-165.41"/>
<polygon fill="#63b8ff" stroke="#63b8ff" points="430.94,-201.74 427.84,-211.87 436.58,-205.88 430.94,-201.74"/>
</a>
</g>
</g>
<!-- Node6 -->
<g id="Node000006" class="node">
<title>Node6</title>
<g id="a_Node000006"><a xlink:href="classmp_window.html" target="_top" xlink:title="Canvas for plotting mpLayer implementations.">
<polygon fill="white" stroke="#666666" points="318,-231 247,-231 247,-212 318,-212 318,-231"/>
<text text-anchor="middle" x="282.5" y="-219" font-family="Helvetica,sans-Serif" font-size="10.00">mpWindow</text>
</a>
</g>
</g>
<!-- Node6&#45;&gt;Node4 -->
<g id="edge5_Node000004_Node000006" class="edge">
<title>Node6&#45;&gt;Node4</title>
<g id="a_edge5_Node000004_Node000006"><a xlink:title=" ">
<path fill="none" stroke="#9a32cd" stroke-dasharray="5,2" d="M328.19,-210.72C345.22,-206.44 364.53,-200.82 381.5,-194 390.91,-190.22 392.32,-187.32 401.5,-183 415.54,-176.4 431.69,-169.97 444.62,-165.1"/>
<polygon fill="#9a32cd" stroke="#9a32cd" points="327.35,-207.32 318.46,-213.08 329,-214.12 327.35,-207.32"/>
</a>
</g>
<text text-anchor="middle" x="419.5" y="-186" font-family="Helvetica,sans-Serif" font-size="10.00" fill="grey"> m_win</text>
</g>
<!-- Node7 -->
<g id="Node000007" class="node">
<title>Node7</title>
<g id="a_Node000007"><a xlink:title=" ">
<polygon fill="white" stroke="#bfbfbf" points="367.5,-330 297.5,-330 297.5,-311 367.5,-311 367.5,-330"/>
<text text-anchor="middle" x="332.5" y="-318" font-family="Helvetica,sans-Serif" font-size="10.00">wxWindow</text>
</a>
</g>
</g>
<!-- Node7&#45;&gt;Node6 -->
<g id="edge6_Node000006_Node000007" class="edge">
<title>Node7&#45;&gt;Node6</title>
<g id="a_edge6_Node000006_Node000007"><a xlink:title=" ">
<path fill="none" stroke="#63b8ff" d="M326.52,-301.06C321.4,-286.43 313.31,-265.74 303.5,-249 299.82,-242.72 294.78,-236.31 290.56,-231.36"/>
<polygon fill="#63b8ff" stroke="#63b8ff" points="323.32,-302.53 329.83,-310.89 329.95,-300.3 323.32,-302.53"/>
</a>
</g>
</g>
<!-- Node8 -->
<g id="Node000008" class="node">
<title>Node8</title>
<g id="a_Node000008"><a xlink:href="structmp_axis_data.html" target="_top" xlink:title="Represents all the informations needed for plotting a layer in one direction (X or Y) This struct hol...">
<polygon fill="white" stroke="#666666" points="536,-19 459,-19 459,0 536,0 536,-19"/>
<text text-anchor="middle" x="497.5" y="-7" font-family="Helvetica,sans-Serif" font-size="10.00">mpAxisData</text>
</a>
</g>
</g>
<!-- Node8&#45;&gt;Node6 -->
<g id="edge7_Node000006_Node000008" class="edge">
<title>Node8&#45;&gt;Node6</title>
<g id="a_edge7_Node000006_Node000008"><a xlink:title=" ">
<path fill="none" stroke="#9a32cd" stroke-dasharray="5,2" d="M484.18,-27.04C460.18,-56.37 407.42,-118.76 356.5,-165 336.41,-183.25 310.59,-201.59 295.37,-211.95"/>
<polygon fill="#9a32cd" stroke="#9a32cd" points="487.08,-29.02 490.67,-19.05 481.65,-24.6 487.08,-29.02"/>
</a>
</g>
<text text-anchor="middle" x="438.5" y="-120" font-family="Helvetica,sans-Serif" font-size="10.00" fill="grey"> m_AxisDataX</text>
</g>
<!-- Node9&#45;&gt;Node8 -->
<g id="edge8_Node000008_Node000009" class="edge">
<title>Node9&#45;&gt;Node8</title>
<g id="a_edge8_Node000008_Node000009"><a xlink:title=" ">
<path fill="none" stroke="#9a32cd" stroke-dasharray="5,2" d="M497.5,-62.73C497.5,-48.66 497.5,-30.06 497.5,-19.28"/>
<polygon fill="#9a32cd" stroke="#9a32cd" points="494,-62.79 497.5,-72.79 501,-62.79 494,-62.79"/>
</a>
</g>
<text text-anchor="middle" x="509.5" y="-40" font-family="Helvetica,sans-Serif" font-size="10.00" fill="grey"> axis</text>
</g>
<!-- Node10 -->
<g id="Node000010" class="node">
<title>Node10</title>
<g id="a_Node000010"><a xlink:href="structmp_range.html" target="_top" xlink:title=" ">
<polygon fill="white" stroke="#666666" points="646,-165 527,-165 527,-146 646,-146 646,-165"/>
<text text-anchor="middle" x="586.5" y="-153" font-family="Helvetica,sans-Serif" font-size="10.00">mpRange&lt; double &gt;</text>
</a>
</g>
</g>
<!-- Node10&#45;&gt;Node8 -->
<g id="edge11_Node000008_Node000010" class="edge">
<title>Node10&#45;&gt;Node8</title>
<g id="a_edge11_Node000008_Node000010"><a xlink:title=" ">
<path fill="none" stroke="#9a32cd" stroke-dasharray="5,2" d="M587.61,-135.82C587.43,-129.67 586.62,-122.91 584.5,-117 569.02,-73.85 527.82,-35.52 508.19,-19.05"/>
<polygon fill="#9a32cd" stroke="#9a32cd" points="584.11,-135.82 587.41,-145.89 591.11,-135.96 584.11,-135.82"/>
</a>
</g>
<text text-anchor="middle" x="603.5" y="-91" font-family="Helvetica,sans-Serif" font-size="10.00" fill="grey"> bound</text>
<text text-anchor="middle" x="603.5" y="-80" font-family="Helvetica,sans-Serif" font-size="10.00" fill="grey">desired</text>
<text text-anchor="middle" x="603.5" y="-69" font-family="Helvetica,sans-Serif" font-size="10.00" fill="grey">lastDesired</text>
</g>
<!-- Node10&#45;&gt;Node9 -->
<g id="edge10_Node000009_Node000010" class="edge">
<title>Node10&#45;&gt;Node9</title>
<g id="a_edge10_Node000009_Node000010"><a xlink:title=" ">
<path fill="none" stroke="#9a32cd" stroke-dasharray="5,2" d="M535.45,-142.01C527.76,-138.43 520.43,-133.86 514.5,-128 504.62,-118.24 500.38,-102.12 498.64,-92.2"/>
<polygon fill="#9a32cd" stroke="#9a32cd" points="534.37,-145.34 544.95,-145.88 537.01,-138.86 534.37,-145.34"/>
</a>
</g>
<text text-anchor="middle" x="549.5" y="-120" font-family="Helvetica,sans-Serif" font-size="10.00" fill="grey"> m_axisRange</text>
</g>
<!-- Node11 -->
<g id="Node000011" class="node">
<title>Node11</title>
<g id="a_Node000011"><a xlink:href="structmp_rect.html" target="_top" xlink:title="A rectangle structure in several (integer) flavors.">
<polygon fill="white" stroke="#666666" points="478.5,-330 424.5,-330 424.5,-311 478.5,-311 478.5,-330"/>
<text text-anchor="middle" x="451.5" y="-318" font-family="Helvetica,sans-Serif" font-size="10.00">mpRect</text>
</a>
</g>
</g>
<!-- Node11&#45;&gt;Node4 -->
<g id="edge21_Node000004_Node000011" class="edge">
<title>Node11&#45;&gt;Node4</title>
<g id="a_edge21_Node000004_Node000011"><a xlink:title=" ">
<path fill="none" stroke="#9a32cd" stroke-dasharray="5,2" d="M468.63,-303.27C471.03,-300.11 473.14,-296.64 474.5,-293 491.51,-247.45 477.43,-187.32 471.15,-165.17"/>
<polygon fill="#9a32cd" stroke="#9a32cd" points="465.95,-301.01 461.91,-310.81 471.18,-305.67 465.95,-301.01"/>
</a>
</g>
<text text-anchor="middle" x="527.5" y="-219" font-family="Helvetica,sans-Serif" font-size="10.00" fill="grey"> m_plotBoundaries</text>
</g>
<!-- Node11&#45;&gt;Node6 -->
<g id="edge12_Node000006_Node000011" class="edge">
<title>Node11&#45;&gt;Node6</title>
<g id="a_edge12_Node000006_Node000011"><a xlink:title=" ">
<path fill="none" stroke="#9a32cd" stroke-dasharray="5,2" d="M414.21,-316.63C393.94,-313.45 369.43,-306.82 351.5,-293 333.68,-279.27 342.2,-265.1 326.5,-249 319.4,-241.72 309.9,-235.67 301.54,-231.2"/>
<polygon fill="#9a32cd" stroke="#9a32cd" points="413.99,-320.13 424.37,-317.99 414.92,-313.19 413.99,-320.13"/>
</a>
</g>
<text text-anchor="middle" x="413" y="-285" font-family="Helvetica,sans-Serif" font-size="10.00" fill="grey"> m_margin</text>
<text text-anchor="middle" x="413" y="-274" font-family="Helvetica,sans-Serif" font-size="10.00" fill="grey">m_marginOuter</text>
<text text-anchor="middle" x="413" y="-263" font-family="Helvetica,sans-Serif" font-size="10.00" fill="grey">m_plotBoundaries</text>
<text text-anchor="middle" x="413" y="-252" font-family="Helvetica,sans-Serif" font-size="10.00" fill="grey">m_plotBoundariesMargin</text>
</g>
<!-- Node12&#45;&gt;Node6 -->
<g id="edge13_Node000006_Node000012" class="edge">
<title>Node12&#45;&gt;Node6</title>
<g id="a_edge13_Node000006_Node000012"><a xlink:title=" ">
<path fill="none" stroke="#9a32cd" stroke-dasharray="5,2" d="M236.81,-102.34C240.86,-119.06 247.51,-144.01 255.5,-165 261.98,-182.02 271.76,-200.91 277.6,-211.68"/>
<polygon fill="#9a32cd" stroke="#9a32cd" points="240.12,-101.16 234.42,-92.23 233.31,-102.77 240.12,-101.16"/>
</a>
</g>
<text text-anchor="middle" x="306" y="-153" font-family="Helvetica,sans-Serif" font-size="10.00" fill="grey"> m_movingInfoLayer</text>
</g>
<!-- Node13 -->
<g id="Node000013" class="node">
<title>Node13</title>
<g id="a_Node000013"><a xlink:href="classmp_info_coords.html" target="_top" xlink:title="Implements an overlay box which shows the mouse coordinates in plot units.">
<polygon fill="white" stroke="#666666" points="217,-19 132,-19 132,0 217,0 217,-19"/>
<text text-anchor="middle" x="174.5" y="-7" font-family="Helvetica,sans-Serif" font-size="10.00">mpInfoCoords</text>
</a>
</g>
</g>
<!-- Node12&#45;&gt;Node13 -->
<g id="edge16_Node000013_Node000012" class="edge">
<title>Node12&#45;&gt;Node13</title>
<g id="a_edge16_Node000013_Node000012"><a xlink:title=" ">
<path fill="none" stroke="#63b8ff" d="M218.84,-64.78C207.2,-50.52 190.92,-30.6 181.67,-19.28"/>
<polygon fill="#63b8ff" stroke="#63b8ff" points="216.35,-67.26 225.39,-72.79 221.77,-62.84 216.35,-67.26"/>
</a>
</g>
</g>
<!-- Node12&#45;&gt;Node14 -->
<g id="edge18_Node000014_Node000012" class="edge">
<title>Node12&#45;&gt;Node14</title>
<g id="a_edge18_Node000014_Node000012"><a xlink:title=" ">
<path fill="none" stroke="#63b8ff" d="M183.2,-88.12C164.51,-92.55 144.98,-101 133.5,-117 89.17,-178.8 127.48,-280.47 140.53,-310.74"/>
<polygon fill="#63b8ff" stroke="#63b8ff" points="184.05,-91.52 193.15,-86.1 182.66,-84.66 184.05,-91.52"/>
</a>
</g>
</g>
<!-- Node13&#45;&gt;Node6 -->
<g id="edge15_Node000006_Node000013" class="edge">
<title>Node13&#45;&gt;Node6</title>
<g id="a_edge15_Node000006_Node000013"><a xlink:title=" ">
<path fill="none" stroke="#9a32cd" stroke-dasharray="5,2" d="M167.7,-28.6C159.85,-52.62 149.88,-95.74 165.5,-128 185.81,-169.95 235.4,-198.64 263.06,-211.98"/>
<polygon fill="#9a32cd" stroke="#9a32cd" points="171.06,-29.61 171.06,-19.01 164.45,-27.29 171.06,-29.61"/>
</a>
</g>
<text text-anchor="middle" x="201" y="-120" font-family="Helvetica,sans-Serif" font-size="10.00" fill="grey"> m_InfoCoords</text>
</g>
<!-- Node14&#45;&gt;Node6 -->
<g id="edge17_Node000006_Node000014" class="edge">
<title>Node14&#45;&gt;Node6</title>
<g id="a_edge17_Node000006_Node000014"><a xlink:title=" ">
<path fill="none" stroke="#9a32cd" stroke-dasharray="5,2" d="M144.18,-300.43C144.98,-284.49 148.77,-262.29 162.5,-249 174.38,-237.5 215.87,-230.21 246.75,-226.25"/>
<polygon fill="#9a32cd" stroke="#9a32cd" points="140.67,-300.66 144.02,-310.72 147.67,-300.77 140.67,-300.66"/>
</a>
</g>
<text text-anchor="middle" x="199" y="-268.5" font-family="Helvetica,sans-Serif" font-size="10.00" fill="grey"> m_InfoLegend</text>
</g>
<!-- Node15 -->
<g id="Node000015" class="node">
<title>Node15</title>
<g id="a_Node000015"><a xlink:href="classmp_magnet.html" target="_top" xlink:title="Class for drawing mouse magnetization Draw an horizontal and a vertical line at the mouse position.">
<polygon fill="white" stroke="#666666" points="279,-330 210,-330 210,-311 279,-311 279,-330"/>
<text text-anchor="middle" x="244.5" y="-318" font-family="Helvetica,sans-Serif" font-size="10.00">mpMagnet</text>
</a>
</g>
</g>
<!-- Node15&#45;&gt;Node6 -->
<g id="edge20_Node000006_Node000015" class="edge">
<title>Node15&#45;&gt;Node6</title>
<g id="a_edge20_Node000006_Node000015"><a xlink:title=" ">
<path fill="none" stroke="#9a32cd" stroke-dasharray="5,2" d="M241.11,-300.6C239.39,-285.72 239.16,-264.91 247.5,-249 251.46,-241.44 258.66,-235.42 265.5,-231.04"/>
<polygon fill="#9a32cd" stroke="#9a32cd" points="237.67,-301.27 242.6,-310.65 244.59,-300.24 237.67,-301.27"/>
</a>
</g>
<text text-anchor="middle" x="275.5" y="-268.5" font-family="Helvetica,sans-Serif" font-size="10.00" fill="grey"> m_magnet</text>
</g>
</g>
</svg>
