<?xml version="1.0" encoding="UTF-8" standalone="no"?>
<!DOCTYPE svg PUBLIC "-//W3C//DTD SVG 1.1//EN"
 "http://www.w3.org/Graphics/SVG/1.1/DTD/svg11.dtd">
<!-- Generated by graphviz version 2.43.0 (0)
 -->
<!-- Title: mpChart Pages: 1 -->
<svg width="618pt" height="404pt"
 viewBox="0.00 0.00 618.00 404.00" xmlns="http://www.w3.org/2000/svg" xmlns:xlink="http://www.w3.org/1999/xlink">
<g id="graph0" class="graph" transform="scale(1 1) rotate(0) translate(4 400)">
<title>mpChart</title>
<!-- Node1 -->
<g id="Node000001" class="node">
<title>Node1</title>
<g id="a_Node000001"><a xlink:title="abstract Layer for chart (bar and pie).">
<polygon fill="#999999" stroke="#666666" points="59,-330 0,-330 0,-311 59,-311 59,-330"/>
<text text-anchor="middle" x="29.5" y="-318" font-family="Helvetica,sans-Serif" font-size="10.00">mpChart</text>
</a>
</g>
</g>
<!-- Node2 -->
<g id="Node000002" class="node">
<title>Node2</title>
<g id="a_Node000002"><a xlink:href="classmp_function.html" target="_top" xlink:title="Plot layer implementing an abstract function plot class.">
<polygon fill="white" stroke="#666666" points="157.5,-396 83.5,-396 83.5,-377 157.5,-377 157.5,-396"/>
<text text-anchor="middle" x="120.5" y="-384" font-family="Helvetica,sans-Serif" font-size="10.00">mpFunction</text>
</a>
</g>
</g>
<!-- Node2&#45;&gt;Node1 -->
<g id="edge1_Node000001_Node000002" class="edge">
<title>Node2&#45;&gt;Node1</title>
<g id="a_edge1_Node000001_Node000002"><a xlink:title=" ">
<path fill="none" stroke="#63b8ff" d="M99.65,-370.83C81.8,-358.28 56.7,-340.63 41.87,-330.2"/>
<polygon fill="#63b8ff" stroke="#63b8ff" points="98.03,-373.98 108.23,-376.87 102.06,-368.25 98.03,-373.98"/>
</a>
</g>
</g>
<!-- Node13 -->
<g id="Node000013" class="node">
<title>Node13</title>
<g id="a_Node000013"><a xlink:href="classmp_info_legend.html" target="_top" xlink:title="Implement the legend to be added to the plot This layer allows you to add a legend to describe the pl...">
<polygon fill="white" stroke="#666666" points="163.5,-330 77.5,-330 77.5,-311 163.5,-311 163.5,-330"/>
<text text-anchor="middle" x="120.5" y="-318" font-family="Helvetica,sans-Serif" font-size="10.00">mpInfoLegend</text>
</a>
</g>
</g>
<!-- Node2&#45;&gt;Node13 -->
<g id="edge18_Node000013_Node000002" class="edge">
<title>Node2&#45;&gt;Node13</title>
<g id="a_edge18_Node000013_Node000002"><a xlink:title=" ">
<path fill="none" stroke="#9a32cd" stroke-dasharray="5,2" d="M120.5,-366.58C120.5,-354.63 120.5,-339.72 120.5,-330.41"/>
<polygon fill="#9a32cd" stroke="#9a32cd" points="117,-366.87 120.5,-376.87 124,-366.87 117,-366.87"/>
</a>
</g>
<text text-anchor="middle" x="165.5" y="-351" font-family="Helvetica,sans-Serif" font-size="10.00" fill="grey"> m_selectedSeries</text>
</g>
<!-- Node3 -->
<g id="Node000003" class="node">
<title>Node3</title>
<g id="a_Node000003"><a xlink:href="classmp_layer.html" target="_top" xlink:title="Plot layer, abstract base class.">
<polygon fill="white" stroke="#666666" points="468,-165 409,-165 409,-146 468,-146 468,-165"/>
<text text-anchor="middle" x="438.5" y="-153" font-family="Helvetica,sans-Serif" font-size="10.00">mpLayer</text>
</a>
</g>
</g>
<!-- Node3&#45;&gt;Node2 -->
<g id="edge2_Node000002_Node000003" class="edge">
<title>Node3&#45;&gt;Node2</title>
<g id="a_edge2_Node000002_Node000003"><a xlink:title=" ">
<path fill="none" stroke="#63b8ff" d="M478.06,-165.46C502.68,-173.3 532.43,-187.42 547.5,-212 581.97,-268.23 515.44,-298.49 457.5,-330 406.19,-357.9 234.29,-375.73 157.77,-382.46"/>
<polygon fill="#63b8ff" stroke="#63b8ff" points="478.81,-162.03 468.23,-162.56 476.84,-168.75 478.81,-162.03"/>
</a>
</g>
</g>
<!-- Node8 -->
<g id="Node000008" class="node">
<title>Node8</title>
<g id="a_Node000008"><a xlink:href="classmp_scale.html" target="_top" xlink:title="Plot layer implementing an abstract scale ruler.">
<polygon fill="white" stroke="#666666" points="496,-92 437,-92 437,-73 496,-73 496,-92"/>
<text text-anchor="middle" x="466.5" y="-80" font-family="Helvetica,sans-Serif" font-size="10.00">mpScale</text>
</a>
</g>
</g>
<!-- Node3&#45;&gt;Node8 -->
<g id="edge8_Node000008_Node000003" class="edge">
<title>Node3&#45;&gt;Node8</title>
<g id="a_edge8_Node000008_Node000003"><a xlink:title=" ">
<path fill="none" stroke="#63b8ff" d="M445.74,-136.14C451.3,-122.03 458.74,-103.17 463.04,-92.28"/>
<polygon fill="#63b8ff" stroke="#63b8ff" points="442.35,-135.21 441.93,-145.79 448.86,-137.78 442.35,-135.21"/>
</a>
</g>
</g>
<!-- Node11 -->
<g id="Node000011" class="node">
<title>Node11</title>
<g id="a_Node000011"><a xlink:href="classmp_info_layer.html" target="_top" xlink:title="Base class to create small rectangular info boxes mpInfoLayer is the base class to create a small rec...">
<polygon fill="white" stroke="#666666" points="241.5,-92 163.5,-92 163.5,-73 241.5,-73 241.5,-92"/>
<text text-anchor="middle" x="202.5" y="-80" font-family="Helvetica,sans-Serif" font-size="10.00">mpInfoLayer</text>
</a>
</g>
</g>
<!-- Node3&#45;&gt;Node11 -->
<g id="edge13_Node000011_Node000003" class="edge">
<title>Node3&#45;&gt;Node11</title>
<g id="a_edge13_Node000011_Node000003"><a xlink:title=" ">
<path fill="none" stroke="#63b8ff" d="M429.67,-136.61C425.2,-129.4 419.1,-121.69 411.5,-117 383.74,-99.87 294,-90.39 241.57,-86.19"/>
<polygon fill="#63b8ff" stroke="#63b8ff" points="426.84,-138.73 434.73,-145.81 432.97,-135.36 426.84,-138.73"/>
</a>
</g>
</g>
<!-- Node4 -->
<g id="Node000004" class="node">
<title>Node4</title>
<g id="a_Node000004"><a xlink:title=" ">
<polygon fill="white" stroke="#bfbfbf" points="422.5,-231 360.5,-231 360.5,-212 422.5,-212 422.5,-231"/>
<text text-anchor="middle" x="391.5" y="-219" font-family="Helvetica,sans-Serif" font-size="10.00">wxObject</text>
</a>
</g>
</g>
<!-- Node4&#45;&gt;Node3 -->
<g id="edge3_Node000003_Node000004" class="edge">
<title>Node4&#45;&gt;Node3</title>
<g id="a_edge3_Node000003_Node000004"><a xlink:title=" ">
<path fill="none" stroke="#63b8ff" d="M403.79,-203.77C412.8,-191.49 424.7,-175.3 431.96,-165.41"/>
<polygon fill="#63b8ff" stroke="#63b8ff" points="400.94,-201.74 397.84,-211.87 406.58,-205.88 400.94,-201.74"/>
</a>
</g>
</g>
<!-- Node5 -->
<g id="Node000005" class="node">
<title>Node5</title>
<g id="a_Node000005"><a xlink:href="classmp_window.html" target="_top" xlink:title="Canvas for plotting mpLayer implementations.">
<polygon fill="white" stroke="#666666" points="287,-231 216,-231 216,-212 287,-212 287,-231"/>
<text text-anchor="middle" x="251.5" y="-219" font-family="Helvetica,sans-Serif" font-size="10.00">mpWindow</text>
</a>
</g>
</g>
<!-- Node5&#45;&gt;Node3 -->
<g id="edge4_Node000003_Node000005" class="edge">
<title>Node5&#45;&gt;Node3</title>
<g id="a_edge4_Node000003_Node000005"><a xlink:title=" ">
<path fill="none" stroke="#9a32cd" stroke-dasharray="5,2" d="M297.23,-210.87C314.54,-206.58 334.22,-200.92 351.5,-194 360.92,-190.23 362.32,-187.32 371.5,-183 385.54,-176.4 401.69,-169.97 414.62,-165.1"/>
<polygon fill="#9a32cd" stroke="#9a32cd" points="296.26,-207.5 287.35,-213.23 297.89,-214.31 296.26,-207.5"/>
</a>
</g>
<text text-anchor="middle" x="389.5" y="-186" font-family="Helvetica,sans-Serif" font-size="10.00" fill="grey"> m_win</text>
</g>
<!-- Node6 -->
<g id="Node000006" class="node">
<title>Node6</title>
<g id="a_Node000006"><a xlink:title=" ">
<polygon fill="white" stroke="#bfbfbf" points="339.5,-330 269.5,-330 269.5,-311 339.5,-311 339.5,-330"/>
<text text-anchor="middle" x="304.5" y="-318" font-family="Helvetica,sans-Serif" font-size="10.00">wxWindow</text>
</a>
</g>
</g>
<!-- Node6&#45;&gt;Node5 -->
<g id="edge5_Node000005_Node000006" class="edge">
<title>Node6&#45;&gt;Node5</title>
<g id="a_edge5_Node000005_Node000006"><a xlink:title=" ">
<path fill="none" stroke="#63b8ff" d="M298.16,-301.45C292.65,-286.78 283.91,-265.84 273.5,-249 269.6,-242.69 264.32,-236.28 259.91,-231.34"/>
<polygon fill="#63b8ff" stroke="#63b8ff" points="294.88,-302.67 301.59,-310.87 301.46,-300.28 294.88,-302.67"/>
</a>
</g>
</g>
<!-- Node7 -->
<g id="Node000007" class="node">
<title>Node7</title>
<g id="a_Node000007"><a xlink:href="structmp_axis_data.html" target="_top" xlink:title="Represents all the informations needed for plotting a layer in one direction (X or Y) This struct hol...">
<polygon fill="white" stroke="#666666" points="505,-19 428,-19 428,0 505,0 505,-19"/>
<text text-anchor="middle" x="466.5" y="-7" font-family="Helvetica,sans-Serif" font-size="10.00">mpAxisData</text>
</a>
</g>
</g>
<!-- Node7&#45;&gt;Node5 -->
<g id="edge6_Node000005_Node000007" class="edge">
<title>Node7&#45;&gt;Node5</title>
<g id="a_edge6_Node000005_Node000007"><a xlink:title=" ">
<path fill="none" stroke="#9a32cd" stroke-dasharray="5,2" d="M452.38,-26.89C422.43,-61.52 353.09,-140.92 326.5,-165 306.21,-183.37 280.02,-201.68 264.57,-211.99"/>
<polygon fill="#9a32cd" stroke="#9a32cd" points="455.21,-28.97 459.1,-19.11 449.91,-24.39 455.21,-28.97"/>
</a>
</g>
<text text-anchor="middle" x="406.5" y="-120" font-family="Helvetica,sans-Serif" font-size="10.00" fill="grey"> m_AxisDataX</text>
</g>
<!-- Node8&#45;&gt;Node7 -->
<g id="edge7_Node000007_Node000008" class="edge">
<title>Node8&#45;&gt;Node7</title>
<g id="a_edge7_Node000007_Node000008"><a xlink:title=" ">
<path fill="none" stroke="#9a32cd" stroke-dasharray="5,2" d="M466.5,-62.73C466.5,-48.66 466.5,-30.06 466.5,-19.28"/>
<polygon fill="#9a32cd" stroke="#9a32cd" points="463,-62.79 466.5,-72.79 470,-62.79 463,-62.79"/>
</a>
</g>
<text text-anchor="middle" x="478.5" y="-40" font-family="Helvetica,sans-Serif" font-size="10.00" fill="grey"> axis</text>
</g>
<!-- Node9 -->
<g id="Node000009" class="node">
<title>Node9</title>
<g id="a_Node000009"><a xlink:href="structmp_range.html" target="_top" xlink:title=" ">
<polygon fill="white" stroke="#666666" points="610,-165 491,-165 491,-146 610,-146 610,-165"/>
<text text-anchor="middle" x="550.5" y="-153" font-family="Helvetica,sans-Serif" font-size="10.00">mpRange&lt; double &gt;</text>
</a>
</g>
</g>
<!-- Node9&#45;&gt;Node7 -->
<g id="edge10_Node000007_Node000009" class="edge">
<title>Node9&#45;&gt;Node7</title>
<g id="a_edge10_Node000007_Node000009"><a xlink:title=" ">
<path fill="none" stroke="#9a32cd" stroke-dasharray="5,2" d="M555.56,-135.9C556.42,-129.76 556.49,-122.98 554.5,-117 540.01,-73.54 498.16,-35.65 477.84,-19.21"/>
<polygon fill="#9a32cd" stroke="#9a32cd" points="552.08,-135.43 553.42,-145.94 558.92,-136.89 552.08,-135.43"/>
</a>
</g>
<text text-anchor="middle" x="573.5" y="-91" font-family="Helvetica,sans-Serif" font-size="10.00" fill="grey"> bound</text>
<text text-anchor="middle" x="573.5" y="-80" font-family="Helvetica,sans-Serif" font-size="10.00" fill="grey">desired</text>
<text text-anchor="middle" x="573.5" y="-69" font-family="Helvetica,sans-Serif" font-size="10.00" fill="grey">lastDesired</text>
</g>
<!-- Node9&#45;&gt;Node8 -->
<g id="edge9_Node000008_Node000009" class="edge">
<title>Node9&#45;&gt;Node8</title>
<g id="a_edge9_Node000008_Node000009"><a xlink:title=" ">
<path fill="none" stroke="#9a32cd" stroke-dasharray="5,2" d="M504.97,-141.9C497.47,-138.32 490.28,-133.76 484.5,-128 474.59,-118.11 469.93,-102.04 467.9,-92.15"/>
<polygon fill="#9a32cd" stroke="#9a32cd" points="503.96,-145.28 514.53,-145.94 506.68,-138.83 503.96,-145.28"/>
</a>
</g>
<text text-anchor="middle" x="519.5" y="-120" font-family="Helvetica,sans-Serif" font-size="10.00" fill="grey"> m_axisRange</text>
</g>
<!-- Node10 -->
<g id="Node000010" class="node">
<title>Node10</title>
<g id="a_Node000010"><a xlink:href="structmp_rect.html" target="_top" xlink:title="A rectangle structure in several (integer) flavors.">
<polygon fill="white" stroke="#666666" points="448.5,-330 394.5,-330 394.5,-311 448.5,-311 448.5,-330"/>
<text text-anchor="middle" x="421.5" y="-318" font-family="Helvetica,sans-Serif" font-size="10.00">mpRect</text>
</a>
</g>
</g>
<!-- Node10&#45;&gt;Node3 -->
<g id="edge20_Node000003_Node000010" class="edge">
<title>Node10&#45;&gt;Node3</title>
<g id="a_edge20_Node000003_Node000010"><a xlink:title=" ">
<path fill="none" stroke="#9a32cd" stroke-dasharray="5,2" d="M438.63,-303.27C441.03,-300.11 443.14,-296.64 444.5,-293 461.51,-247.45 447.43,-187.32 441.15,-165.17"/>
<polygon fill="#9a32cd" stroke="#9a32cd" points="435.95,-301.01 431.91,-310.81 441.18,-305.67 435.95,-301.01"/>
</a>
</g>
<text text-anchor="middle" x="497.5" y="-219" font-family="Helvetica,sans-Serif" font-size="10.00" fill="grey"> m_plotBoundaries</text>
</g>
<!-- Node10&#45;&gt;Node5 -->
<g id="edge11_Node000005_Node000010" class="edge">
<title>Node10&#45;&gt;Node5</title>
<g id="a_edge11_Node000005_Node000010"><a xlink:title=" ">
<path fill="none" stroke="#9a32cd" stroke-dasharray="5,2" d="M384.12,-316.75C363.82,-313.61 339.31,-306.97 321.5,-293 303.97,-279.25 313.07,-264.93 297.5,-249 290.29,-241.62 280.58,-235.62 271.94,-231.21"/>
<polygon fill="#9a32cd" stroke="#9a32cd" points="383.92,-320.25 394.29,-318.09 384.83,-313.31 383.92,-320.25"/>
</a>
</g>
<text text-anchor="middle" x="383" y="-285" font-family="Helvetica,sans-Serif" font-size="10.00" fill="grey"> m_margin</text>
<text text-anchor="middle" x="383" y="-274" font-family="Helvetica,sans-Serif" font-size="10.00" fill="grey">m_marginOuter</text>
<text text-anchor="middle" x="383" y="-263" font-family="Helvetica,sans-Serif" font-size="10.00" fill="grey">m_plotBoundaries</text>
<text text-anchor="middle" x="383" y="-252" font-family="Helvetica,sans-Serif" font-size="10.00" fill="grey">m_plotBoundariesMargin</text>
</g>
<!-- Node11&#45;&gt;Node5 -->
<g id="edge12_Node000005_Node000011" class="edge">
<title>Node11&#45;&gt;Node5</title>
<g id="a_edge12_Node000005_Node000011"><a xlink:title=" ">
<path fill="none" stroke="#9a32cd" stroke-dasharray="5,2" d="M206.88,-102.31C210.99,-119.01 217.66,-143.96 225.5,-165 231.81,-181.95 241.21,-200.86 246.81,-211.66"/>
<polygon fill="#9a32cd" stroke="#9a32cd" points="210.2,-101.12 204.46,-92.21 203.39,-102.75 210.2,-101.12"/>
</a>
</g>
<text text-anchor="middle" x="276" y="-153" font-family="Helvetica,sans-Serif" font-size="10.00" fill="grey"> m_movingInfoLayer</text>
</g>
<!-- Node12 -->
<g id="Node000012" class="node">
<title>Node12</title>
<g id="a_Node000012"><a xlink:href="classmp_info_coords.html" target="_top" xlink:title="Implements an overlay box which shows the mouse coordinates in plot units.">
<polygon fill="white" stroke="#666666" points="187,-19 102,-19 102,0 187,0 187,-19"/>
<text text-anchor="middle" x="144.5" y="-7" font-family="Helvetica,sans-Serif" font-size="10.00">mpInfoCoords</text>
</a>
</g>
</g>
<!-- Node11&#45;&gt;Node12 -->
<g id="edge15_Node000012_Node000011" class="edge">
<title>Node11&#45;&gt;Node12</title>
<g id="a_edge15_Node000012_Node000011"><a xlink:title=" ">
<path fill="none" stroke="#63b8ff" d="M188.84,-64.78C177.2,-50.52 160.92,-30.6 151.67,-19.28"/>
<polygon fill="#63b8ff" stroke="#63b8ff" points="186.35,-67.26 195.39,-72.79 191.77,-62.84 186.35,-67.26"/>
</a>
</g>
</g>
<!-- Node11&#45;&gt;Node13 -->
<g id="edge17_Node000013_Node000011" class="edge">
<title>Node11&#45;&gt;Node13</title>
<g id="a_edge17_Node000013_Node000011"><a xlink:title=" ">
<path fill="none" stroke="#63b8ff" d="M153.2,-88.12C134.51,-92.55 114.98,-101 103.5,-117 59.08,-178.92 101.72,-280.51 116.13,-310.75"/>
<polygon fill="#63b8ff" stroke="#63b8ff" points="154.05,-91.52 163.15,-86.1 152.66,-84.66 154.05,-91.52"/>
</a>
</g>
</g>
<!-- Node12&#45;&gt;Node5 -->
<g id="edge14_Node000005_Node000012" class="edge">
<title>Node12&#45;&gt;Node5</title>
<g id="a_edge14_Node000005_Node000012"><a xlink:title=" ">
<path fill="none" stroke="#9a32cd" stroke-dasharray="5,2" d="M137.72,-28.59C129.89,-52.59 119.95,-95.71 135.5,-128 155.62,-169.77 204.79,-198.53 232.22,-211.93"/>
<polygon fill="#9a32cd" stroke="#9a32cd" points="141.08,-29.6 141.07,-19.01 134.47,-27.29 141.08,-29.6"/>
</a>
</g>
<text text-anchor="middle" x="171" y="-120" font-family="Helvetica,sans-Serif" font-size="10.00" fill="grey"> m_InfoCoords</text>
</g>
<!-- Node13&#45;&gt;Node5 -->
<g id="edge16_Node000005_Node000013" class="edge">
<title>Node13&#45;&gt;Node5</title>
<g id="a_edge16_Node000005_Node000013"><a xlink:title=" ">
<path fill="none" stroke="#9a32cd" stroke-dasharray="5,2" d="M118.69,-300.57C118.28,-284.72 120.45,-262.57 133.5,-249 144.75,-237.31 185.4,-230.08 215.86,-226.18"/>
<polygon fill="#9a32cd" stroke="#9a32cd" points="115.21,-301.03 119.33,-310.79 122.2,-300.59 115.21,-301.03"/>
</a>
</g>
<text text-anchor="middle" x="170" y="-268.5" font-family="Helvetica,sans-Serif" font-size="10.00" fill="grey"> m_InfoLegend</text>
</g>
<!-- Node14 -->
<g id="Node000014" class="node">
<title>Node14</title>
<g id="a_Node000014"><a xlink:href="classmp_magnet.html" target="_top" xlink:title="Class for drawing mouse magnetization Draw an horizontal and a vertical line at the mouse position.">
<polygon fill="white" stroke="#666666" points="251,-330 182,-330 182,-311 251,-311 251,-330"/>
<text text-anchor="middle" x="216.5" y="-318" font-family="Helvetica,sans-Serif" font-size="10.00">mpMagnet</text>
</a>
</g>
</g>
<!-- Node14&#45;&gt;Node5 -->
<g id="edge19_Node000005_Node000014" class="edge">
<title>Node14&#45;&gt;Node5</title>
<g id="a_edge19_Node000005_Node000014"><a xlink:title=" ">
<path fill="none" stroke="#9a32cd" stroke-dasharray="5,2" d="M212.52,-300.69C210.34,-285.86 209.51,-265.07 217.5,-249 221.23,-241.49 228.21,-235.48 234.87,-231.1"/>
<polygon fill="#9a32cd" stroke="#9a32cd" points="209.1,-301.47 214.31,-310.69 215.99,-300.23 209.1,-301.47"/>
</a>
</g>
<text text-anchor="middle" x="245.5" y="-268.5" font-family="Helvetica,sans-Serif" font-size="10.00" fill="grey"> m_magnet</text>
</g>
</g>
</svg>
