<?xml version="1.0" encoding="UTF-8" standalone="no"?>
<!DOCTYPE svg PUBLIC "-//W3C//DTD SVG 1.1//EN"
 "http://www.w3.org/Graphics/SVG/1.1/DTD/svg11.dtd">
<!-- Generated by graphviz version 2.43.0 (0)
 -->
<!-- Title: mpFunction Pages: 1 -->
<!--zoomable 286 -->

<svg id="main" version="1.1" xmlns="http://www.w3.org/2000/svg" xmlns:xlink="http://www.w3.org/1999/xlink" xml:space="preserve" onload="init(evt)">
<style type="text/css"><![CDATA[
.node, .edge {opacity: 0.7;}
.node.selected, .edge.selected {opacity: 1;}
.edge:hover path { stroke: red; }
.edge:hover polygon { stroke: red; fill: red; }
]]></style>

<defs>
  <circle id="rim" cx="0" cy="0" r="7"/>
  <circle id="rim2" cx="0" cy="0" r="3.5"/>
  <g id="zoomPlus">
    <use xlink:href="#rim" fill="#404040"><set attributeName="fill" to="#808080" begin="zoomplus.mouseover" end="zoomplus.mouseout"/></use>
    <path d="M-4,0h8M0,-4v8" fill="none" stroke="white" stroke-width="1.5" pointer-events="none"/>
  </g>
  <g id="zoomMin">
    <use xlink:href="#rim" fill="#404040"><set attributeName="fill" to="#808080" begin="zoomminus.mouseover" end="zoomminus.mouseout"/></use>
    <path d="M-4,0h8" fill="none" stroke="white" stroke-width="1.5" pointer-events="none"/>
  </g>
  <g id="arrowUp" transform="translate(30 24)">
    <use xlink:href="#rim"/>
    <path pointer-events="none" fill="none" stroke="white" stroke-width="1.5" d="M0,-3.0v7 M-2.5,-0.5L0,-3.0L2.5,-0.5"/>
  </g>
  <g id="arrowRight" transform="rotate(90) translate(36 -43)">
    <use xlink:href="#rim"/>
    <path pointer-events="none" fill="none" stroke="white" stroke-width="1.5" d="M0,-3.0v7 M-2.5,-0.5L0,-3.0L2.5,-0.5"/>
  </g>
  <g id="arrowDown" transform="rotate(180) translate(-30 -48)">
    <use xlink:href="#rim"/>
    <path pointer-events="none" fill="none" stroke="white" stroke-width="1.5" d="M0,-3.0v7 M-2.5,-0.5L0,-3.0L2.5,-0.5"/>
  </g>
  <g id="arrowLeft" transform="rotate(270) translate(-36 17)">
    <use xlink:href="#rim"/>
    <path pointer-events="none" fill="none" stroke="white" stroke-width="1.5" d="M0,-3.0v7 M-2.5,-0.5L0,-3.0L2.5,-0.5"/>
  </g>
  <g id="resetDef">
    <use xlink:href="#rim2" fill="#404040"><set attributeName="fill" to="#808080" begin="reset.mouseover" end="reset.mouseout"/></use>
  </g>
</defs>
<script type="application/ecmascript">
var viewWidth = 685;
var viewHeight = 286;
var sectionId = 'dynsection-0';
</script>
<script type="application/ecmascript" xlink:href="svg.min.js"/>
<svg id="graph" class="graph">
<g id="viewport">
<title>mpFunction</title>
<!-- Node1 -->
<g id="Node000001" class="node">
<title>Node1</title>
<g id="a_Node000001"><a xlink:title=" ">
<polygon fill="#999999" stroke="#666666" points="267,-130 193,-130 193,-111 267,-111 267,-130"/>
<text text-anchor="middle" x="230" y="-118" font-family="Helvetica,sans-Serif" font-size="10.00">mpFunction</text>
</a>
</g>
</g>
<!-- Node4 -->
<g id="Node000004" class="node">
<title>Node4</title>
<g id="a_Node000004"><a xlink:href="classmpChart.html" target="_top" xlink:title="abstract Layer for chart (bar and pie).">
<polygon fill="white" stroke="#666666" points="385.5,-241 326.5,-241 326.5,-222 385.5,-222 385.5,-241"/>
<text text-anchor="middle" x="356" y="-229" font-family="Helvetica,sans-Serif" font-size="10.00">mpChart</text>
</a>
</g>
</g>
<!-- Node1&#45;&gt;Node4 -->
<g id="edge3_Node000001_Node000004" class="edge">
<title>Node1&#45;&gt;Node4</title>
<g id="a_edge3_Node000001_Node000004"><a xlink:title=" ">
<path fill="none" stroke="#63b8ff" d="M241.02,-138.73C253.18,-159.31 275.52,-192.53 303,-212.5 309.92,-217.53 318.31,-221.36 326.32,-224.21"/>
<polygon fill="#63b8ff" stroke="#63b8ff" points="244.03,-136.94 236.02,-130 237.95,-140.42 244.03,-136.94"/>
</a>
</g>
</g>
<!-- Node7 -->
<g id="Node000007" class="node">
<title>Node7</title>
<g id="a_Node000007"><a xlink:href="classmpFX.html" target="_top" xlink:title=" ">
<polygon fill="white" stroke="#666666" points="378.5,-204 333.5,-204 333.5,-185 378.5,-185 378.5,-204"/>
<text text-anchor="middle" x="356" y="-192" font-family="Helvetica,sans-Serif" font-size="10.00">mpFX</text>
</a>
</g>
</g>
<!-- Node1&#45;&gt;Node7 -->
<g id="edge6_Node000001_Node000007" class="edge">
<title>Node1&#45;&gt;Node7</title>
<g id="a_edge6_Node000001_Node000007"><a xlink:title=" ">
<path fill="none" stroke="#63b8ff" d="M249.34,-137.01C263.28,-148.92 283.35,-164.73 303,-175.5 312.52,-180.72 323.77,-185.03 333.37,-188.22"/>
<polygon fill="#63b8ff" stroke="#63b8ff" points="251.34,-134.12 241.51,-130.18 246.74,-139.39 251.34,-134.12"/>
</a>
</g>
</g>
<!-- Node11 -->
<g id="Node000011" class="node">
<title>Node11</title>
<g id="a_Node000011"><a xlink:href="classmpFXY.html" target="_top" xlink:title=" ">
<polygon fill="white" stroke="#666666" points="381.5,-167 330.5,-167 330.5,-148 381.5,-148 381.5,-167"/>
<text text-anchor="middle" x="356" y="-155" font-family="Helvetica,sans-Serif" font-size="10.00">mpFXY</text>
</a>
</g>
</g>
<!-- Node1&#45;&gt;Node11 -->
<g id="edge10_Node000001_Node000011" class="edge">
<title>Node1&#45;&gt;Node11</title>
<g id="a_edge10_Node000001_Node000011"><a xlink:title=" ">
<path fill="none" stroke="#63b8ff" d="M272.62,-132.92C291.73,-138.62 313.76,-145.19 330.22,-150.11"/>
<polygon fill="#63b8ff" stroke="#63b8ff" points="273.52,-129.53 262.93,-130.03 271.51,-136.24 273.52,-129.53"/>
</a>
</g>
</g>
<!-- Node13 -->
<g id="Node000013" class="node">
<title>Node13</title>
<g id="a_Node000013"><a xlink:href="classmpFY.html" target="_top" xlink:title=" ">
<polygon fill="white" stroke="#666666" points="378,-130 334,-130 334,-111 378,-111 378,-130"/>
<text text-anchor="middle" x="356" y="-118" font-family="Helvetica,sans-Serif" font-size="10.00">mpFY</text>
</a>
</g>
</g>
<!-- Node1&#45;&gt;Node13 -->
<g id="edge12_Node000001_Node000013" class="edge">
<title>Node1&#45;&gt;Node13</title>
<g id="a_edge12_Node000001_Node000013"><a xlink:title=" ">
<path fill="none" stroke="#63b8ff" d="M277.37,-120.5C296.72,-120.5 318.24,-120.5 333.7,-120.5"/>
<polygon fill="#63b8ff" stroke="#63b8ff" points="277.2,-117 267.2,-120.5 277.2,-124 277.2,-117"/>
</a>
</g>
</g>
<!-- Node14 -->
<g id="Node000014" class="node">
<title>Node14</title>
<g id="a_Node000014"><a xlink:href="classmpLine.html" target="_top" xlink:title=" ">
<polygon fill="white" stroke="#666666" points="382.5,-93 329.5,-93 329.5,-74 382.5,-74 382.5,-93"/>
<text text-anchor="middle" x="356" y="-81" font-family="Helvetica,sans-Serif" font-size="10.00">mpLine</text>
</a>
</g>
</g>
<!-- Node1&#45;&gt;Node14 -->
<g id="edge13_Node000001_Node000014" class="edge">
<title>Node1&#45;&gt;Node14</title>
<g id="a_edge13_Node000001_Node000014"><a xlink:title=" ">
<path fill="none" stroke="#63b8ff" d="M272.74,-108.04C291.52,-102.44 313.08,-96.01 329.42,-91.13"/>
<polygon fill="#63b8ff" stroke="#63b8ff" points="271.51,-104.76 262.93,-110.97 273.52,-111.47 271.51,-104.76"/>
</a>
</g>
</g>
<!-- Node17 -->
<g id="Node000017" class="node">
<title>Node17</title>
<g id="a_Node000017"><a xlink:href="classmpMovableObject.html" target="_top" xlink:title=" ">
<polygon fill="white" stroke="#666666" points="409,-56 303,-56 303,-37 409,-37 409,-56"/>
<text text-anchor="middle" x="356" y="-44" font-family="Helvetica,sans-Serif" font-size="10.00">mpMovableObject</text>
</a>
</g>
</g>
<!-- Node1&#45;&gt;Node17 -->
<g id="edge16_Node000001_Node000017" class="edge">
<title>Node1&#45;&gt;Node17</title>
<g id="a_edge16_Node000001_Node000017"><a xlink:title=" ">
<path fill="none" stroke="#63b8ff" d="M248.75,-103.99C262.65,-91.76 282.94,-75.38 303,-64.5 308.96,-61.27 315.62,-58.44 322.12,-56.05"/>
<polygon fill="#63b8ff" stroke="#63b8ff" points="246.07,-101.7 240.97,-110.99 250.75,-106.9 246.07,-101.7"/>
</a>
</g>
</g>
<!-- Node20 -->
<g id="Node000020" class="node">
<title>Node20</title>
<g id="a_Node000020"><a xlink:href="classmpProfile.html" target="_top" xlink:title=" ">
<polygon fill="white" stroke="#666666" points="387.5,-19 324.5,-19 324.5,0 387.5,0 387.5,-19"/>
<text text-anchor="middle" x="356" y="-7" font-family="Helvetica,sans-Serif" font-size="10.00">mpProfile</text>
</a>
</g>
</g>
<!-- Node1&#45;&gt;Node20 -->
<g id="edge19_Node000001_Node000020" class="edge">
<title>Node1&#45;&gt;Node20</title>
<g id="a_edge19_Node000001_Node000020"><a xlink:title=" ">
<path fill="none" stroke="#63b8ff" d="M240.91,-101.98C252.97,-81.09 275.22,-47.44 303,-27.5 309.36,-22.93 316.99,-19.44 324.41,-16.81"/>
<polygon fill="#63b8ff" stroke="#63b8ff" points="237.78,-100.41 235.96,-110.84 243.89,-103.82 237.78,-100.41"/>
</a>
</g>
</g>
<!-- Node2 -->
<g id="Node000002" class="node">
<title>Node2</title>
<g id="a_Node000002"><a xlink:href="classmpLayer.html" target="_top" xlink:title=" ">
<polygon fill="white" stroke="#666666" points="157,-130 98,-130 98,-111 157,-111 157,-130"/>
<text text-anchor="middle" x="127.5" y="-118" font-family="Helvetica,sans-Serif" font-size="10.00">mpLayer</text>
</a>
</g>
</g>
<!-- Node2&#45;&gt;Node1 -->
<g id="edge1_Node000001_Node000002" class="edge">
<title>Node2&#45;&gt;Node1</title>
<g id="a_edge1_Node000001_Node000002"><a xlink:title=" ">
<path fill="none" stroke="#63b8ff" d="M167.07,-120.5C175.54,-120.5 184.48,-120.5 192.86,-120.5"/>
<polygon fill="#63b8ff" stroke="#63b8ff" points="167.03,-117 157.03,-120.5 167.03,-124 167.03,-117"/>
</a>
</g>
</g>
<!-- Node3 -->
<g id="Node000003" class="node">
<title>Node3</title>
<g id="a_Node000003"><a xlink:title=" ">
<polygon fill="white" stroke="#666666" points="62,-130 0,-130 0,-111 62,-111 62,-130"/>
<text text-anchor="middle" x="31" y="-118" font-family="Helvetica,sans-Serif" font-size="10.00">wxObject</text>
</a>
</g>
</g>
<!-- Node3&#45;&gt;Node2 -->
<g id="edge2_Node000002_Node000003" class="edge">
<title>Node3&#45;&gt;Node2</title>
<g id="a_edge2_Node000002_Node000003"><a xlink:title=" ">
<path fill="none" stroke="#63b8ff" d="M72.4,-120.5C80.98,-120.5 89.88,-120.5 97.91,-120.5"/>
<polygon fill="#63b8ff" stroke="#63b8ff" points="72.16,-117 62.16,-120.5 72.16,-124 72.16,-117"/>
</a>
</g>
</g>
<!-- Node5 -->
<g id="Node000005" class="node">
<title>Node5</title>
<g id="a_Node000005"><a xlink:href="classmpBarChart.html" target="_top" xlink:title="Layer for bar chart.">
<polygon fill="white" stroke="#666666" points="542,-278 467,-278 467,-259 542,-259 542,-278"/>
<text text-anchor="middle" x="504.5" y="-266" font-family="Helvetica,sans-Serif" font-size="10.00">mpBarChart</text>
</a>
</g>
</g>
<!-- Node4&#45;&gt;Node5 -->
<g id="edge4_Node000004_Node000005" class="edge">
<title>Node4&#45;&gt;Node5</title>
<g id="a_edge4_Node000004_Node000005"><a xlink:title=" ">
<path fill="none" stroke="#63b8ff" d="M395.32,-241.18C417.44,-246.76 445.09,-253.75 466.9,-259.26"/>
<polygon fill="#63b8ff" stroke="#63b8ff" points="396.15,-237.78 385.59,-238.72 394.43,-244.56 396.15,-237.78"/>
</a>
</g>
</g>
<!-- Node6 -->
<g id="Node000006" class="node">
<title>Node6</title>
<g id="a_Node000006"><a xlink:href="classmpPieChart.html" target="_top" xlink:title="Layer for pie chart. Create a very basic Pie Chart.">
<polygon fill="white" stroke="#666666" points="541.5,-241 467.5,-241 467.5,-222 541.5,-222 541.5,-241"/>
<text text-anchor="middle" x="504.5" y="-229" font-family="Helvetica,sans-Serif" font-size="10.00">mpPieChart</text>
</a>
</g>
</g>
<!-- Node4&#45;&gt;Node6 -->
<g id="edge5_Node000004_Node000006" class="edge">
<title>Node4&#45;&gt;Node6</title>
<g id="a_edge5_Node000004_Node000006"><a xlink:title=" ">
<path fill="none" stroke="#63b8ff" d="M395.7,-231.5C417.93,-231.5 445.67,-231.5 467.44,-231.5"/>
<polygon fill="#63b8ff" stroke="#63b8ff" points="395.59,-228 385.59,-231.5 395.59,-235 395.59,-228"/>
</a>
</g>
</g>
<!-- Node8 -->
<g id="Node000008" class="node">
<title>Node8</title>
<g id="a_Node000008"><a xlink:href="classmpFXGeneric.html" target="_top" xlink:title=" ">
<polygon fill="white" stroke="#666666" points="546,-204 463,-204 463,-185 546,-185 546,-204"/>
<text text-anchor="middle" x="504.5" y="-192" font-family="Helvetica,sans-Serif" font-size="10.00">mpFXGeneric</text>
</a>
</g>
</g>
<!-- Node7&#45;&gt;Node8 -->
<g id="edge7_Node000007_Node000008" class="edge">
<title>Node7&#45;&gt;Node8</title>
<g id="a_edge7_Node000007_Node000008"><a xlink:title=" ">
<path fill="none" stroke="#63b8ff" d="M388.65,-194.5C410.41,-194.5 439.5,-194.5 462.95,-194.5"/>
<polygon fill="#63b8ff" stroke="#63b8ff" points="388.62,-191 378.62,-194.5 388.62,-198 388.62,-191"/>
</a>
</g>
</g>
<!-- Node9 -->
<g id="Node000009" class="node">
<title>Node9</title>
<g id="a_Node000009"><a xlink:href="classmpGaussian.html" target="_top" xlink:title=" ">
<polygon fill="white" stroke="#666666" points="677,-222 600,-222 600,-203 677,-203 677,-222"/>
<text text-anchor="middle" x="638.5" y="-210" font-family="Helvetica,sans-Serif" font-size="10.00">mpGaussian</text>
</a>
</g>
</g>
<!-- Node8&#45;&gt;Node9 -->
<g id="edge8_Node000008_Node000009" class="edge">
<title>Node8&#45;&gt;Node9</title>
<g id="a_edge8_Node000008_Node000009"><a xlink:title=" ">
<path fill="none" stroke="#63b8ff" d="M556.48,-201.45C570.92,-203.42 586.38,-205.53 599.88,-207.37"/>
<polygon fill="#63b8ff" stroke="#63b8ff" points="556.56,-197.93 546.18,-200.05 555.62,-204.87 556.56,-197.93"/>
</a>
</g>
</g>
<!-- Node10 -->
<g id="Node000010" class="node">
<title>Node10</title>
<g id="a_Node000010"><a xlink:href="classmpNormal.html" target="_top" xlink:title=" ">
<polygon fill="white" stroke="#666666" points="672.5,-185 604.5,-185 604.5,-166 672.5,-166 672.5,-185"/>
<text text-anchor="middle" x="638.5" y="-173" font-family="Helvetica,sans-Serif" font-size="10.00">mpNormal</text>
</a>
</g>
</g>
<!-- Node8&#45;&gt;Node10 -->
<g id="edge9_Node000008_Node000010" class="edge">
<title>Node8&#45;&gt;Node10</title>
<g id="a_edge9_Node000008_Node000010"><a xlink:title=" ">
<path fill="none" stroke="#63b8ff" d="M556.49,-187.16C572.52,-184.85 589.79,-182.37 604.26,-180.29"/>
<polygon fill="#63b8ff" stroke="#63b8ff" points="555.58,-183.76 546.18,-188.64 556.58,-190.68 555.58,-183.76"/>
</a>
</g>
</g>
<!-- Node12 -->
<g id="Node000012" class="node">
<title>Node12</title>
<g id="a_Node000012"><a xlink:href="classmpFXYVector.html" target="_top" xlink:title=" ">
<polygon fill="white" stroke="#666666" points="545.5,-167 463.5,-167 463.5,-148 545.5,-148 545.5,-167"/>
<text text-anchor="middle" x="504.5" y="-155" font-family="Helvetica,sans-Serif" font-size="10.00">mpFXYVector</text>
</a>
</g>
</g>
<!-- Node11&#45;&gt;Node12 -->
<g id="edge11_Node000011_Node000012" class="edge">
<title>Node11&#45;&gt;Node12</title>
<g id="a_edge11_Node000011_Node000012"><a xlink:title=" ">
<path fill="none" stroke="#63b8ff" d="M391.54,-157.5C413.08,-157.5 440.89,-157.5 463.4,-157.5"/>
<polygon fill="#63b8ff" stroke="#63b8ff" points="391.52,-154 381.52,-157.5 391.52,-161 391.52,-154"/>
</a>
</g>
</g>
<!-- Node15 -->
<g id="Node000015" class="node">
<title>Node15</title>
<g id="a_Node000015"><a xlink:href="classmpHorizontalLine.html" target="_top" xlink:title=" ">
<polygon fill="white" stroke="#666666" points="556,-130 453,-130 453,-111 556,-111 556,-130"/>
<text text-anchor="middle" x="504.5" y="-118" font-family="Helvetica,sans-Serif" font-size="10.00">mpHorizontalLine</text>
</a>
</g>
</g>
<!-- Node14&#45;&gt;Node15 -->
<g id="edge14_Node000014_Node000015" class="edge">
<title>Node14&#45;&gt;Node15</title>
<g id="a_edge14_Node000014_Node000015"><a xlink:title=" ">
<path fill="none" stroke="#63b8ff" d="M392.51,-92.47C414.63,-98.05 443.07,-105.24 465.63,-110.94"/>
<polygon fill="#63b8ff" stroke="#63b8ff" points="393.07,-89 382.52,-89.94 391.36,-95.79 393.07,-89"/>
</a>
</g>
</g>
<!-- Node16 -->
<g id="Node000016" class="node">
<title>Node16</title>
<g id="a_Node000016"><a xlink:href="classmpVerticalLine.html" target="_top" xlink:title=" ">
<polygon fill="white" stroke="#666666" points="549,-93 460,-93 460,-74 549,-74 549,-93"/>
<text text-anchor="middle" x="504.5" y="-81" font-family="Helvetica,sans-Serif" font-size="10.00">mpVerticalLine</text>
</a>
</g>
</g>
<!-- Node14&#45;&gt;Node16 -->
<g id="edge15_Node000014_Node000016" class="edge">
<title>Node14&#45;&gt;Node16</title>
<g id="a_edge15_Node000014_Node000016"><a xlink:title=" ">
<path fill="none" stroke="#63b8ff" d="M392.59,-83.5C412.87,-83.5 438.44,-83.5 459.92,-83.5"/>
<polygon fill="#63b8ff" stroke="#63b8ff" points="392.52,-80 382.52,-83.5 392.52,-87 392.52,-80"/>
</a>
</g>
</g>
<!-- Node18 -->
<g id="Node000018" class="node">
<title>Node18</title>
<g id="a_Node000018"><a xlink:href="classmpCovarianceEllipse.html" target="_top" xlink:title=" ">
<polygon fill="white" stroke="#666666" points="564,-56 445,-56 445,-37 564,-37 564,-56"/>
<text text-anchor="middle" x="504.5" y="-44" font-family="Helvetica,sans-Serif" font-size="10.00">mpCovarianceEllipse</text>
</a>
</g>
</g>
<!-- Node17&#45;&gt;Node18 -->
<g id="edge17_Node000017_Node000018" class="edge">
<title>Node17&#45;&gt;Node18</title>
<g id="a_edge17_Node000017_Node000018"><a xlink:title=" ">
<path fill="none" stroke="#63b8ff" d="M419.28,-46.5C427.77,-46.5 436.45,-46.5 444.87,-46.5"/>
<polygon fill="#63b8ff" stroke="#63b8ff" points="419.06,-43 409.06,-46.5 419.06,-50 419.06,-43"/>
</a>
</g>
</g>
<!-- Node19 -->
<g id="Node000019" class="node">
<title>Node19</title>
<g id="a_Node000019"><a xlink:href="classmpPolygon.html" target="_top" xlink:title=" ">
<polygon fill="white" stroke="#666666" points="540,-19 469,-19 469,0 540,0 540,-19"/>
<text text-anchor="middle" x="504.5" y="-7" font-family="Helvetica,sans-Serif" font-size="10.00">mpPolygon</text>
</a>
</g>
</g>
<!-- Node17&#45;&gt;Node19 -->
<g id="edge18_Node000017_Node000019" class="edge">
<title>Node17&#45;&gt;Node19</title>
<g id="a_edge18_Node000017_Node000019"><a xlink:title=" ">
<path fill="none" stroke="#63b8ff" d="M404.43,-34.52C425.42,-29.22 449.66,-23.1 468.91,-18.24"/>
<polygon fill="#63b8ff" stroke="#63b8ff" points="403.57,-31.13 394.73,-36.97 405.28,-37.92 403.57,-31.13"/>
</a>
</g>
</g>
</g>
</svg>

<g id="navigator" transform="translate(0 0)" fill="#404254">
  <rect fill="#f2f5e9" fill-opacity="0.5" stroke="#606060" stroke-width=".5" x="0" y="0" width="60" height="60"/>
  <use id="zoomplus" xlink:href="#zoomPlus" x="17" y="9" onmousedown="handleZoom(evt,'in')"/>
  <use id="zoomminus" xlink:href="#zoomMin" x="42" y="9" onmousedown="handleZoom(evt,'out')"/>
  <use id="reset" xlink:href="#resetDef" x="30" y="36" onmousedown="handleReset()"/>
   <use id="arrowup" xlink:href="#arrowUp" x="0" y="0" onmousedown="handlePan(0,-1)"/>
  <use id="arrowright" xlink:href="#arrowRight" x="0" y="0" onmousedown="handlePan(1,0)"/>
  <use id="arrowdown" xlink:href="#arrowDown" x="0" y="0" onmousedown="handlePan(0,1)"/>
  <use id="arrowleft" xlink:href="#arrowLeft" x="0" y="0" onmousedown="handlePan(-1,0)"/>
</g>
<svg viewBox="0 0 15 15" width="100%" height="30px" preserveAspectRatio="xMaxYMin meet">
 <g id="arrow_out" transform="scale(0.3 0.3)">
  <a xlink:href="classmpFunction__inherit__graph_org.svg" target="_base">
   <rect id="button" ry="5" rx="5" y="6" x="6" height="38" width="38"
        fill="#f2f5e9" fill-opacity="0.5" stroke="#606060" stroke-width="1.0"/>
   <path id="arrow"
     d="M 11.500037,31.436501 C 11.940474,20.09759 22.043105,11.32322 32.158766,21.979434 L 37.068811,17.246167 C 37.068811,17.246167 37.088388,32 37.088388,32 L 22.160133,31.978069 C 22.160133,31.978069 26.997745,27.140456 26.997745,27.140456 C 18.528582,18.264221 13.291696,25.230495 11.500037,31.436501 z"
     style="fill:#404040;"/>
  </a>
 </g>
</svg>

<style type='text/css'>
<![CDATA[
[data-mouse-over-selected='false'] { opacity: 0.7; }
[data-mouse-over-selected='true']  { opacity: 1.0; }
]]>
</style>
<script type="application/ecmascript"><![CDATA[
document.addEventListener('DOMContentLoaded', (event) => {
  highlightEdges();
  highlightAdjacentNodes();
});
]]></script>
</svg>
