<?xml version="1.0" encoding="UTF-8" standalone="no"?>
<!DOCTYPE svg PUBLIC "-//W3C//DTD SVG 1.1//EN"
 "http://www.w3.org/Graphics/SVG/1.1/DTD/svg11.dtd">
<!-- Generated by graphviz version 2.43.0 (0)
 -->
<!-- Title: mpProfile Pages: 1 -->
<svg width="622pt" height="404pt"
 viewBox="0.00 0.00 622.00 404.00" xmlns="http://www.w3.org/2000/svg" xmlns:xlink="http://www.w3.org/1999/xlink">
<g id="graph0" class="graph" transform="scale(1 1) rotate(0) translate(4 400)">
<title>mpProfile</title>
<!-- Node1 -->
<g id="Node000001" class="node">
<title>Node1</title>
<g id="a_Node000001"><a xlink:title="Abstract base class providing plot and labeling functionality for functions F:Y&#45;&gt;X.">
<polygon fill="#999999" stroke="#666666" points="63,-330 0,-330 0,-311 63,-311 63,-330"/>
<text text-anchor="middle" x="31.5" y="-318" font-family="Helvetica,sans-Serif" font-size="10.00">mpProfile</text>
</a>
</g>
</g>
<!-- Node2 -->
<g id="Node000002" class="node">
<title>Node2</title>
<g id="a_Node000002"><a xlink:href="classmp_function.html" target="_top" xlink:title="Plot layer implementing an abstract function plot class.">
<polygon fill="white" stroke="#666666" points="161.5,-396 87.5,-396 87.5,-377 161.5,-377 161.5,-396"/>
<text text-anchor="middle" x="124.5" y="-384" font-family="Helvetica,sans-Serif" font-size="10.00">mpFunction</text>
</a>
</g>
</g>
<!-- Node2&#45;&gt;Node1 -->
<g id="edge1_Node000001_Node000002" class="edge">
<title>Node2&#45;&gt;Node1</title>
<g id="a_edge1_Node000001_Node000002"><a xlink:title=" ">
<path fill="none" stroke="#63b8ff" d="M103.69,-371.18C85.42,-358.61 59.44,-340.73 44.14,-330.2"/>
<polygon fill="#63b8ff" stroke="#63b8ff" points="101.74,-374.08 111.96,-376.87 105.7,-368.32 101.74,-374.08"/>
</a>
</g>
</g>
<!-- Node13 -->
<g id="Node000013" class="node">
<title>Node13</title>
<g id="a_Node000013"><a xlink:href="classmp_info_legend.html" target="_top" xlink:title="Implement the legend to be added to the plot This layer allows you to add a legend to describe the pl...">
<polygon fill="white" stroke="#666666" points="167.5,-330 81.5,-330 81.5,-311 167.5,-311 167.5,-330"/>
<text text-anchor="middle" x="124.5" y="-318" font-family="Helvetica,sans-Serif" font-size="10.00">mpInfoLegend</text>
</a>
</g>
</g>
<!-- Node2&#45;&gt;Node13 -->
<g id="edge18_Node000013_Node000002" class="edge">
<title>Node2&#45;&gt;Node13</title>
<g id="a_edge18_Node000013_Node000002"><a xlink:title=" ">
<path fill="none" stroke="#9a32cd" stroke-dasharray="5,2" d="M124.5,-366.58C124.5,-354.63 124.5,-339.72 124.5,-330.41"/>
<polygon fill="#9a32cd" stroke="#9a32cd" points="121,-366.87 124.5,-376.87 128,-366.87 121,-366.87"/>
</a>
</g>
<text text-anchor="middle" x="169.5" y="-351" font-family="Helvetica,sans-Serif" font-size="10.00" fill="grey"> m_selectedSeries</text>
</g>
<!-- Node3 -->
<g id="Node000003" class="node">
<title>Node3</title>
<g id="a_Node000003"><a xlink:href="classmp_layer.html" target="_top" xlink:title="Plot layer, abstract base class.">
<polygon fill="white" stroke="#666666" points="472,-165 413,-165 413,-146 472,-146 472,-165"/>
<text text-anchor="middle" x="442.5" y="-153" font-family="Helvetica,sans-Serif" font-size="10.00">mpLayer</text>
</a>
</g>
</g>
<!-- Node3&#45;&gt;Node2 -->
<g id="edge2_Node000002_Node000003" class="edge">
<title>Node3&#45;&gt;Node2</title>
<g id="a_edge2_Node000002_Node000003"><a xlink:title=" ">
<path fill="none" stroke="#63b8ff" d="M482.06,-165.46C506.68,-173.3 536.43,-187.42 551.5,-212 585.97,-268.23 519.44,-298.49 461.5,-330 410.19,-357.9 238.29,-375.73 161.77,-382.46"/>
<polygon fill="#63b8ff" stroke="#63b8ff" points="482.81,-162.03 472.23,-162.56 480.84,-168.75 482.81,-162.03"/>
</a>
</g>
</g>
<!-- Node8 -->
<g id="Node000008" class="node">
<title>Node8</title>
<g id="a_Node000008"><a xlink:href="classmp_scale.html" target="_top" xlink:title="Plot layer implementing an abstract scale ruler.">
<polygon fill="white" stroke="#666666" points="500,-92 441,-92 441,-73 500,-73 500,-92"/>
<text text-anchor="middle" x="470.5" y="-80" font-family="Helvetica,sans-Serif" font-size="10.00">mpScale</text>
</a>
</g>
</g>
<!-- Node3&#45;&gt;Node8 -->
<g id="edge8_Node000008_Node000003" class="edge">
<title>Node3&#45;&gt;Node8</title>
<g id="a_edge8_Node000008_Node000003"><a xlink:title=" ">
<path fill="none" stroke="#63b8ff" d="M449.74,-136.14C455.3,-122.03 462.74,-103.17 467.04,-92.28"/>
<polygon fill="#63b8ff" stroke="#63b8ff" points="446.35,-135.21 445.93,-145.79 452.86,-137.78 446.35,-135.21"/>
</a>
</g>
</g>
<!-- Node11 -->
<g id="Node000011" class="node">
<title>Node11</title>
<g id="a_Node000011"><a xlink:href="classmp_info_layer.html" target="_top" xlink:title="Base class to create small rectangular info boxes mpInfoLayer is the base class to create a small rec...">
<polygon fill="white" stroke="#666666" points="245.5,-92 167.5,-92 167.5,-73 245.5,-73 245.5,-92"/>
<text text-anchor="middle" x="206.5" y="-80" font-family="Helvetica,sans-Serif" font-size="10.00">mpInfoLayer</text>
</a>
</g>
</g>
<!-- Node3&#45;&gt;Node11 -->
<g id="edge13_Node000011_Node000003" class="edge">
<title>Node3&#45;&gt;Node11</title>
<g id="a_edge13_Node000011_Node000003"><a xlink:title=" ">
<path fill="none" stroke="#63b8ff" d="M433.67,-136.61C429.2,-129.4 423.1,-121.69 415.5,-117 387.74,-99.87 298,-90.39 245.57,-86.19"/>
<polygon fill="#63b8ff" stroke="#63b8ff" points="430.84,-138.73 438.73,-145.81 436.97,-135.36 430.84,-138.73"/>
</a>
</g>
</g>
<!-- Node4 -->
<g id="Node000004" class="node">
<title>Node4</title>
<g id="a_Node000004"><a xlink:title=" ">
<polygon fill="white" stroke="#bfbfbf" points="426.5,-231 364.5,-231 364.5,-212 426.5,-212 426.5,-231"/>
<text text-anchor="middle" x="395.5" y="-219" font-family="Helvetica,sans-Serif" font-size="10.00">wxObject</text>
</a>
</g>
</g>
<!-- Node4&#45;&gt;Node3 -->
<g id="edge3_Node000003_Node000004" class="edge">
<title>Node4&#45;&gt;Node3</title>
<g id="a_edge3_Node000003_Node000004"><a xlink:title=" ">
<path fill="none" stroke="#63b8ff" d="M407.79,-203.77C416.8,-191.49 428.7,-175.3 435.96,-165.41"/>
<polygon fill="#63b8ff" stroke="#63b8ff" points="404.94,-201.74 401.84,-211.87 410.58,-205.88 404.94,-201.74"/>
</a>
</g>
</g>
<!-- Node5 -->
<g id="Node000005" class="node">
<title>Node5</title>
<g id="a_Node000005"><a xlink:href="classmp_window.html" target="_top" xlink:title="Canvas for plotting mpLayer implementations.">
<polygon fill="white" stroke="#666666" points="291,-231 220,-231 220,-212 291,-212 291,-231"/>
<text text-anchor="middle" x="255.5" y="-219" font-family="Helvetica,sans-Serif" font-size="10.00">mpWindow</text>
</a>
</g>
</g>
<!-- Node5&#45;&gt;Node3 -->
<g id="edge4_Node000003_Node000005" class="edge">
<title>Node5&#45;&gt;Node3</title>
<g id="a_edge4_Node000003_Node000005"><a xlink:title=" ">
<path fill="none" stroke="#9a32cd" stroke-dasharray="5,2" d="M301.23,-210.87C318.54,-206.58 338.22,-200.92 355.5,-194 364.92,-190.23 366.32,-187.32 375.5,-183 389.54,-176.4 405.69,-169.97 418.62,-165.1"/>
<polygon fill="#9a32cd" stroke="#9a32cd" points="300.26,-207.5 291.35,-213.23 301.89,-214.31 300.26,-207.5"/>
</a>
</g>
<text text-anchor="middle" x="393.5" y="-186" font-family="Helvetica,sans-Serif" font-size="10.00" fill="grey"> m_win</text>
</g>
<!-- Node6 -->
<g id="Node000006" class="node">
<title>Node6</title>
<g id="a_Node000006"><a xlink:title=" ">
<polygon fill="white" stroke="#bfbfbf" points="343.5,-330 273.5,-330 273.5,-311 343.5,-311 343.5,-330"/>
<text text-anchor="middle" x="308.5" y="-318" font-family="Helvetica,sans-Serif" font-size="10.00">wxWindow</text>
</a>
</g>
</g>
<!-- Node6&#45;&gt;Node5 -->
<g id="edge5_Node000005_Node000006" class="edge">
<title>Node6&#45;&gt;Node5</title>
<g id="a_edge5_Node000005_Node000006"><a xlink:title=" ">
<path fill="none" stroke="#63b8ff" d="M302.16,-301.45C296.65,-286.78 287.91,-265.84 277.5,-249 273.6,-242.69 268.32,-236.28 263.91,-231.34"/>
<polygon fill="#63b8ff" stroke="#63b8ff" points="298.88,-302.67 305.59,-310.87 305.46,-300.28 298.88,-302.67"/>
</a>
</g>
</g>
<!-- Node7 -->
<g id="Node000007" class="node">
<title>Node7</title>
<g id="a_Node000007"><a xlink:href="structmp_axis_data.html" target="_top" xlink:title="Represents all the informations needed for plotting a layer in one direction (X or Y) This struct hol...">
<polygon fill="white" stroke="#666666" points="509,-19 432,-19 432,0 509,0 509,-19"/>
<text text-anchor="middle" x="470.5" y="-7" font-family="Helvetica,sans-Serif" font-size="10.00">mpAxisData</text>
</a>
</g>
</g>
<!-- Node7&#45;&gt;Node5 -->
<g id="edge6_Node000005_Node000007" class="edge">
<title>Node7&#45;&gt;Node5</title>
<g id="a_edge6_Node000005_Node000007"><a xlink:title=" ">
<path fill="none" stroke="#9a32cd" stroke-dasharray="5,2" d="M456.38,-26.89C426.43,-61.52 357.09,-140.92 330.5,-165 310.21,-183.37 284.02,-201.68 268.57,-211.99"/>
<polygon fill="#9a32cd" stroke="#9a32cd" points="459.21,-28.97 463.1,-19.11 453.91,-24.39 459.21,-28.97"/>
</a>
</g>
<text text-anchor="middle" x="410.5" y="-120" font-family="Helvetica,sans-Serif" font-size="10.00" fill="grey"> m_AxisDataX</text>
</g>
<!-- Node8&#45;&gt;Node7 -->
<g id="edge7_Node000007_Node000008" class="edge">
<title>Node8&#45;&gt;Node7</title>
<g id="a_edge7_Node000007_Node000008"><a xlink:title=" ">
<path fill="none" stroke="#9a32cd" stroke-dasharray="5,2" d="M470.5,-62.73C470.5,-48.66 470.5,-30.06 470.5,-19.28"/>
<polygon fill="#9a32cd" stroke="#9a32cd" points="467,-62.79 470.5,-72.79 474,-62.79 467,-62.79"/>
</a>
</g>
<text text-anchor="middle" x="482.5" y="-40" font-family="Helvetica,sans-Serif" font-size="10.00" fill="grey"> axis</text>
</g>
<!-- Node9 -->
<g id="Node000009" class="node">
<title>Node9</title>
<g id="a_Node000009"><a xlink:href="structmp_range.html" target="_top" xlink:title=" ">
<polygon fill="white" stroke="#666666" points="614,-165 495,-165 495,-146 614,-146 614,-165"/>
<text text-anchor="middle" x="554.5" y="-153" font-family="Helvetica,sans-Serif" font-size="10.00">mpRange&lt; double &gt;</text>
</a>
</g>
</g>
<!-- Node9&#45;&gt;Node7 -->
<g id="edge10_Node000007_Node000009" class="edge">
<title>Node9&#45;&gt;Node7</title>
<g id="a_edge10_Node000007_Node000009"><a xlink:title=" ">
<path fill="none" stroke="#9a32cd" stroke-dasharray="5,2" d="M559.56,-135.9C560.42,-129.76 560.49,-122.98 558.5,-117 544.01,-73.54 502.16,-35.65 481.84,-19.21"/>
<polygon fill="#9a32cd" stroke="#9a32cd" points="556.08,-135.43 557.42,-145.94 562.92,-136.89 556.08,-135.43"/>
</a>
</g>
<text text-anchor="middle" x="577.5" y="-91" font-family="Helvetica,sans-Serif" font-size="10.00" fill="grey"> bound</text>
<text text-anchor="middle" x="577.5" y="-80" font-family="Helvetica,sans-Serif" font-size="10.00" fill="grey">desired</text>
<text text-anchor="middle" x="577.5" y="-69" font-family="Helvetica,sans-Serif" font-size="10.00" fill="grey">lastDesired</text>
</g>
<!-- Node9&#45;&gt;Node8 -->
<g id="edge9_Node000008_Node000009" class="edge">
<title>Node9&#45;&gt;Node8</title>
<g id="a_edge9_Node000008_Node000009"><a xlink:title=" ">
<path fill="none" stroke="#9a32cd" stroke-dasharray="5,2" d="M508.97,-141.9C501.47,-138.32 494.28,-133.76 488.5,-128 478.59,-118.11 473.93,-102.04 471.9,-92.15"/>
<polygon fill="#9a32cd" stroke="#9a32cd" points="507.96,-145.28 518.53,-145.94 510.68,-138.83 507.96,-145.28"/>
</a>
</g>
<text text-anchor="middle" x="523.5" y="-120" font-family="Helvetica,sans-Serif" font-size="10.00" fill="grey"> m_axisRange</text>
</g>
<!-- Node10 -->
<g id="Node000010" class="node">
<title>Node10</title>
<g id="a_Node000010"><a xlink:href="structmp_rect.html" target="_top" xlink:title="A rectangle structure in several (integer) flavors.">
<polygon fill="white" stroke="#666666" points="452.5,-330 398.5,-330 398.5,-311 452.5,-311 452.5,-330"/>
<text text-anchor="middle" x="425.5" y="-318" font-family="Helvetica,sans-Serif" font-size="10.00">mpRect</text>
</a>
</g>
</g>
<!-- Node10&#45;&gt;Node3 -->
<g id="edge20_Node000003_Node000010" class="edge">
<title>Node10&#45;&gt;Node3</title>
<g id="a_edge20_Node000003_Node000010"><a xlink:title=" ">
<path fill="none" stroke="#9a32cd" stroke-dasharray="5,2" d="M442.63,-303.27C445.03,-300.11 447.14,-296.64 448.5,-293 465.51,-247.45 451.43,-187.32 445.15,-165.17"/>
<polygon fill="#9a32cd" stroke="#9a32cd" points="439.95,-301.01 435.91,-310.81 445.18,-305.67 439.95,-301.01"/>
</a>
</g>
<text text-anchor="middle" x="501.5" y="-219" font-family="Helvetica,sans-Serif" font-size="10.00" fill="grey"> m_plotBoundaries</text>
</g>
<!-- Node10&#45;&gt;Node5 -->
<g id="edge11_Node000005_Node000010" class="edge">
<title>Node10&#45;&gt;Node5</title>
<g id="a_edge11_Node000005_Node000010"><a xlink:title=" ">
<path fill="none" stroke="#9a32cd" stroke-dasharray="5,2" d="M388.12,-316.75C367.82,-313.61 343.31,-306.97 325.5,-293 307.97,-279.25 317.07,-264.93 301.5,-249 294.29,-241.62 284.58,-235.62 275.94,-231.21"/>
<polygon fill="#9a32cd" stroke="#9a32cd" points="387.92,-320.25 398.29,-318.09 388.83,-313.31 387.92,-320.25"/>
</a>
</g>
<text text-anchor="middle" x="387" y="-285" font-family="Helvetica,sans-Serif" font-size="10.00" fill="grey"> m_margin</text>
<text text-anchor="middle" x="387" y="-274" font-family="Helvetica,sans-Serif" font-size="10.00" fill="grey">m_marginOuter</text>
<text text-anchor="middle" x="387" y="-263" font-family="Helvetica,sans-Serif" font-size="10.00" fill="grey">m_plotBoundaries</text>
<text text-anchor="middle" x="387" y="-252" font-family="Helvetica,sans-Serif" font-size="10.00" fill="grey">m_plotBoundariesMargin</text>
</g>
<!-- Node11&#45;&gt;Node5 -->
<g id="edge12_Node000005_Node000011" class="edge">
<title>Node11&#45;&gt;Node5</title>
<g id="a_edge12_Node000005_Node000011"><a xlink:title=" ">
<path fill="none" stroke="#9a32cd" stroke-dasharray="5,2" d="M210.88,-102.31C214.99,-119.01 221.66,-143.96 229.5,-165 235.81,-181.95 245.21,-200.86 250.81,-211.66"/>
<polygon fill="#9a32cd" stroke="#9a32cd" points="214.2,-101.12 208.46,-92.21 207.39,-102.75 214.2,-101.12"/>
</a>
</g>
<text text-anchor="middle" x="280" y="-153" font-family="Helvetica,sans-Serif" font-size="10.00" fill="grey"> m_movingInfoLayer</text>
</g>
<!-- Node12 -->
<g id="Node000012" class="node">
<title>Node12</title>
<g id="a_Node000012"><a xlink:href="classmp_info_coords.html" target="_top" xlink:title="Implements an overlay box which shows the mouse coordinates in plot units.">
<polygon fill="white" stroke="#666666" points="191,-19 106,-19 106,0 191,0 191,-19"/>
<text text-anchor="middle" x="148.5" y="-7" font-family="Helvetica,sans-Serif" font-size="10.00">mpInfoCoords</text>
</a>
</g>
</g>
<!-- Node11&#45;&gt;Node12 -->
<g id="edge15_Node000012_Node000011" class="edge">
<title>Node11&#45;&gt;Node12</title>
<g id="a_edge15_Node000012_Node000011"><a xlink:title=" ">
<path fill="none" stroke="#63b8ff" d="M192.84,-64.78C181.2,-50.52 164.92,-30.6 155.67,-19.28"/>
<polygon fill="#63b8ff" stroke="#63b8ff" points="190.35,-67.26 199.39,-72.79 195.77,-62.84 190.35,-67.26"/>
</a>
</g>
</g>
<!-- Node11&#45;&gt;Node13 -->
<g id="edge17_Node000013_Node000011" class="edge">
<title>Node11&#45;&gt;Node13</title>
<g id="a_edge17_Node000013_Node000011"><a xlink:title=" ">
<path fill="none" stroke="#63b8ff" d="M157.2,-88.12C138.51,-92.55 118.98,-101 107.5,-117 63.08,-178.92 105.72,-280.51 120.13,-310.75"/>
<polygon fill="#63b8ff" stroke="#63b8ff" points="158.05,-91.52 167.15,-86.1 156.66,-84.66 158.05,-91.52"/>
</a>
</g>
</g>
<!-- Node12&#45;&gt;Node5 -->
<g id="edge14_Node000005_Node000012" class="edge">
<title>Node12&#45;&gt;Node5</title>
<g id="a_edge14_Node000005_Node000012"><a xlink:title=" ">
<path fill="none" stroke="#9a32cd" stroke-dasharray="5,2" d="M141.72,-28.59C133.89,-52.59 123.95,-95.71 139.5,-128 159.62,-169.77 208.79,-198.53 236.22,-211.93"/>
<polygon fill="#9a32cd" stroke="#9a32cd" points="145.08,-29.6 145.07,-19.01 138.47,-27.29 145.08,-29.6"/>
</a>
</g>
<text text-anchor="middle" x="175" y="-120" font-family="Helvetica,sans-Serif" font-size="10.00" fill="grey"> m_InfoCoords</text>
</g>
<!-- Node13&#45;&gt;Node5 -->
<g id="edge16_Node000005_Node000013" class="edge">
<title>Node13&#45;&gt;Node5</title>
<g id="a_edge16_Node000005_Node000013"><a xlink:title=" ">
<path fill="none" stroke="#9a32cd" stroke-dasharray="5,2" d="M122.69,-300.57C122.28,-284.72 124.45,-262.57 137.5,-249 148.75,-237.31 189.4,-230.08 219.86,-226.18"/>
<polygon fill="#9a32cd" stroke="#9a32cd" points="119.21,-301.03 123.33,-310.79 126.2,-300.59 119.21,-301.03"/>
</a>
</g>
<text text-anchor="middle" x="174" y="-268.5" font-family="Helvetica,sans-Serif" font-size="10.00" fill="grey"> m_InfoLegend</text>
</g>
<!-- Node14 -->
<g id="Node000014" class="node">
<title>Node14</title>
<g id="a_Node000014"><a xlink:href="classmp_magnet.html" target="_top" xlink:title="Class for drawing mouse magnetization Draw an horizontal and a vertical line at the mouse position.">
<polygon fill="white" stroke="#666666" points="255,-330 186,-330 186,-311 255,-311 255,-330"/>
<text text-anchor="middle" x="220.5" y="-318" font-family="Helvetica,sans-Serif" font-size="10.00">mpMagnet</text>
</a>
</g>
</g>
<!-- Node14&#45;&gt;Node5 -->
<g id="edge19_Node000005_Node000014" class="edge">
<title>Node14&#45;&gt;Node5</title>
<g id="a_edge19_Node000005_Node000014"><a xlink:title=" ">
<path fill="none" stroke="#9a32cd" stroke-dasharray="5,2" d="M216.52,-300.69C214.34,-285.86 213.51,-265.07 221.5,-249 225.23,-241.49 232.21,-235.48 238.87,-231.1"/>
<polygon fill="#9a32cd" stroke="#9a32cd" points="213.1,-301.47 218.31,-310.69 219.99,-300.23 213.1,-301.47"/>
</a>
</g>
<text text-anchor="middle" x="249.5" y="-268.5" font-family="Helvetica,sans-Serif" font-size="10.00" fill="grey"> m_magnet</text>
</g>
</g>
</svg>
