<?xml version="1.0" encoding="UTF-8" standalone="no"?>
<!DOCTYPE svg PUBLIC "-//W3C//DTD SVG 1.1//EN"
 "http://www.w3.org/Graphics/SVG/1.1/DTD/svg11.dtd">
<!-- Generated by graphviz version 2.43.0 (0)
 -->
<!-- Title: mpBitmapLayer Pages: 1 -->
<!--zoomable 327 -->

<svg id="main" version="1.1" xmlns="http://www.w3.org/2000/svg" xmlns:xlink="http://www.w3.org/1999/xlink" xml:space="preserve" onload="init(evt)">
<style type="text/css"><![CDATA[
.node, .edge {opacity: 0.7;}
.node.selected, .edge.selected {opacity: 1;}
.edge:hover path { stroke: red; }
.edge:hover polygon { stroke: red; fill: red; }
]]></style>

<defs>
  <circle id="rim" cx="0" cy="0" r="7"/>
  <circle id="rim2" cx="0" cy="0" r="3.5"/>
  <g id="zoomPlus">
    <use xlink:href="#rim" fill="#404040"><set attributeName="fill" to="#808080" begin="zoomplus.mouseover" end="zoomplus.mouseout"/></use>
    <path d="M-4,0h8M0,-4v8" fill="none" stroke="white" stroke-width="1.5" pointer-events="none"/>
  </g>
  <g id="zoomMin">
    <use xlink:href="#rim" fill="#404040"><set attributeName="fill" to="#808080" begin="zoomminus.mouseover" end="zoomminus.mouseout"/></use>
    <path d="M-4,0h8" fill="none" stroke="white" stroke-width="1.5" pointer-events="none"/>
  </g>
  <g id="arrowUp" transform="translate(30 24)">
    <use xlink:href="#rim"/>
    <path pointer-events="none" fill="none" stroke="white" stroke-width="1.5" d="M0,-3.0v7 M-2.5,-0.5L0,-3.0L2.5,-0.5"/>
  </g>
  <g id="arrowRight" transform="rotate(90) translate(36 -43)">
    <use xlink:href="#rim"/>
    <path pointer-events="none" fill="none" stroke="white" stroke-width="1.5" d="M0,-3.0v7 M-2.5,-0.5L0,-3.0L2.5,-0.5"/>
  </g>
  <g id="arrowDown" transform="rotate(180) translate(-30 -48)">
    <use xlink:href="#rim"/>
    <path pointer-events="none" fill="none" stroke="white" stroke-width="1.5" d="M0,-3.0v7 M-2.5,-0.5L0,-3.0L2.5,-0.5"/>
  </g>
  <g id="arrowLeft" transform="rotate(270) translate(-36 17)">
    <use xlink:href="#rim"/>
    <path pointer-events="none" fill="none" stroke="white" stroke-width="1.5" d="M0,-3.0v7 M-2.5,-0.5L0,-3.0L2.5,-0.5"/>
  </g>
  <g id="resetDef">
    <use xlink:href="#rim2" fill="#404040"><set attributeName="fill" to="#808080" begin="reset.mouseover" end="reset.mouseout"/></use>
  </g>
</defs>
<script type="application/ecmascript">
var viewWidth = 734;
var viewHeight = 327;
var sectionId = 'dynsection-1';
</script>
<script type="application/ecmascript" xlink:href="svg.min.js"/>
<svg id="graph" class="graph">
<g id="viewport">
<title>mpBitmapLayer</title>
<!-- Node1 -->
<g id="Node000001" class="node">
<title>Node1</title>
<g id="a_Node000001"><a xlink:title="A layer that allows you to have a bitmap image printed in the mpWindow.">
<polygon fill="#999999" stroke="#666666" points="405.5,-163.5 310.5,-163.5 310.5,-144.5 405.5,-144.5 405.5,-163.5"/>
<text text-anchor="middle" x="358" y="-151.5" font-family="Helvetica,sans-Serif" font-size="10.00">mpBitmapLayer</text>
</a>
</g>
</g>
<!-- Node2 -->
<g id="Node000002" class="node">
<title>Node2</title>
<g id="a_Node000002"><a xlink:href="classmp_layer.html" target="_top" xlink:title="Plot layer, abstract base class.">
<polygon fill="white" stroke="#666666" points="479.5,-253 420.5,-253 420.5,-234 479.5,-234 479.5,-253"/>
<text text-anchor="middle" x="450" y="-241" font-family="Helvetica,sans-Serif" font-size="10.00">mpLayer</text>
</a>
</g>
</g>
<!-- Node2&#45;&gt;Node1 -->
<g id="edge1_Node000001_Node000002" class="edge">
<title>Node2&#45;&gt;Node1</title>
<g id="a_edge1_Node000001_Node000002"><a xlink:title=" ">
<path fill="none" stroke="#63b8ff" d="M443.16,-224.44C438.78,-214.6 432.34,-202.7 424,-194 411.19,-180.65 392.84,-170.3 378.73,-163.63"/>
<polygon fill="#63b8ff" stroke="#63b8ff" points="439.94,-225.81 446.98,-233.73 446.41,-223.15 439.94,-225.81"/>
</a>
</g>
</g>
<!-- Node7 -->
<g id="Node000007" class="node">
<title>Node7</title>
<g id="a_Node000007"><a xlink:href="classmp_scale.html" target="_top" xlink:title="Plot layer implementing an abstract scale ruler.">
<polygon fill="white" stroke="#666666" points="292.5,-163.5 233.5,-163.5 233.5,-144.5 292.5,-144.5 292.5,-163.5"/>
<text text-anchor="middle" x="263" y="-151.5" font-family="Helvetica,sans-Serif" font-size="10.00">mpScale</text>
</a>
</g>
</g>
<!-- Node2&#45;&gt;Node7 -->
<g id="edge7_Node000007_Node000002" class="edge">
<title>Node2&#45;&gt;Node7</title>
<g id="a_edge7_Node000007_Node000002"><a xlink:title=" ">
<path fill="none" stroke="#63b8ff" d="M435.04,-226.4C423.12,-213.95 407.13,-198.14 399,-194 359.54,-173.91 342.7,-190.9 301,-176 292.34,-172.91 283.3,-167.99 276.22,-163.69"/>
<polygon fill="#63b8ff" stroke="#63b8ff" points="432.75,-229.08 442.16,-233.95 437.85,-224.27 432.75,-229.08"/>
</a>
</g>
</g>
<!-- Node10 -->
<g id="Node000010" class="node">
<title>Node10</title>
<g id="a_Node000010"><a xlink:href="classmp_info_layer.html" target="_top" xlink:title="Base class to create small rectangular info boxes mpInfoLayer is the base class to create a small rec...">
<polygon fill="white" stroke="#666666" points="502,-163.5 424,-163.5 424,-144.5 502,-144.5 502,-163.5"/>
<text text-anchor="middle" x="463" y="-151.5" font-family="Helvetica,sans-Serif" font-size="10.00">mpInfoLayer</text>
</a>
</g>
</g>
<!-- Node2&#45;&gt;Node10 -->
<g id="edge12_Node000010_Node000002" class="edge">
<title>Node2&#45;&gt;Node10</title>
<g id="a_edge12_Node000010_Node000002"><a xlink:title=" ">
<path fill="none" stroke="#63b8ff" d="M452.77,-223.85C455.53,-205.28 459.64,-177.61 461.71,-163.67"/>
<polygon fill="#63b8ff" stroke="#63b8ff" points="449.3,-223.38 451.29,-233.79 456.23,-224.41 449.3,-223.38"/>
</a>
</g>
</g>
<!-- Node13 -->
<g id="Node000013" class="node">
<title>Node13</title>
<g id="a_Node000013"><a xlink:href="classmp_function.html" target="_top" xlink:title="Plot layer implementing an abstract function plot class.">
<polygon fill="white" stroke="#666666" points="594,-163.5 520,-163.5 520,-144.5 594,-144.5 594,-163.5"/>
<text text-anchor="middle" x="557" y="-151.5" font-family="Helvetica,sans-Serif" font-size="10.00">mpFunction</text>
</a>
</g>
</g>
<!-- Node2&#45;&gt;Node13 -->
<g id="edge18_Node000013_Node000002" class="edge">
<title>Node2&#45;&gt;Node13</title>
<g id="a_edge18_Node000013_Node000002"><a xlink:title=" ">
<path fill="none" stroke="#63b8ff" d="M468.48,-227.38C490.99,-208.98 528.24,-178.52 546.39,-163.67"/>
<polygon fill="#63b8ff" stroke="#63b8ff" points="466.18,-224.75 460.65,-233.79 470.61,-230.17 466.18,-224.75"/>
</a>
</g>
</g>
<!-- Node3 -->
<g id="Node000003" class="node">
<title>Node3</title>
<g id="a_Node000003"><a xlink:title=" ">
<polygon fill="white" stroke="#bfbfbf" points="481,-319 419,-319 419,-300 481,-300 481,-319"/>
<text text-anchor="middle" x="450" y="-307" font-family="Helvetica,sans-Serif" font-size="10.00">wxObject</text>
</a>
</g>
</g>
<!-- Node3&#45;&gt;Node2 -->
<g id="edge2_Node000002_Node000003" class="edge">
<title>Node3&#45;&gt;Node2</title>
<g id="a_edge2_Node000002_Node000003"><a xlink:title=" ">
<path fill="none" stroke="#63b8ff" d="M450,-289.58C450,-277.63 450,-262.72 450,-253.41"/>
<polygon fill="#63b8ff" stroke="#63b8ff" points="446.5,-289.87 450,-299.87 453.5,-289.87 446.5,-289.87"/>
</a>
</g>
</g>
<!-- Node4 -->
<g id="Node000004" class="node">
<title>Node4</title>
<g id="a_Node000004"><a xlink:href="classmp_window.html" target="_top" xlink:title="Canvas for plotting mpLayer implementations.">
<polygon fill="white" stroke="#666666" points="373.5,-19 302.5,-19 302.5,0 373.5,0 373.5,-19"/>
<text text-anchor="middle" x="338" y="-7" font-family="Helvetica,sans-Serif" font-size="10.00">mpWindow</text>
</a>
</g>
</g>
<!-- Node4&#45;&gt;Node2 -->
<g id="edge3_Node000002_Node000004" class="edge">
<title>Node4&#45;&gt;Node2</title>
<g id="a_edge3_Node000002_Node000004"><a xlink:title=" ">
<path fill="none" stroke="#9a32cd" stroke-dasharray="5,2" d="M383.97,-11.69C444.82,-13.92 548.33,-20.12 582,-37 597.74,-44.89 602.55,-49.61 609,-66 626.93,-111.56 631.18,-135.96 603,-176 574.41,-216.62 515.46,-232.66 479.66,-238.82"/>
<polygon fill="#9a32cd" stroke="#9a32cd" points="383.97,-8.19 373.86,-11.35 383.73,-15.19 383.97,-8.19"/>
</a>
</g>
<text text-anchor="middle" x="640" y="-106" font-family="Helvetica,sans-Serif" font-size="10.00" fill="grey"> m_win</text>
</g>
<!-- Node5 -->
<g id="Node000005" class="node">
<title>Node5</title>
<g id="a_Node000005"><a xlink:title=" ">
<polygon fill="white" stroke="#bfbfbf" points="154,-85 84,-85 84,-66 154,-66 154,-85"/>
<text text-anchor="middle" x="119" y="-73" font-family="Helvetica,sans-Serif" font-size="10.00">wxWindow</text>
</a>
</g>
</g>
<!-- Node5&#45;&gt;Node4 -->
<g id="edge4_Node000004_Node000005" class="edge">
<title>Node5&#45;&gt;Node4</title>
<g id="a_edge4_Node000004_Node000005"><a xlink:title=" ">
<path fill="none" stroke="#63b8ff" d="M143.72,-61.13C159.44,-53.12 180.46,-43.3 200,-37 233.9,-26.08 274.02,-18.99 302.24,-14.92"/>
<polygon fill="#63b8ff" stroke="#63b8ff" points="141.93,-58.12 134.67,-65.84 145.16,-64.33 141.93,-58.12"/>
</a>
</g>
</g>
<!-- Node6 -->
<g id="Node000006" class="node">
<title>Node6</title>
<g id="a_Node000006"><a xlink:href="structmp_axis_data.html" target="_top" xlink:title="Represents all the informations needed for plotting a layer in one direction (X or Y) This struct hol...">
<polygon fill="white" stroke="#666666" points="249.5,-85 172.5,-85 172.5,-66 249.5,-66 249.5,-85"/>
<text text-anchor="middle" x="211" y="-73" font-family="Helvetica,sans-Serif" font-size="10.00">mpAxisData</text>
</a>
</g>
</g>
<!-- Node6&#45;&gt;Node4 -->
<g id="edge5_Node000004_Node000006" class="edge">
<title>Node6&#45;&gt;Node4</title>
<g id="a_edge5_Node000004_Node000006"><a xlink:title=" ">
<path fill="none" stroke="#9a32cd" stroke-dasharray="5,2" d="M203.87,-56.05C202.54,-49.4 202.7,-42.25 207,-37 218.86,-22.5 267.89,-15.75 302.48,-12.74"/>
<polygon fill="#9a32cd" stroke="#9a32cd" points="200.56,-57.19 206.81,-65.74 207.26,-55.16 200.56,-57.19"/>
</a>
</g>
<text text-anchor="middle" x="242" y="-40" font-family="Helvetica,sans-Serif" font-size="10.00" fill="grey"> m_AxisDataX</text>
</g>
<!-- Node7&#45;&gt;Node6 -->
<g id="edge6_Node000006_Node000007" class="edge">
<title>Node7&#45;&gt;Node6</title>
<g id="a_edge6_Node000006_Node000007"><a xlink:title=" ">
<path fill="none" stroke="#9a32cd" stroke-dasharray="5,2" d="M251.37,-135.89C240.67,-120.15 225.24,-97.45 216.9,-85.17"/>
<polygon fill="#9a32cd" stroke="#9a32cd" points="248.52,-137.92 257.03,-144.22 254.31,-133.99 248.52,-137.92"/>
</a>
</g>
<text text-anchor="middle" x="248" y="-106" font-family="Helvetica,sans-Serif" font-size="10.00" fill="grey"> axis</text>
</g>
<!-- Node8 -->
<g id="Node000008" class="node">
<title>Node8</title>
<g id="a_Node000008"><a xlink:href="structmp_range.html" target="_top" xlink:title=" ">
<polygon fill="white" stroke="#666666" points="304.5,-253 185.5,-253 185.5,-234 304.5,-234 304.5,-253"/>
<text text-anchor="middle" x="245" y="-241" font-family="Helvetica,sans-Serif" font-size="10.00">mpRange&lt; double &gt;</text>
</a>
</g>
</g>
<!-- Node8&#45;&gt;Node1 -->
<g id="edge21_Node000001_Node000008" class="edge">
<title>Node8&#45;&gt;Node1</title>
<g id="a_edge21_Node000001_Node000008"><a xlink:title=" ">
<path fill="none" stroke="#9a32cd" stroke-dasharray="5,2" d="M289.91,-230.48C299.1,-226.76 308.3,-222.01 316,-216 334.45,-201.61 347.89,-176.85 354.13,-163.74"/>
<polygon fill="#9a32cd" stroke="#9a32cd" points="288.57,-227.24 280.41,-233.99 291,-233.81 288.57,-227.24"/>
</a>
</g>
<text text-anchor="middle" x="366" y="-208" font-family="Helvetica,sans-Serif" font-size="10.00" fill="grey"> m_bitmapX</text>
<text text-anchor="middle" x="366" y="-197" font-family="Helvetica,sans-Serif" font-size="10.00" fill="grey">m_bitmapY</text>
</g>
<!-- Node8&#45;&gt;Node6 -->
<g id="edge9_Node000006_Node000008" class="edge">
<title>Node8&#45;&gt;Node6</title>
<g id="a_edge9_Node000006_Node000008"><a xlink:title=" ">
<path fill="none" stroke="#9a32cd" stroke-dasharray="5,2" d="M219.4,-228.51C201.33,-217.04 178.52,-198.98 168,-176 159.86,-158.22 161.67,-150.5 168,-132 174.55,-112.86 190.68,-95.2 201.22,-85.16"/>
<polygon fill="#9a32cd" stroke="#9a32cd" points="217.97,-231.73 228.34,-233.89 221.58,-225.73 217.97,-231.73"/>
</a>
</g>
<text text-anchor="middle" x="196" y="-162.5" font-family="Helvetica,sans-Serif" font-size="10.00" fill="grey"> bound</text>
<text text-anchor="middle" x="196" y="-151.5" font-family="Helvetica,sans-Serif" font-size="10.00" fill="grey">desired</text>
<text text-anchor="middle" x="196" y="-140.5" font-family="Helvetica,sans-Serif" font-size="10.00" fill="grey">lastDesired</text>
</g>
<!-- Node8&#45;&gt;Node7 -->
<g id="edge8_Node000007_Node000008" class="edge">
<title>Node8&#45;&gt;Node7</title>
<g id="a_edge8_Node000007_Node000008"><a xlink:title=" ">
<path fill="none" stroke="#9a32cd" stroke-dasharray="5,2" d="M243.7,-223.58C243.5,-214.53 243.89,-203.6 246,-194 248.4,-183.03 253.95,-171.34 258.05,-163.65"/>
<polygon fill="#9a32cd" stroke="#9a32cd" points="240.21,-223.97 244.17,-233.8 247.2,-223.64 240.21,-223.97"/>
</a>
</g>
<text text-anchor="middle" x="281" y="-202.5" font-family="Helvetica,sans-Serif" font-size="10.00" fill="grey"> m_axisRange</text>
</g>
<!-- Node9 -->
<g id="Node000009" class="node">
<title>Node9</title>
<g id="a_Node000009"><a xlink:href="structmp_rect.html" target="_top" xlink:title="A rectangle structure in several (integer) flavors.">
<polygon fill="white" stroke="#666666" points="122,-319 68,-319 68,-300 122,-300 122,-319"/>
<text text-anchor="middle" x="95" y="-307" font-family="Helvetica,sans-Serif" font-size="10.00">mpRect</text>
</a>
</g>
</g>
<!-- Node9&#45;&gt;Node2 -->
<g id="edge20_Node000002_Node000009" class="edge">
<title>Node9&#45;&gt;Node2</title>
<g id="a_edge20_Node000002_Node000009"><a xlink:title=" ">
<path fill="none" stroke="#9a32cd" stroke-dasharray="5,2" d="M132.53,-301.73C203.51,-288.94 356.06,-261.44 420.41,-249.83"/>
<polygon fill="#9a32cd" stroke="#9a32cd" points="131.49,-298.37 122.27,-303.58 132.73,-305.25 131.49,-298.37"/>
</a>
</g>
<text text-anchor="middle" x="340" y="-274" font-family="Helvetica,sans-Serif" font-size="10.00" fill="grey"> m_plotBoundaries</text>
</g>
<!-- Node9&#45;&gt;Node4 -->
<g id="edge10_Node000004_Node000009" class="edge">
<title>Node9&#45;&gt;Node4</title>
<g id="a_edge10_Node000004_Node000009"><a xlink:title=" ">
<path fill="none" stroke="#9a32cd" stroke-dasharray="5,2" d="M58.22,-299.54C31.49,-290.59 0,-273.81 0,-244.5 0,-244.5 0,-244.5 0,-74.5 0,-13.43 215.69,-9.09 302.47,-9.81"/>
<polygon fill="#9a32cd" stroke="#9a32cd" points="57.19,-302.89 67.78,-302.5 59.26,-296.2 57.19,-302.89"/>
</a>
</g>
<text text-anchor="middle" x="61.5" y="-168" font-family="Helvetica,sans-Serif" font-size="10.00" fill="grey"> m_margin</text>
<text text-anchor="middle" x="61.5" y="-157" font-family="Helvetica,sans-Serif" font-size="10.00" fill="grey">m_marginOuter</text>
<text text-anchor="middle" x="61.5" y="-146" font-family="Helvetica,sans-Serif" font-size="10.00" fill="grey">m_plotBoundaries</text>
<text text-anchor="middle" x="61.5" y="-135" font-family="Helvetica,sans-Serif" font-size="10.00" fill="grey">m_plotBoundariesMargin</text>
</g>
<!-- Node10&#45;&gt;Node4 -->
<g id="edge11_Node000004_Node000010" class="edge">
<title>Node10&#45;&gt;Node4</title>
<g id="a_edge11_Node000004_Node000010"><a xlink:title=" ">
<path fill="none" stroke="#9a32cd" stroke-dasharray="5,2" d="M433.36,-140.22C426.98,-137.49 420.27,-134.64 414,-132 363.48,-110.76 330.48,-130.54 300,-85 284.98,-62.56 311.84,-33.4 327.66,-19.13"/>
<polygon fill="#9a32cd" stroke="#9a32cd" points="432.43,-143.63 443,-144.35 435.19,-137.2 432.43,-143.63"/>
</a>
</g>
<text text-anchor="middle" x="350.5" y="-73" font-family="Helvetica,sans-Serif" font-size="10.00" fill="grey"> m_movingInfoLayer</text>
</g>
<!-- Node11 -->
<g id="Node000011" class="node">
<title>Node11</title>
<g id="a_Node000011"><a xlink:href="classmp_info_coords.html" target="_top" xlink:title="Implements an overlay box which shows the mouse coordinates in plot units.">
<polygon fill="white" stroke="#666666" points="495.5,-85 410.5,-85 410.5,-66 495.5,-66 495.5,-85"/>
<text text-anchor="middle" x="453" y="-73" font-family="Helvetica,sans-Serif" font-size="10.00">mpInfoCoords</text>
</a>
</g>
</g>
<!-- Node10&#45;&gt;Node11 -->
<g id="edge14_Node000011_Node000010" class="edge">
<title>Node10&#45;&gt;Node11</title>
<g id="a_edge14_Node000011_Node000010"><a xlink:title=" ">
<path fill="none" stroke="#63b8ff" d="M460.53,-134.1C458.49,-118.47 455.68,-96.99 454.13,-85.17"/>
<polygon fill="#63b8ff" stroke="#63b8ff" points="457.09,-134.76 461.85,-144.22 464.03,-133.86 457.09,-134.76"/>
</a>
</g>
</g>
<!-- Node12 -->
<g id="Node000012" class="node">
<title>Node12</title>
<g id="a_Node000012"><a xlink:href="classmp_info_legend.html" target="_top" xlink:title="Implement the legend to be added to the plot This layer allows you to add a legend to describe the pl...">
<polygon fill="white" stroke="#666666" points="600,-85 514,-85 514,-66 600,-66 600,-85"/>
<text text-anchor="middle" x="557" y="-73" font-family="Helvetica,sans-Serif" font-size="10.00">mpInfoLegend</text>
</a>
</g>
</g>
<!-- Node10&#45;&gt;Node12 -->
<g id="edge16_Node000012_Node000010" class="edge">
<title>Node10&#45;&gt;Node12</title>
<g id="a_edge16_Node000012_Node000010"><a xlink:title=" ">
<path fill="none" stroke="#63b8ff" d="M475.84,-136.5C484.48,-126.08 496.53,-112.79 509,-103 517.98,-95.94 529.09,-89.68 538.36,-85.02"/>
<polygon fill="#63b8ff" stroke="#63b8ff" points="473,-134.45 469.45,-144.43 478.45,-138.84 473,-134.45"/>
</a>
</g>
</g>
<!-- Node11&#45;&gt;Node4 -->
<g id="edge13_Node000004_Node000011" class="edge">
<title>Node11&#45;&gt;Node4</title>
<g id="a_edge13_Node000004_Node000011"><a xlink:title=" ">
<path fill="none" stroke="#9a32cd" stroke-dasharray="5,2" d="M428.49,-60.86C405.85,-48.26 372.89,-29.92 353.63,-19.2"/>
<polygon fill="#9a32cd" stroke="#9a32cd" points="427.05,-64.06 437.49,-65.87 430.45,-57.95 427.05,-64.06"/>
</a>
</g>
<text text-anchor="middle" x="438.5" y="-40" font-family="Helvetica,sans-Serif" font-size="10.00" fill="grey"> m_InfoCoords</text>
</g>
<!-- Node12&#45;&gt;Node4 -->
<g id="edge15_Node000004_Node000012" class="edge">
<title>Node12&#45;&gt;Node4</title>
<g id="a_edge15_Node000004_Node000012"><a xlink:title=" ">
<path fill="none" stroke="#9a32cd" stroke-dasharray="5,2" d="M533.22,-61.24C517.87,-53.18 497.25,-43.27 478,-37 443.43,-25.73 402.4,-18.66 373.73,-14.69"/>
<polygon fill="#9a32cd" stroke="#9a32cd" points="531.57,-64.33 542.04,-65.97 534.88,-58.16 531.57,-64.33"/>
</a>
</g>
<text text-anchor="middle" x="541.5" y="-40" font-family="Helvetica,sans-Serif" font-size="10.00" fill="grey"> m_InfoLegend</text>
</g>
<!-- Node13&#45;&gt;Node12 -->
<g id="edge17_Node000012_Node000013" class="edge">
<title>Node13&#45;&gt;Node12</title>
<g id="a_edge17_Node000012_Node000013"><a xlink:title=" ">
<path fill="none" stroke="#9a32cd" stroke-dasharray="5,2" d="M532.96,-138.7C520.33,-129.24 508.82,-116.18 516,-103 520.3,-95.11 528.06,-89.21 535.69,-85.01"/>
<polygon fill="#9a32cd" stroke="#9a32cd" points="531.01,-141.6 541.23,-144.36 534.96,-135.83 531.01,-141.6"/>
</a>
</g>
<text text-anchor="middle" x="561" y="-106" font-family="Helvetica,sans-Serif" font-size="10.00" fill="grey"> m_selectedSeries</text>
</g>
<!-- Node14 -->
<g id="Node000014" class="node">
<title>Node14</title>
<g id="a_Node000014"><a xlink:href="classmp_magnet.html" target="_top" xlink:title="Class for drawing mouse magnetization Draw an horizontal and a vertical line at the mouse position.">
<polygon fill="white" stroke="#666666" points="725.5,-85 656.5,-85 656.5,-66 725.5,-66 725.5,-85"/>
<text text-anchor="middle" x="691" y="-73" font-family="Helvetica,sans-Serif" font-size="10.00">mpMagnet</text>
</a>
</g>
</g>
<!-- Node14&#45;&gt;Node4 -->
<g id="edge19_Node000004_Node000014" class="edge">
<title>Node14&#45;&gt;Node4</title>
<g id="a_edge19_Node000004_Node000014"><a xlink:title=" ">
<path fill="none" stroke="#9a32cd" stroke-dasharray="5,2" d="M675.57,-59C666.57,-50.98 654.54,-41.87 642,-37 593.91,-18.34 443.05,-12.74 373.62,-11.12"/>
<polygon fill="#9a32cd" stroke="#9a32cd" points="673.23,-61.61 682.91,-65.91 678.03,-56.51 673.23,-61.61"/>
</a>
</g>
<text text-anchor="middle" x="689" y="-40" font-family="Helvetica,sans-Serif" font-size="10.00" fill="grey"> m_magnet</text>
</g>
</g>
</svg>

<g id="navigator" transform="translate(0 0)" fill="#404254">
  <rect fill="#f2f5e9" fill-opacity="0.5" stroke="#606060" stroke-width=".5" x="0" y="0" width="60" height="60"/>
  <use id="zoomplus" xlink:href="#zoomPlus" x="17" y="9" onmousedown="handleZoom(evt,'in')"/>
  <use id="zoomminus" xlink:href="#zoomMin" x="42" y="9" onmousedown="handleZoom(evt,'out')"/>
  <use id="reset" xlink:href="#resetDef" x="30" y="36" onmousedown="handleReset()"/>
   <use id="arrowup" xlink:href="#arrowUp" x="0" y="0" onmousedown="handlePan(0,-1)"/>
  <use id="arrowright" xlink:href="#arrowRight" x="0" y="0" onmousedown="handlePan(1,0)"/>
  <use id="arrowdown" xlink:href="#arrowDown" x="0" y="0" onmousedown="handlePan(0,1)"/>
  <use id="arrowleft" xlink:href="#arrowLeft" x="0" y="0" onmousedown="handlePan(-1,0)"/>
</g>
<svg viewBox="0 0 15 15" width="100%" height="30px" preserveAspectRatio="xMaxYMin meet">
 <g id="arrow_out" transform="scale(0.3 0.3)">
  <a xlink:href="classmp_bitmap_layer__coll__graph_org.svg" target="_base">
   <rect id="button" ry="5" rx="5" y="6" x="6" height="38" width="38"
        fill="#f2f5e9" fill-opacity="0.5" stroke="#606060" stroke-width="1.0"/>
   <path id="arrow"
     d="M 11.500037,31.436501 C 11.940474,20.09759 22.043105,11.32322 32.158766,21.979434 L 37.068811,17.246167 C 37.068811,17.246167 37.088388,32 37.088388,32 L 22.160133,31.978069 C 22.160133,31.978069 26.997745,27.140456 26.997745,27.140456 C 18.528582,18.264221 13.291696,25.230495 11.500037,31.436501 z"
     style="fill:#404040;"/>
  </a>
 </g>
</svg>

<style type='text/css'>
<![CDATA[
[data-mouse-over-selected='false'] { opacity: 0.7; }
[data-mouse-over-selected='true']  { opacity: 1.0; }
]]>
</style>
<script type="application/ecmascript"><![CDATA[
document.addEventListener('DOMContentLoaded', (event) => {
  highlightEdges();
  highlightAdjacentNodes();
});
]]></script>
</svg>
