<?xml version="1.0" encoding="UTF-8" standalone="no"?>
<!DOCTYPE svg PUBLIC "-//W3C//DTD SVG 1.1//EN"
 "http://www.w3.org/Graphics/SVG/1.1/DTD/svg11.dtd">
<!-- Generated by graphviz version 2.43.0 (0)
 -->
<!-- Title: mpFXY Pages: 1 -->
<svg width="576pt" height="415pt"
 viewBox="0.00 0.00 575.50 415.00" xmlns="http://www.w3.org/2000/svg" xmlns:xlink="http://www.w3.org/1999/xlink">
<g id="graph0" class="graph" transform="scale(1 1) rotate(0) translate(4 411)">
<title>mpFXY</title>
<!-- Node1 -->
<g id="Node000001" class="node">
<title>Node1</title>
<g id="a_Node000001"><a xlink:title="Abstract base class providing plot and labeling functionality for a locus plot F:N&#45;&gt;X,...">
<polygon fill="#999999" stroke="#666666" points="155.5,-330 104.5,-330 104.5,-311 155.5,-311 155.5,-330"/>
<text text-anchor="middle" x="130" y="-318" font-family="Helvetica,sans-Serif" font-size="10.00">mpFXY</text>
</a>
</g>
</g>
<!-- Node2 -->
<g id="Node000002" class="node">
<title>Node2</title>
<g id="a_Node000002"><a xlink:href="classmp_function.html" target="_top" xlink:title="Plot layer implementing an abstract function plot class.">
<polygon fill="white" stroke="#666666" points="264,-407 190,-407 190,-388 264,-388 264,-407"/>
<text text-anchor="middle" x="227" y="-395" font-family="Helvetica,sans-Serif" font-size="10.00">mpFunction</text>
</a>
</g>
</g>
<!-- Node2&#45;&gt;Node1 -->
<g id="edge1_Node000001_Node000002" class="edge">
<title>Node2&#45;&gt;Node1</title>
<g id="a_edge1_Node000001_Node000002"><a xlink:title=" ">
<path fill="none" stroke="#63b8ff" d="M225.75,-377.56C224.15,-367.6 220.64,-355.85 213,-348 208.86,-343.74 178.58,-334.74 155.78,-328.41"/>
<polygon fill="#63b8ff" stroke="#63b8ff" points="222.3,-378.19 226.86,-387.75 229.26,-377.43 222.3,-378.19"/>
</a>
</g>
</g>
<!-- Node13 -->
<g id="Node000013" class="node">
<title>Node13</title>
<g id="a_Node000013"><a xlink:href="classmp_info_legend.html" target="_top" xlink:title="Implement the legend to be added to the plot This layer allows you to add a legend to describe the pl...">
<polygon fill="white" stroke="#666666" points="86,-330 0,-330 0,-311 86,-311 86,-330"/>
<text text-anchor="middle" x="43" y="-318" font-family="Helvetica,sans-Serif" font-size="10.00">mpInfoLegend</text>
</a>
</g>
</g>
<!-- Node2&#45;&gt;Node13 -->
<g id="edge18_Node000013_Node000002" class="edge">
<title>Node2&#45;&gt;Node13</title>
<g id="a_edge18_Node000013_Node000002"><a xlink:title=" ">
<path fill="none" stroke="#9a32cd" stroke-dasharray="5,2" d="M179.73,-391.37C159.88,-387.63 137.23,-381.16 119,-370 107.98,-363.25 110.31,-355.79 100,-348 90.16,-340.57 77.9,-334.53 67.28,-330.11"/>
<polygon fill="#9a32cd" stroke="#9a32cd" points="179.37,-394.86 189.82,-393.09 180.55,-387.96 179.37,-394.86"/>
</a>
</g>
<text text-anchor="middle" x="164" y="-356.5" font-family="Helvetica,sans-Serif" font-size="10.00" fill="grey"> m_selectedSeries</text>
</g>
<!-- Node3 -->
<g id="Node000003" class="node">
<title>Node3</title>
<g id="a_Node000003"><a xlink:href="classmp_layer.html" target="_top" xlink:title="Plot layer, abstract base class.">
<polygon fill="white" stroke="#666666" points="425.5,-165 366.5,-165 366.5,-146 425.5,-146 425.5,-165"/>
<text text-anchor="middle" x="396" y="-153" font-family="Helvetica,sans-Serif" font-size="10.00">mpLayer</text>
</a>
</g>
</g>
<!-- Node3&#45;&gt;Node2 -->
<g id="edge2_Node000002_Node000003" class="edge">
<title>Node3&#45;&gt;Node2</title>
<g id="a_edge2_Node000002_Node000003"><a xlink:title=" ">
<path fill="none" stroke="#63b8ff" d="M435.42,-167.92C469.99,-178.82 516.35,-195.93 527,-212 531.66,-219.04 529.77,-223.02 527,-231 508.65,-283.93 495.32,-298.5 449,-330 391.61,-369.03 310.77,-385.66 264.13,-392.35"/>
<polygon fill="#63b8ff" stroke="#63b8ff" points="436.16,-164.48 425.57,-164.88 434.09,-171.17 436.16,-164.48"/>
</a>
</g>
</g>
<!-- Node8 -->
<g id="Node000008" class="node">
<title>Node8</title>
<g id="a_Node000008"><a xlink:href="classmp_scale.html" target="_top" xlink:title="Plot layer implementing an abstract scale ruler.">
<polygon fill="white" stroke="#666666" points="453.5,-92 394.5,-92 394.5,-73 453.5,-73 453.5,-92"/>
<text text-anchor="middle" x="424" y="-80" font-family="Helvetica,sans-Serif" font-size="10.00">mpScale</text>
</a>
</g>
</g>
<!-- Node3&#45;&gt;Node8 -->
<g id="edge8_Node000008_Node000003" class="edge">
<title>Node3&#45;&gt;Node8</title>
<g id="a_edge8_Node000008_Node000003"><a xlink:title=" ">
<path fill="none" stroke="#63b8ff" d="M403.24,-136.14C408.8,-122.03 416.24,-103.17 420.54,-92.28"/>
<polygon fill="#63b8ff" stroke="#63b8ff" points="399.85,-135.21 399.43,-145.79 406.36,-137.78 399.85,-135.21"/>
</a>
</g>
</g>
<!-- Node11 -->
<g id="Node000011" class="node">
<title>Node11</title>
<g id="a_Node000011"><a xlink:href="classmp_info_layer.html" target="_top" xlink:title="Base class to create small rectangular info boxes mpInfoLayer is the base class to create a small rec...">
<polygon fill="white" stroke="#666666" points="199,-92 121,-92 121,-73 199,-73 199,-92"/>
<text text-anchor="middle" x="160" y="-80" font-family="Helvetica,sans-Serif" font-size="10.00">mpInfoLayer</text>
</a>
</g>
</g>
<!-- Node3&#45;&gt;Node11 -->
<g id="edge13_Node000011_Node000003" class="edge">
<title>Node3&#45;&gt;Node11</title>
<g id="a_edge13_Node000011_Node000003"><a xlink:title=" ">
<path fill="none" stroke="#63b8ff" d="M387.17,-136.61C382.7,-129.4 376.6,-121.69 369,-117 341.24,-99.87 251.5,-90.39 199.07,-86.19"/>
<polygon fill="#63b8ff" stroke="#63b8ff" points="384.34,-138.73 392.23,-145.81 390.47,-135.36 384.34,-138.73"/>
</a>
</g>
</g>
<!-- Node4 -->
<g id="Node000004" class="node">
<title>Node4</title>
<g id="a_Node000004"><a xlink:title=" ">
<polygon fill="white" stroke="#bfbfbf" points="414,-231 352,-231 352,-212 414,-212 414,-231"/>
<text text-anchor="middle" x="383" y="-219" font-family="Helvetica,sans-Serif" font-size="10.00">wxObject</text>
</a>
</g>
</g>
<!-- Node4&#45;&gt;Node3 -->
<g id="edge3_Node000003_Node000004" class="edge">
<title>Node4&#45;&gt;Node3</title>
<g id="a_edge3_Node000003_Node000004"><a xlink:title=" ">
<path fill="none" stroke="#63b8ff" d="M386.77,-201.95C389.21,-189.93 392.28,-174.82 394.19,-165.41"/>
<polygon fill="#63b8ff" stroke="#63b8ff" points="383.31,-201.37 384.75,-211.87 390.17,-202.77 383.31,-201.37"/>
</a>
</g>
</g>
<!-- Node5 -->
<g id="Node000005" class="node">
<title>Node5</title>
<g id="a_Node000005"><a xlink:href="classmp_window.html" target="_top" xlink:title="Canvas for plotting mpLayer implementations.">
<polygon fill="white" stroke="#666666" points="278.5,-231 207.5,-231 207.5,-212 278.5,-212 278.5,-231"/>
<text text-anchor="middle" x="243" y="-219" font-family="Helvetica,sans-Serif" font-size="10.00">mpWindow</text>
</a>
</g>
</g>
<!-- Node5&#45;&gt;Node3 -->
<g id="edge4_Node000003_Node000005" class="edge">
<title>Node5&#45;&gt;Node3</title>
<g id="a_edge4_Node000003_Node000005"><a xlink:title=" ">
<path fill="none" stroke="#9a32cd" stroke-dasharray="5,2" d="M274.53,-208.29C285.76,-203.87 298.48,-198.79 310,-194 333.16,-184.37 359.58,-172.76 376.95,-165.03"/>
<polygon fill="#9a32cd" stroke="#9a32cd" points="273.14,-205.07 265.11,-211.98 275.69,-211.59 273.14,-205.07"/>
</a>
</g>
<text text-anchor="middle" x="351" y="-186" font-family="Helvetica,sans-Serif" font-size="10.00" fill="grey"> m_win</text>
</g>
<!-- Node6 -->
<g id="Node000006" class="node">
<title>Node6</title>
<g id="a_Node000006"><a xlink:title=" ">
<polygon fill="white" stroke="#bfbfbf" points="331,-330 261,-330 261,-311 331,-311 331,-330"/>
<text text-anchor="middle" x="296" y="-318" font-family="Helvetica,sans-Serif" font-size="10.00">wxWindow</text>
</a>
</g>
</g>
<!-- Node6&#45;&gt;Node5 -->
<g id="edge5_Node000005_Node000006" class="edge">
<title>Node6&#45;&gt;Node5</title>
<g id="a_edge5_Node000005_Node000006"><a xlink:title=" ">
<path fill="none" stroke="#63b8ff" d="M289.66,-301.45C284.15,-286.78 275.41,-265.84 265,-249 261.1,-242.69 255.82,-236.28 251.41,-231.34"/>
<polygon fill="#63b8ff" stroke="#63b8ff" points="286.38,-302.67 293.09,-310.87 292.96,-300.28 286.38,-302.67"/>
</a>
</g>
</g>
<!-- Node7 -->
<g id="Node000007" class="node">
<title>Node7</title>
<g id="a_Node000007"><a xlink:href="structmp_axis_data.html" target="_top" xlink:title="Represents all the informations needed for plotting a layer in one direction (X or Y) This struct hol...">
<polygon fill="white" stroke="#666666" points="462.5,-19 385.5,-19 385.5,0 462.5,0 462.5,-19"/>
<text text-anchor="middle" x="424" y="-7" font-family="Helvetica,sans-Serif" font-size="10.00">mpAxisData</text>
</a>
</g>
</g>
<!-- Node7&#45;&gt;Node5 -->
<g id="edge6_Node000005_Node000007" class="edge">
<title>Node7&#45;&gt;Node5</title>
<g id="a_edge6_Node000005_Node000007"><a xlink:title=" ">
<path fill="none" stroke="#9a32cd" stroke-dasharray="5,2" d="M410.01,-26.68C391.96,-47.54 359.62,-84.96 332,-117 301.68,-152.18 265.62,-194.16 250.38,-211.91"/>
<polygon fill="#9a32cd" stroke="#9a32cd" points="412.71,-28.91 416.6,-19.05 407.41,-24.33 412.71,-28.91"/>
</a>
</g>
<text text-anchor="middle" x="367" y="-120" font-family="Helvetica,sans-Serif" font-size="10.00" fill="grey"> m_AxisDataX</text>
</g>
<!-- Node8&#45;&gt;Node7 -->
<g id="edge7_Node000007_Node000008" class="edge">
<title>Node8&#45;&gt;Node7</title>
<g id="a_edge7_Node000007_Node000008"><a xlink:title=" ">
<path fill="none" stroke="#9a32cd" stroke-dasharray="5,2" d="M424,-62.73C424,-48.66 424,-30.06 424,-19.28"/>
<polygon fill="#9a32cd" stroke="#9a32cd" points="420.5,-62.79 424,-72.79 427.5,-62.79 420.5,-62.79"/>
</a>
</g>
<text text-anchor="middle" x="436" y="-40" font-family="Helvetica,sans-Serif" font-size="10.00" fill="grey"> axis</text>
</g>
<!-- Node9 -->
<g id="Node000009" class="node">
<title>Node9</title>
<g id="a_Node000009"><a xlink:href="structmp_range.html" target="_top" xlink:title=" ">
<polygon fill="white" stroke="#666666" points="567.5,-165 448.5,-165 448.5,-146 567.5,-146 567.5,-165"/>
<text text-anchor="middle" x="508" y="-153" font-family="Helvetica,sans-Serif" font-size="10.00">mpRange&lt; double &gt;</text>
</a>
</g>
</g>
<!-- Node9&#45;&gt;Node7 -->
<g id="edge10_Node000007_Node000009" class="edge">
<title>Node9&#45;&gt;Node7</title>
<g id="a_edge10_Node000007_Node000009"><a xlink:title=" ">
<path fill="none" stroke="#9a32cd" stroke-dasharray="5,2" d="M513.06,-135.9C513.92,-129.76 513.99,-122.98 512,-117 497.51,-73.54 455.66,-35.65 435.34,-19.21"/>
<polygon fill="#9a32cd" stroke="#9a32cd" points="509.58,-135.43 510.92,-145.94 516.42,-136.89 509.58,-135.43"/>
</a>
</g>
<text text-anchor="middle" x="531" y="-91" font-family="Helvetica,sans-Serif" font-size="10.00" fill="grey"> bound</text>
<text text-anchor="middle" x="531" y="-80" font-family="Helvetica,sans-Serif" font-size="10.00" fill="grey">desired</text>
<text text-anchor="middle" x="531" y="-69" font-family="Helvetica,sans-Serif" font-size="10.00" fill="grey">lastDesired</text>
</g>
<!-- Node9&#45;&gt;Node8 -->
<g id="edge9_Node000008_Node000009" class="edge">
<title>Node9&#45;&gt;Node8</title>
<g id="a_edge9_Node000008_Node000009"><a xlink:title=" ">
<path fill="none" stroke="#9a32cd" stroke-dasharray="5,2" d="M462.47,-141.9C454.97,-138.32 447.78,-133.76 442,-128 432.09,-118.11 427.43,-102.04 425.4,-92.15"/>
<polygon fill="#9a32cd" stroke="#9a32cd" points="461.46,-145.28 472.03,-145.94 464.18,-138.83 461.46,-145.28"/>
</a>
</g>
<text text-anchor="middle" x="477" y="-120" font-family="Helvetica,sans-Serif" font-size="10.00" fill="grey"> m_axisRange</text>
</g>
<!-- Node10 -->
<g id="Node000010" class="node">
<title>Node10</title>
<g id="a_Node000010"><a xlink:href="structmp_rect.html" target="_top" xlink:title="A rectangle structure in several (integer) flavors.">
<polygon fill="white" stroke="#666666" points="440,-330 386,-330 386,-311 440,-311 440,-330"/>
<text text-anchor="middle" x="413" y="-318" font-family="Helvetica,sans-Serif" font-size="10.00">mpRect</text>
</a>
</g>
</g>
<!-- Node10&#45;&gt;Node3 -->
<g id="edge20_Node000003_Node000010" class="edge">
<title>Node10&#45;&gt;Node3</title>
<g id="a_edge20_Node000003_Node000010"><a xlink:title=" ">
<path fill="none" stroke="#9a32cd" stroke-dasharray="5,2" d="M430.13,-303.27C432.53,-300.11 434.64,-296.64 436,-293 442.84,-274.68 439.29,-268.28 436,-249 430.41,-216.23 411.08,-181.15 401.49,-165.24"/>
<polygon fill="#9a32cd" stroke="#9a32cd" points="427.45,-301.01 423.41,-310.81 432.68,-305.67 427.45,-301.01"/>
</a>
</g>
<text text-anchor="middle" x="477" y="-219" font-family="Helvetica,sans-Serif" font-size="10.00" fill="grey"> m_plotBoundaries</text>
</g>
<!-- Node10&#45;&gt;Node5 -->
<g id="edge11_Node000005_Node000010" class="edge">
<title>Node10&#45;&gt;Node5</title>
<g id="a_edge11_Node000005_Node000010"><a xlink:title=" ">
<path fill="none" stroke="#9a32cd" stroke-dasharray="5,2" d="M375.62,-316.75C355.32,-313.61 330.81,-306.97 313,-293 295.47,-279.25 304.57,-264.93 289,-249 281.79,-241.62 272.08,-235.62 263.44,-231.21"/>
<polygon fill="#9a32cd" stroke="#9a32cd" points="375.42,-320.25 385.79,-318.09 376.33,-313.31 375.42,-320.25"/>
</a>
</g>
<text text-anchor="middle" x="374.5" y="-285" font-family="Helvetica,sans-Serif" font-size="10.00" fill="grey"> m_margin</text>
<text text-anchor="middle" x="374.5" y="-274" font-family="Helvetica,sans-Serif" font-size="10.00" fill="grey">m_marginOuter</text>
<text text-anchor="middle" x="374.5" y="-263" font-family="Helvetica,sans-Serif" font-size="10.00" fill="grey">m_plotBoundaries</text>
<text text-anchor="middle" x="374.5" y="-252" font-family="Helvetica,sans-Serif" font-size="10.00" fill="grey">m_plotBoundariesMargin</text>
</g>
<!-- Node11&#45;&gt;Node5 -->
<g id="edge12_Node000005_Node000011" class="edge">
<title>Node11&#45;&gt;Node5</title>
<g id="a_edge12_Node000005_Node000011"><a xlink:title=" ">
<path fill="none" stroke="#9a32cd" stroke-dasharray="5,2" d="M162.31,-102.19C165.11,-119.5 171.03,-145.46 183,-165 195.16,-184.84 216.36,-202.04 230.03,-211.84"/>
<polygon fill="#9a32cd" stroke="#9a32cd" points="165.76,-101.62 160.89,-92.21 158.83,-102.6 165.76,-101.62"/>
</a>
</g>
<text text-anchor="middle" x="233.5" y="-153" font-family="Helvetica,sans-Serif" font-size="10.00" fill="grey"> m_movingInfoLayer</text>
</g>
<!-- Node12 -->
<g id="Node000012" class="node">
<title>Node12</title>
<g id="a_Node000012"><a xlink:href="classmp_info_coords.html" target="_top" xlink:title="Implements an overlay box which shows the mouse coordinates in plot units.">
<polygon fill="white" stroke="#666666" points="144.5,-19 59.5,-19 59.5,0 144.5,0 144.5,-19"/>
<text text-anchor="middle" x="102" y="-7" font-family="Helvetica,sans-Serif" font-size="10.00">mpInfoCoords</text>
</a>
</g>
</g>
<!-- Node11&#45;&gt;Node12 -->
<g id="edge15_Node000012_Node000011" class="edge">
<title>Node11&#45;&gt;Node12</title>
<g id="a_edge15_Node000012_Node000011"><a xlink:title=" ">
<path fill="none" stroke="#63b8ff" d="M146.34,-64.78C134.7,-50.52 118.42,-30.6 109.17,-19.28"/>
<polygon fill="#63b8ff" stroke="#63b8ff" points="143.85,-67.26 152.89,-72.79 149.27,-62.84 143.85,-67.26"/>
</a>
</g>
</g>
<!-- Node11&#45;&gt;Node13 -->
<g id="edge17_Node000013_Node000011" class="edge">
<title>Node11&#45;&gt;Node13</title>
<g id="a_edge17_Node000013_Node000011"><a xlink:title=" ">
<path fill="none" stroke="#63b8ff" d="M110.96,-88.74C92.5,-93.28 73.08,-101.65 61,-117 13.86,-176.92 33.46,-279.89 40.73,-310.6"/>
<polygon fill="#63b8ff" stroke="#63b8ff" points="111.73,-92.16 120.77,-86.65 110.26,-85.32 111.73,-92.16"/>
</a>
</g>
</g>
<!-- Node12&#45;&gt;Node5 -->
<g id="edge14_Node000005_Node000012" class="edge">
<title>Node12&#45;&gt;Node5</title>
<g id="a_edge14_Node000005_Node000012"><a xlink:title=" ">
<path fill="none" stroke="#9a32cd" stroke-dasharray="5,2" d="M94.37,-28.5C85.38,-52.71 73.7,-96.37 91,-128 116.27,-174.21 175.31,-199.9 211.92,-211.9"/>
<polygon fill="#9a32cd" stroke="#9a32cd" points="97.66,-29.72 98.09,-19.13 91.15,-27.14 97.66,-29.72"/>
</a>
</g>
<text text-anchor="middle" x="126.5" y="-120" font-family="Helvetica,sans-Serif" font-size="10.00" fill="grey"> m_InfoCoords</text>
</g>
<!-- Node13&#45;&gt;Node5 -->
<g id="edge16_Node000005_Node000013" class="edge">
<title>Node13&#45;&gt;Node5</title>
<g id="a_edge16_Node000005_Node000013"><a xlink:title=" ">
<path fill="none" stroke="#9a32cd" stroke-dasharray="5,2" d="M57.82,-302.93C73.25,-286.71 98.92,-262.53 126,-249 151.62,-236.2 183.47,-229.5 207.47,-226.05"/>
<polygon fill="#9a32cd" stroke="#9a32cd" points="54.95,-300.87 50.73,-310.58 60.09,-305.62 54.95,-300.87"/>
</a>
</g>
<text text-anchor="middle" x="162.5" y="-268.5" font-family="Helvetica,sans-Serif" font-size="10.00" fill="grey"> m_InfoLegend</text>
</g>
<!-- Node14 -->
<g id="Node000014" class="node">
<title>Node14</title>
<g id="a_Node000014"><a xlink:href="classmp_magnet.html" target="_top" xlink:title="Class for drawing mouse magnetization Draw an horizontal and a vertical line at the mouse position.">
<polygon fill="white" stroke="#666666" points="242.5,-330 173.5,-330 173.5,-311 242.5,-311 242.5,-330"/>
<text text-anchor="middle" x="208" y="-318" font-family="Helvetica,sans-Serif" font-size="10.00">mpMagnet</text>
</a>
</g>
</g>
<!-- Node14&#45;&gt;Node5 -->
<g id="edge19_Node000005_Node000014" class="edge">
<title>Node14&#45;&gt;Node5</title>
<g id="a_edge19_Node000005_Node000014"><a xlink:title=" ">
<path fill="none" stroke="#9a32cd" stroke-dasharray="5,2" d="M204.02,-300.69C201.84,-285.86 201.01,-265.07 209,-249 212.73,-241.49 219.71,-235.48 226.37,-231.1"/>
<polygon fill="#9a32cd" stroke="#9a32cd" points="200.6,-301.47 205.81,-310.69 207.49,-300.23 200.6,-301.47"/>
</a>
</g>
<text text-anchor="middle" x="237" y="-268.5" font-family="Helvetica,sans-Serif" font-size="10.00" fill="grey"> m_magnet</text>
</g>
<!-- Node15 -->
<g id="Node000015" class="node">
<title>Node15</title>
<g id="a_Node000015"><a xlink:href="structmp_range.html" target="_top" xlink:title=" ">
<polygon fill="white" stroke="#666666" points="99,-407 1,-407 1,-388 99,-388 99,-407"/>
<text text-anchor="middle" x="50" y="-395" font-family="Helvetica,sans-Serif" font-size="10.00">mpRange&lt; int &gt;</text>
</a>
</g>
</g>
<!-- Node15&#45;&gt;Node1 -->
<g id="edge21_Node000001_Node000015" class="edge">
<title>Node15&#45;&gt;Node1</title>
<g id="a_edge21_Node000001_Node000015"><a xlink:title=" ">
<path fill="none" stroke="#9a32cd" stroke-dasharray="5,2" d="M45.58,-377.71C44.39,-367.97 44.84,-356.38 51,-348 54.32,-343.48 82.58,-334.72 104.36,-328.51"/>
<polygon fill="#9a32cd" stroke="#9a32cd" points="42.15,-378.45 47.39,-387.66 49.04,-377.2 42.15,-378.45"/>
</a>
</g>
<text text-anchor="middle" x="75.5" y="-362" font-family="Helvetica,sans-Serif" font-size="10.00" fill="grey"> m_drawX</text>
<text text-anchor="middle" x="75.5" y="-351" font-family="Helvetica,sans-Serif" font-size="10.00" fill="grey">m_drawY</text>
</g>
</g>
</svg>
