<?xml version="1.0" encoding="UTF-8" standalone="no"?>
<!DOCTYPE svg PUBLIC "-//W3C//DTD SVG 1.1//EN"
 "http://www.w3.org/Graphics/SVG/1.1/DTD/svg11.dtd">
<!-- Generated by graphviz version 2.43.0 (0)
 -->
<!-- Title: mpPolygon Pages: 1 -->
<svg width="806pt" height="415pt"
 viewBox="0.00 0.00 806.00 415.00" xmlns="http://www.w3.org/2000/svg" xmlns:xlink="http://www.w3.org/1999/xlink">
<g id="graph0" class="graph" transform="scale(1 1) rotate(0) translate(4 411)">
<title>mpPolygon</title>
<!-- Node1 -->
<g id="Node000001" class="node">
<title>Node1</title>
<g id="a_Node000001"><a xlink:title="An arbitrary polygon, descendant of mpMovableObject.">
<polygon fill="#999999" stroke="#666666" points="780.5,-19 709.5,-19 709.5,0 780.5,0 780.5,-19"/>
<text text-anchor="middle" x="745" y="-7" font-family="Helvetica,sans-Serif" font-size="10.00">mpPolygon</text>
</a>
</g>
</g>
<!-- Node2 -->
<g id="Node000002" class="node">
<title>Node2</title>
<g id="a_Node000002"><a xlink:href="classmp_movable_object.html" target="_top" xlink:title="This virtual class represents objects that can be moved to an arbitrary 2D location+rotation.">
<polygon fill="white" stroke="#666666" points="798,-92 692,-92 692,-73 798,-73 798,-92"/>
<text text-anchor="middle" x="745" y="-80" font-family="Helvetica,sans-Serif" font-size="10.00">mpMovableObject</text>
</a>
</g>
</g>
<!-- Node2&#45;&gt;Node1 -->
<g id="edge1_Node000001_Node000002" class="edge">
<title>Node2&#45;&gt;Node1</title>
<g id="a_edge1_Node000001_Node000002"><a xlink:title=" ">
<path fill="none" stroke="#63b8ff" d="M745,-62.73C745,-48.66 745,-30.06 745,-19.28"/>
<polygon fill="#63b8ff" stroke="#63b8ff" points="741.5,-62.79 745,-72.79 748.5,-62.79 741.5,-62.79"/>
</a>
</g>
</g>
<!-- Node3 -->
<g id="Node000003" class="node">
<title>Node3</title>
<g id="a_Node000003"><a xlink:href="classmp_function.html" target="_top" xlink:title="Plot layer implementing an abstract function plot class.">
<polygon fill="white" stroke="#666666" points="639,-407 565,-407 565,-388 639,-388 639,-407"/>
<text text-anchor="middle" x="602" y="-395" font-family="Helvetica,sans-Serif" font-size="10.00">mpFunction</text>
</a>
</g>
</g>
<!-- Node3&#45;&gt;Node2 -->
<g id="edge2_Node000002_Node000003" class="edge">
<title>Node3&#45;&gt;Node2</title>
<g id="a_edge2_Node000002_Node000003"><a xlink:title=" ">
<path fill="none" stroke="#63b8ff" d="M649.29,-395.64C693.91,-392.02 754,-378.59 754,-332.5 754,-332.5 754,-332.5 754,-165.5 754,-138.58 749.15,-106.97 746.57,-92.08"/>
<polygon fill="#63b8ff" stroke="#63b8ff" points="648.93,-392.16 639.18,-396.32 649.4,-399.14 648.93,-392.16"/>
</a>
</g>
</g>
<!-- Node14 -->
<g id="Node000014" class="node">
<title>Node14</title>
<g id="a_Node000014"><a xlink:href="classmp_info_legend.html" target="_top" xlink:title="Implement the legend to be added to the plot This layer allows you to add a legend to describe the pl...">
<polygon fill="white" stroke="#666666" points="437,-341 351,-341 351,-322 437,-322 437,-341"/>
<text text-anchor="middle" x="394" y="-329" font-family="Helvetica,sans-Serif" font-size="10.00">mpInfoLegend</text>
</a>
</g>
</g>
<!-- Node3&#45;&gt;Node14 -->
<g id="edge19_Node000014_Node000003" class="edge">
<title>Node3&#45;&gt;Node14</title>
<g id="a_edge19_Node000014_Node000003"><a xlink:title=" ">
<path fill="none" stroke="#9a32cd" stroke-dasharray="5,2" d="M554.78,-385.49C536.89,-381.05 516.4,-375.65 498,-370 469.19,-361.16 436.6,-349.06 415.71,-341.02"/>
<polygon fill="#9a32cd" stroke="#9a32cd" points="554.15,-388.94 564.7,-387.92 555.81,-382.14 554.15,-388.94"/>
</a>
</g>
<text text-anchor="middle" x="543" y="-362" font-family="Helvetica,sans-Serif" font-size="10.00" fill="grey"> m_selectedSeries</text>
</g>
<!-- Node4 -->
<g id="Node000004" class="node">
<title>Node4</title>
<g id="a_Node000004"><a xlink:href="classmp_layer.html" target="_top" xlink:title="Plot layer, abstract base class.">
<polygon fill="white" stroke="#666666" points="523.5,-176 464.5,-176 464.5,-157 523.5,-157 523.5,-176"/>
<text text-anchor="middle" x="494" y="-164" font-family="Helvetica,sans-Serif" font-size="10.00">mpLayer</text>
</a>
</g>
</g>
<!-- Node4&#45;&gt;Node3 -->
<g id="edge3_Node000003_Node000004" class="edge">
<title>Node4&#45;&gt;Node3</title>
<g id="a_edge3_Node000003_Node000004"><a xlink:title=" ">
<path fill="none" stroke="#63b8ff" d="M529.64,-180.02C549.34,-188.87 572.32,-202.79 585,-223 619.1,-277.35 608.38,-360.67 603.69,-387.7"/>
<polygon fill="#63b8ff" stroke="#63b8ff" points="530.87,-176.73 520.3,-176.07 528.15,-183.18 530.87,-176.73"/>
</a>
</g>
</g>
<!-- Node9 -->
<g id="Node000009" class="node">
<title>Node9</title>
<g id="a_Node000009"><a xlink:href="classmp_scale.html" target="_top" xlink:title="Plot layer implementing an abstract scale ruler.">
<polygon fill="white" stroke="#666666" points="650.5,-92 591.5,-92 591.5,-73 650.5,-73 650.5,-92"/>
<text text-anchor="middle" x="621" y="-80" font-family="Helvetica,sans-Serif" font-size="10.00">mpScale</text>
</a>
</g>
</g>
<!-- Node4&#45;&gt;Node9 -->
<g id="edge9_Node000009_Node000004" class="edge">
<title>Node4&#45;&gt;Node9</title>
<g id="a_edge9_Node000009_Node000004"><a xlink:title=" ">
<path fill="none" stroke="#63b8ff" d="M516.15,-151.2C542.52,-134.17 585.7,-106.29 607.51,-92.21"/>
<polygon fill="#63b8ff" stroke="#63b8ff" points="514.09,-148.36 507.59,-156.72 517.89,-154.24 514.09,-148.36"/>
</a>
</g>
</g>
<!-- Node12 -->
<g id="Node000012" class="node">
<title>Node12</title>
<g id="a_Node000012"><a xlink:href="classmp_info_layer.html" target="_top" xlink:title="Base class to create small rectangular info boxes mpInfoLayer is the base class to create a small rec...">
<polygon fill="white" stroke="#666666" points="411,-92 333,-92 333,-73 411,-73 411,-92"/>
<text text-anchor="middle" x="372" y="-80" font-family="Helvetica,sans-Serif" font-size="10.00">mpInfoLayer</text>
</a>
</g>
</g>
<!-- Node4&#45;&gt;Node12 -->
<g id="edge14_Node000012_Node000004" class="edge">
<title>Node4&#45;&gt;Node12</title>
<g id="a_edge14_Node000012_Node000004"><a xlink:title=" ">
<path fill="none" stroke="#63b8ff" d="M481.82,-148.76C473.71,-138.54 462.31,-125.79 450,-117 434.64,-106.04 415.14,-97.67 399.48,-92.03"/>
<polygon fill="#63b8ff" stroke="#63b8ff" points="479.2,-151.09 488.04,-156.93 484.77,-146.85 479.2,-151.09"/>
</a>
</g>
</g>
<!-- Node5 -->
<g id="Node000005" class="node">
<title>Node5</title>
<g id="a_Node000005"><a xlink:title=" ">
<polygon fill="white" stroke="#bfbfbf" points="692,-242 630,-242 630,-223 692,-223 692,-242"/>
<text text-anchor="middle" x="661" y="-230" font-family="Helvetica,sans-Serif" font-size="10.00">wxObject</text>
</a>
</g>
</g>
<!-- Node5&#45;&gt;Node4 -->
<g id="edge4_Node000004_Node000005" class="edge">
<title>Node5&#45;&gt;Node4</title>
<g id="a_edge4_Node000004_Node000005"><a xlink:title=" ">
<path fill="none" stroke="#63b8ff" d="M645.98,-215.81C637.8,-208.14 627.1,-199.42 616,-194 582.08,-177.44 569.88,-184.02 533,-176 530.02,-175.35 526.91,-174.68 523.81,-174"/>
<polygon fill="#63b8ff" stroke="#63b8ff" points="643.66,-218.44 653.24,-222.97 648.58,-213.46 643.66,-218.44"/>
</a>
</g>
</g>
<!-- Node6 -->
<g id="Node000006" class="node">
<title>Node6</title>
<g id="a_Node000006"><a xlink:href="classmp_window.html" target="_top" xlink:title="Canvas for plotting mpLayer implementations.">
<polygon fill="white" stroke="#666666" points="247.5,-242 176.5,-242 176.5,-223 247.5,-223 247.5,-242"/>
<text text-anchor="middle" x="212" y="-230" font-family="Helvetica,sans-Serif" font-size="10.00">mpWindow</text>
</a>
</g>
</g>
<!-- Node6&#45;&gt;Node4 -->
<g id="edge5_Node000004_Node000006" class="edge">
<title>Node6&#45;&gt;Node4</title>
<g id="a_edge5_Node000004_Node000006"><a xlink:title=" ">
<path fill="none" stroke="#9a32cd" stroke-dasharray="5,2" d="M257.74,-221.12C315.94,-207.91 414.81,-185.47 464.15,-174.27"/>
<polygon fill="#9a32cd" stroke="#9a32cd" points="256.69,-217.77 247.72,-223.39 258.24,-224.59 256.69,-217.77"/>
</a>
</g>
<text text-anchor="middle" x="387" y="-197" font-family="Helvetica,sans-Serif" font-size="10.00" fill="grey"> m_win</text>
</g>
<!-- Node7 -->
<g id="Node000007" class="node">
<title>Node7</title>
<g id="a_Node000007"><a xlink:title=" ">
<polygon fill="white" stroke="#bfbfbf" points="70,-341 0,-341 0,-322 70,-322 70,-341"/>
<text text-anchor="middle" x="35" y="-329" font-family="Helvetica,sans-Serif" font-size="10.00">wxWindow</text>
</a>
</g>
</g>
<!-- Node7&#45;&gt;Node6 -->
<g id="edge6_Node000006_Node000007" class="edge">
<title>Node7&#45;&gt;Node6</title>
<g id="a_edge6_Node000006_Node000007"><a xlink:title=" ">
<path fill="none" stroke="#63b8ff" d="M48.76,-313.62C62.78,-297.52 85.98,-273.74 111,-260 131.18,-248.92 156.19,-242.31 176.28,-238.46"/>
<polygon fill="#63b8ff" stroke="#63b8ff" points="45.74,-311.77 41.96,-321.67 51.09,-316.29 45.74,-311.77"/>
</a>
</g>
</g>
<!-- Node8 -->
<g id="Node000008" class="node">
<title>Node8</title>
<g id="a_Node000008"><a xlink:href="structmp_axis_data.html" target="_top" xlink:title="Represents all the informations needed for plotting a layer in one direction (X or Y) This struct hol...">
<polygon fill="white" stroke="#666666" points="555.5,-19 478.5,-19 478.5,0 555.5,0 555.5,-19"/>
<text text-anchor="middle" x="517" y="-7" font-family="Helvetica,sans-Serif" font-size="10.00">mpAxisData</text>
</a>
</g>
</g>
<!-- Node8&#45;&gt;Node6 -->
<g id="edge7_Node000006_Node000008" class="edge">
<title>Node8&#45;&gt;Node6</title>
<g id="a_edge7_Node000006_Node000008"><a xlink:title=" ">
<path fill="none" stroke="#9a32cd" stroke-dasharray="5,2" d="M468.19,-13.69C403.88,-20.77 292.65,-43.57 239,-117 214.66,-150.31 211.92,-202.34 211.85,-222.81"/>
<polygon fill="#9a32cd" stroke="#9a32cd" points="468.88,-17.14 478.48,-12.65 468.18,-10.17 468.88,-17.14"/>
</a>
</g>
<text text-anchor="middle" x="274" y="-125.5" font-family="Helvetica,sans-Serif" font-size="10.00" fill="grey"> m_AxisDataX</text>
</g>
<!-- Node9&#45;&gt;Node8 -->
<g id="edge8_Node000008_Node000009" class="edge">
<title>Node9&#45;&gt;Node8</title>
<g id="a_edge8_Node000008_Node000009"><a xlink:title=" ">
<path fill="none" stroke="#9a32cd" stroke-dasharray="5,2" d="M599.92,-67.11C578.79,-52.69 546.97,-30.96 529.53,-19.06"/>
<polygon fill="#9a32cd" stroke="#9a32cd" points="598.02,-70.05 608.25,-72.79 601.96,-64.27 598.02,-70.05"/>
</a>
</g>
<text text-anchor="middle" x="581" y="-40" font-family="Helvetica,sans-Serif" font-size="10.00" fill="grey"> axis</text>
</g>
<!-- Node10 -->
<g id="Node000010" class="node">
<title>Node10</title>
<g id="a_Node000010"><a xlink:href="structmp_range.html" target="_top" xlink:title=" ">
<polygon fill="white" stroke="#666666" points="660.5,-176 541.5,-176 541.5,-157 660.5,-157 660.5,-176"/>
<text text-anchor="middle" x="601" y="-164" font-family="Helvetica,sans-Serif" font-size="10.00">mpRange&lt; double &gt;</text>
</a>
</g>
</g>
<!-- Node10&#45;&gt;Node2 -->
<g id="edge22_Node000002_Node000010" class="edge">
<title>Node10&#45;&gt;Node2</title>
<g id="a_edge22_Node000002_Node000010"><a xlink:title=" ">
<path fill="none" stroke="#9a32cd" stroke-dasharray="5,2" d="M635.81,-153.21C644.99,-149.28 654.66,-144.51 663,-139 674.8,-131.21 674.65,-125.45 686,-117 699.04,-107.3 715.17,-98.32 727.26,-92.11"/>
<polygon fill="#9a32cd" stroke="#9a32cd" points="634.44,-149.99 626.48,-156.99 637.07,-156.48 634.44,-149.99"/>
</a>
</g>
<text text-anchor="middle" x="713" y="-131" font-family="Helvetica,sans-Serif" font-size="10.00" fill="grey"> m_bbox_x</text>
<text text-anchor="middle" x="713" y="-120" font-family="Helvetica,sans-Serif" font-size="10.00" fill="grey">m_bbox_y</text>
</g>
<!-- Node10&#45;&gt;Node8 -->
<g id="edge11_Node000008_Node000010" class="edge">
<title>Node10&#45;&gt;Node8</title>
<g id="a_edge11_Node000008_Node000010"><a xlink:title=" ">
<path fill="none" stroke="#9a32cd" stroke-dasharray="5,2" d="M577.71,-151.34C560.61,-139.58 538.45,-121.23 527,-99 513.34,-72.47 514.59,-35.64 516.04,-19.12"/>
<polygon fill="#9a32cd" stroke="#9a32cd" points="575.83,-154.29 586.11,-156.87 579.68,-148.44 575.83,-154.29"/>
</a>
</g>
<text text-anchor="middle" x="555" y="-91" font-family="Helvetica,sans-Serif" font-size="10.00" fill="grey"> bound</text>
<text text-anchor="middle" x="555" y="-80" font-family="Helvetica,sans-Serif" font-size="10.00" fill="grey">desired</text>
<text text-anchor="middle" x="555" y="-69" font-family="Helvetica,sans-Serif" font-size="10.00" fill="grey">lastDesired</text>
</g>
<!-- Node10&#45;&gt;Node9 -->
<g id="edge10_Node000009_Node000010" class="edge">
<title>Node10&#45;&gt;Node9</title>
<g id="a_edge10_Node000009_Node000010"><a xlink:title=" ">
<path fill="none" stroke="#9a32cd" stroke-dasharray="5,2" d="M593.62,-146.97C591.03,-137.76 589.53,-126.57 593,-117 596.57,-107.17 604.43,-98.2 610.91,-92.02"/>
<polygon fill="#9a32cd" stroke="#9a32cd" points="590.39,-148.34 596.94,-156.67 597.02,-146.07 590.39,-148.34"/>
</a>
</g>
<text text-anchor="middle" x="628" y="-125.5" font-family="Helvetica,sans-Serif" font-size="10.00" fill="grey"> m_axisRange</text>
</g>
<!-- Node11 -->
<g id="Node000011" class="node">
<title>Node11</title>
<g id="a_Node000011"><a xlink:href="structmp_rect.html" target="_top" xlink:title="A rectangle structure in several (integer) flavors.">
<polygon fill="white" stroke="#666666" points="509,-341 455,-341 455,-322 509,-322 509,-341"/>
<text text-anchor="middle" x="482" y="-329" font-family="Helvetica,sans-Serif" font-size="10.00">mpRect</text>
</a>
</g>
</g>
<!-- Node11&#45;&gt;Node4 -->
<g id="edge21_Node000004_Node000011" class="edge">
<title>Node11&#45;&gt;Node4</title>
<g id="a_edge21_Node000004_Node000011"><a xlink:title=" ">
<path fill="none" stroke="#9a32cd" stroke-dasharray="5,2" d="M483.41,-311.37C486.01,-276.03 491.48,-201.79 493.35,-176.31"/>
<polygon fill="#9a32cd" stroke="#9a32cd" points="479.89,-311.51 482.65,-321.74 486.87,-312.02 479.89,-311.51"/>
</a>
</g>
<text text-anchor="middle" x="535" y="-230" font-family="Helvetica,sans-Serif" font-size="10.00" fill="grey"> m_plotBoundaries</text>
</g>
<!-- Node11&#45;&gt;Node6 -->
<g id="edge12_Node000006_Node000011" class="edge">
<title>Node11&#45;&gt;Node6</title>
<g id="a_edge12_Node000006_Node000011"><a xlink:title=" ">
<path fill="none" stroke="#9a32cd" stroke-dasharray="5,2" d="M445.03,-322C399.44,-313.66 384.74,-319.51 345,-304 311.12,-290.78 308.26,-276.8 276,-260 262.99,-253.22 247.84,-246.89 235.55,-242.11"/>
<polygon fill="#9a32cd" stroke="#9a32cd" points="444.42,-325.45 454.91,-323.93 445.77,-318.58 444.42,-325.45"/>
</a>
</g>
<text text-anchor="middle" x="406.5" y="-296" font-family="Helvetica,sans-Serif" font-size="10.00" fill="grey"> m_margin</text>
<text text-anchor="middle" x="406.5" y="-285" font-family="Helvetica,sans-Serif" font-size="10.00" fill="grey">m_marginOuter</text>
<text text-anchor="middle" x="406.5" y="-274" font-family="Helvetica,sans-Serif" font-size="10.00" fill="grey">m_plotBoundaries</text>
<text text-anchor="middle" x="406.5" y="-263" font-family="Helvetica,sans-Serif" font-size="10.00" fill="grey">m_plotBoundariesMargin</text>
</g>
<!-- Node12&#45;&gt;Node6 -->
<g id="edge13_Node000006_Node000012" class="edge">
<title>Node12&#45;&gt;Node6</title>
<g id="a_edge13_Node000006_Node000012"><a xlink:title=" ">
<path fill="none" stroke="#9a32cd" stroke-dasharray="5,2" d="M355.14,-99.1C321.67,-130.06 247.83,-198.36 221.53,-222.69"/>
<polygon fill="#9a32cd" stroke="#9a32cd" points="357.76,-101.44 362.72,-92.08 353,-96.3 357.76,-101.44"/>
</a>
</g>
<text text-anchor="middle" x="342.5" y="-164" font-family="Helvetica,sans-Serif" font-size="10.00" fill="grey"> m_movingInfoLayer</text>
</g>
<!-- Node13 -->
<g id="Node000013" class="node">
<title>Node13</title>
<g id="a_Node000013"><a xlink:href="classmp_info_coords.html" target="_top" xlink:title="Implements an overlay box which shows the mouse coordinates in plot units.">
<polygon fill="white" stroke="#666666" points="194.5,-19 109.5,-19 109.5,0 194.5,0 194.5,-19"/>
<text text-anchor="middle" x="152" y="-7" font-family="Helvetica,sans-Serif" font-size="10.00">mpInfoCoords</text>
</a>
</g>
</g>
<!-- Node12&#45;&gt;Node13 -->
<g id="edge16_Node000013_Node000012" class="edge">
<title>Node12&#45;&gt;Node13</title>
<g id="a_edge16_Node000013_Node000012"><a xlink:title=" ">
<path fill="none" stroke="#63b8ff" d="M335.7,-69.79C291.51,-55.52 217.92,-31.77 178.63,-19.09"/>
<polygon fill="#63b8ff" stroke="#63b8ff" points="334.87,-73.2 345.46,-72.94 337.02,-66.53 334.87,-73.2"/>
</a>
</g>
</g>
<!-- Node12&#45;&gt;Node14 -->
<g id="edge18_Node000014_Node000012" class="edge">
<title>Node12&#45;&gt;Node14</title>
<g id="a_edge18_Node000014_Node000012"><a xlink:title=" ">
<path fill="none" stroke="#63b8ff" d="M379.51,-101.7C391.98,-133.26 416.19,-200.46 422,-260 423.9,-279.46 429.73,-286.04 422,-304 418.93,-311.13 412.89,-317.24 407.21,-321.79"/>
<polygon fill="#63b8ff" stroke="#63b8ff" points="382.62,-100.07 375.63,-92.1 376.13,-102.68 382.62,-100.07"/>
</a>
</g>
</g>
<!-- Node13&#45;&gt;Node6 -->
<g id="edge15_Node000006_Node000013" class="edge">
<title>Node13&#45;&gt;Node6</title>
<g id="a_edge15_Node000006_Node000013"><a xlink:title=" ">
<path fill="none" stroke="#9a32cd" stroke-dasharray="5,2" d="M142.96,-28.35C131.41,-53.7 114.54,-101.24 129,-139 143.35,-176.48 180.66,-208.33 200,-222.94"/>
<polygon fill="#9a32cd" stroke="#9a32cd" points="146.17,-29.75 147.34,-19.22 139.86,-26.72 146.17,-29.75"/>
</a>
</g>
<text text-anchor="middle" x="164.5" y="-125.5" font-family="Helvetica,sans-Serif" font-size="10.00" fill="grey"> m_InfoCoords</text>
</g>
<!-- Node14&#45;&gt;Node6 -->
<g id="edge17_Node000006_Node000014" class="edge">
<title>Node14&#45;&gt;Node6</title>
<g id="a_edge17_Node000006_Node000014"><a xlink:title=" ">
<path fill="none" stroke="#9a32cd" stroke-dasharray="5,2" d="M340.53,-330.63C290.37,-329.47 220.53,-324.14 203,-304 187.77,-286.51 199.76,-256.69 207.21,-242.08"/>
<polygon fill="#9a32cd" stroke="#9a32cd" points="340.53,-334.13 350.59,-330.81 340.65,-327.13 340.53,-334.13"/>
</a>
</g>
<text text-anchor="middle" x="239.5" y="-279.5" font-family="Helvetica,sans-Serif" font-size="10.00" fill="grey"> m_InfoLegend</text>
</g>
<!-- Node15 -->
<g id="Node000015" class="node">
<title>Node15</title>
<g id="a_Node000015"><a xlink:href="classmp_magnet.html" target="_top" xlink:title="Class for drawing mouse magnetization Draw an horizontal and a vertical line at the mouse position.">
<polygon fill="white" stroke="#666666" points="157.5,-341 88.5,-341 88.5,-322 157.5,-322 157.5,-341"/>
<text text-anchor="middle" x="123" y="-329" font-family="Helvetica,sans-Serif" font-size="10.00">mpMagnet</text>
</a>
</g>
</g>
<!-- Node15&#45;&gt;Node6 -->
<g id="edge20_Node000006_Node000015" class="edge">
<title>Node15&#45;&gt;Node6</title>
<g id="a_edge20_Node000006_Node000015"><a xlink:title=" ">
<path fill="none" stroke="#9a32cd" stroke-dasharray="5,2" d="M117.66,-311.69C114.49,-296.25 112.97,-274.63 124,-260 136.11,-243.95 157.61,-237.28 176.33,-234.64"/>
<polygon fill="#9a32cd" stroke="#9a32cd" points="114.33,-312.77 120.11,-321.65 121.12,-311.1 114.33,-312.77"/>
</a>
</g>
<text text-anchor="middle" x="152" y="-279.5" font-family="Helvetica,sans-Serif" font-size="10.00" fill="grey"> m_magnet</text>
</g>
</g>
</svg>
