<?xml version="1.0" encoding="UTF-8" standalone="no"?>
<!DOCTYPE svg PUBLIC "-//W3C//DTD SVG 1.1//EN"
 "http://www.w3.org/Graphics/SVG/1.1/DTD/svg11.dtd">
<!-- Generated by graphviz version 2.43.0 (0)
 -->
<!-- Title: mpBarChart Pages: 1 -->
<svg width="640pt" height="404pt"
 viewBox="0.00 0.00 640.00 404.00" xmlns="http://www.w3.org/2000/svg" xmlns:xlink="http://www.w3.org/1999/xlink">
<g id="graph0" class="graph" transform="scale(1 1) rotate(0) translate(4 400)">
<title>mpBarChart</title>
<!-- Node1 -->
<g id="Node000001" class="node">
<title>Node1</title>
<g id="a_Node000001"><a xlink:title="Layer for bar chart.">
<polygon fill="#999999" stroke="#666666" points="75,-231 0,-231 0,-212 75,-212 75,-231"/>
<text text-anchor="middle" x="37.5" y="-219" font-family="Helvetica,sans-Serif" font-size="10.00">mpBarChart</text>
</a>
</g>
</g>
<!-- Node2 -->
<g id="Node000002" class="node">
<title>Node2</title>
<g id="a_Node000002"><a xlink:href="classmp_chart.html" target="_top" xlink:title="abstract Layer for chart (bar and pie).">
<polygon fill="white" stroke="#666666" points="68,-330 9,-330 9,-311 68,-311 68,-330"/>
<text text-anchor="middle" x="38.5" y="-318" font-family="Helvetica,sans-Serif" font-size="10.00">mpChart</text>
</a>
</g>
</g>
<!-- Node2&#45;&gt;Node1 -->
<g id="edge1_Node000001_Node000002" class="edge">
<title>Node2&#45;&gt;Node1</title>
<g id="a_edge1_Node000001_Node000002"><a xlink:title=" ">
<path fill="none" stroke="#63b8ff" d="M38.31,-300.68C38.09,-279.74 37.75,-246.81 37.59,-231.23"/>
<polygon fill="#63b8ff" stroke="#63b8ff" points="34.81,-300.93 38.41,-310.89 41.81,-300.86 34.81,-300.93"/>
</a>
</g>
</g>
<!-- Node3 -->
<g id="Node000003" class="node">
<title>Node3</title>
<g id="a_Node000003"><a xlink:href="classmp_function.html" target="_top" xlink:title="Plot layer implementing an abstract function plot class.">
<polygon fill="white" stroke="#666666" points="170.5,-396 96.5,-396 96.5,-377 170.5,-377 170.5,-396"/>
<text text-anchor="middle" x="133.5" y="-384" font-family="Helvetica,sans-Serif" font-size="10.00">mpFunction</text>
</a>
</g>
</g>
<!-- Node3&#45;&gt;Node2 -->
<g id="edge2_Node000002_Node000003" class="edge">
<title>Node3&#45;&gt;Node2</title>
<g id="a_edge2_Node000002_Node000003"><a xlink:title=" ">
<path fill="none" stroke="#63b8ff" d="M112.24,-371.18C93.58,-358.61 67.04,-340.73 51.41,-330.2"/>
<polygon fill="#63b8ff" stroke="#63b8ff" points="110.44,-374.18 120.69,-376.87 114.35,-368.38 110.44,-374.18"/>
</a>
</g>
</g>
<!-- Node14 -->
<g id="Node000014" class="node">
<title>Node14</title>
<g id="a_Node000014"><a xlink:href="classmp_info_legend.html" target="_top" xlink:title="Implement the legend to be added to the plot This layer allows you to add a legend to describe the pl...">
<polygon fill="white" stroke="#666666" points="176.5,-330 90.5,-330 90.5,-311 176.5,-311 176.5,-330"/>
<text text-anchor="middle" x="133.5" y="-318" font-family="Helvetica,sans-Serif" font-size="10.00">mpInfoLegend</text>
</a>
</g>
</g>
<!-- Node3&#45;&gt;Node14 -->
<g id="edge19_Node000014_Node000003" class="edge">
<title>Node3&#45;&gt;Node14</title>
<g id="a_edge19_Node000014_Node000003"><a xlink:title=" ">
<path fill="none" stroke="#9a32cd" stroke-dasharray="5,2" d="M133.5,-366.58C133.5,-354.63 133.5,-339.72 133.5,-330.41"/>
<polygon fill="#9a32cd" stroke="#9a32cd" points="130,-366.87 133.5,-376.87 137,-366.87 130,-366.87"/>
</a>
</g>
<text text-anchor="middle" x="178.5" y="-351" font-family="Helvetica,sans-Serif" font-size="10.00" fill="grey"> m_selectedSeries</text>
</g>
<!-- Node4 -->
<g id="Node000004" class="node">
<title>Node4</title>
<g id="a_Node000004"><a xlink:href="classmp_layer.html" target="_top" xlink:title="Plot layer, abstract base class.">
<polygon fill="white" stroke="#666666" points="484,-165 425,-165 425,-146 484,-146 484,-165"/>
<text text-anchor="middle" x="454.5" y="-153" font-family="Helvetica,sans-Serif" font-size="10.00">mpLayer</text>
</a>
</g>
</g>
<!-- Node4&#45;&gt;Node3 -->
<g id="edge3_Node000003_Node000004" class="edge">
<title>Node4&#45;&gt;Node3</title>
<g id="a_edge3_Node000003_Node000004"><a xlink:title=" ">
<path fill="none" stroke="#63b8ff" d="M494.06,-165.46C518.68,-173.3 548.43,-187.42 563.5,-212 597.97,-268.23 531.47,-298.53 473.5,-330 421.6,-358.18 247.41,-375.91 170.52,-382.54"/>
<polygon fill="#63b8ff" stroke="#63b8ff" points="494.81,-162.03 484.23,-162.56 492.84,-168.75 494.81,-162.03"/>
</a>
</g>
</g>
<!-- Node9 -->
<g id="Node000009" class="node">
<title>Node9</title>
<g id="a_Node000009"><a xlink:href="classmp_scale.html" target="_top" xlink:title="Plot layer implementing an abstract scale ruler.">
<polygon fill="white" stroke="#666666" points="513,-92 454,-92 454,-73 513,-73 513,-92"/>
<text text-anchor="middle" x="483.5" y="-80" font-family="Helvetica,sans-Serif" font-size="10.00">mpScale</text>
</a>
</g>
</g>
<!-- Node4&#45;&gt;Node9 -->
<g id="edge9_Node000009_Node000004" class="edge">
<title>Node4&#45;&gt;Node9</title>
<g id="a_edge9_Node000009_Node000004"><a xlink:title=" ">
<path fill="none" stroke="#63b8ff" d="M462,-136.14C467.76,-122.03 475.47,-103.17 479.91,-92.28"/>
<polygon fill="#63b8ff" stroke="#63b8ff" points="458.6,-135.21 458.06,-145.79 465.08,-137.86 458.6,-135.21"/>
</a>
</g>
</g>
<!-- Node12 -->
<g id="Node000012" class="node">
<title>Node12</title>
<g id="a_Node000012"><a xlink:href="classmp_info_layer.html" target="_top" xlink:title="Base class to create small rectangular info boxes mpInfoLayer is the base class to create a small rec...">
<polygon fill="white" stroke="#666666" points="257.5,-92 179.5,-92 179.5,-73 257.5,-73 257.5,-92"/>
<text text-anchor="middle" x="218.5" y="-80" font-family="Helvetica,sans-Serif" font-size="10.00">mpInfoLayer</text>
</a>
</g>
</g>
<!-- Node4&#45;&gt;Node12 -->
<g id="edge14_Node000012_Node000004" class="edge">
<title>Node4&#45;&gt;Node12</title>
<g id="a_edge14_Node000012_Node000004"><a xlink:title=" ">
<path fill="none" stroke="#63b8ff" d="M445.67,-136.61C441.2,-129.4 435.1,-121.69 427.5,-117 399.74,-99.87 310,-90.39 257.57,-86.19"/>
<polygon fill="#63b8ff" stroke="#63b8ff" points="442.84,-138.73 450.73,-145.81 448.97,-135.36 442.84,-138.73"/>
</a>
</g>
</g>
<!-- Node5 -->
<g id="Node000005" class="node">
<title>Node5</title>
<g id="a_Node000005"><a xlink:title=" ">
<polygon fill="white" stroke="#bfbfbf" points="438.5,-231 376.5,-231 376.5,-212 438.5,-212 438.5,-231"/>
<text text-anchor="middle" x="407.5" y="-219" font-family="Helvetica,sans-Serif" font-size="10.00">wxObject</text>
</a>
</g>
</g>
<!-- Node5&#45;&gt;Node4 -->
<g id="edge4_Node000004_Node000005" class="edge">
<title>Node5&#45;&gt;Node4</title>
<g id="a_edge4_Node000004_Node000005"><a xlink:title=" ">
<path fill="none" stroke="#63b8ff" d="M419.79,-203.77C428.8,-191.49 440.7,-175.3 447.96,-165.41"/>
<polygon fill="#63b8ff" stroke="#63b8ff" points="416.94,-201.74 413.84,-211.87 422.58,-205.88 416.94,-201.74"/>
</a>
</g>
</g>
<!-- Node6 -->
<g id="Node000006" class="node">
<title>Node6</title>
<g id="a_Node000006"><a xlink:href="classmp_window.html" target="_top" xlink:title="Canvas for plotting mpLayer implementations.">
<polygon fill="white" stroke="#666666" points="304,-231 233,-231 233,-212 304,-212 304,-231"/>
<text text-anchor="middle" x="268.5" y="-219" font-family="Helvetica,sans-Serif" font-size="10.00">mpWindow</text>
</a>
</g>
</g>
<!-- Node6&#45;&gt;Node4 -->
<g id="edge5_Node000004_Node000006" class="edge">
<title>Node6&#45;&gt;Node4</title>
<g id="a_edge5_Node000004_Node000006"><a xlink:title=" ">
<path fill="none" stroke="#9a32cd" stroke-dasharray="5,2" d="M314.19,-210.72C331.22,-206.44 350.53,-200.82 367.5,-194 376.91,-190.22 378.32,-187.32 387.5,-183 401.54,-176.4 417.69,-169.97 430.62,-165.1"/>
<polygon fill="#9a32cd" stroke="#9a32cd" points="313.35,-207.32 304.46,-213.08 315,-214.12 313.35,-207.32"/>
</a>
</g>
<text text-anchor="middle" x="405.5" y="-186" font-family="Helvetica,sans-Serif" font-size="10.00" fill="grey"> m_win</text>
</g>
<!-- Node7 -->
<g id="Node000007" class="node">
<title>Node7</title>
<g id="a_Node000007"><a xlink:title=" ">
<polygon fill="white" stroke="#bfbfbf" points="354.5,-330 284.5,-330 284.5,-311 354.5,-311 354.5,-330"/>
<text text-anchor="middle" x="319.5" y="-318" font-family="Helvetica,sans-Serif" font-size="10.00">wxWindow</text>
</a>
</g>
</g>
<!-- Node7&#45;&gt;Node6 -->
<g id="edge6_Node000006_Node000007" class="edge">
<title>Node7&#45;&gt;Node6</title>
<g id="a_edge6_Node000006_Node000007"><a xlink:title=" ">
<path fill="none" stroke="#63b8ff" d="M313.21,-301.07C307.86,-286.45 299.46,-265.77 289.5,-249 285.78,-242.74 280.74,-236.33 276.53,-231.38"/>
<polygon fill="#63b8ff" stroke="#63b8ff" points="310.05,-302.64 316.68,-310.9 316.65,-300.3 310.05,-302.64"/>
</a>
</g>
</g>
<!-- Node8 -->
<g id="Node000008" class="node">
<title>Node8</title>
<g id="a_Node000008"><a xlink:href="structmp_axis_data.html" target="_top" xlink:title="Represents all the informations needed for plotting a layer in one direction (X or Y) This struct hol...">
<polygon fill="white" stroke="#666666" points="522,-19 445,-19 445,0 522,0 522,-19"/>
<text text-anchor="middle" x="483.5" y="-7" font-family="Helvetica,sans-Serif" font-size="10.00">mpAxisData</text>
</a>
</g>
</g>
<!-- Node8&#45;&gt;Node6 -->
<g id="edge7_Node000006_Node000008" class="edge">
<title>Node8&#45;&gt;Node6</title>
<g id="a_edge7_Node000006_Node000008"><a xlink:title=" ">
<path fill="none" stroke="#9a32cd" stroke-dasharray="5,2" d="M470.18,-27.04C446.18,-56.37 393.42,-118.76 342.5,-165 322.41,-183.25 296.59,-201.59 281.37,-211.95"/>
<polygon fill="#9a32cd" stroke="#9a32cd" points="473.08,-29.02 476.67,-19.05 467.65,-24.6 473.08,-29.02"/>
</a>
</g>
<text text-anchor="middle" x="424.5" y="-120" font-family="Helvetica,sans-Serif" font-size="10.00" fill="grey"> m_AxisDataX</text>
</g>
<!-- Node9&#45;&gt;Node8 -->
<g id="edge8_Node000008_Node000009" class="edge">
<title>Node9&#45;&gt;Node8</title>
<g id="a_edge8_Node000008_Node000009"><a xlink:title=" ">
<path fill="none" stroke="#9a32cd" stroke-dasharray="5,2" d="M483.5,-62.73C483.5,-48.66 483.5,-30.06 483.5,-19.28"/>
<polygon fill="#9a32cd" stroke="#9a32cd" points="480,-62.79 483.5,-72.79 487,-62.79 480,-62.79"/>
</a>
</g>
<text text-anchor="middle" x="495.5" y="-40" font-family="Helvetica,sans-Serif" font-size="10.00" fill="grey"> axis</text>
</g>
<!-- Node10 -->
<g id="Node000010" class="node">
<title>Node10</title>
<g id="a_Node000010"><a xlink:href="structmp_range.html" target="_top" xlink:title=" ">
<polygon fill="white" stroke="#666666" points="632,-165 513,-165 513,-146 632,-146 632,-165"/>
<text text-anchor="middle" x="572.5" y="-153" font-family="Helvetica,sans-Serif" font-size="10.00">mpRange&lt; double &gt;</text>
</a>
</g>
</g>
<!-- Node10&#45;&gt;Node8 -->
<g id="edge11_Node000008_Node000010" class="edge">
<title>Node10&#45;&gt;Node8</title>
<g id="a_edge11_Node000008_Node000010"><a xlink:title=" ">
<path fill="none" stroke="#9a32cd" stroke-dasharray="5,2" d="M573.61,-135.82C573.43,-129.67 572.62,-122.91 570.5,-117 555.02,-73.85 513.82,-35.52 494.19,-19.05"/>
<polygon fill="#9a32cd" stroke="#9a32cd" points="570.11,-135.82 573.41,-145.89 577.11,-135.96 570.11,-135.82"/>
</a>
</g>
<text text-anchor="middle" x="589.5" y="-91" font-family="Helvetica,sans-Serif" font-size="10.00" fill="grey"> bound</text>
<text text-anchor="middle" x="589.5" y="-80" font-family="Helvetica,sans-Serif" font-size="10.00" fill="grey">desired</text>
<text text-anchor="middle" x="589.5" y="-69" font-family="Helvetica,sans-Serif" font-size="10.00" fill="grey">lastDesired</text>
</g>
<!-- Node10&#45;&gt;Node9 -->
<g id="edge10_Node000009_Node000010" class="edge">
<title>Node10&#45;&gt;Node9</title>
<g id="a_edge10_Node000009_Node000010"><a xlink:title=" ">
<path fill="none" stroke="#9a32cd" stroke-dasharray="5,2" d="M521.45,-142.01C513.76,-138.43 506.43,-133.86 500.5,-128 490.62,-118.24 486.38,-102.12 484.64,-92.2"/>
<polygon fill="#9a32cd" stroke="#9a32cd" points="520.37,-145.34 530.95,-145.88 523.01,-138.86 520.37,-145.34"/>
</a>
</g>
<text text-anchor="middle" x="535.5" y="-120" font-family="Helvetica,sans-Serif" font-size="10.00" fill="grey"> m_axisRange</text>
</g>
<!-- Node11 -->
<g id="Node000011" class="node">
<title>Node11</title>
<g id="a_Node000011"><a xlink:href="structmp_rect.html" target="_top" xlink:title="A rectangle structure in several (integer) flavors.">
<polygon fill="white" stroke="#666666" points="464.5,-330 410.5,-330 410.5,-311 464.5,-311 464.5,-330"/>
<text text-anchor="middle" x="437.5" y="-318" font-family="Helvetica,sans-Serif" font-size="10.00">mpRect</text>
</a>
</g>
</g>
<!-- Node11&#45;&gt;Node4 -->
<g id="edge21_Node000004_Node000011" class="edge">
<title>Node11&#45;&gt;Node4</title>
<g id="a_edge21_Node000004_Node000011"><a xlink:title=" ">
<path fill="none" stroke="#9a32cd" stroke-dasharray="5,2" d="M454.63,-303.27C457.03,-300.11 459.14,-296.64 460.5,-293 477.51,-247.45 463.43,-187.32 457.15,-165.17"/>
<polygon fill="#9a32cd" stroke="#9a32cd" points="451.95,-301.01 447.91,-310.81 457.18,-305.67 451.95,-301.01"/>
</a>
</g>
<text text-anchor="middle" x="513.5" y="-219" font-family="Helvetica,sans-Serif" font-size="10.00" fill="grey"> m_plotBoundaries</text>
</g>
<!-- Node11&#45;&gt;Node6 -->
<g id="edge12_Node000006_Node000011" class="edge">
<title>Node11&#45;&gt;Node6</title>
<g id="a_edge12_Node000006_Node000011"><a xlink:title=" ">
<path fill="none" stroke="#9a32cd" stroke-dasharray="5,2" d="M400.12,-316.75C379.82,-313.61 355.31,-306.97 337.5,-293 319.97,-279.25 328.99,-265.01 313.5,-249 306.31,-241.57 296.6,-235.5 288.04,-231.06"/>
<polygon fill="#9a32cd" stroke="#9a32cd" points="399.92,-320.25 410.29,-318.09 400.83,-313.31 399.92,-320.25"/>
</a>
</g>
<text text-anchor="middle" x="399" y="-285" font-family="Helvetica,sans-Serif" font-size="10.00" fill="grey"> m_margin</text>
<text text-anchor="middle" x="399" y="-274" font-family="Helvetica,sans-Serif" font-size="10.00" fill="grey">m_marginOuter</text>
<text text-anchor="middle" x="399" y="-263" font-family="Helvetica,sans-Serif" font-size="10.00" fill="grey">m_plotBoundaries</text>
<text text-anchor="middle" x="399" y="-252" font-family="Helvetica,sans-Serif" font-size="10.00" fill="grey">m_plotBoundariesMargin</text>
</g>
<!-- Node12&#45;&gt;Node6 -->
<g id="edge13_Node000006_Node000012" class="edge">
<title>Node12&#45;&gt;Node6</title>
<g id="a_edge13_Node000006_Node000012"><a xlink:title=" ">
<path fill="none" stroke="#9a32cd" stroke-dasharray="5,2" d="M222.81,-102.34C226.86,-119.06 233.51,-144.01 241.5,-165 247.98,-182.02 257.76,-200.91 263.6,-211.68"/>
<polygon fill="#9a32cd" stroke="#9a32cd" points="226.12,-101.16 220.42,-92.23 219.31,-102.77 226.12,-101.16"/>
</a>
</g>
<text text-anchor="middle" x="292" y="-153" font-family="Helvetica,sans-Serif" font-size="10.00" fill="grey"> m_movingInfoLayer</text>
</g>
<!-- Node13 -->
<g id="Node000013" class="node">
<title>Node13</title>
<g id="a_Node000013"><a xlink:href="classmp_info_coords.html" target="_top" xlink:title="Implements an overlay box which shows the mouse coordinates in plot units.">
<polygon fill="white" stroke="#666666" points="203,-19 118,-19 118,0 203,0 203,-19"/>
<text text-anchor="middle" x="160.5" y="-7" font-family="Helvetica,sans-Serif" font-size="10.00">mpInfoCoords</text>
</a>
</g>
</g>
<!-- Node12&#45;&gt;Node13 -->
<g id="edge16_Node000013_Node000012" class="edge">
<title>Node12&#45;&gt;Node13</title>
<g id="a_edge16_Node000013_Node000012"><a xlink:title=" ">
<path fill="none" stroke="#63b8ff" d="M204.84,-64.78C193.2,-50.52 176.92,-30.6 167.67,-19.28"/>
<polygon fill="#63b8ff" stroke="#63b8ff" points="202.35,-67.26 211.39,-72.79 207.77,-62.84 202.35,-67.26"/>
</a>
</g>
</g>
<!-- Node12&#45;&gt;Node14 -->
<g id="edge18_Node000014_Node000012" class="edge">
<title>Node12&#45;&gt;Node14</title>
<g id="a_edge18_Node000014_Node000012"><a xlink:title=" ">
<path fill="none" stroke="#63b8ff" d="M169.2,-88.12C150.51,-92.55 130.98,-101 119.5,-117 75.13,-178.85 115.6,-280.49 129.33,-310.74"/>
<polygon fill="#63b8ff" stroke="#63b8ff" points="170.05,-91.52 179.15,-86.1 168.66,-84.66 170.05,-91.52"/>
</a>
</g>
</g>
<!-- Node13&#45;&gt;Node6 -->
<g id="edge15_Node000006_Node000013" class="edge">
<title>Node13&#45;&gt;Node6</title>
<g id="a_edge15_Node000006_Node000013"><a xlink:title=" ">
<path fill="none" stroke="#9a32cd" stroke-dasharray="5,2" d="M153.7,-28.6C145.85,-52.62 135.88,-95.74 151.5,-128 171.81,-169.95 221.4,-198.64 249.06,-211.98"/>
<polygon fill="#9a32cd" stroke="#9a32cd" points="157.06,-29.61 157.06,-19.01 150.45,-27.29 157.06,-29.61"/>
</a>
</g>
<text text-anchor="middle" x="187" y="-120" font-family="Helvetica,sans-Serif" font-size="10.00" fill="grey"> m_InfoCoords</text>
</g>
<!-- Node14&#45;&gt;Node6 -->
<g id="edge17_Node000006_Node000014" class="edge">
<title>Node14&#45;&gt;Node6</title>
<g id="a_edge17_Node000006_Node000014"><a xlink:title=" ">
<path fill="none" stroke="#9a32cd" stroke-dasharray="5,2" d="M132.59,-300.49C132.91,-284.58 136.05,-262.4 149.5,-249 161.12,-237.42 202.3,-230.15 232.97,-226.21"/>
<polygon fill="#9a32cd" stroke="#9a32cd" points="129.09,-300.8 132.75,-310.74 136.09,-300.69 129.09,-300.8"/>
</a>
</g>
<text text-anchor="middle" x="186" y="-268.5" font-family="Helvetica,sans-Serif" font-size="10.00" fill="grey"> m_InfoLegend</text>
</g>
<!-- Node15 -->
<g id="Node000015" class="node">
<title>Node15</title>
<g id="a_Node000015"><a xlink:href="classmp_magnet.html" target="_top" xlink:title="Class for drawing mouse magnetization Draw an horizontal and a vertical line at the mouse position.">
<polygon fill="white" stroke="#666666" points="266,-330 197,-330 197,-311 266,-311 266,-330"/>
<text text-anchor="middle" x="231.5" y="-318" font-family="Helvetica,sans-Serif" font-size="10.00">mpMagnet</text>
</a>
</g>
</g>
<!-- Node15&#45;&gt;Node6 -->
<g id="edge20_Node000006_Node000015" class="edge">
<title>Node15&#45;&gt;Node6</title>
<g id="a_edge20_Node000006_Node000015"><a xlink:title=" ">
<path fill="none" stroke="#9a32cd" stroke-dasharray="5,2" d="M227.78,-300.63C225.82,-285.77 225.28,-264.96 233.5,-249 237.41,-241.41 244.6,-235.39 251.45,-231.02"/>
<polygon fill="#9a32cd" stroke="#9a32cd" points="224.36,-301.36 229.44,-310.66 231.26,-300.22 224.36,-301.36"/>
</a>
</g>
<text text-anchor="middle" x="261.5" y="-268.5" font-family="Helvetica,sans-Serif" font-size="10.00" fill="grey"> m_magnet</text>
</g>
</g>
</svg>
