<?xml version="1.0" encoding="UTF-8" standalone="no"?>
<!DOCTYPE svg PUBLIC "-//W3C//DTD SVG 1.1//EN"
 "http://www.w3.org/Graphics/SVG/1.1/DTD/svg11.dtd">
<!-- Generated by graphviz version 2.43.0 (0)
 -->
<!-- Title: mpInfoLayer Pages: 1 -->
<!--zoomable 394 -->

<svg id="main" version="1.1" xmlns="http://www.w3.org/2000/svg" xmlns:xlink="http://www.w3.org/1999/xlink" xml:space="preserve" onload="init(evt)">
<style type="text/css"><![CDATA[
.node, .edge {opacity: 0.7;}
.node.selected, .edge.selected {opacity: 1;}
.edge:hover path { stroke: red; }
.edge:hover polygon { stroke: red; fill: red; }
]]></style>

<defs>
  <circle id="rim" cx="0" cy="0" r="7"/>
  <circle id="rim2" cx="0" cy="0" r="3.5"/>
  <g id="zoomPlus">
    <use xlink:href="#rim" fill="#404040"><set attributeName="fill" to="#808080" begin="zoomplus.mouseover" end="zoomplus.mouseout"/></use>
    <path d="M-4,0h8M0,-4v8" fill="none" stroke="white" stroke-width="1.5" pointer-events="none"/>
  </g>
  <g id="zoomMin">
    <use xlink:href="#rim" fill="#404040"><set attributeName="fill" to="#808080" begin="zoomminus.mouseover" end="zoomminus.mouseout"/></use>
    <path d="M-4,0h8" fill="none" stroke="white" stroke-width="1.5" pointer-events="none"/>
  </g>
  <g id="arrowUp" transform="translate(30 24)">
    <use xlink:href="#rim"/>
    <path pointer-events="none" fill="none" stroke="white" stroke-width="1.5" d="M0,-3.0v7 M-2.5,-0.5L0,-3.0L2.5,-0.5"/>
  </g>
  <g id="arrowRight" transform="rotate(90) translate(36 -43)">
    <use xlink:href="#rim"/>
    <path pointer-events="none" fill="none" stroke="white" stroke-width="1.5" d="M0,-3.0v7 M-2.5,-0.5L0,-3.0L2.5,-0.5"/>
  </g>
  <g id="arrowDown" transform="rotate(180) translate(-30 -48)">
    <use xlink:href="#rim"/>
    <path pointer-events="none" fill="none" stroke="white" stroke-width="1.5" d="M0,-3.0v7 M-2.5,-0.5L0,-3.0L2.5,-0.5"/>
  </g>
  <g id="arrowLeft" transform="rotate(270) translate(-36 17)">
    <use xlink:href="#rim"/>
    <path pointer-events="none" fill="none" stroke="white" stroke-width="1.5" d="M0,-3.0v7 M-2.5,-0.5L0,-3.0L2.5,-0.5"/>
  </g>
  <g id="resetDef">
    <use xlink:href="#rim2" fill="#404040"><set attributeName="fill" to="#808080" begin="reset.mouseover" end="reset.mouseout"/></use>
  </g>
</defs>
<script type="application/ecmascript">
var viewWidth = 690;
var viewHeight = 394;
var sectionId = 'dynsection-1';
</script>
<script type="application/ecmascript" xlink:href="svg.min.js"/>
<svg id="graph" class="graph">
<g id="viewport">
<title>mpInfoLayer</title>
<!-- Node1 -->
<g id="Node000001" class="node">
<title>Node1</title>
<g id="a_Node000001"><a xlink:title="Base class to create small rectangular info boxes mpInfoLayer is the base class to create a small rec...">
<polygon fill="#999999" stroke="#666666" points="301,-386 223,-386 223,-367 301,-367 301,-386"/>
<text text-anchor="middle" x="262" y="-374" font-family="Helvetica,sans-Serif" font-size="10.00">mpInfoLayer</text>
</a>
</g>
</g>
<!-- Node4 -->
<g id="Node000004" class="node">
<title>Node4</title>
<g id="a_Node000004"><a xlink:href="classmp_window.html" target="_top" xlink:title="Canvas for plotting mpLayer implementations.">
<polygon fill="white" stroke="#666666" points="325.5,-231 254.5,-231 254.5,-212 325.5,-212 325.5,-231"/>
<text text-anchor="middle" x="290" y="-219" font-family="Helvetica,sans-Serif" font-size="10.00">mpWindow</text>
</a>
</g>
</g>
<!-- Node1&#45;&gt;Node4 -->
<g id="edge11_Node000004_Node000001" class="edge">
<title>Node1&#45;&gt;Node4</title>
<g id="a_edge11_Node000004_Node000001"><a xlink:title=" ">
<path fill="none" stroke="#9a32cd" stroke-dasharray="5,2" d="M277.46,-359.33C284.74,-351.06 293.11,-340.53 299,-330 307.51,-314.79 309.07,-310.18 312,-293 315.29,-273.72 318.64,-267.39 312,-249 309.56,-242.25 304.58,-236.01 299.97,-231.28"/>
<polygon fill="#9a32cd" stroke="#9a32cd" points="274.82,-357.03 270.66,-366.77 279.99,-361.75 274.82,-357.03"/>
</a>
</g>
<text text-anchor="middle" x="357.5" y="-318" font-family="Helvetica,sans-Serif" font-size="10.00" fill="grey"> m_movingInfoLayer</text>
</g>
<!-- Node10 -->
<g id="Node000010" class="node">
<title>Node10</title>
<g id="a_Node000010"><a xlink:href="classmp_info_coords.html" target="_top" xlink:title="Implements an overlay box which shows the mouse coordinates in plot units.">
<polygon fill="white" stroke="#666666" points="113.5,-330 28.5,-330 28.5,-311 113.5,-311 113.5,-330"/>
<text text-anchor="middle" x="71" y="-318" font-family="Helvetica,sans-Serif" font-size="10.00">mpInfoCoords</text>
</a>
</g>
</g>
<!-- Node1&#45;&gt;Node10 -->
<g id="edge13_Node000010_Node000001" class="edge">
<title>Node1&#45;&gt;Node10</title>
<g id="a_edge13_Node000010_Node000001"><a xlink:title=" ">
<path fill="none" stroke="#63b8ff" d="M222.03,-364.2C185.98,-354.01 133.76,-339.24 101.12,-330.02"/>
<polygon fill="#63b8ff" stroke="#63b8ff" points="221.16,-367.59 231.74,-366.94 223.06,-360.85 221.16,-367.59"/>
</a>
</g>
</g>
<!-- Node11 -->
<g id="Node000011" class="node">
<title>Node11</title>
<g id="a_Node000011"><a xlink:href="classmp_info_legend.html" target="_top" xlink:title="Implement the legend to be added to the plot This layer allows you to add a legend to describe the pl...">
<polygon fill="white" stroke="#666666" points="285,-19 199,-19 199,0 285,0 285,-19"/>
<text text-anchor="middle" x="242" y="-7" font-family="Helvetica,sans-Serif" font-size="10.00">mpInfoLegend</text>
</a>
</g>
</g>
<!-- Node1&#45;&gt;Node11 -->
<g id="edge15_Node000011_Node000001" class="edge">
<title>Node1&#45;&gt;Node11</title>
<g id="a_edge15_Node000011_Node000001"><a xlink:title=" ">
<path fill="none" stroke="#63b8ff" d="M212.48,-375.25C136.54,-373.51 0,-364.41 0,-321.5 0,-321.5 0,-321.5 0,-81.5 0,-40.56 129.13,-21.55 198.74,-14.27"/>
<polygon fill="#63b8ff" stroke="#63b8ff" points="212.71,-378.76 222.78,-375.45 212.85,-371.76 212.71,-378.76"/>
</a>
</g>
</g>
<!-- Node2 -->
<g id="Node000002" class="node">
<title>Node2</title>
<g id="a_Node000002"><a xlink:href="classmp_layer.html" target="_top" xlink:title="Plot layer, abstract base class.">
<polygon fill="white" stroke="#666666" points="526.5,-165 467.5,-165 467.5,-146 526.5,-146 526.5,-165"/>
<text text-anchor="middle" x="497" y="-153" font-family="Helvetica,sans-Serif" font-size="10.00">mpLayer</text>
</a>
</g>
</g>
<!-- Node2&#45;&gt;Node1 -->
<g id="edge1_Node000001_Node000002" class="edge">
<title>Node2&#45;&gt;Node1</title>
<g id="a_edge1_Node000001_Node000002"><a xlink:title=" ">
<path fill="none" stroke="#63b8ff" d="M536.56,-165.99C587.19,-178.53 669.41,-200.38 678,-212 683.02,-218.79 682.08,-223.61 678,-231 638.15,-303.23 597.96,-300.3 521,-330 446.67,-358.68 353.34,-369.4 301.44,-373.32"/>
<polygon fill="#63b8ff" stroke="#63b8ff" points="537.13,-162.53 526.58,-163.54 535.46,-169.32 537.13,-162.53"/>
</a>
</g>
</g>
<!-- Node7 -->
<g id="Node000007" class="node">
<title>Node7</title>
<g id="a_Node000007"><a xlink:href="classmp_scale.html" target="_top" xlink:title="Plot layer implementing an abstract scale ruler.">
<polygon fill="white" stroke="#666666" points="559.5,-92 500.5,-92 500.5,-73 559.5,-73 559.5,-92"/>
<text text-anchor="middle" x="530" y="-80" font-family="Helvetica,sans-Serif" font-size="10.00">mpScale</text>
</a>
</g>
</g>
<!-- Node2&#45;&gt;Node7 -->
<g id="edge7_Node000007_Node000002" class="edge">
<title>Node2&#45;&gt;Node7</title>
<g id="a_edge7_Node000007_Node000002"><a xlink:title=" ">
<path fill="none" stroke="#63b8ff" d="M503.17,-136.21C505.43,-130.02 508.14,-123.13 511,-117 515.07,-108.28 520.57,-98.77 524.61,-92.12"/>
<polygon fill="#63b8ff" stroke="#63b8ff" points="499.85,-135.11 499.84,-145.7 506.45,-137.42 499.85,-135.11"/>
</a>
</g>
</g>
<!-- Node12 -->
<g id="Node000012" class="node">
<title>Node12</title>
<g id="a_Node000012"><a xlink:href="classmp_function.html" target="_top" xlink:title="Plot layer implementing an abstract function plot class.">
<polygon fill="white" stroke="#666666" points="482,-92 408,-92 408,-73 482,-73 482,-92"/>
<text text-anchor="middle" x="445" y="-80" font-family="Helvetica,sans-Serif" font-size="10.00">mpFunction</text>
</a>
</g>
</g>
<!-- Node2&#45;&gt;Node12 -->
<g id="edge17_Node000012_Node000002" class="edge">
<title>Node2&#45;&gt;Node12</title>
<g id="a_edge17_Node000012_Node000002"><a xlink:title=" ">
<path fill="none" stroke="#63b8ff" d="M484.46,-137.37C474.04,-123.15 459.64,-103.49 451.43,-92.28"/>
<polygon fill="#63b8ff" stroke="#63b8ff" points="481.89,-139.79 490.62,-145.79 487.54,-135.66 481.89,-139.79"/>
</a>
</g>
</g>
<!-- Node3 -->
<g id="Node000003" class="node">
<title>Node3</title>
<g id="a_Node000003"><a xlink:title=" ">
<polygon fill="white" stroke="#bfbfbf" points="669,-231 607,-231 607,-212 669,-212 669,-231"/>
<text text-anchor="middle" x="638" y="-219" font-family="Helvetica,sans-Serif" font-size="10.00">wxObject</text>
</a>
</g>
</g>
<!-- Node3&#45;&gt;Node2 -->
<g id="edge2_Node000002_Node000003" class="edge">
<title>Node3&#45;&gt;Node2</title>
<g id="a_edge2_Node000002_Node000003"><a xlink:title=" ">
<path fill="none" stroke="#63b8ff" d="M609.79,-207.69C582,-195.08 540.31,-176.16 516.16,-165.2"/>
<polygon fill="#63b8ff" stroke="#63b8ff" points="608.43,-210.92 618.98,-211.87 611.32,-204.55 608.43,-210.92"/>
</a>
</g>
</g>
<!-- Node4&#45;&gt;Node2 -->
<g id="edge3_Node000002_Node000004" class="edge">
<title>Node4&#45;&gt;Node2</title>
<g id="a_edge3_Node000002_Node000004"><a xlink:title=" ">
<path fill="none" stroke="#9a32cd" stroke-dasharray="5,2" d="M335.68,-209.91C353.93,-205.4 375.07,-199.84 394,-194 422.55,-185.19 454.82,-173.08 475.51,-165.03"/>
<polygon fill="#9a32cd" stroke="#9a32cd" points="334.75,-206.53 325.86,-212.3 336.41,-213.33 334.75,-206.53"/>
</a>
</g>
<text text-anchor="middle" x="443" y="-186" font-family="Helvetica,sans-Serif" font-size="10.00" fill="grey"> m_win</text>
</g>
<!-- Node5 -->
<g id="Node000005" class="node">
<title>Node5</title>
<g id="a_Node000005"><a xlink:title=" ">
<polygon fill="white" stroke="#bfbfbf" points="202,-330 132,-330 132,-311 202,-311 202,-330"/>
<text text-anchor="middle" x="167" y="-318" font-family="Helvetica,sans-Serif" font-size="10.00">wxWindow</text>
</a>
</g>
</g>
<!-- Node5&#45;&gt;Node4 -->
<g id="edge4_Node000004_Node000005" class="edge">
<title>Node5&#45;&gt;Node4</title>
<g id="a_edge4_Node000004_Node000005"><a xlink:title=" ">
<path fill="none" stroke="#63b8ff" d="M182.7,-303.55C197.9,-288.55 221.95,-265.93 245,-249 254.06,-242.34 264.9,-235.92 273.67,-231.06"/>
<polygon fill="#63b8ff" stroke="#63b8ff" points="180.22,-301.08 175.62,-310.63 185.16,-306.03 180.22,-301.08"/>
</a>
</g>
</g>
<!-- Node6 -->
<g id="Node000006" class="node">
<title>Node6</title>
<g id="a_Node000006"><a xlink:href="structmp_axis_data.html" target="_top" xlink:title="Represents all the informations needed for plotting a layer in one direction (X or Y) This struct hol...">
<polygon fill="white" stroke="#666666" points="568.5,-19 491.5,-19 491.5,0 568.5,0 568.5,-19"/>
<text text-anchor="middle" x="530" y="-7" font-family="Helvetica,sans-Serif" font-size="10.00">mpAxisData</text>
</a>
</g>
</g>
<!-- Node6&#45;&gt;Node4 -->
<g id="edge5_Node000004_Node000006" class="edge">
<title>Node6&#45;&gt;Node4</title>
<g id="a_edge5_Node000004_Node000006"><a xlink:title=" ">
<path fill="none" stroke="#9a32cd" stroke-dasharray="5,2" d="M486.95,-22.05C459.7,-30.89 424.86,-45.15 399,-66 371.4,-88.25 312.78,-182.94 295.13,-211.99"/>
<polygon fill="#9a32cd" stroke="#9a32cd" points="488.11,-25.35 496.62,-19.04 486.03,-18.67 488.11,-25.35"/>
</a>
</g>
<text text-anchor="middle" x="391" y="-120" font-family="Helvetica,sans-Serif" font-size="10.00" fill="grey"> m_AxisDataX</text>
</g>
<!-- Node7&#45;&gt;Node6 -->
<g id="edge6_Node000006_Node000007" class="edge">
<title>Node7&#45;&gt;Node6</title>
<g id="a_edge6_Node000006_Node000007"><a xlink:title=" ">
<path fill="none" stroke="#9a32cd" stroke-dasharray="5,2" d="M530,-62.73C530,-48.66 530,-30.06 530,-19.28"/>
<polygon fill="#9a32cd" stroke="#9a32cd" points="526.5,-62.79 530,-72.79 533.5,-62.79 526.5,-62.79"/>
</a>
</g>
<text text-anchor="middle" x="542" y="-40" font-family="Helvetica,sans-Serif" font-size="10.00" fill="grey"> axis</text>
</g>
<!-- Node8 -->
<g id="Node000008" class="node">
<title>Node8</title>
<g id="a_Node000008"><a xlink:href="structmp_range.html" target="_top" xlink:title=" ">
<polygon fill="white" stroke="#666666" points="668.5,-165 549.5,-165 549.5,-146 668.5,-146 668.5,-165"/>
<text text-anchor="middle" x="609" y="-153" font-family="Helvetica,sans-Serif" font-size="10.00">mpRange&lt; double &gt;</text>
</a>
</g>
</g>
<!-- Node8&#45;&gt;Node6 -->
<g id="edge9_Node000006_Node000008" class="edge">
<title>Node8&#45;&gt;Node6</title>
<g id="a_edge9_Node000006_Node000008"><a xlink:title=" ">
<path fill="none" stroke="#9a32cd" stroke-dasharray="5,2" d="M606.12,-135.94C604.89,-129.81 603.21,-123.02 601,-117 587.09,-79.1 582.53,-69.06 558,-37 552.96,-30.41 546.23,-23.98 540.63,-19.11"/>
<polygon fill="#9a32cd" stroke="#9a32cd" points="602.7,-136.73 607.88,-145.97 609.6,-135.51 602.7,-136.73"/>
</a>
</g>
<text text-anchor="middle" x="621" y="-91" font-family="Helvetica,sans-Serif" font-size="10.00" fill="grey"> bound</text>
<text text-anchor="middle" x="621" y="-80" font-family="Helvetica,sans-Serif" font-size="10.00" fill="grey">desired</text>
<text text-anchor="middle" x="621" y="-69" font-family="Helvetica,sans-Serif" font-size="10.00" fill="grey">lastDesired</text>
</g>
<!-- Node8&#45;&gt;Node7 -->
<g id="edge8_Node000007_Node000008" class="edge">
<title>Node8&#45;&gt;Node7</title>
<g id="a_edge8_Node000007_Node000008"><a xlink:title=" ">
<path fill="none" stroke="#9a32cd" stroke-dasharray="5,2" d="M546.38,-141.49C540.42,-138 535.09,-133.58 531,-128 523.41,-117.66 525.24,-102.02 527.47,-92.3"/>
<polygon fill="#9a32cd" stroke="#9a32cd" points="544.96,-144.69 555.48,-145.98 548.06,-138.42 544.96,-144.69"/>
</a>
</g>
<text text-anchor="middle" x="566" y="-120" font-family="Helvetica,sans-Serif" font-size="10.00" fill="grey"> m_axisRange</text>
</g>
<!-- Node9 -->
<g id="Node000009" class="node">
<title>Node9</title>
<g id="a_Node000009"><a xlink:href="structmp_rect.html" target="_top" xlink:title="A rectangle structure in several (integer) flavors.">
<polygon fill="white" stroke="#666666" points="512,-330 458,-330 458,-311 512,-311 512,-330"/>
<text text-anchor="middle" x="485" y="-318" font-family="Helvetica,sans-Serif" font-size="10.00">mpRect</text>
</a>
</g>
</g>
<!-- Node9&#45;&gt;Node2 -->
<g id="edge19_Node000002_Node000009" class="edge">
<title>Node9&#45;&gt;Node2</title>
<g id="a_edge19_Node000002_Node000009"><a xlink:title=" ">
<path fill="none" stroke="#9a32cd" stroke-dasharray="5,2" d="M486.41,-300.37C489.01,-265.03 494.48,-190.79 496.35,-165.31"/>
<polygon fill="#9a32cd" stroke="#9a32cd" points="482.89,-300.51 485.65,-310.74 489.87,-301.02 482.89,-300.51"/>
</a>
</g>
<text text-anchor="middle" x="538" y="-219" font-family="Helvetica,sans-Serif" font-size="10.00" fill="grey"> m_plotBoundaries</text>
</g>
<!-- Node9&#45;&gt;Node4 -->
<g id="edge10_Node000004_Node000009" class="edge">
<title>Node9&#45;&gt;Node4</title>
<g id="a_edge10_Node000004_Node000009"><a xlink:title=" ">
<path fill="none" stroke="#9a32cd" stroke-dasharray="5,2" d="M447.82,-313.27C413.57,-307.27 367.03,-298.33 360,-293 342.42,-279.66 352.35,-264.85 337,-249 329.7,-241.46 319.79,-235.45 310.95,-231.07"/>
<polygon fill="#9a32cd" stroke="#9a32cd" points="447.54,-316.77 457.99,-315.03 448.74,-309.88 447.54,-316.77"/>
</a>
</g>
<text text-anchor="middle" x="421.5" y="-285" font-family="Helvetica,sans-Serif" font-size="10.00" fill="grey"> m_margin</text>
<text text-anchor="middle" x="421.5" y="-274" font-family="Helvetica,sans-Serif" font-size="10.00" fill="grey">m_marginOuter</text>
<text text-anchor="middle" x="421.5" y="-263" font-family="Helvetica,sans-Serif" font-size="10.00" fill="grey">m_plotBoundaries</text>
<text text-anchor="middle" x="421.5" y="-252" font-family="Helvetica,sans-Serif" font-size="10.00" fill="grey">m_plotBoundariesMargin</text>
</g>
<!-- Node10&#45;&gt;Node4 -->
<g id="edge12_Node000004_Node000010" class="edge">
<title>Node10&#45;&gt;Node4</title>
<g id="a_edge12_Node000004_Node000010"><a xlink:title=" ">
<path fill="none" stroke="#9a32cd" stroke-dasharray="5,2" d="M78.08,-301.24C85.46,-284.78 98.67,-261.33 118,-249 140.03,-234.94 210.84,-227.78 254.43,-224.62"/>
<polygon fill="#9a32cd" stroke="#9a32cd" points="74.68,-300.28 74.06,-310.86 81.14,-302.97 74.68,-300.28"/>
</a>
</g>
<text text-anchor="middle" x="153.5" y="-268.5" font-family="Helvetica,sans-Serif" font-size="10.00" fill="grey"> m_InfoCoords</text>
</g>
<!-- Node11&#45;&gt;Node4 -->
<g id="edge14_Node000004_Node000011" class="edge">
<title>Node11&#45;&gt;Node4</title>
<g id="a_edge14_Node000004_Node000011"><a xlink:title=" ">
<path fill="none" stroke="#9a32cd" stroke-dasharray="5,2" d="M246.26,-29.15C256.24,-72.81 280.82,-180.32 288,-211.74"/>
<polygon fill="#9a32cd" stroke="#9a32cd" points="249.65,-28.26 244.01,-19.29 242.83,-29.82 249.65,-28.26"/>
</a>
</g>
<text text-anchor="middle" x="304.5" y="-120" font-family="Helvetica,sans-Serif" font-size="10.00" fill="grey"> m_InfoLegend</text>
</g>
<!-- Node12&#45;&gt;Node11 -->
<g id="edge16_Node000011_Node000012" class="edge">
<title>Node12&#45;&gt;Node11</title>
<g id="a_edge16_Node000011_Node000012"><a xlink:title=" ">
<path fill="none" stroke="#9a32cd" stroke-dasharray="5,2" d="M410.99,-69.6C370.15,-55.32 302.67,-31.72 266.57,-19.09"/>
<polygon fill="#9a32cd" stroke="#9a32cd" points="409.92,-72.94 420.51,-72.94 412.23,-66.33 409.92,-72.94"/>
</a>
</g>
<text text-anchor="middle" x="388" y="-40" font-family="Helvetica,sans-Serif" font-size="10.00" fill="grey"> m_selectedSeries</text>
</g>
<!-- Node13 -->
<g id="Node000013" class="node">
<title>Node13</title>
<g id="a_Node000013"><a xlink:href="classmp_magnet.html" target="_top" xlink:title="Class for drawing mouse magnetization Draw an horizontal and a vertical line at the mouse position.">
<polygon fill="white" stroke="#666666" points="289.5,-330 220.5,-330 220.5,-311 289.5,-311 289.5,-330"/>
<text text-anchor="middle" x="255" y="-318" font-family="Helvetica,sans-Serif" font-size="10.00">mpMagnet</text>
</a>
</g>
</g>
<!-- Node13&#45;&gt;Node4 -->
<g id="edge18_Node000004_Node000013" class="edge">
<title>Node13&#45;&gt;Node4</title>
<g id="a_edge18_Node000004_Node000013"><a xlink:title=" ">
<path fill="none" stroke="#9a32cd" stroke-dasharray="5,2" d="M251.02,-300.69C248.84,-285.86 248.01,-265.07 256,-249 259.73,-241.49 266.71,-235.48 273.37,-231.1"/>
<polygon fill="#9a32cd" stroke="#9a32cd" points="247.6,-301.47 252.81,-310.69 254.49,-300.23 247.6,-301.47"/>
</a>
</g>
<text text-anchor="middle" x="284" y="-268.5" font-family="Helvetica,sans-Serif" font-size="10.00" fill="grey"> m_magnet</text>
</g>
</g>
</svg>

<g id="navigator" transform="translate(0 0)" fill="#404254">
  <rect fill="#f2f5e9" fill-opacity="0.5" stroke="#606060" stroke-width=".5" x="0" y="0" width="60" height="60"/>
  <use id="zoomplus" xlink:href="#zoomPlus" x="17" y="9" onmousedown="handleZoom(evt,'in')"/>
  <use id="zoomminus" xlink:href="#zoomMin" x="42" y="9" onmousedown="handleZoom(evt,'out')"/>
  <use id="reset" xlink:href="#resetDef" x="30" y="36" onmousedown="handleReset()"/>
   <use id="arrowup" xlink:href="#arrowUp" x="0" y="0" onmousedown="handlePan(0,-1)"/>
  <use id="arrowright" xlink:href="#arrowRight" x="0" y="0" onmousedown="handlePan(1,0)"/>
  <use id="arrowdown" xlink:href="#arrowDown" x="0" y="0" onmousedown="handlePan(0,1)"/>
  <use id="arrowleft" xlink:href="#arrowLeft" x="0" y="0" onmousedown="handlePan(-1,0)"/>
</g>
<svg viewBox="0 0 15 15" width="100%" height="30px" preserveAspectRatio="xMaxYMin meet">
 <g id="arrow_out" transform="scale(0.3 0.3)">
  <a xlink:href="classmp_info_layer__coll__graph_org.svg" target="_base">
   <rect id="button" ry="5" rx="5" y="6" x="6" height="38" width="38"
        fill="#f2f5e9" fill-opacity="0.5" stroke="#606060" stroke-width="1.0"/>
   <path id="arrow"
     d="M 11.500037,31.436501 C 11.940474,20.09759 22.043105,11.32322 32.158766,21.979434 L 37.068811,17.246167 C 37.068811,17.246167 37.088388,32 37.088388,32 L 22.160133,31.978069 C 22.160133,31.978069 26.997745,27.140456 26.997745,27.140456 C 18.528582,18.264221 13.291696,25.230495 11.500037,31.436501 z"
     style="fill:#404040;"/>
  </a>
 </g>
</svg>

<style type='text/css'>
<![CDATA[
[data-mouse-over-selected='false'] { opacity: 0.7; }
[data-mouse-over-selected='true']  { opacity: 1.0; }
]]>
</style>
<script type="application/ecmascript"><![CDATA[
document.addEventListener('DOMContentLoaded', (event) => {
  highlightEdges();
  highlightAdjacentNodes();
});
]]></script>
</svg>
