<?xml version="1.0" encoding="UTF-8" standalone="no"?>
<!DOCTYPE svg PUBLIC "-//W3C//DTD SVG 1.1//EN"
 "http://www.w3.org/Graphics/SVG/1.1/DTD/svg11.dtd">
<!-- Generated by graphviz version 2.43.0 (0)
 -->
<!-- Title: mpChart Pages: 1 -->
<svg width="176pt" height="247pt"
 viewBox="0.00 0.00 175.50 247.00" xmlns="http://www.w3.org/2000/svg" xmlns:xlink="http://www.w3.org/1999/xlink">
<g id="graph0" class="graph" transform="scale(1 1) rotate(0) translate(4 243)">
<title>mpChart</title>
<!-- Node1 -->
<g id="Node000001" class="node">
<title>Node1</title>
<g id="a_Node000001"><a xlink:title="abstract Layer for chart (bar and pie).">
<polygon fill="#999999" stroke="#666666" points="113,-74 54,-74 54,-55 113,-55 113,-74"/>
<text text-anchor="middle" x="83.5" y="-62" font-family="Helvetica,sans-Serif" font-size="10.00">mpChart</text>
</a>
</g>
</g>
<!-- Node5 -->
<g id="Node000005" class="node">
<title>Node5</title>
<g id="a_Node000005"><a xlink:href="classmpBarChart.html" target="_top" xlink:title="Layer for bar chart.">
<polygon fill="white" stroke="#666666" points="75,-19 0,-19 0,0 75,0 75,-19"/>
<text text-anchor="middle" x="37.5" y="-7" font-family="Helvetica,sans-Serif" font-size="10.00">mpBarChart</text>
</a>
</g>
</g>
<!-- Node1&#45;&gt;Node5 -->
<g id="edge4_Node000001_Node000005" class="edge">
<title>Node1&#45;&gt;Node5</title>
<g id="a_edge4_Node000001_Node000005"><a xlink:title=" ">
<path fill="none" stroke="#63b8ff" d="M69.14,-46.96C61.13,-37.72 51.47,-26.6 44.95,-19.09"/>
<polygon fill="#63b8ff" stroke="#63b8ff" points="66.71,-49.49 75.9,-54.75 71.99,-44.9 66.71,-49.49"/>
</a>
</g>
</g>
<!-- Node6 -->
<g id="Node000006" class="node">
<title>Node6</title>
<g id="a_Node000006"><a xlink:href="classmpPieChart.html" target="_top" xlink:title="Layer for pie chart. Create a very basic Pie Chart.">
<polygon fill="white" stroke="#666666" points="167.5,-19 93.5,-19 93.5,0 167.5,0 167.5,-19"/>
<text text-anchor="middle" x="130.5" y="-7" font-family="Helvetica,sans-Serif" font-size="10.00">mpPieChart</text>
</a>
</g>
</g>
<!-- Node1&#45;&gt;Node6 -->
<g id="edge5_Node000001_Node000006" class="edge">
<title>Node1&#45;&gt;Node6</title>
<g id="a_edge5_Node000001_Node000006"><a xlink:title=" ">
<path fill="none" stroke="#63b8ff" d="M97.92,-47.24C106.16,-37.95 116.15,-26.68 122.88,-19.09"/>
<polygon fill="#63b8ff" stroke="#63b8ff" points="95.28,-44.94 91.26,-54.75 100.51,-49.59 95.28,-44.94"/>
</a>
</g>
</g>
<!-- Node2 -->
<g id="Node000002" class="node">
<title>Node2</title>
<g id="a_Node000002"><a xlink:href="classmpFunction.html" target="_top" xlink:title=" ">
<polygon fill="white" stroke="#666666" points="120.5,-129 46.5,-129 46.5,-110 120.5,-110 120.5,-129"/>
<text text-anchor="middle" x="83.5" y="-117" font-family="Helvetica,sans-Serif" font-size="10.00">mpFunction</text>
</a>
</g>
</g>
<!-- Node2&#45;&gt;Node1 -->
<g id="edge1_Node000001_Node000002" class="edge">
<title>Node2&#45;&gt;Node1</title>
<g id="a_edge1_Node000001_Node000002"><a xlink:title=" ">
<path fill="none" stroke="#63b8ff" d="M83.5,-99.66C83.5,-90.93 83.5,-80.99 83.5,-74.09"/>
<polygon fill="#63b8ff" stroke="#63b8ff" points="80,-99.75 83.5,-109.75 87,-99.75 80,-99.75"/>
</a>
</g>
</g>
<!-- Node3 -->
<g id="Node000003" class="node">
<title>Node3</title>
<g id="a_Node000003"><a xlink:href="classmpLayer.html" target="_top" xlink:title=" ">
<polygon fill="white" stroke="#666666" points="113,-184 54,-184 54,-165 113,-165 113,-184"/>
<text text-anchor="middle" x="83.5" y="-172" font-family="Helvetica,sans-Serif" font-size="10.00">mpLayer</text>
</a>
</g>
</g>
<!-- Node3&#45;&gt;Node2 -->
<g id="edge2_Node000002_Node000003" class="edge">
<title>Node3&#45;&gt;Node2</title>
<g id="a_edge2_Node000002_Node000003"><a xlink:title=" ">
<path fill="none" stroke="#63b8ff" d="M83.5,-154.66C83.5,-145.93 83.5,-135.99 83.5,-129.09"/>
<polygon fill="#63b8ff" stroke="#63b8ff" points="80,-154.75 83.5,-164.75 87,-154.75 80,-154.75"/>
</a>
</g>
</g>
<!-- Node4 -->
<g id="Node000004" class="node">
<title>Node4</title>
<g id="a_Node000004"><a xlink:title=" ">
<polygon fill="white" stroke="#666666" points="114.5,-239 52.5,-239 52.5,-220 114.5,-220 114.5,-239"/>
<text text-anchor="middle" x="83.5" y="-227" font-family="Helvetica,sans-Serif" font-size="10.00">wxObject</text>
</a>
</g>
</g>
<!-- Node4&#45;&gt;Node3 -->
<g id="edge3_Node000003_Node000004" class="edge">
<title>Node4&#45;&gt;Node3</title>
<g id="a_edge3_Node000003_Node000004"><a xlink:title=" ">
<path fill="none" stroke="#63b8ff" d="M83.5,-209.66C83.5,-200.93 83.5,-190.99 83.5,-184.09"/>
<polygon fill="#63b8ff" stroke="#63b8ff" points="80,-209.75 83.5,-219.75 87,-209.75 80,-209.75"/>
</a>
</g>
</g>
</g>
</svg>
