<?xml version="1.0" encoding="UTF-8" standalone="no"?>
<!DOCTYPE svg PUBLIC "-//W3C//DTD SVG 1.1//EN"
 "http://www.w3.org/Graphics/SVG/1.1/DTD/svg11.dtd">
<!-- Generated by graphviz version 2.43.0 (0)
 -->
<!-- Title: mpLayer Pages: 1 -->
<svg width="754pt" height="316pt"
 viewBox="0.00 0.00 753.50 316.00" xmlns="http://www.w3.org/2000/svg" xmlns:xlink="http://www.w3.org/1999/xlink">
<g id="graph0" class="graph" transform="scale(1 1) rotate(0) translate(4 312)">
<title>mpLayer</title>
<!-- Node1 -->
<g id="Node000001" class="node">
<title>Node1</title>
<g id="a_Node000001"><a xlink:title=" ">
<polygon fill="#999999" stroke="#666666" points="386.5,-242 327.5,-242 327.5,-223 386.5,-223 386.5,-242"/>
<text text-anchor="middle" x="357" y="-230" font-family="Helvetica,sans-Serif" font-size="10.00">mpLayer</text>
</a>
</g>
</g>
<!-- Node6 -->
<g id="Node000006" class="node">
<title>Node6</title>
<g id="a_Node000006"><a xlink:href="classmpScale.html" target="_top" xlink:title=" ">
<polygon fill="white" stroke="#666666" points="565.5,-163.5 506.5,-163.5 506.5,-144.5 565.5,-144.5 565.5,-163.5"/>
<text text-anchor="middle" x="536" y="-151.5" font-family="Helvetica,sans-Serif" font-size="10.00">mpScale</text>
</a>
</g>
</g>
<!-- Node1&#45;&gt;Node6 -->
<g id="edge6_Node000006_Node000001" class="edge">
<title>Node1&#45;&gt;Node6</title>
<g id="a_edge6_Node000006_Node000001"><a xlink:title=" ">
<path fill="none" stroke="#63b8ff" d="M390.68,-219.41C419.33,-208.82 461.38,-192.58 497,-176 505.09,-172.24 513.85,-167.57 521.02,-163.59"/>
<polygon fill="#63b8ff" stroke="#63b8ff" points="389.32,-216.18 381.14,-222.91 391.73,-222.75 389.32,-216.18"/>
</a>
</g>
</g>
<!-- Node9 -->
<g id="Node000009" class="node">
<title>Node9</title>
<g id="a_Node000009"><a xlink:href="classmpInfoLayer.html" target="_top" xlink:title="Base class to create small rectangular info boxes mpInfoLayer is the base class to create a small rec...">
<polygon fill="white" stroke="#666666" points="396,-163.5 318,-163.5 318,-144.5 396,-144.5 396,-163.5"/>
<text text-anchor="middle" x="357" y="-151.5" font-family="Helvetica,sans-Serif" font-size="10.00">mpInfoLayer</text>
</a>
</g>
</g>
<!-- Node1&#45;&gt;Node9 -->
<g id="edge11_Node000009_Node000001" class="edge">
<title>Node1&#45;&gt;Node9</title>
<g id="a_edge11_Node000009_Node000001"><a xlink:title=" ">
<path fill="none" stroke="#63b8ff" d="M357,-212.6C357,-196.97 357,-175.49 357,-163.67"/>
<polygon fill="#63b8ff" stroke="#63b8ff" points="353.5,-212.72 357,-222.72 360.5,-212.72 353.5,-212.72"/>
</a>
</g>
</g>
<!-- Node12 -->
<g id="Node000012" class="node">
<title>Node12</title>
<g id="a_Node000012"><a xlink:href="classmpFunction.html" target="_top" xlink:title=" ">
<polygon fill="white" stroke="#666666" points="488,-163.5 414,-163.5 414,-144.5 488,-144.5 488,-163.5"/>
<text text-anchor="middle" x="451" y="-151.5" font-family="Helvetica,sans-Serif" font-size="10.00">mpFunction</text>
</a>
</g>
</g>
<!-- Node1&#45;&gt;Node12 -->
<g id="edge17_Node000012_Node000001" class="edge">
<title>Node1&#45;&gt;Node12</title>
<g id="a_edge17_Node000012_Node000001"><a xlink:title=" ">
<path fill="none" stroke="#63b8ff" d="M375.63,-216.34C394.99,-200.58 424.62,-176.47 440.34,-163.67"/>
<polygon fill="#63b8ff" stroke="#63b8ff" points="373.33,-213.7 367.78,-222.72 377.75,-219.13 373.33,-213.7"/>
</a>
</g>
</g>
<!-- Node2 -->
<g id="Node000002" class="node">
<title>Node2</title>
<g id="a_Node000002"><a xlink:title=" ">
<polygon fill="white" stroke="#666666" points="388,-308 326,-308 326,-289 388,-289 388,-308"/>
<text text-anchor="middle" x="357" y="-296" font-family="Helvetica,sans-Serif" font-size="10.00">wxObject</text>
</a>
</g>
</g>
<!-- Node2&#45;&gt;Node1 -->
<g id="edge1_Node000001_Node000002" class="edge">
<title>Node2&#45;&gt;Node1</title>
<g id="a_edge1_Node000001_Node000002"><a xlink:title=" ">
<path fill="none" stroke="#63b8ff" d="M357,-278.58C357,-266.63 357,-251.72 357,-242.41"/>
<polygon fill="#63b8ff" stroke="#63b8ff" points="353.5,-278.87 357,-288.87 360.5,-278.87 353.5,-278.87"/>
</a>
</g>
</g>
<!-- Node3 -->
<g id="Node000003" class="node">
<title>Node3</title>
<g id="a_Node000003"><a xlink:href="classmpWindow.html" target="_top" xlink:title=" ">
<polygon fill="white" stroke="#666666" points="350.5,-19 279.5,-19 279.5,0 350.5,0 350.5,-19"/>
<text text-anchor="middle" x="315" y="-7" font-family="Helvetica,sans-Serif" font-size="10.00">mpWindow</text>
</a>
</g>
</g>
<!-- Node3&#45;&gt;Node1 -->
<g id="edge2_Node000001_Node000003" class="edge">
<title>Node3&#45;&gt;Node1</title>
<g id="a_edge2_Node000001_Node000003"><a xlink:title=" ">
<path fill="none" stroke="#9a32cd" stroke-dasharray="5,2" d="M279.06,-22.81C250.16,-35.05 216.05,-56.17 227,-85 251.26,-148.9 317.57,-202.77 344.94,-222.97"/>
<polygon fill="#9a32cd" stroke="#9a32cd" points="280.6,-25.96 288.58,-19 278,-19.47 280.6,-25.96"/>
</a>
</g>
<text text-anchor="middle" x="259" y="-106" font-family="Helvetica,sans-Serif" font-size="10.00" fill="grey"> m_win</text>
</g>
<!-- Node4 -->
<g id="Node000004" class="node">
<title>Node4</title>
<g id="a_Node000004"><a xlink:title=" ">
<polygon fill="white" stroke="#666666" points="70,-85 0,-85 0,-66 70,-66 70,-85"/>
<text text-anchor="middle" x="35" y="-73" font-family="Helvetica,sans-Serif" font-size="10.00">wxWindow</text>
</a>
</g>
</g>
<!-- Node4&#45;&gt;Node3 -->
<g id="edge3_Node000003_Node000004" class="edge">
<title>Node4&#45;&gt;Node3</title>
<g id="a_edge3_Node000003_Node000004"><a xlink:title=" ">
<path fill="none" stroke="#63b8ff" d="M50.49,-59.14C59.5,-51.15 71.53,-42.04 84,-37 118.53,-23.06 223.27,-15.45 279.09,-12.28"/>
<polygon fill="#63b8ff" stroke="#63b8ff" points="48.05,-56.62 43.12,-66 52.83,-61.74 48.05,-56.62"/>
</a>
</g>
</g>
<!-- Node5 -->
<g id="Node000005" class="node">
<title>Node5</title>
<g id="a_Node000005"><a xlink:href="structmpAxisData.html" target="_top" xlink:title="Represents all the informations needed for plotting a layer in one direction (X or Y) This struct hol...">
<polygon fill="white" stroke="#666666" points="658.5,-85 581.5,-85 581.5,-66 658.5,-66 658.5,-85"/>
<text text-anchor="middle" x="620" y="-73" font-family="Helvetica,sans-Serif" font-size="10.00">mpAxisData</text>
</a>
</g>
</g>
<!-- Node5&#45;&gt;Node3 -->
<g id="edge4_Node000003_Node000005" class="edge">
<title>Node5&#45;&gt;Node3</title>
<g id="a_edge4_Node000003_Node000005"><a xlink:title=" ">
<path fill="none" stroke="#9a32cd" stroke-dasharray="5,2" d="M588.61,-62.48C565.96,-54.22 534.47,-43.6 506,-37 452.52,-24.6 389.17,-17.21 350.55,-13.5"/>
<polygon fill="#9a32cd" stroke="#9a32cd" points="587.46,-65.79 598.05,-65.97 589.89,-59.22 587.46,-65.79"/>
</a>
</g>
<text text-anchor="middle" x="579" y="-40" font-family="Helvetica,sans-Serif" font-size="10.00" fill="grey"> m_AxisDataX</text>
</g>
<!-- Node6&#45;&gt;Node5 -->
<g id="edge5_Node000005_Node000006" class="edge">
<title>Node6&#45;&gt;Node5</title>
<g id="a_edge5_Node000005_Node000006"><a xlink:title=" ">
<path fill="none" stroke="#9a32cd" stroke-dasharray="5,2" d="M549.51,-136.57C558.26,-126.38 570.2,-113.31 582,-103 589.51,-96.44 598.66,-90.02 606.1,-85.14"/>
<polygon fill="#9a32cd" stroke="#9a32cd" points="546.74,-134.43 542.97,-144.33 552.09,-138.93 546.74,-134.43"/>
</a>
</g>
<text text-anchor="middle" x="594" y="-106" font-family="Helvetica,sans-Serif" font-size="10.00" fill="grey"> axis</text>
</g>
<!-- Node7 -->
<g id="Node000007" class="node">
<title>Node7</title>
<g id="a_Node000007"><a xlink:href="structmpRange.html" target="_top" xlink:title=" ">
<polygon fill="white" stroke="#666666" points="636.5,-242 517.5,-242 517.5,-223 636.5,-223 636.5,-242"/>
<text text-anchor="middle" x="577" y="-230" font-family="Helvetica,sans-Serif" font-size="10.00">mpRange&lt; double &gt;</text>
</a>
</g>
</g>
<!-- Node7&#45;&gt;Node5 -->
<g id="edge8_Node000005_Node000007" class="edge">
<title>Node7&#45;&gt;Node5</title>
<g id="a_edge8_Node000005_Node000007"><a xlink:title=" ">
<path fill="none" stroke="#9a32cd" stroke-dasharray="5,2" d="M597.52,-216.34C600.85,-212.97 603.9,-209.15 606,-205 626.71,-164.17 623.3,-106.82 621.07,-85.2"/>
<polygon fill="#9a32cd" stroke="#9a32cd" points="595.2,-213.72 590.02,-222.96 599.84,-218.97 595.2,-213.72"/>
</a>
</g>
<text text-anchor="middle" x="650" y="-162.5" font-family="Helvetica,sans-Serif" font-size="10.00" fill="grey"> bound</text>
<text text-anchor="middle" x="650" y="-151.5" font-family="Helvetica,sans-Serif" font-size="10.00" fill="grey">desired</text>
<text text-anchor="middle" x="650" y="-140.5" font-family="Helvetica,sans-Serif" font-size="10.00" fill="grey">lastDesired</text>
</g>
<!-- Node7&#45;&gt;Node6 -->
<g id="edge7_Node000006_Node000007" class="edge">
<title>Node7&#45;&gt;Node6</title>
<g id="a_edge7_Node000006_Node000007"><a xlink:title=" ">
<path fill="none" stroke="#9a32cd" stroke-dasharray="5,2" d="M547.24,-217.53C542.73,-214.09 538.68,-209.93 536,-205 528.94,-192.04 531.26,-174.24 533.61,-163.75"/>
<polygon fill="#9a32cd" stroke="#9a32cd" points="545.39,-220.51 555.69,-222.99 549.19,-214.63 545.39,-220.51"/>
</a>
</g>
<text text-anchor="middle" x="571" y="-197" font-family="Helvetica,sans-Serif" font-size="10.00" fill="grey"> m_axisRange</text>
</g>
<!-- Node8 -->
<g id="Node000008" class="node">
<title>Node8</title>
<g id="a_Node000008"><a xlink:href="structmpRect.html" target="_top" xlink:title="A rectangle structure in several (integer) flavors.">
<polygon fill="white" stroke="#666666" points="174,-308 120,-308 120,-289 174,-289 174,-308"/>
<text text-anchor="middle" x="147" y="-296" font-family="Helvetica,sans-Serif" font-size="10.00">mpRect</text>
</a>
</g>
</g>
<!-- Node8&#45;&gt;Node1 -->
<g id="edge19_Node000001_Node000008" class="edge">
<title>Node8&#45;&gt;Node1</title>
<g id="a_edge19_Node000001_Node000008"><a xlink:title=" ">
<path fill="none" stroke="#9a32cd" stroke-dasharray="5,2" d="M181.27,-285.74C203.84,-278.13 234.07,-268.14 261,-260 283.18,-253.3 308.44,-246.35 327.48,-241.25"/>
<polygon fill="#9a32cd" stroke="#9a32cd" points="180.14,-282.43 171.8,-288.96 182.39,-289.06 180.14,-282.43"/>
</a>
</g>
<text text-anchor="middle" x="307" y="-263" font-family="Helvetica,sans-Serif" font-size="10.00" fill="grey"> m_plotBoundaries</text>
</g>
<!-- Node8&#45;&gt;Node3 -->
<g id="edge9_Node000003_Node000008" class="edge">
<title>Node8&#45;&gt;Node3</title>
<g id="a_edge9_Node000003_Node000008"><a xlink:title=" ">
<path fill="none" stroke="#9a32cd" stroke-dasharray="5,2" d="M126.39,-282.45C112.99,-270.79 98,-253.32 98,-233.5 98,-233.5 98,-233.5 98,-74.5 98,-37.19 217.53,-20.01 279.17,-13.63"/>
<polygon fill="#9a32cd" stroke="#9a32cd" points="124.41,-285.35 134.38,-288.93 128.82,-279.92 124.41,-285.35"/>
</a>
</g>
<text text-anchor="middle" x="159.5" y="-168" font-family="Helvetica,sans-Serif" font-size="10.00" fill="grey"> m_margin</text>
<text text-anchor="middle" x="159.5" y="-157" font-family="Helvetica,sans-Serif" font-size="10.00" fill="grey">m_marginOuter</text>
<text text-anchor="middle" x="159.5" y="-146" font-family="Helvetica,sans-Serif" font-size="10.00" fill="grey">m_plotBoundaries</text>
<text text-anchor="middle" x="159.5" y="-135" font-family="Helvetica,sans-Serif" font-size="10.00" fill="grey">m_plotBoundariesMargin</text>
</g>
<!-- Node9&#45;&gt;Node3 -->
<g id="edge10_Node000003_Node000009" class="edge">
<title>Node9&#45;&gt;Node3</title>
<g id="a_edge10_Node000003_Node000009"><a xlink:title=" ">
<path fill="none" stroke="#9a32cd" stroke-dasharray="5,2" d="M358.81,-134.07C360.25,-110.1 359.88,-68.19 344,-37 340.35,-29.83 333.9,-23.64 328.01,-19.05"/>
<polygon fill="#9a32cd" stroke="#9a32cd" points="355.3,-134.02 358.02,-144.26 362.28,-134.57 355.3,-134.02"/>
</a>
</g>
<text text-anchor="middle" x="407.5" y="-73" font-family="Helvetica,sans-Serif" font-size="10.00" fill="grey"> m_movingInfoLayer</text>
</g>
<!-- Node10 -->
<g id="Node000010" class="node">
<title>Node10</title>
<g id="a_Node000010"><a xlink:href="classmpInfoCoords.html" target="_top" xlink:title="Implements an overlay box which shows the mouse coordinates in plot units. When mouse is moved over t...">
<polygon fill="white" stroke="#666666" points="321.5,-85 236.5,-85 236.5,-66 321.5,-66 321.5,-85"/>
<text text-anchor="middle" x="279" y="-73" font-family="Helvetica,sans-Serif" font-size="10.00">mpInfoCoords</text>
</a>
</g>
</g>
<!-- Node9&#45;&gt;Node10 -->
<g id="edge13_Node000010_Node000009" class="edge">
<title>Node9&#45;&gt;Node10</title>
<g id="a_edge13_Node000010_Node000009"><a xlink:title=" ">
<path fill="none" stroke="#63b8ff" d="M340.89,-137.2C324.82,-121.44 300.71,-97.8 287.84,-85.17"/>
<polygon fill="#63b8ff" stroke="#63b8ff" points="338.46,-139.72 348.05,-144.22 343.36,-134.72 338.46,-139.72"/>
</a>
</g>
</g>
<!-- Node11 -->
<g id="Node000011" class="node">
<title>Node11</title>
<g id="a_Node000011"><a xlink:href="classmpInfoLegend.html" target="_top" xlink:title="Implement the legend to be added to the plot This layer allows you to add a legend to describe the pl...">
<polygon fill="white" stroke="#666666" points="563,-85 477,-85 477,-66 563,-66 563,-85"/>
<text text-anchor="middle" x="520" y="-73" font-family="Helvetica,sans-Serif" font-size="10.00">mpInfoLegend</text>
</a>
</g>
</g>
<!-- Node9&#45;&gt;Node11 -->
<g id="edge15_Node000011_Node000009" class="edge">
<title>Node9&#45;&gt;Node11</title>
<g id="a_edge15_Node000011_Node000009"><a xlink:title=" ">
<path fill="none" stroke="#63b8ff" d="M380.44,-139.5C399.22,-128.94 426.4,-114.22 451,-103 465.48,-96.4 482.12,-89.98 495.43,-85.11"/>
<polygon fill="#63b8ff" stroke="#63b8ff" points="378.67,-136.48 371.7,-144.46 382.12,-142.57 378.67,-136.48"/>
</a>
</g>
</g>
<!-- Node10&#45;&gt;Node3 -->
<g id="edge12_Node000003_Node000010" class="edge">
<title>Node10&#45;&gt;Node3</title>
<g id="a_edge12_Node000003_Node000010"><a xlink:title=" ">
<path fill="none" stroke="#9a32cd" stroke-dasharray="5,2" d="M271.48,-56.12C270.03,-49.75 269.82,-42.77 273,-37 277.33,-29.15 285.07,-23.3 292.74,-19.13"/>
<polygon fill="#9a32cd" stroke="#9a32cd" points="268.26,-57.51 274.7,-65.93 274.91,-55.33 268.26,-57.51"/>
</a>
</g>
<text text-anchor="middle" x="308.5" y="-40" font-family="Helvetica,sans-Serif" font-size="10.00" fill="grey"> m_InfoCoords</text>
</g>
<!-- Node11&#45;&gt;Node3 -->
<g id="edge14_Node000003_Node000011" class="edge">
<title>Node11&#45;&gt;Node3</title>
<g id="a_edge14_Node000003_Node000011"><a xlink:title=" ">
<path fill="none" stroke="#9a32cd" stroke-dasharray="5,2" d="M482.6,-62.82C442.16,-50.2 378.65,-30.37 342.54,-19.1"/>
<polygon fill="#9a32cd" stroke="#9a32cd" points="481.76,-66.23 492.35,-65.87 483.85,-59.55 481.76,-66.23"/>
</a>
</g>
<text text-anchor="middle" x="465.5" y="-40" font-family="Helvetica,sans-Serif" font-size="10.00" fill="grey"> m_InfoLegend</text>
</g>
<!-- Node12&#45;&gt;Node11 -->
<g id="edge16_Node000011_Node000012" class="edge">
<title>Node12&#45;&gt;Node11</title>
<g id="a_edge16_Node000011_Node000012"><a xlink:title=" ">
<path fill="none" stroke="#9a32cd" stroke-dasharray="5,2" d="M450.76,-133.91C451.56,-123.77 454.1,-111.65 461,-103 467.51,-94.83 477.08,-89.1 486.62,-85.12"/>
<polygon fill="#9a32cd" stroke="#9a32cd" points="447.25,-134.13 450.46,-144.23 454.25,-134.33 447.25,-134.13"/>
</a>
</g>
<text text-anchor="middle" x="506" y="-106" font-family="Helvetica,sans-Serif" font-size="10.00" fill="grey"> m_selectedSeries</text>
</g>
<!-- Node13 -->
<g id="Node000013" class="node">
<title>Node13</title>
<g id="a_Node000013"><a xlink:href="classmpMagnet.html" target="_top" xlink:title=" ">
<polygon fill="white" stroke="#666666" points="745.5,-85 676.5,-85 676.5,-66 745.5,-66 745.5,-85"/>
<text text-anchor="middle" x="711" y="-73" font-family="Helvetica,sans-Serif" font-size="10.00">mpMagnet</text>
</a>
</g>
</g>
<!-- Node13&#45;&gt;Node3 -->
<g id="edge18_Node000003_Node000013" class="edge">
<title>Node13&#45;&gt;Node3</title>
<g id="a_edge18_Node000003_Node000013"><a xlink:title=" ">
<path fill="none" stroke="#9a32cd" stroke-dasharray="5,2" d="M684.9,-61.54C666.62,-53.09 641.39,-42.61 618,-37 523.26,-14.29 407.7,-10.55 350.53,-10.23"/>
<polygon fill="#9a32cd" stroke="#9a32cd" points="683.49,-64.75 694.02,-65.87 686.48,-58.42 683.49,-64.75"/>
</a>
</g>
<text text-anchor="middle" x="680" y="-40" font-family="Helvetica,sans-Serif" font-size="10.00" fill="grey"> m_magnet</text>
</g>
</g>
</svg>
