<?xml version="1.0" encoding="UTF-8" standalone="no"?>
<!DOCTYPE svg PUBLIC "-//W3C//DTD SVG 1.1//EN"
 "http://www.w3.org/Graphics/SVG/1.1/DTD/svg11.dtd">
<!-- Generated by graphviz version 2.43.0 (0)
 -->
<!-- Title: mpScaleX Pages: 1 -->
<svg width="526pt" height="470pt"
 viewBox="0.00 0.00 526.37 470.00" xmlns="http://www.w3.org/2000/svg" xmlns:xlink="http://www.w3.org/1999/xlink">
<g id="graph0" class="graph" transform="scale(1 1) rotate(0) translate(4 466)">
<title>mpScaleX</title>
<!-- Node1 -->
<g id="Node000001" class="node">
<title>Node1</title>
<g id="a_Node000001"><a xlink:title=" ">
<polygon fill="#999999" stroke="#666666" points="75.87,-316 10.87,-316 10.87,-297 75.87,-297 75.87,-316"/>
<text text-anchor="middle" x="43.37" y="-304" font-family="Helvetica,sans-Serif" font-size="10.00">mpScaleX</text>
</a>
</g>
</g>
<!-- Node2 -->
<g id="Node000002" class="node">
<title>Node2</title>
<g id="a_Node000002"><a xlink:href="classmpScale.html" target="_top" xlink:title=" ">
<polygon fill="white" stroke="#666666" points="82.87,-389 23.87,-389 23.87,-370 82.87,-370 82.87,-389"/>
<text text-anchor="middle" x="53.37" y="-377" font-family="Helvetica,sans-Serif" font-size="10.00">mpScale</text>
</a>
</g>
</g>
<!-- Node2&#45;&gt;Node1 -->
<g id="edge1_Node000001_Node000002" class="edge">
<title>Node2&#45;&gt;Node1</title>
<g id="a_edge1_Node000001_Node000002"><a xlink:title=" ">
<path fill="none" stroke="#63b8ff" d="M50.72,-359.73C48.74,-345.66 46.12,-327.06 44.61,-316.28"/>
<polygon fill="#63b8ff" stroke="#63b8ff" points="47.28,-360.38 52.14,-369.79 54.21,-359.4 47.28,-360.38"/>
</a>
</g>
</g>
<!-- Node7 -->
<g id="Node000007" class="node">
<title>Node7</title>
<g id="a_Node000007"><a xlink:href="structmpAxisData.html" target="_top" xlink:title="Represents all the informations needed for plotting a layer in one direction (X or Y) This struct hol...">
<polygon fill="white" stroke="#666666" points="243.87,-316 166.87,-316 166.87,-297 243.87,-297 243.87,-316"/>
<text text-anchor="middle" x="205.37" y="-304" font-family="Helvetica,sans-Serif" font-size="10.00">mpAxisData</text>
</a>
</g>
</g>
<!-- Node2&#45;&gt;Node7 -->
<g id="edge7_Node000007_Node000002" class="edge">
<title>Node2&#45;&gt;Node7</title>
<g id="a_edge7_Node000007_Node000002"><a xlink:title=" ">
<path fill="none" stroke="#9a32cd" stroke-dasharray="5,2" d="M81,-365.59C111.75,-351.23 160.57,-328.43 186.97,-316.09"/>
<polygon fill="#9a32cd" stroke="#9a32cd" points="79.28,-362.53 71.7,-369.94 82.25,-368.87 79.28,-362.53"/>
</a>
</g>
<text text-anchor="middle" x="159.37" y="-337" font-family="Helvetica,sans-Serif" font-size="10.00" fill="grey"> axis</text>
</g>
<!-- Node3 -->
<g id="Node000003" class="node">
<title>Node3</title>
<g id="a_Node000003"><a xlink:href="classmpLayer.html" target="_top" xlink:title=" ">
<polygon fill="white" stroke="#666666" points="180.87,-151 121.87,-151 121.87,-132 180.87,-132 180.87,-151"/>
<text text-anchor="middle" x="151.37" y="-139" font-family="Helvetica,sans-Serif" font-size="10.00">mpLayer</text>
</a>
</g>
</g>
<!-- Node3&#45;&gt;Node2 -->
<g id="edge2_Node000002_Node000003" class="edge">
<title>Node3&#45;&gt;Node2</title>
<g id="a_edge2_Node000002_Node000003"><a xlink:title=" ">
<path fill="none" stroke="#63b8ff" d="M112.14,-151.97C100.54,-155.99 88.29,-161.52 78.37,-169 25.36,-208.97 18.27,-232.8 1.37,-297 -6.49,-326.87 23.81,-355.9 41.48,-369.87"/>
<polygon fill="#63b8ff" stroke="#63b8ff" points="113.2,-155.31 121.67,-148.95 111.08,-148.64 113.2,-155.31"/>
</a>
</g>
</g>
<!-- Node10 -->
<g id="Node000010" class="node">
<title>Node10</title>
<g id="a_Node000010"><a xlink:href="classmpInfoLayer.html" target="_top" xlink:title="Base class to create small rectangular info boxes mpInfoLayer is the base class to create a small rec...">
<polygon fill="white" stroke="#666666" points="377.37,-85 299.37,-85 299.37,-66 377.37,-66 377.37,-85"/>
<text text-anchor="middle" x="338.37" y="-73" font-family="Helvetica,sans-Serif" font-size="10.00">mpInfoLayer</text>
</a>
</g>
</g>
<!-- Node3&#45;&gt;Node10 -->
<g id="edge11_Node000010_Node000003" class="edge">
<title>Node3&#45;&gt;Node10</title>
<g id="a_edge11_Node000010_Node000003"><a xlink:title=" ">
<path fill="none" stroke="#63b8ff" d="M191.39,-137.49C232.37,-133.78 292.77,-126.4 312.37,-114 323.22,-107.14 330.75,-93.95 334.81,-85.18"/>
<polygon fill="#63b8ff" stroke="#63b8ff" points="190.83,-134.02 181.17,-138.37 191.43,-140.99 190.83,-134.02"/>
</a>
</g>
</g>
<!-- Node13 -->
<g id="Node000013" class="node">
<title>Node13</title>
<g id="a_Node000013"><a xlink:href="classmpFunction.html" target="_top" xlink:title=" ">
<polygon fill="white" stroke="#666666" points="175.37,-85 101.37,-85 101.37,-66 175.37,-66 175.37,-85"/>
<text text-anchor="middle" x="138.37" y="-73" font-family="Helvetica,sans-Serif" font-size="10.00">mpFunction</text>
</a>
</g>
</g>
<!-- Node3&#45;&gt;Node13 -->
<g id="edge17_Node000013_Node000003" class="edge">
<title>Node3&#45;&gt;Node13</title>
<g id="a_edge17_Node000013_Node000003"><a xlink:title=" ">
<path fill="none" stroke="#63b8ff" d="M147.6,-121.95C145.16,-109.93 142.09,-94.82 140.18,-85.41"/>
<polygon fill="#63b8ff" stroke="#63b8ff" points="144.2,-122.77 149.62,-131.87 151.06,-121.37 144.2,-122.77"/>
</a>
</g>
</g>
<!-- Node4 -->
<g id="Node000004" class="node">
<title>Node4</title>
<g id="a_Node000004"><a xlink:title=" ">
<polygon fill="white" stroke="#666666" points="230.37,-217 168.37,-217 168.37,-198 230.37,-198 230.37,-217"/>
<text text-anchor="middle" x="199.37" y="-205" font-family="Helvetica,sans-Serif" font-size="10.00">wxObject</text>
</a>
</g>
</g>
<!-- Node4&#45;&gt;Node3 -->
<g id="edge3_Node000003_Node000004" class="edge">
<title>Node4&#45;&gt;Node3</title>
<g id="a_edge3_Node000003_Node000004"><a xlink:title=" ">
<path fill="none" stroke="#63b8ff" d="M179.16,-191.49C175.27,-188 171.45,-184.1 168.37,-180 161.67,-171.09 156.82,-159.11 154.06,-151.12"/>
<polygon fill="#63b8ff" stroke="#63b8ff" points="177.11,-194.33 187.05,-197.99 181.56,-188.93 177.11,-194.33"/>
</a>
</g>
</g>
<!-- Node5 -->
<g id="Node000005" class="node">
<title>Node5</title>
<g id="a_Node000005"><a xlink:href="classmpWindow.html" target="_top" xlink:title=" ">
<polygon fill="white" stroke="#666666" points="342.87,-217 271.87,-217 271.87,-198 342.87,-198 342.87,-217"/>
<text text-anchor="middle" x="307.37" y="-205" font-family="Helvetica,sans-Serif" font-size="10.00">mpWindow</text>
</a>
</g>
</g>
<!-- Node5&#45;&gt;Node3 -->
<g id="edge4_Node000003_Node000005" class="edge">
<title>Node5&#45;&gt;Node3</title>
<g id="a_edge4_Node000003_Node000005"><a xlink:title=" ">
<path fill="none" stroke="#9a32cd" stroke-dasharray="5,2" d="M261.63,-199.07C233.67,-194 200.94,-186.96 188.37,-180 175.41,-172.82 164.03,-159.71 157.43,-151.05"/>
<polygon fill="#9a32cd" stroke="#9a32cd" points="261.21,-202.55 271.67,-200.84 262.43,-195.65 261.21,-202.55"/>
</a>
</g>
<text text-anchor="middle" x="206.37" y="-172" font-family="Helvetica,sans-Serif" font-size="10.00" fill="grey"> m_win</text>
</g>
<!-- Node6 -->
<g id="Node000006" class="node">
<title>Node6</title>
<g id="a_Node000006"><a xlink:title=" ">
<polygon fill="white" stroke="#666666" points="468.37,-316 398.37,-316 398.37,-297 468.37,-297 468.37,-316"/>
<text text-anchor="middle" x="433.37" y="-304" font-family="Helvetica,sans-Serif" font-size="10.00">wxWindow</text>
</a>
</g>
</g>
<!-- Node6&#45;&gt;Node5 -->
<g id="edge5_Node000005_Node000006" class="edge">
<title>Node6&#45;&gt;Node5</title>
<g id="a_edge5_Node000005_Node000006"><a xlink:title=" ">
<path fill="none" stroke="#63b8ff" d="M428.69,-286.88C423.74,-270.9 414.38,-248.39 398.37,-235 382.85,-222.01 361.23,-215.39 342.96,-212.01"/>
<polygon fill="#63b8ff" stroke="#63b8ff" points="425.38,-288.02 431.44,-296.71 432.12,-286.14 425.38,-288.02"/>
</a>
</g>
</g>
<!-- Node7&#45;&gt;Node5 -->
<g id="edge6_Node000005_Node000007" class="edge">
<title>Node7&#45;&gt;Node5</title>
<g id="a_edge6_Node000005_Node000007"><a xlink:title=" ">
<path fill="none" stroke="#9a32cd" stroke-dasharray="5,2" d="M222.21,-289.4C225.15,-286.13 228.01,-282.58 230.37,-279 242.08,-261.21 234.47,-250.22 249.37,-235 257.19,-227.01 267.87,-221.2 277.93,-217.09"/>
<polygon fill="#9a32cd" stroke="#9a32cd" points="219.45,-287.23 215.02,-296.85 224.48,-292.09 219.45,-287.23"/>
</a>
</g>
<text text-anchor="middle" x="284.37" y="-254.5" font-family="Helvetica,sans-Serif" font-size="10.00" fill="grey"> m_AxisDataX</text>
</g>
<!-- Node8 -->
<g id="Node000008" class="node">
<title>Node8</title>
<g id="a_Node000008"><a xlink:href="structmpRange.html" target="_top" xlink:title=" ">
<polygon fill="white" stroke="#666666" points="192.87,-462 73.87,-462 73.87,-443 192.87,-443 192.87,-462"/>
<text text-anchor="middle" x="133.37" y="-450" font-family="Helvetica,sans-Serif" font-size="10.00">mpRange&lt; double &gt;</text>
</a>
</g>
</g>
<!-- Node8&#45;&gt;Node2 -->
<g id="edge20_Node000002_Node000008" class="edge">
<title>Node8&#45;&gt;Node2</title>
<g id="a_edge20_Node000002_Node000008"><a xlink:title=" ">
<path fill="none" stroke="#9a32cd" stroke-dasharray="5,2" d="M115.88,-435.98C99.75,-421.66 76.38,-400.92 63.26,-389.28"/>
<polygon fill="#9a32cd" stroke="#9a32cd" points="113.76,-438.77 123.56,-442.79 118.4,-433.54 113.76,-438.77"/>
</a>
</g>
<text text-anchor="middle" x="138.37" y="-417" font-family="Helvetica,sans-Serif" font-size="10.00" fill="grey"> m_axisRange</text>
</g>
<!-- Node8&#45;&gt;Node7 -->
<g id="edge8_Node000007_Node000008" class="edge">
<title>Node8&#45;&gt;Node7</title>
<g id="a_edge8_Node000007_Node000008"><a xlink:title=" ">
<path fill="none" stroke="#9a32cd" stroke-dasharray="5,2" d="M163.65,-437.72C168.84,-434.2 173.73,-429.98 177.37,-425 202.49,-390.64 205.38,-336.89 205.5,-316.1"/>
<polygon fill="#9a32cd" stroke="#9a32cd" points="161.61,-434.86 154.78,-442.97 165.17,-440.88 161.61,-434.86"/>
</a>
</g>
<text text-anchor="middle" x="228.37" y="-388" font-family="Helvetica,sans-Serif" font-size="10.00" fill="grey"> bound</text>
<text text-anchor="middle" x="228.37" y="-377" font-family="Helvetica,sans-Serif" font-size="10.00" fill="grey">desired</text>
<text text-anchor="middle" x="228.37" y="-366" font-family="Helvetica,sans-Serif" font-size="10.00" fill="grey">lastDesired</text>
</g>
<!-- Node9 -->
<g id="Node000009" class="node">
<title>Node9</title>
<g id="a_Node000009"><a xlink:href="structmpRect.html" target="_top" xlink:title="A rectangle structure in several (integer) flavors.">
<polygon fill="white" stroke="#666666" points="148.37,-316 94.37,-316 94.37,-297 148.37,-297 148.37,-316"/>
<text text-anchor="middle" x="121.37" y="-304" font-family="Helvetica,sans-Serif" font-size="10.00">mpRect</text>
</a>
</g>
</g>
<!-- Node9&#45;&gt;Node3 -->
<g id="edge19_Node000003_Node000009" class="edge">
<title>Node9&#45;&gt;Node3</title>
<g id="a_edge19_Node000003_Node000009"><a xlink:title=" ">
<path fill="none" stroke="#9a32cd" stroke-dasharray="5,2" d="M102.08,-290.15C98.55,-286.74 95.11,-282.95 92.37,-279 70.88,-248.05 49.52,-231.18 67.37,-198 79.87,-174.76 106.85,-159.62 126.88,-151.12"/>
<polygon fill="#9a32cd" stroke="#9a32cd" points="99.94,-292.93 109.75,-296.94 104.58,-287.69 99.94,-292.93"/>
</a>
</g>
<text text-anchor="middle" x="113.37" y="-205" font-family="Helvetica,sans-Serif" font-size="10.00" fill="grey"> m_plotBoundaries</text>
</g>
<!-- Node9&#45;&gt;Node5 -->
<g id="edge9_Node000005_Node000009" class="edge">
<title>Node9&#45;&gt;Node5</title>
<g id="a_edge9_Node000005_Node000009"><a xlink:title=" ">
<path fill="none" stroke="#9a32cd" stroke-dasharray="5,2" d="M107.77,-288.59C105.96,-285.55 104.38,-282.3 103.37,-279 97.62,-260.31 90.46,-249.69 103.37,-235 104.06,-234.21 213.17,-220.36 271.52,-213.01"/>
<polygon fill="#9a32cd" stroke="#9a32cd" points="104.97,-290.69 113.56,-296.89 110.71,-286.68 104.97,-290.69"/>
</a>
</g>
<text text-anchor="middle" x="164.87" y="-271" font-family="Helvetica,sans-Serif" font-size="10.00" fill="grey"> m_margin</text>
<text text-anchor="middle" x="164.87" y="-260" font-family="Helvetica,sans-Serif" font-size="10.00" fill="grey">m_marginOuter</text>
<text text-anchor="middle" x="164.87" y="-249" font-family="Helvetica,sans-Serif" font-size="10.00" fill="grey">m_plotBoundaries</text>
<text text-anchor="middle" x="164.87" y="-238" font-family="Helvetica,sans-Serif" font-size="10.00" fill="grey">m_plotBoundariesMargin</text>
</g>
<!-- Node10&#45;&gt;Node5 -->
<g id="edge10_Node000005_Node000010" class="edge">
<title>Node10&#45;&gt;Node5</title>
<g id="a_edge10_Node000005_Node000010"><a xlink:title=" ">
<path fill="none" stroke="#9a32cd" stroke-dasharray="5,2" d="M335.17,-95.05C334.05,-101.11 332.74,-107.86 331.37,-114 324.44,-145.09 314.41,-181.58 309.82,-197.88"/>
<polygon fill="#9a32cd" stroke="#9a32cd" points="338.62,-95.63 336.93,-85.17 331.73,-94.41 338.62,-95.63"/>
</a>
</g>
<text text-anchor="middle" x="376.87" y="-139" font-family="Helvetica,sans-Serif" font-size="10.00" fill="grey"> m_movingInfoLayer</text>
</g>
<!-- Node11 -->
<g id="Node000011" class="node">
<title>Node11</title>
<g id="a_Node000011"><a xlink:href="classmpInfoCoords.html" target="_top" xlink:title="Implements an overlay box which shows the mouse coordinates in plot units. When mouse is moved over t...">
<polygon fill="white" stroke="#666666" points="481.87,-19 396.87,-19 396.87,0 481.87,0 481.87,-19"/>
<text text-anchor="middle" x="439.37" y="-7" font-family="Helvetica,sans-Serif" font-size="10.00">mpInfoCoords</text>
</a>
</g>
</g>
<!-- Node10&#45;&gt;Node11 -->
<g id="edge13_Node000011_Node000010" class="edge">
<title>Node10&#45;&gt;Node11</title>
<g id="a_edge13_Node000011_Node000010"><a xlink:title=" ">
<path fill="none" stroke="#63b8ff" d="M360.7,-60.35C380.55,-47.77 408.95,-29.78 425.64,-19.2"/>
<polygon fill="#63b8ff" stroke="#63b8ff" points="358.56,-57.56 351.99,-65.87 362.31,-63.47 358.56,-57.56"/>
</a>
</g>
</g>
<!-- Node12 -->
<g id="Node000012" class="node">
<title>Node12</title>
<g id="a_Node000012"><a xlink:href="classmpInfoLegend.html" target="_top" xlink:title="Implement the legend to be added to the plot This layer allows you to add a legend to describe the pl...">
<polygon fill="white" stroke="#666666" points="281.37,-19 195.37,-19 195.37,0 281.37,0 281.37,-19"/>
<text text-anchor="middle" x="238.37" y="-7" font-family="Helvetica,sans-Serif" font-size="10.00">mpInfoLegend</text>
</a>
</g>
</g>
<!-- Node10&#45;&gt;Node12 -->
<g id="edge15_Node000012_Node000010" class="edge">
<title>Node10&#45;&gt;Node12</title>
<g id="a_edge15_Node000012_Node000010"><a xlink:title=" ">
<path fill="none" stroke="#63b8ff" d="M316.26,-60.35C296.6,-47.77 268.49,-29.78 251.96,-19.2"/>
<polygon fill="#63b8ff" stroke="#63b8ff" points="314.57,-63.43 324.88,-65.87 318.35,-57.53 314.57,-63.43"/>
</a>
</g>
</g>
<!-- Node11&#45;&gt;Node5 -->
<g id="edge12_Node000005_Node000011" class="edge">
<title>Node11&#45;&gt;Node5</title>
<g id="a_edge12_Node000005_Node000011"><a xlink:title=" ">
<path fill="none" stroke="#9a32cd" stroke-dasharray="5,2" d="M443.92,-28.98C449.88,-57.83 456.83,-114.06 431.37,-151 411.23,-180.23 371.91,-194.27 342.93,-200.88"/>
<polygon fill="#9a32cd" stroke="#9a32cd" points="447.29,-28.04 441.67,-19.05 440.46,-29.58 447.29,-28.04"/>
</a>
</g>
<text text-anchor="middle" x="482.87" y="-106" font-family="Helvetica,sans-Serif" font-size="10.00" fill="grey"> m_InfoCoords</text>
</g>
<!-- Node12&#45;&gt;Node5 -->
<g id="edge14_Node000005_Node000012" class="edge">
<title>Node12&#45;&gt;Node5</title>
<g id="a_edge14_Node000005_Node000012"><a xlink:title=" ">
<path fill="none" stroke="#9a32cd" stroke-dasharray="5,2" d="M239.21,-29.24C240.62,-50.36 244.38,-85.48 254.37,-114 265.99,-147.19 289.56,-182.07 300.93,-197.84"/>
<polygon fill="#9a32cd" stroke="#9a32cd" points="242.69,-28.86 238.64,-19.07 235.7,-29.25 242.69,-28.86"/>
</a>
</g>
<text text-anchor="middle" x="290.87" y="-106" font-family="Helvetica,sans-Serif" font-size="10.00" fill="grey"> m_InfoLegend</text>
</g>
<!-- Node13&#45;&gt;Node12 -->
<g id="edge16_Node000012_Node000013" class="edge">
<title>Node13&#45;&gt;Node12</title>
<g id="a_edge16_Node000012_Node000013"><a xlink:title=" ">
<path fill="none" stroke="#9a32cd" stroke-dasharray="5,2" d="M131.38,-56.16C130.07,-49.53 130.2,-42.36 134.37,-37 142.03,-27.14 170.17,-20.34 195.24,-16.1"/>
<polygon fill="#9a32cd" stroke="#9a32cd" points="128.05,-57.23 134.27,-65.81 134.76,-55.23 128.05,-57.23"/>
</a>
</g>
<text text-anchor="middle" x="179.37" y="-40" font-family="Helvetica,sans-Serif" font-size="10.00" fill="grey"> m_selectedSeries</text>
</g>
<!-- Node14 -->
<g id="Node000014" class="node">
<title>Node14</title>
<g id="a_Node000014"><a xlink:href="classmpMagnet.html" target="_top" xlink:title=" ">
<polygon fill="white" stroke="#666666" points="379.87,-316 310.87,-316 310.87,-297 379.87,-297 379.87,-316"/>
<text text-anchor="middle" x="345.37" y="-304" font-family="Helvetica,sans-Serif" font-size="10.00">mpMagnet</text>
</a>
</g>
</g>
<!-- Node14&#45;&gt;Node5 -->
<g id="edge18_Node000005_Node000014" class="edge">
<title>Node14&#45;&gt;Node5</title>
<g id="a_edge18_Node000005_Node000014"><a xlink:title=" ">
<path fill="none" stroke="#9a32cd" stroke-dasharray="5,2" d="M340.85,-286.8C337.05,-272.33 331,-251.96 323.37,-235 320.55,-228.73 316.55,-222.1 313.25,-217.05"/>
<polygon fill="#9a32cd" stroke="#9a32cd" points="337.48,-287.73 343.32,-296.57 344.26,-286.02 337.48,-287.73"/>
</a>
</g>
<text text-anchor="middle" x="366.37" y="-254.5" font-family="Helvetica,sans-Serif" font-size="10.00" fill="grey"> m_magnet</text>
</g>
</g>
</svg>
