<?xml version="1.0" encoding="UTF-8" standalone="no"?>
<!DOCTYPE svg PUBLIC "-//W3C//DTD SVG 1.1//EN"
 "http://www.w3.org/Graphics/SVG/1.1/DTD/svg11.dtd">
<!-- Generated by graphviz version 2.43.0 (0)
 -->
<!-- Title: mpInfoCoords Pages: 1 -->
<svg width="93pt" height="192pt"
 viewBox="0.00 0.00 93.00 192.00" xmlns="http://www.w3.org/2000/svg" xmlns:xlink="http://www.w3.org/1999/xlink">
<g id="graph0" class="graph" transform="scale(1 1) rotate(0) translate(4 188)">
<title>mpInfoCoords</title>
<!-- Node1 -->
<g id="Node000001" class="node">
<title>Node1</title>
<g id="a_Node000001"><a xlink:title="Implements an overlay box which shows the mouse coordinates in plot units. When mouse is moved over t...">
<polygon fill="#999999" stroke="#666666" points="85,-19 0,-19 0,0 85,0 85,-19"/>
<text text-anchor="middle" x="42.5" y="-7" font-family="Helvetica,sans-Serif" font-size="10.00">mpInfoCoords</text>
</a>
</g>
</g>
<!-- Node2 -->
<g id="Node000002" class="node">
<title>Node2</title>
<g id="a_Node000002"><a xlink:href="classmpInfoLayer.html" target="_top" xlink:title="Base class to create small rectangular info boxes mpInfoLayer is the base class to create a small rec...">
<polygon fill="white" stroke="#666666" points="81.5,-74 3.5,-74 3.5,-55 81.5,-55 81.5,-74"/>
<text text-anchor="middle" x="42.5" y="-62" font-family="Helvetica,sans-Serif" font-size="10.00">mpInfoLayer</text>
</a>
</g>
</g>
<!-- Node2&#45;&gt;Node1 -->
<g id="edge1_Node000001_Node000002" class="edge">
<title>Node2&#45;&gt;Node1</title>
<g id="a_edge1_Node000001_Node000002"><a xlink:title=" ">
<path fill="none" stroke="#63b8ff" d="M42.5,-44.66C42.5,-35.93 42.5,-25.99 42.5,-19.09"/>
<polygon fill="#63b8ff" stroke="#63b8ff" points="39,-44.75 42.5,-54.75 46,-44.75 39,-44.75"/>
</a>
</g>
</g>
<!-- Node3 -->
<g id="Node000003" class="node">
<title>Node3</title>
<g id="a_Node000003"><a xlink:href="classmpLayer.html" target="_top" xlink:title=" ">
<polygon fill="white" stroke="#666666" points="72,-129 13,-129 13,-110 72,-110 72,-129"/>
<text text-anchor="middle" x="42.5" y="-117" font-family="Helvetica,sans-Serif" font-size="10.00">mpLayer</text>
</a>
</g>
</g>
<!-- Node3&#45;&gt;Node2 -->
<g id="edge2_Node000002_Node000003" class="edge">
<title>Node3&#45;&gt;Node2</title>
<g id="a_edge2_Node000002_Node000003"><a xlink:title=" ">
<path fill="none" stroke="#63b8ff" d="M42.5,-99.66C42.5,-90.93 42.5,-80.99 42.5,-74.09"/>
<polygon fill="#63b8ff" stroke="#63b8ff" points="39,-99.75 42.5,-109.75 46,-99.75 39,-99.75"/>
</a>
</g>
</g>
<!-- Node4 -->
<g id="Node000004" class="node">
<title>Node4</title>
<g id="a_Node000004"><a xlink:title=" ">
<polygon fill="white" stroke="#666666" points="73.5,-184 11.5,-184 11.5,-165 73.5,-165 73.5,-184"/>
<text text-anchor="middle" x="42.5" y="-172" font-family="Helvetica,sans-Serif" font-size="10.00">wxObject</text>
</a>
</g>
</g>
<!-- Node4&#45;&gt;Node3 -->
<g id="edge3_Node000003_Node000004" class="edge">
<title>Node4&#45;&gt;Node3</title>
<g id="a_edge3_Node000003_Node000004"><a xlink:title=" ">
<path fill="none" stroke="#63b8ff" d="M42.5,-154.66C42.5,-145.93 42.5,-135.99 42.5,-129.09"/>
<polygon fill="#63b8ff" stroke="#63b8ff" points="39,-154.75 42.5,-164.75 46,-154.75 39,-154.75"/>
</a>
</g>
</g>
</g>
</svg>
