<?xml version="1.0" encoding="UTF-8" standalone="no"?>
<!DOCTYPE svg PUBLIC "-//W3C//DTD SVG 1.1//EN"
 "http://www.w3.org/Graphics/SVG/1.1/DTD/svg11.dtd">
<!-- Generated by graphviz version 2.43.0 (0)
 -->
<!-- Title: mpMovableObject Pages: 1 -->
<svg width="216pt" height="247pt"
 viewBox="0.00 0.00 216.00 247.00" xmlns="http://www.w3.org/2000/svg" xmlns:xlink="http://www.w3.org/1999/xlink">
<g id="graph0" class="graph" transform="scale(1 1) rotate(0) translate(4 243)">
<title>mpMovableObject</title>
<!-- Node1 -->
<g id="Node000001" class="node">
<title>Node1</title>
<g id="a_Node000001"><a xlink:title="This virtual class represents objects that can be moved to an arbitrary 2D location+rotation.">
<polygon fill="#999999" stroke="#666666" points="168.5,-74 62.5,-74 62.5,-55 168.5,-55 168.5,-74"/>
<text text-anchor="middle" x="115.5" y="-62" font-family="Helvetica,sans-Serif" font-size="10.00">mpMovableObject</text>
</a>
</g>
</g>
<!-- Node5 -->
<g id="Node000005" class="node">
<title>Node5</title>
<g id="a_Node000005"><a xlink:href="classmp_covariance_ellipse.html" target="_top" xlink:title="A 2D ellipse, described by a 2x2 covariance matrix.">
<polygon fill="white" stroke="#666666" points="119,-19 0,-19 0,0 119,0 119,-19"/>
<text text-anchor="middle" x="59.5" y="-7" font-family="Helvetica,sans-Serif" font-size="10.00">mpCovarianceEllipse</text>
</a>
</g>
</g>
<!-- Node1&#45;&gt;Node5 -->
<g id="edge4_Node000001_Node000005" class="edge">
<title>Node1&#45;&gt;Node5</title>
<g id="a_edge4_Node000001_Node000005"><a xlink:title=" ">
<path fill="none" stroke="#63b8ff" d="M99.17,-48.04C89.24,-38.64 76.91,-26.98 68.66,-19.17"/>
<polygon fill="#63b8ff" stroke="#63b8ff" points="96.83,-50.65 106.5,-54.98 101.65,-45.57 96.83,-50.65"/>
</a>
</g>
</g>
<!-- Node6 -->
<g id="Node000006" class="node">
<title>Node6</title>
<g id="a_Node000006"><a xlink:href="classmp_polygon.html" target="_top" xlink:title="An arbitrary polygon, descendant of mpMovableObject.">
<polygon fill="white" stroke="#666666" points="208,-19 137,-19 137,0 208,0 208,-19"/>
<text text-anchor="middle" x="172.5" y="-7" font-family="Helvetica,sans-Serif" font-size="10.00">mpPolygon</text>
</a>
</g>
</g>
<!-- Node1&#45;&gt;Node6 -->
<g id="edge5_Node000001_Node000006" class="edge">
<title>Node1&#45;&gt;Node6</title>
<g id="a_edge5_Node000001_Node000006"><a xlink:title=" ">
<path fill="none" stroke="#63b8ff" d="M132.12,-48.04C142.23,-38.64 154.78,-26.98 163.18,-19.17"/>
<polygon fill="#63b8ff" stroke="#63b8ff" points="129.6,-45.61 124.66,-54.98 134.36,-50.74 129.6,-45.61"/>
</a>
</g>
</g>
<!-- Node2 -->
<g id="Node000002" class="node">
<title>Node2</title>
<g id="a_Node000002"><a xlink:href="classmp_function.html" target="_top" xlink:title="Plot layer implementing an abstract function plot class.">
<polygon fill="white" stroke="#666666" points="152.5,-129 78.5,-129 78.5,-110 152.5,-110 152.5,-129"/>
<text text-anchor="middle" x="115.5" y="-117" font-family="Helvetica,sans-Serif" font-size="10.00">mpFunction</text>
</a>
</g>
</g>
<!-- Node2&#45;&gt;Node1 -->
<g id="edge1_Node000001_Node000002" class="edge">
<title>Node2&#45;&gt;Node1</title>
<g id="a_edge1_Node000001_Node000002"><a xlink:title=" ">
<path fill="none" stroke="#63b8ff" d="M115.5,-99.66C115.5,-90.93 115.5,-80.99 115.5,-74.09"/>
<polygon fill="#63b8ff" stroke="#63b8ff" points="112,-99.75 115.5,-109.75 119,-99.75 112,-99.75"/>
</a>
</g>
</g>
<!-- Node3 -->
<g id="Node000003" class="node">
<title>Node3</title>
<g id="a_Node000003"><a xlink:href="classmp_layer.html" target="_top" xlink:title="Plot layer, abstract base class.">
<polygon fill="white" stroke="#666666" points="145,-184 86,-184 86,-165 145,-165 145,-184"/>
<text text-anchor="middle" x="115.5" y="-172" font-family="Helvetica,sans-Serif" font-size="10.00">mpLayer</text>
</a>
</g>
</g>
<!-- Node3&#45;&gt;Node2 -->
<g id="edge2_Node000002_Node000003" class="edge">
<title>Node3&#45;&gt;Node2</title>
<g id="a_edge2_Node000002_Node000003"><a xlink:title=" ">
<path fill="none" stroke="#63b8ff" d="M115.5,-154.66C115.5,-145.93 115.5,-135.99 115.5,-129.09"/>
<polygon fill="#63b8ff" stroke="#63b8ff" points="112,-154.75 115.5,-164.75 119,-154.75 112,-154.75"/>
</a>
</g>
</g>
<!-- Node4 -->
<g id="Node000004" class="node">
<title>Node4</title>
<g id="a_Node000004"><a xlink:title=" ">
<polygon fill="white" stroke="#bfbfbf" points="146.5,-239 84.5,-239 84.5,-220 146.5,-220 146.5,-239"/>
<text text-anchor="middle" x="115.5" y="-227" font-family="Helvetica,sans-Serif" font-size="10.00">wxObject</text>
</a>
</g>
</g>
<!-- Node4&#45;&gt;Node3 -->
<g id="edge3_Node000003_Node000004" class="edge">
<title>Node4&#45;&gt;Node3</title>
<g id="a_edge3_Node000003_Node000004"><a xlink:title=" ">
<path fill="none" stroke="#63b8ff" d="M115.5,-209.66C115.5,-200.93 115.5,-190.99 115.5,-184.09"/>
<polygon fill="#63b8ff" stroke="#63b8ff" points="112,-209.75 115.5,-219.75 119,-209.75 112,-209.75"/>
</a>
</g>
</g>
</g>
</svg>
