<?xml version="1.0" encoding="UTF-8" standalone="no"?>
<!DOCTYPE svg PUBLIC "-//W3C//DTD SVG 1.1//EN"
 "http://www.w3.org/Graphics/SVG/1.1/DTD/svg11.dtd">
<!-- Generated by graphviz version 2.43.0 (0)
 -->
<!-- Title: mpFunction Pages: 1 -->
<svg width="541pt" height="404pt"
 viewBox="0.00 0.00 540.50 404.00" xmlns="http://www.w3.org/2000/svg" xmlns:xlink="http://www.w3.org/1999/xlink">
<g id="graph0" class="graph" transform="scale(1 1) rotate(0) translate(4 400)">
<title>mpFunction</title>
<!-- Node1 -->
<g id="Node000001" class="node">
<title>Node1</title>
<g id="a_Node000001"><a xlink:title="Plot layer implementing an abstract function plot class.">
<polygon fill="#999999" stroke="#666666" points="309,-396 235,-396 235,-377 309,-377 309,-396"/>
<text text-anchor="middle" x="272" y="-384" font-family="Helvetica,sans-Serif" font-size="10.00">mpFunction</text>
</a>
</g>
</g>
<!-- Node12 -->
<g id="Node000012" class="node">
<title>Node12</title>
<g id="a_Node000012"><a xlink:href="classmp_info_legend.html" target="_top" xlink:title="Implement the legend to be added to the plot This layer allows you to add a legend to describe the pl...">
<polygon fill="white" stroke="#666666" points="86,-330 0,-330 0,-311 86,-311 86,-330"/>
<text text-anchor="middle" x="43" y="-318" font-family="Helvetica,sans-Serif" font-size="10.00">mpInfoLegend</text>
</a>
</g>
</g>
<!-- Node1&#45;&gt;Node12 -->
<g id="edge17_Node000012_Node000001" class="edge">
<title>Node1&#45;&gt;Node12</title>
<g id="a_edge17_Node000012_Node000001"><a xlink:title=" ">
<path fill="none" stroke="#9a32cd" stroke-dasharray="5,2" d="M231.36,-374.14C186.25,-361.53 114.44,-341.47 73.76,-330.1"/>
<polygon fill="#9a32cd" stroke="#9a32cd" points="230.54,-377.55 241.12,-376.87 232.43,-370.81 230.54,-377.55"/>
</a>
</g>
<text text-anchor="middle" x="216" y="-351" font-family="Helvetica,sans-Serif" font-size="10.00" fill="grey"> m_selectedSeries</text>
</g>
<!-- Node2 -->
<g id="Node000002" class="node">
<title>Node2</title>
<g id="a_Node000002"><a xlink:href="classmp_layer.html" target="_top" xlink:title="Plot layer, abstract base class.">
<polygon fill="white" stroke="#666666" points="390.5,-165 331.5,-165 331.5,-146 390.5,-146 390.5,-165"/>
<text text-anchor="middle" x="361" y="-153" font-family="Helvetica,sans-Serif" font-size="10.00">mpLayer</text>
</a>
</g>
</g>
<!-- Node2&#45;&gt;Node1 -->
<g id="edge1_Node000001_Node000002" class="edge">
<title>Node2&#45;&gt;Node1</title>
<g id="a_edge1_Node000001_Node000002"><a xlink:title=" ">
<path fill="none" stroke="#63b8ff" d="M400.47,-165.47C436.84,-176.02 483.3,-196.61 470,-231 439.34,-310.3 340.51,-358.44 295.15,-376.87"/>
<polygon fill="#63b8ff" stroke="#63b8ff" points="401.11,-162.01 390.54,-162.76 399.27,-168.77 401.11,-162.01"/>
</a>
</g>
</g>
<!-- Node7 -->
<g id="Node000007" class="node">
<title>Node7</title>
<g id="a_Node000007"><a xlink:href="classmp_scale.html" target="_top" xlink:title="Plot layer implementing an abstract scale ruler.">
<polygon fill="white" stroke="#666666" points="418.5,-92 359.5,-92 359.5,-73 418.5,-73 418.5,-92"/>
<text text-anchor="middle" x="389" y="-80" font-family="Helvetica,sans-Serif" font-size="10.00">mpScale</text>
</a>
</g>
</g>
<!-- Node2&#45;&gt;Node7 -->
<g id="edge7_Node000007_Node000002" class="edge">
<title>Node2&#45;&gt;Node7</title>
<g id="a_edge7_Node000007_Node000002"><a xlink:title=" ">
<path fill="none" stroke="#63b8ff" d="M368.24,-136.14C373.8,-122.03 381.24,-103.17 385.54,-92.28"/>
<polygon fill="#63b8ff" stroke="#63b8ff" points="364.85,-135.21 364.43,-145.79 371.36,-137.78 364.85,-135.21"/>
</a>
</g>
</g>
<!-- Node10 -->
<g id="Node000010" class="node">
<title>Node10</title>
<g id="a_Node000010"><a xlink:href="classmp_info_layer.html" target="_top" xlink:title="Base class to create small rectangular info boxes mpInfoLayer is the base class to create a small rec...">
<polygon fill="white" stroke="#666666" points="164,-92 86,-92 86,-73 164,-73 164,-92"/>
<text text-anchor="middle" x="125" y="-80" font-family="Helvetica,sans-Serif" font-size="10.00">mpInfoLayer</text>
</a>
</g>
</g>
<!-- Node2&#45;&gt;Node10 -->
<g id="edge12_Node000010_Node000002" class="edge">
<title>Node2&#45;&gt;Node10</title>
<g id="a_edge12_Node000010_Node000002"><a xlink:title=" ">
<path fill="none" stroke="#63b8ff" d="M352.17,-136.61C347.7,-129.4 341.6,-121.69 334,-117 306.24,-99.87 216.5,-90.39 164.07,-86.19"/>
<polygon fill="#63b8ff" stroke="#63b8ff" points="349.34,-138.73 357.23,-145.81 355.47,-135.36 349.34,-138.73"/>
</a>
</g>
</g>
<!-- Node3 -->
<g id="Node000003" class="node">
<title>Node3</title>
<g id="a_Node000003"><a xlink:title=" ">
<polygon fill="white" stroke="#bfbfbf" points="345,-231 283,-231 283,-212 345,-212 345,-231"/>
<text text-anchor="middle" x="314" y="-219" font-family="Helvetica,sans-Serif" font-size="10.00">wxObject</text>
</a>
</g>
</g>
<!-- Node3&#45;&gt;Node2 -->
<g id="edge2_Node000002_Node000003" class="edge">
<title>Node3&#45;&gt;Node2</title>
<g id="a_edge2_Node000002_Node000003"><a xlink:title=" ">
<path fill="none" stroke="#63b8ff" d="M326.29,-203.77C335.3,-191.49 347.2,-175.3 354.46,-165.41"/>
<polygon fill="#63b8ff" stroke="#63b8ff" points="323.44,-201.74 320.34,-211.87 329.08,-205.88 323.44,-201.74"/>
</a>
</g>
</g>
<!-- Node4 -->
<g id="Node000004" class="node">
<title>Node4</title>
<g id="a_Node000004"><a xlink:href="classmp_window.html" target="_top" xlink:title="Canvas for plotting mpLayer implementations.">
<polygon fill="white" stroke="#666666" points="209.5,-231 138.5,-231 138.5,-212 209.5,-212 209.5,-231"/>
<text text-anchor="middle" x="174" y="-219" font-family="Helvetica,sans-Serif" font-size="10.00">mpWindow</text>
</a>
</g>
</g>
<!-- Node4&#45;&gt;Node2 -->
<g id="edge3_Node000002_Node000004" class="edge">
<title>Node4&#45;&gt;Node2</title>
<g id="a_edge3_Node000002_Node000004"><a xlink:title=" ">
<path fill="none" stroke="#9a32cd" stroke-dasharray="5,2" d="M219.73,-210.87C237.04,-206.58 256.72,-200.92 274,-194 283.42,-190.23 284.82,-187.32 294,-183 308.04,-176.4 324.19,-169.97 337.12,-165.1"/>
<polygon fill="#9a32cd" stroke="#9a32cd" points="218.76,-207.5 209.85,-213.23 220.39,-214.31 218.76,-207.5"/>
</a>
</g>
<text text-anchor="middle" x="312" y="-186" font-family="Helvetica,sans-Serif" font-size="10.00" fill="grey"> m_win</text>
</g>
<!-- Node5 -->
<g id="Node000005" class="node">
<title>Node5</title>
<g id="a_Node000005"><a xlink:title=" ">
<polygon fill="white" stroke="#bfbfbf" points="262,-330 192,-330 192,-311 262,-311 262,-330"/>
<text text-anchor="middle" x="227" y="-318" font-family="Helvetica,sans-Serif" font-size="10.00">wxWindow</text>
</a>
</g>
</g>
<!-- Node5&#45;&gt;Node4 -->
<g id="edge4_Node000004_Node000005" class="edge">
<title>Node5&#45;&gt;Node4</title>
<g id="a_edge4_Node000004_Node000005"><a xlink:title=" ">
<path fill="none" stroke="#63b8ff" d="M220.66,-301.45C215.15,-286.78 206.41,-265.84 196,-249 192.1,-242.69 186.82,-236.28 182.41,-231.34"/>
<polygon fill="#63b8ff" stroke="#63b8ff" points="217.38,-302.67 224.09,-310.87 223.96,-300.28 217.38,-302.67"/>
</a>
</g>
</g>
<!-- Node6 -->
<g id="Node000006" class="node">
<title>Node6</title>
<g id="a_Node000006"><a xlink:href="structmp_axis_data.html" target="_top" xlink:title="Represents all the informations needed for plotting a layer in one direction (X or Y) This struct hol...">
<polygon fill="white" stroke="#666666" points="427.5,-19 350.5,-19 350.5,0 427.5,0 427.5,-19"/>
<text text-anchor="middle" x="389" y="-7" font-family="Helvetica,sans-Serif" font-size="10.00">mpAxisData</text>
</a>
</g>
</g>
<!-- Node6&#45;&gt;Node4 -->
<g id="edge5_Node000004_Node000006" class="edge">
<title>Node6&#45;&gt;Node4</title>
<g id="a_edge5_Node000004_Node000006"><a xlink:title=" ">
<path fill="none" stroke="#9a32cd" stroke-dasharray="5,2" d="M374.88,-26.89C344.93,-61.52 275.59,-140.92 249,-165 228.71,-183.37 202.52,-201.68 187.07,-211.99"/>
<polygon fill="#9a32cd" stroke="#9a32cd" points="377.71,-28.97 381.6,-19.11 372.41,-24.39 377.71,-28.97"/>
</a>
</g>
<text text-anchor="middle" x="329" y="-120" font-family="Helvetica,sans-Serif" font-size="10.00" fill="grey"> m_AxisDataX</text>
</g>
<!-- Node7&#45;&gt;Node6 -->
<g id="edge6_Node000006_Node000007" class="edge">
<title>Node7&#45;&gt;Node6</title>
<g id="a_edge6_Node000006_Node000007"><a xlink:title=" ">
<path fill="none" stroke="#9a32cd" stroke-dasharray="5,2" d="M389,-62.73C389,-48.66 389,-30.06 389,-19.28"/>
<polygon fill="#9a32cd" stroke="#9a32cd" points="385.5,-62.79 389,-72.79 392.5,-62.79 385.5,-62.79"/>
</a>
</g>
<text text-anchor="middle" x="401" y="-40" font-family="Helvetica,sans-Serif" font-size="10.00" fill="grey"> axis</text>
</g>
<!-- Node8 -->
<g id="Node000008" class="node">
<title>Node8</title>
<g id="a_Node000008"><a xlink:href="structmp_range.html" target="_top" xlink:title=" ">
<polygon fill="white" stroke="#666666" points="532.5,-165 413.5,-165 413.5,-146 532.5,-146 532.5,-165"/>
<text text-anchor="middle" x="473" y="-153" font-family="Helvetica,sans-Serif" font-size="10.00">mpRange&lt; double &gt;</text>
</a>
</g>
</g>
<!-- Node8&#45;&gt;Node6 -->
<g id="edge9_Node000006_Node000008" class="edge">
<title>Node8&#45;&gt;Node6</title>
<g id="a_edge9_Node000006_Node000008"><a xlink:title=" ">
<path fill="none" stroke="#9a32cd" stroke-dasharray="5,2" d="M478.06,-135.9C478.92,-129.76 478.99,-122.98 477,-117 462.51,-73.54 420.66,-35.65 400.34,-19.21"/>
<polygon fill="#9a32cd" stroke="#9a32cd" points="474.58,-135.43 475.92,-145.94 481.42,-136.89 474.58,-135.43"/>
</a>
</g>
<text text-anchor="middle" x="496" y="-91" font-family="Helvetica,sans-Serif" font-size="10.00" fill="grey"> bound</text>
<text text-anchor="middle" x="496" y="-80" font-family="Helvetica,sans-Serif" font-size="10.00" fill="grey">desired</text>
<text text-anchor="middle" x="496" y="-69" font-family="Helvetica,sans-Serif" font-size="10.00" fill="grey">lastDesired</text>
</g>
<!-- Node8&#45;&gt;Node7 -->
<g id="edge8_Node000007_Node000008" class="edge">
<title>Node8&#45;&gt;Node7</title>
<g id="a_edge8_Node000007_Node000008"><a xlink:title=" ">
<path fill="none" stroke="#9a32cd" stroke-dasharray="5,2" d="M427.47,-141.9C419.97,-138.32 412.78,-133.76 407,-128 397.09,-118.11 392.43,-102.04 390.4,-92.15"/>
<polygon fill="#9a32cd" stroke="#9a32cd" points="426.46,-145.28 437.03,-145.94 429.18,-138.83 426.46,-145.28"/>
</a>
</g>
<text text-anchor="middle" x="442" y="-120" font-family="Helvetica,sans-Serif" font-size="10.00" fill="grey"> m_axisRange</text>
</g>
<!-- Node9 -->
<g id="Node000009" class="node">
<title>Node9</title>
<g id="a_Node000009"><a xlink:href="structmp_rect.html" target="_top" xlink:title="A rectangle structure in several (integer) flavors.">
<polygon fill="white" stroke="#666666" points="371,-330 317,-330 317,-311 371,-311 371,-330"/>
<text text-anchor="middle" x="344" y="-318" font-family="Helvetica,sans-Serif" font-size="10.00">mpRect</text>
</a>
</g>
</g>
<!-- Node9&#45;&gt;Node2 -->
<g id="edge19_Node000002_Node000009" class="edge">
<title>Node9&#45;&gt;Node2</title>
<g id="a_edge19_Node000002_Node000009"><a xlink:title=" ">
<path fill="none" stroke="#9a32cd" stroke-dasharray="5,2" d="M361.13,-303.27C363.53,-300.11 365.64,-296.64 367,-293 384.01,-247.45 369.93,-187.32 363.65,-165.17"/>
<polygon fill="#9a32cd" stroke="#9a32cd" points="358.45,-301.01 354.41,-310.81 363.68,-305.67 358.45,-301.01"/>
</a>
</g>
<text text-anchor="middle" x="420" y="-219" font-family="Helvetica,sans-Serif" font-size="10.00" fill="grey"> m_plotBoundaries</text>
</g>
<!-- Node9&#45;&gt;Node4 -->
<g id="edge10_Node000004_Node000009" class="edge">
<title>Node9&#45;&gt;Node4</title>
<g id="a_edge10_Node000004_Node000009"><a xlink:title=" ">
<path fill="none" stroke="#9a32cd" stroke-dasharray="5,2" d="M306.62,-316.75C286.32,-313.61 261.81,-306.97 244,-293 226.47,-279.25 235.57,-264.93 220,-249 212.79,-241.62 203.08,-235.62 194.44,-231.21"/>
<polygon fill="#9a32cd" stroke="#9a32cd" points="306.42,-320.25 316.79,-318.09 307.33,-313.31 306.42,-320.25"/>
</a>
</g>
<text text-anchor="middle" x="305.5" y="-285" font-family="Helvetica,sans-Serif" font-size="10.00" fill="grey"> m_margin</text>
<text text-anchor="middle" x="305.5" y="-274" font-family="Helvetica,sans-Serif" font-size="10.00" fill="grey">m_marginOuter</text>
<text text-anchor="middle" x="305.5" y="-263" font-family="Helvetica,sans-Serif" font-size="10.00" fill="grey">m_plotBoundaries</text>
<text text-anchor="middle" x="305.5" y="-252" font-family="Helvetica,sans-Serif" font-size="10.00" fill="grey">m_plotBoundariesMargin</text>
</g>
<!-- Node10&#45;&gt;Node4 -->
<g id="edge11_Node000004_Node000010" class="edge">
<title>Node10&#45;&gt;Node4</title>
<g id="a_edge11_Node000004_Node000010"><a xlink:title=" ">
<path fill="none" stroke="#9a32cd" stroke-dasharray="5,2" d="M129.38,-102.31C133.49,-119.01 140.16,-143.96 148,-165 154.31,-181.95 163.71,-200.86 169.31,-211.66"/>
<polygon fill="#9a32cd" stroke="#9a32cd" points="132.7,-101.12 126.96,-92.21 125.89,-102.75 132.7,-101.12"/>
</a>
</g>
<text text-anchor="middle" x="198.5" y="-153" font-family="Helvetica,sans-Serif" font-size="10.00" fill="grey"> m_movingInfoLayer</text>
</g>
<!-- Node11 -->
<g id="Node000011" class="node">
<title>Node11</title>
<g id="a_Node000011"><a xlink:href="classmp_info_coords.html" target="_top" xlink:title="Implements an overlay box which shows the mouse coordinates in plot units.">
<polygon fill="white" stroke="#666666" points="109.5,-19 24.5,-19 24.5,0 109.5,0 109.5,-19"/>
<text text-anchor="middle" x="67" y="-7" font-family="Helvetica,sans-Serif" font-size="10.00">mpInfoCoords</text>
</a>
</g>
</g>
<!-- Node10&#45;&gt;Node11 -->
<g id="edge14_Node000011_Node000010" class="edge">
<title>Node10&#45;&gt;Node11</title>
<g id="a_edge14_Node000011_Node000010"><a xlink:title=" ">
<path fill="none" stroke="#63b8ff" d="M111.34,-64.78C99.7,-50.52 83.42,-30.6 74.17,-19.28"/>
<polygon fill="#63b8ff" stroke="#63b8ff" points="108.85,-67.26 117.89,-72.79 114.27,-62.84 108.85,-67.26"/>
</a>
</g>
</g>
<!-- Node10&#45;&gt;Node12 -->
<g id="edge16_Node000012_Node000010" class="edge">
<title>Node10&#45;&gt;Node12</title>
<g id="a_edge16_Node000012_Node000010"><a xlink:title=" ">
<path fill="none" stroke="#63b8ff" d="M75.7,-88.12C57.01,-92.55 37.48,-101 26,-117 -18.42,-178.92 24.22,-280.51 38.63,-310.75"/>
<polygon fill="#63b8ff" stroke="#63b8ff" points="76.55,-91.52 85.65,-86.1 75.16,-84.66 76.55,-91.52"/>
</a>
</g>
</g>
<!-- Node11&#45;&gt;Node4 -->
<g id="edge13_Node000004_Node000011" class="edge">
<title>Node11&#45;&gt;Node4</title>
<g id="a_edge13_Node000004_Node000011"><a xlink:title=" ">
<path fill="none" stroke="#9a32cd" stroke-dasharray="5,2" d="M60.22,-28.59C52.39,-52.59 42.45,-95.71 58,-128 78.12,-169.77 127.29,-198.53 154.72,-211.93"/>
<polygon fill="#9a32cd" stroke="#9a32cd" points="63.58,-29.6 63.57,-19.01 56.97,-27.29 63.58,-29.6"/>
</a>
</g>
<text text-anchor="middle" x="93.5" y="-120" font-family="Helvetica,sans-Serif" font-size="10.00" fill="grey"> m_InfoCoords</text>
</g>
<!-- Node12&#45;&gt;Node4 -->
<g id="edge15_Node000004_Node000012" class="edge">
<title>Node12&#45;&gt;Node4</title>
<g id="a_edge15_Node000004_Node000012"><a xlink:title=" ">
<path fill="none" stroke="#9a32cd" stroke-dasharray="5,2" d="M41.19,-300.57C40.78,-284.72 42.95,-262.57 56,-249 67.25,-237.31 107.9,-230.08 138.36,-226.18"/>
<polygon fill="#9a32cd" stroke="#9a32cd" points="37.71,-301.03 41.83,-310.79 44.7,-300.59 37.71,-301.03"/>
</a>
</g>
<text text-anchor="middle" x="92.5" y="-268.5" font-family="Helvetica,sans-Serif" font-size="10.00" fill="grey"> m_InfoLegend</text>
</g>
<!-- Node13 -->
<g id="Node000013" class="node">
<title>Node13</title>
<g id="a_Node000013"><a xlink:href="classmp_magnet.html" target="_top" xlink:title="Class for drawing mouse magnetization Draw an horizontal and a vertical line at the mouse position.">
<polygon fill="white" stroke="#666666" points="173.5,-330 104.5,-330 104.5,-311 173.5,-311 173.5,-330"/>
<text text-anchor="middle" x="139" y="-318" font-family="Helvetica,sans-Serif" font-size="10.00">mpMagnet</text>
</a>
</g>
</g>
<!-- Node13&#45;&gt;Node4 -->
<g id="edge18_Node000004_Node000013" class="edge">
<title>Node13&#45;&gt;Node4</title>
<g id="a_edge18_Node000004_Node000013"><a xlink:title=" ">
<path fill="none" stroke="#9a32cd" stroke-dasharray="5,2" d="M135.02,-300.69C132.84,-285.86 132.01,-265.07 140,-249 143.73,-241.49 150.71,-235.48 157.37,-231.1"/>
<polygon fill="#9a32cd" stroke="#9a32cd" points="131.6,-301.47 136.81,-310.69 138.49,-300.23 131.6,-301.47"/>
</a>
</g>
<text text-anchor="middle" x="168" y="-268.5" font-family="Helvetica,sans-Serif" font-size="10.00" fill="grey"> m_magnet</text>
</g>
</g>
</svg>
