<?xml version="1.0" encoding="UTF-8" standalone="no"?>
<!DOCTYPE svg PUBLIC "-//W3C//DTD SVG 1.1//EN"
 "http://www.w3.org/Graphics/SVG/1.1/DTD/svg11.dtd">
<!-- Generated by graphviz version 2.43.0 (0)
 -->
<!-- Title: mpInfoLegend Pages: 1 -->
<svg width="750pt" height="338pt"
 viewBox="0.00 0.00 750.02 338.00" xmlns="http://www.w3.org/2000/svg" xmlns:xlink="http://www.w3.org/1999/xlink">
<g id="graph0" class="graph" transform="scale(1 1) rotate(0) translate(4 334)">
<title>mpInfoLegend</title>
<!-- Node1 -->
<g id="Node000001" class="node">
<title>Node1</title>
<g id="a_Node000001"><a xlink:title="Implement the legend to be added to the plot This layer allows you to add a legend to describe the pl...">
<polygon fill="#999999" stroke="#666666" points="150.02,-330 64.02,-330 64.02,-311 150.02,-311 150.02,-330"/>
<text text-anchor="middle" x="107.02" y="-318" font-family="Helvetica,sans-Serif" font-size="10.00">mpInfoLegend</text>
</a>
</g>
</g>
<!-- Node5 -->
<g id="Node000005" class="node">
<title>Node5</title>
<g id="a_Node000005"><a xlink:href="classmpWindow.html" target="_top" xlink:title=" ">
<polygon fill="white" stroke="#666666" points="431.52,-231 360.52,-231 360.52,-212 431.52,-212 431.52,-231"/>
<text text-anchor="middle" x="396.02" y="-219" font-family="Helvetica,sans-Serif" font-size="10.00">mpWindow</text>
</a>
</g>
</g>
<!-- Node1&#45;&gt;Node5 -->
<g id="edge15_Node000005_Node000001" class="edge">
<title>Node1&#45;&gt;Node5</title>
<g id="a_edge15_Node000005_Node000001"><a xlink:title=" ">
<path fill="none" stroke="#9a32cd" stroke-dasharray="5,2" d="M118.4,-302.39C130.54,-285.7 151.37,-261.11 176.02,-249 237.47,-218.81 261.05,-239.31 329.02,-231 339.14,-229.76 350.12,-228.38 360.21,-227.1"/>
<polygon fill="#9a32cd" stroke="#9a32cd" points="115.44,-300.52 112.59,-310.72 121.18,-304.52 115.44,-300.52"/>
</a>
</g>
<text text-anchor="middle" x="212.52" y="-268.5" font-family="Helvetica,sans-Serif" font-size="10.00" fill="grey"> m_InfoLegend</text>
</g>
<!-- Node2 -->
<g id="Node000002" class="node">
<title>Node2</title>
<g id="a_Node000002"><a xlink:href="classmpInfoLayer.html" target="_top" xlink:title="Base class to create small rectangular info boxes mpInfoLayer is the base class to create a small rec...">
<polygon fill="white" stroke="#666666" points="305.02,-92 227.02,-92 227.02,-73 305.02,-73 305.02,-92"/>
<text text-anchor="middle" x="266.02" y="-80" font-family="Helvetica,sans-Serif" font-size="10.00">mpInfoLayer</text>
</a>
</g>
</g>
<!-- Node2&#45;&gt;Node1 -->
<g id="edge1_Node000001_Node000002" class="edge">
<title>Node2&#45;&gt;Node1</title>
<g id="a_edge1_Node000001_Node000002"><a xlink:title=" ">
<path fill="none" stroke="#63b8ff" d="M242.33,-97.75C210.13,-118.51 153.45,-160.27 126.02,-212 108.35,-245.32 106.67,-291.8 106.79,-310.84"/>
<polygon fill="#63b8ff" stroke="#63b8ff" points="244.5,-100.52 251.09,-92.23 240.76,-94.6 244.5,-100.52"/>
</a>
</g>
</g>
<!-- Node2&#45;&gt;Node5 -->
<g id="edge12_Node000005_Node000002" class="edge">
<title>Node2&#45;&gt;Node5</title>
<g id="a_edge12_Node000005_Node000002"><a xlink:title=" ">
<path fill="none" stroke="#9a32cd" stroke-dasharray="5,2" d="M273.63,-101.84C281.58,-119.47 295.36,-146.14 313.02,-165 332.2,-185.5 360.34,-202.28 378.42,-211.84"/>
<polygon fill="#9a32cd" stroke="#9a32cd" points="276.63,-99.97 269.44,-92.19 270.21,-102.76 276.63,-99.97"/>
</a>
</g>
<text text-anchor="middle" x="363.52" y="-153" font-family="Helvetica,sans-Serif" font-size="10.00" fill="grey"> m_movingInfoLayer</text>
</g>
<!-- Node11 -->
<g id="Node000011" class="node">
<title>Node11</title>
<g id="a_Node000011"><a xlink:href="classmpInfoCoords.html" target="_top" xlink:title="Implements an overlay box which shows the mouse coordinates in plot units. When mouse is moved over t...">
<polygon fill="white" stroke="#666666" points="406.52,-19 321.52,-19 321.52,0 406.52,0 406.52,-19"/>
<text text-anchor="middle" x="364.02" y="-7" font-family="Helvetica,sans-Serif" font-size="10.00">mpInfoCoords</text>
</a>
</g>
</g>
<!-- Node2&#45;&gt;Node11 -->
<g id="edge14_Node000011_Node000002" class="edge">
<title>Node2&#45;&gt;Node11</title>
<g id="a_edge14_Node000011_Node000002"><a xlink:title=" ">
<path fill="none" stroke="#63b8ff" d="M286.15,-66.92C306.06,-52.49 335.85,-30.91 352.21,-19.06"/>
<polygon fill="#63b8ff" stroke="#63b8ff" points="284.08,-64.09 278.03,-72.79 288.18,-69.76 284.08,-64.09"/>
</a>
</g>
</g>
<!-- Node3 -->
<g id="Node000003" class="node">
<title>Node3</title>
<g id="a_Node000003"><a xlink:href="classmpLayer.html" target="_top" xlink:title=" ">
<polygon fill="white" stroke="#666666" points="262.52,-165 203.52,-165 203.52,-146 262.52,-146 262.52,-165"/>
<text text-anchor="middle" x="233.02" y="-153" font-family="Helvetica,sans-Serif" font-size="10.00">mpLayer</text>
</a>
</g>
</g>
<!-- Node3&#45;&gt;Node2 -->
<g id="edge2_Node000002_Node000003" class="edge">
<title>Node3&#45;&gt;Node2</title>
<g id="a_edge2_Node000002_Node000003"><a xlink:title=" ">
<path fill="none" stroke="#63b8ff" d="M241.36,-136.56C247.93,-122.4 256.82,-103.28 261.94,-92.28"/>
<polygon fill="#63b8ff" stroke="#63b8ff" points="238.1,-135.25 237.06,-145.79 244.45,-138.2 238.1,-135.25"/>
</a>
</g>
</g>
<!-- Node8 -->
<g id="Node000008" class="node">
<title>Node8</title>
<g id="a_Node000008"><a xlink:href="classmpScale.html" target="_top" xlink:title=" ">
<polygon fill="white" stroke="#666666" points="551.52,-92 492.52,-92 492.52,-73 551.52,-73 551.52,-92"/>
<text text-anchor="middle" x="522.02" y="-80" font-family="Helvetica,sans-Serif" font-size="10.00">mpScale</text>
</a>
</g>
</g>
<!-- Node3&#45;&gt;Node8 -->
<g id="edge8_Node000008_Node000003" class="edge">
<title>Node3&#45;&gt;Node8</title>
<g id="a_edge8_Node000008_Node000003"><a xlink:title=" ">
<path fill="none" stroke="#63b8ff" d="M272.58,-144.78C331.22,-130.37 439.9,-103.67 492.27,-90.81"/>
<polygon fill="#63b8ff" stroke="#63b8ff" points="271.46,-141.45 262.59,-147.24 273.13,-148.25 271.46,-141.45"/>
</a>
</g>
</g>
<!-- Node13 -->
<g id="Node000013" class="node">
<title>Node13</title>
<g id="a_Node000013"><a xlink:href="classmpFunction.html" target="_top" xlink:title=" ">
<polygon fill="white" stroke="#666666" points="108.02,-92 34.02,-92 34.02,-73 108.02,-73 108.02,-92"/>
<text text-anchor="middle" x="71.02" y="-80" font-family="Helvetica,sans-Serif" font-size="10.00">mpFunction</text>
</a>
</g>
</g>
<!-- Node3&#45;&gt;Node13 -->
<g id="edge19_Node000013_Node000003" class="edge">
<title>Node3&#45;&gt;Node13</title>
<g id="a_edge19_Node000013_Node000003"><a xlink:title=" ">
<path fill="none" stroke="#63b8ff" d="M203.99,-141.78C171.25,-127.43 118.88,-104.48 90.63,-92.09"/>
<polygon fill="#63b8ff" stroke="#63b8ff" points="202.91,-145.13 213.47,-145.94 205.72,-138.72 202.91,-145.13"/>
</a>
</g>
</g>
<!-- Node4 -->
<g id="Node000004" class="node">
<title>Node4</title>
<g id="a_Node000004"><a xlink:title=" ">
<polygon fill="white" stroke="#666666" points="197.02,-231 135.02,-231 135.02,-212 197.02,-212 197.02,-231"/>
<text text-anchor="middle" x="166.02" y="-219" font-family="Helvetica,sans-Serif" font-size="10.00">wxObject</text>
</a>
</g>
</g>
<!-- Node4&#45;&gt;Node3 -->
<g id="edge3_Node000003_Node000004" class="edge">
<title>Node4&#45;&gt;Node3</title>
<g id="a_edge3_Node000003_Node000004"><a xlink:title=" ">
<path fill="none" stroke="#63b8ff" d="M182.42,-204.83C195.39,-192.44 213.04,-175.59 223.69,-165.41"/>
<polygon fill="#63b8ff" stroke="#63b8ff" points="179.87,-202.43 175.05,-211.87 184.7,-207.49 179.87,-202.43"/>
</a>
</g>
</g>
<!-- Node5&#45;&gt;Node3 -->
<g id="edge4_Node000003_Node000005" class="edge">
<title>Node5&#45;&gt;Node3</title>
<g id="a_edge4_Node000003_Node000005"><a xlink:title=" ">
<path fill="none" stroke="#9a32cd" stroke-dasharray="5,2" d="M350.12,-214.15C319,-209.27 281.07,-202.02 267.02,-194 254.65,-186.95 244.32,-173.8 238.4,-165.1"/>
<polygon fill="#9a32cd" stroke="#9a32cd" points="349.95,-217.66 360.36,-215.71 351.01,-210.74 349.95,-217.66"/>
</a>
</g>
<text text-anchor="middle" x="285.02" y="-186" font-family="Helvetica,sans-Serif" font-size="10.00" fill="grey"> m_win</text>
</g>
<!-- Node6 -->
<g id="Node000006" class="node">
<title>Node6</title>
<g id="a_Node000006"><a xlink:title=" ">
<polygon fill="white" stroke="#666666" points="535.02,-330 465.02,-330 465.02,-311 535.02,-311 535.02,-330"/>
<text text-anchor="middle" x="500.02" y="-318" font-family="Helvetica,sans-Serif" font-size="10.00">wxWindow</text>
</a>
</g>
</g>
<!-- Node6&#45;&gt;Node5 -->
<g id="edge5_Node000005_Node000006" class="edge">
<title>Node6&#45;&gt;Node5</title>
<g id="a_edge5_Node000005_Node000006"><a xlink:title=" ">
<path fill="none" stroke="#63b8ff" d="M495.81,-300.71C491.38,-284.94 482.91,-262.84 468.02,-249 457.97,-239.66 444.35,-233.55 431.66,-229.58"/>
<polygon fill="#63b8ff" stroke="#63b8ff" points="492.53,-302.01 498.36,-310.86 499.32,-300.31 492.53,-302.01"/>
</a>
</g>
</g>
<!-- Node7 -->
<g id="Node000007" class="node">
<title>Node7</title>
<g id="a_Node000007"><a xlink:href="structmpAxisData.html" target="_top" xlink:title="Represents all the informations needed for plotting a layer in one direction (X or Y) This struct hol...">
<polygon fill="white" stroke="#666666" points="645.52,-19 568.52,-19 568.52,0 645.52,0 645.52,-19"/>
<text text-anchor="middle" x="607.02" y="-7" font-family="Helvetica,sans-Serif" font-size="10.00">mpAxisData</text>
</a>
</g>
</g>
<!-- Node7&#45;&gt;Node5 -->
<g id="edge6_Node000005_Node000007" class="edge">
<title>Node7&#45;&gt;Node5</title>
<g id="a_edge6_Node000005_Node000007"><a xlink:title=" ">
<path fill="none" stroke="#9a32cd" stroke-dasharray="5,2" d="M630.69,-24.77C644.38,-34.48 660.37,-48.71 668.02,-66 686.95,-108.82 669.25,-136.62 632.02,-165 572.43,-210.41 481.61,-219.51 431.8,-220.83"/>
<polygon fill="#9a32cd" stroke="#9a32cd" points="632.39,-21.7 622.13,-19.05 628.5,-27.52 632.39,-21.7"/>
</a>
</g>
<text text-anchor="middle" x="707.02" y="-120" font-family="Helvetica,sans-Serif" font-size="10.00" fill="grey"> m_AxisDataX</text>
</g>
<!-- Node8&#45;&gt;Node7 -->
<g id="edge7_Node000007_Node000008" class="edge">
<title>Node8&#45;&gt;Node7</title>
<g id="a_edge7_Node000007_Node000008"><a xlink:title=" ">
<path fill="none" stroke="#9a32cd" stroke-dasharray="5,2" d="M537.4,-65.82C546.33,-57.01 557.96,-46 569.02,-37 576.87,-30.6 586.2,-24.08 593.65,-19.11"/>
<polygon fill="#9a32cd" stroke="#9a32cd" points="534.92,-63.35 530.33,-72.9 539.87,-68.3 534.92,-63.35"/>
</a>
</g>
<text text-anchor="middle" x="581.02" y="-40" font-family="Helvetica,sans-Serif" font-size="10.00" fill="grey"> axis</text>
</g>
<!-- Node9 -->
<g id="Node000009" class="node">
<title>Node9</title>
<g id="a_Node000009"><a xlink:href="structmpRange.html" target="_top" xlink:title=" ">
<polygon fill="white" stroke="#666666" points="622.52,-165 503.52,-165 503.52,-146 622.52,-146 622.52,-165"/>
<text text-anchor="middle" x="563.02" y="-153" font-family="Helvetica,sans-Serif" font-size="10.00">mpRange&lt; double &gt;</text>
</a>
</g>
</g>
<!-- Node9&#45;&gt;Node7 -->
<g id="edge10_Node000007_Node000009" class="edge">
<title>Node9&#45;&gt;Node7</title>
<g id="a_edge10_Node000007_Node000009"><a xlink:title=" ">
<path fill="none" stroke="#9a32cd" stroke-dasharray="5,2" d="M584.38,-139.25C587.76,-135.91 590.85,-132.13 593.02,-128 612.29,-91.25 609.86,-39.34 607.98,-19.07"/>
<polygon fill="#9a32cd" stroke="#9a32cd" points="582.06,-136.63 576.76,-145.8 586.63,-141.93 582.06,-136.63"/>
</a>
</g>
<text text-anchor="middle" x="636.02" y="-91" font-family="Helvetica,sans-Serif" font-size="10.00" fill="grey"> bound</text>
<text text-anchor="middle" x="636.02" y="-80" font-family="Helvetica,sans-Serif" font-size="10.00" fill="grey">desired</text>
<text text-anchor="middle" x="636.02" y="-69" font-family="Helvetica,sans-Serif" font-size="10.00" fill="grey">lastDesired</text>
</g>
<!-- Node9&#45;&gt;Node8 -->
<g id="edge9_Node000008_Node000009" class="edge">
<title>Node9&#45;&gt;Node8</title>
<g id="a_edge9_Node000008_Node000009"><a xlink:title=" ">
<path fill="none" stroke="#9a32cd" stroke-dasharray="5,2" d="M533.73,-140.11C529.45,-136.73 525.61,-132.71 523.02,-128 516.89,-116.9 518.21,-101.76 519.94,-92.31"/>
<polygon fill="#9a32cd" stroke="#9a32cd" points="532.04,-143.19 542.3,-145.83 535.93,-137.37 532.04,-143.19"/>
</a>
</g>
<text text-anchor="middle" x="558.02" y="-120" font-family="Helvetica,sans-Serif" font-size="10.00" fill="grey"> m_axisRange</text>
</g>
<!-- Node10 -->
<g id="Node000010" class="node">
<title>Node10</title>
<g id="a_Node000010"><a xlink:href="structmpRect.html" target="_top" xlink:title="A rectangle structure in several (integer) flavors.">
<polygon fill="white" stroke="#666666" points="276.02,-330 222.02,-330 222.02,-311 276.02,-311 276.02,-330"/>
<text text-anchor="middle" x="249.02" y="-318" font-family="Helvetica,sans-Serif" font-size="10.00">mpRect</text>
</a>
</g>
</g>
<!-- Node10&#45;&gt;Node3 -->
<g id="edge17_Node000003_Node000010" class="edge">
<title>Node10&#45;&gt;Node3</title>
<g id="a_edge17_Node000003_Node000010"><a xlink:title=" ">
<path fill="none" stroke="#9a32cd" stroke-dasharray="5,2" d="M247.14,-300.37C243.67,-265.03 236.38,-190.79 233.88,-165.31"/>
<polygon fill="#9a32cd" stroke="#9a32cd" points="243.7,-301.13 248.16,-310.74 250.66,-300.44 243.7,-301.13"/>
</a>
</g>
<text text-anchor="middle" x="287.02" y="-219" font-family="Helvetica,sans-Serif" font-size="10.00" fill="grey"> m_plotBoundaries</text>
</g>
<!-- Node10&#45;&gt;Node5 -->
<g id="edge11_Node000005_Node000010" class="edge">
<title>Node10&#45;&gt;Node5</title>
<g id="a_edge11_Node000005_Node000010"><a xlink:title=" ">
<path fill="none" stroke="#9a32cd" stroke-dasharray="5,2" d="M250.74,-300.28C253.22,-284.24 259.27,-261.98 274.02,-249 286.66,-237.86 328.96,-230.48 360.22,-226.4"/>
<polygon fill="#9a32cd" stroke="#9a32cd" points="247.22,-300.29 249.49,-310.63 254.16,-301.13 247.22,-300.29"/>
</a>
</g>
<text text-anchor="middle" x="335.52" y="-285" font-family="Helvetica,sans-Serif" font-size="10.00" fill="grey"> m_margin</text>
<text text-anchor="middle" x="335.52" y="-274" font-family="Helvetica,sans-Serif" font-size="10.00" fill="grey">m_marginOuter</text>
<text text-anchor="middle" x="335.52" y="-263" font-family="Helvetica,sans-Serif" font-size="10.00" fill="grey">m_plotBoundaries</text>
<text text-anchor="middle" x="335.52" y="-252" font-family="Helvetica,sans-Serif" font-size="10.00" fill="grey">m_plotBoundariesMargin</text>
</g>
<!-- Node11&#45;&gt;Node5 -->
<g id="edge13_Node000005_Node000011" class="edge">
<title>Node11&#45;&gt;Node5</title>
<g id="a_edge13_Node000005_Node000011"><a xlink:title=" ">
<path fill="none" stroke="#9a32cd" stroke-dasharray="5,2" d="M372.84,-28.16C384.96,-53.49 406.15,-101.96 414.02,-146 418.32,-170.1 407.14,-198.04 400.51,-211.86"/>
<polygon fill="#9a32cd" stroke="#9a32cd" points="375.94,-26.53 368.41,-19.08 369.65,-29.6 375.94,-26.53"/>
</a>
</g>
<text text-anchor="middle" x="445.52" y="-120" font-family="Helvetica,sans-Serif" font-size="10.00" fill="grey"> m_InfoCoords</text>
</g>
<!-- Node12 -->
<g id="Node000012" class="node">
<title>Node12</title>
<g id="a_Node000012"><a xlink:href="classmpMagnet.html" target="_top" xlink:title=" ">
<polygon fill="white" stroke="#666666" points="446.52,-330 377.52,-330 377.52,-311 446.52,-311 446.52,-330"/>
<text text-anchor="middle" x="412.02" y="-318" font-family="Helvetica,sans-Serif" font-size="10.00">mpMagnet</text>
</a>
</g>
</g>
<!-- Node12&#45;&gt;Node5 -->
<g id="edge16_Node000005_Node000012" class="edge">
<title>Node12&#45;&gt;Node5</title>
<g id="a_edge16_Node000005_Node000012"><a xlink:title=" ">
<path fill="none" stroke="#9a32cd" stroke-dasharray="5,2" d="M408.96,-300.97C405.51,-280.05 400.04,-246.88 397.46,-231.23"/>
<polygon fill="#9a32cd" stroke="#9a32cd" points="405.52,-301.59 410.6,-310.89 412.42,-300.46 405.52,-301.59"/>
</a>
</g>
<text text-anchor="middle" x="436.02" y="-268.5" font-family="Helvetica,sans-Serif" font-size="10.00" fill="grey"> m_magnet</text>
</g>
<!-- Node13&#45;&gt;Node1 -->
<g id="edge18_Node000001_Node000013" class="edge">
<title>Node13&#45;&gt;Node1</title>
<g id="a_edge18_Node000001_Node000013"><a xlink:title=" ">
<path fill="none" stroke="#9a32cd" stroke-dasharray="5,2" d="M51.02,-98.44C26.47,-118.75 -10.38,-156.85 3.02,-194 21.92,-246.44 73.32,-292.49 96,-310.93"/>
<polygon fill="#9a32cd" stroke="#9a32cd" points="53.44,-100.98 59.09,-92.02 49.09,-95.5 53.44,-100.98"/>
</a>
</g>
<text text-anchor="middle" x="48.02" y="-186" font-family="Helvetica,sans-Serif" font-size="10.00" fill="grey"> m_selectedSeries</text>
</g>
</g>
</svg>
