<?xml version="1.0" encoding="UTF-8" standalone="no"?>
<!DOCTYPE svg PUBLIC "-//W3C//DTD SVG 1.1//EN"
 "http://www.w3.org/Graphics/SVG/1.1/DTD/svg11.dtd">
<!-- Generated by graphviz version 2.43.0 (0)
 -->
<!-- Title: mpFX Pages: 1 -->
<svg width="172pt" height="302pt"
 viewBox="0.00 0.00 171.50 302.00" xmlns="http://www.w3.org/2000/svg" xmlns:xlink="http://www.w3.org/1999/xlink">
<g id="graph0" class="graph" transform="scale(1 1) rotate(0) translate(4 298)">
<title>mpFX</title>
<!-- Node1 -->
<g id="Node000001" class="node">
<title>Node1</title>
<g id="a_Node000001"><a xlink:title="Abstract base class providing plot and labeling functionality for functions F:X&#45;&gt;Y.">
<polygon fill="#999999" stroke="#666666" points="106,-129 61,-129 61,-110 106,-110 106,-129"/>
<text text-anchor="middle" x="83.5" y="-117" font-family="Helvetica,sans-Serif" font-size="10.00">mpFX</text>
</a>
</g>
</g>
<!-- Node5 -->
<g id="Node000005" class="node">
<title>Node5</title>
<g id="a_Node000005"><a xlink:href="classmp_f_x_generic.html" target="_top" xlink:title="Create a generic FX function Override the ComputeY() function with your function.">
<polygon fill="white" stroke="#666666" points="125,-74 42,-74 42,-55 125,-55 125,-74"/>
<text text-anchor="middle" x="83.5" y="-62" font-family="Helvetica,sans-Serif" font-size="10.00">mpFXGeneric</text>
</a>
</g>
</g>
<!-- Node1&#45;&gt;Node5 -->
<g id="edge4_Node000001_Node000005" class="edge">
<title>Node1&#45;&gt;Node5</title>
<g id="a_edge4_Node000001_Node000005"><a xlink:title=" ">
<path fill="none" stroke="#63b8ff" d="M83.5,-99.66C83.5,-90.93 83.5,-80.99 83.5,-74.09"/>
<polygon fill="#63b8ff" stroke="#63b8ff" points="80,-99.75 83.5,-109.75 87,-99.75 80,-99.75"/>
</a>
</g>
</g>
<!-- Node2 -->
<g id="Node000002" class="node">
<title>Node2</title>
<g id="a_Node000002"><a xlink:href="classmp_function.html" target="_top" xlink:title="Plot layer implementing an abstract function plot class.">
<polygon fill="white" stroke="#666666" points="120.5,-184 46.5,-184 46.5,-165 120.5,-165 120.5,-184"/>
<text text-anchor="middle" x="83.5" y="-172" font-family="Helvetica,sans-Serif" font-size="10.00">mpFunction</text>
</a>
</g>
</g>
<!-- Node2&#45;&gt;Node1 -->
<g id="edge1_Node000001_Node000002" class="edge">
<title>Node2&#45;&gt;Node1</title>
<g id="a_edge1_Node000001_Node000002"><a xlink:title=" ">
<path fill="none" stroke="#63b8ff" d="M83.5,-154.66C83.5,-145.93 83.5,-135.99 83.5,-129.09"/>
<polygon fill="#63b8ff" stroke="#63b8ff" points="80,-154.75 83.5,-164.75 87,-154.75 80,-154.75"/>
</a>
</g>
</g>
<!-- Node3 -->
<g id="Node000003" class="node">
<title>Node3</title>
<g id="a_Node000003"><a xlink:href="classmp_layer.html" target="_top" xlink:title="Plot layer, abstract base class.">
<polygon fill="white" stroke="#666666" points="113,-239 54,-239 54,-220 113,-220 113,-239"/>
<text text-anchor="middle" x="83.5" y="-227" font-family="Helvetica,sans-Serif" font-size="10.00">mpLayer</text>
</a>
</g>
</g>
<!-- Node3&#45;&gt;Node2 -->
<g id="edge2_Node000002_Node000003" class="edge">
<title>Node3&#45;&gt;Node2</title>
<g id="a_edge2_Node000002_Node000003"><a xlink:title=" ">
<path fill="none" stroke="#63b8ff" d="M83.5,-209.66C83.5,-200.93 83.5,-190.99 83.5,-184.09"/>
<polygon fill="#63b8ff" stroke="#63b8ff" points="80,-209.75 83.5,-219.75 87,-209.75 80,-209.75"/>
</a>
</g>
</g>
<!-- Node4 -->
<g id="Node000004" class="node">
<title>Node4</title>
<g id="a_Node000004"><a xlink:title=" ">
<polygon fill="white" stroke="#bfbfbf" points="114.5,-294 52.5,-294 52.5,-275 114.5,-275 114.5,-294"/>
<text text-anchor="middle" x="83.5" y="-282" font-family="Helvetica,sans-Serif" font-size="10.00">wxObject</text>
</a>
</g>
</g>
<!-- Node4&#45;&gt;Node3 -->
<g id="edge3_Node000003_Node000004" class="edge">
<title>Node4&#45;&gt;Node3</title>
<g id="a_edge3_Node000003_Node000004"><a xlink:title=" ">
<path fill="none" stroke="#63b8ff" d="M83.5,-264.66C83.5,-255.93 83.5,-245.99 83.5,-239.09"/>
<polygon fill="#63b8ff" stroke="#63b8ff" points="80,-264.75 83.5,-274.75 87,-264.75 80,-264.75"/>
</a>
</g>
</g>
<!-- Node6 -->
<g id="Node000006" class="node">
<title>Node6</title>
<g id="a_Node000006"><a xlink:href="classmp_gaussian.html" target="_top" xlink:title="Classic Gaussian distribution f(x) = exp(&#45;(x&#45;μ)²/2σ²)/sqrt(2πσ²)">
<polygon fill="white" stroke="#666666" points="77,-19 0,-19 0,0 77,0 77,-19"/>
<text text-anchor="middle" x="38.5" y="-7" font-family="Helvetica,sans-Serif" font-size="10.00">mpGaussian</text>
</a>
</g>
</g>
<!-- Node5&#45;&gt;Node6 -->
<g id="edge5_Node000005_Node000006" class="edge">
<title>Node5&#45;&gt;Node6</title>
<g id="a_edge5_Node000005_Node000006"><a xlink:title=" ">
<path fill="none" stroke="#63b8ff" d="M69.45,-46.96C61.61,-37.72 52.17,-26.6 45.79,-19.09"/>
<polygon fill="#63b8ff" stroke="#63b8ff" points="66.93,-49.39 76.07,-54.75 72.26,-44.86 66.93,-49.39"/>
</a>
</g>
</g>
<!-- Node7 -->
<g id="Node000007" class="node">
<title>Node7</title>
<g id="a_Node000007"><a xlink:href="classmp_normal.html" target="_top" xlink:title="Classic Normal distribution f(x) = exp(&#45;(ln(x)&#45;μ)²/2σ²)/(xσ.sqrt(2π))">
<polygon fill="white" stroke="#666666" points="163.5,-19 95.5,-19 95.5,0 163.5,0 163.5,-19"/>
<text text-anchor="middle" x="129.5" y="-7" font-family="Helvetica,sans-Serif" font-size="10.00">mpNormal</text>
</a>
</g>
</g>
<!-- Node5&#45;&gt;Node7 -->
<g id="edge6_Node000005_Node000007" class="edge">
<title>Node5&#45;&gt;Node7</title>
<g id="a_edge6_Node000005_Node000007"><a xlink:title=" ">
<path fill="none" stroke="#63b8ff" d="M97.86,-46.96C105.87,-37.72 115.53,-26.6 122.05,-19.09"/>
<polygon fill="#63b8ff" stroke="#63b8ff" points="95.01,-44.9 91.1,-54.75 100.29,-49.49 95.01,-44.9"/>
</a>
</g>
</g>
</g>
</svg>
