<?xml version="1.0" encoding="UTF-8" standalone="no"?>
<!DOCTYPE svg PUBLIC "-//W3C//DTD SVG 1.1//EN"
 "http://www.w3.org/Graphics/SVG/1.1/DTD/svg11.dtd">
<!-- Generated by graphviz version 2.43.0 (0)
 -->
<!-- Title: Graphical Class Hierarchy Pages: 1 -->
<svg width="231pt" height="64pt"
 viewBox="0.00 0.00 231.00 64.00" xmlns="http://www.w3.org/2000/svg" xmlns:xlink="http://www.w3.org/1999/xlink">
<g id="graph0" class="graph" transform="scale(1 1) rotate(0) translate(4 60)">
<title>Graphical Class Hierarchy</title>
<!-- Node0 -->
<g id="Node000000" class="node">
<title>Node0</title>
<g id="a_Node000000"><a xlink:title=" ">
<polygon fill="#e0e0e0" stroke="#999999" points="62,-37 0,-37 0,-18 62,-18 62,-37"/>
<text text-anchor="middle" x="31" y="-25" font-family="Helvetica,sans-Serif" font-size="10.00">wxDialog</text>
</a>
</g>
</g>
<!-- Node1 -->
<g id="Node000001" class="node">
<title>Node1</title>
<g id="a_Node000001"><a xlink:href="class_math_plot_config_dialog.html" target="_top" xlink:title="Dialog box for configuring the plot&#39;s layer objects In this dialog, you can configure:">
<polygon fill="white" stroke="#666666" points="221.5,-56 99.5,-56 99.5,-37 221.5,-37 221.5,-56"/>
<text text-anchor="middle" x="160.5" y="-44" font-family="Helvetica,sans-Serif" font-size="10.00">MathPlotConfigDialog</text>
</a>
</g>
</g>
<!-- Node0&#45;&gt;Node1 -->
<g id="edge2_Node000000_Node000001" class="edge">
<title>Node0&#45;&gt;Node1</title>
<g id="a_edge2_Node000000_Node000001"><a xlink:title=" ">
<path fill="none" stroke="#63b8ff" d="M72.35,-33.51C80.98,-34.8 90.26,-36.18 99.45,-37.55"/>
<polygon fill="#63b8ff" stroke="#63b8ff" points="72.62,-30.01 62.22,-32 71.59,-36.94 72.62,-30.01"/>
</a>
</g>
</g>
<!-- Node2 -->
<g id="Node000002" class="node">
<title>Node2</title>
<g id="a_Node000002"><a xlink:href="classwx_multi_text_ctrl_dialog.html" target="_top" xlink:title="wxMultiTextCtrlDialog class A simple text control dialog window that support several text control">
<polygon fill="white" stroke="#666666" points="223,-19 98,-19 98,0 223,0 223,-19"/>
<text text-anchor="middle" x="160.5" y="-7" font-family="Helvetica,sans-Serif" font-size="10.00">wxMultiTextCtrlDialog</text>
</a>
</g>
</g>
<!-- Node0&#45;&gt;Node2 -->
<g id="edge3_Node000000_Node000002" class="edge">
<title>Node0&#45;&gt;Node2</title>
<g id="a_edge3_Node000000_Node000002"><a xlink:title=" ">
<path fill="none" stroke="#63b8ff" d="M72.21,-21.82C80.4,-20.67 89.18,-19.43 97.92,-18.19"/>
<polygon fill="#63b8ff" stroke="#63b8ff" points="71.63,-18.37 62.22,-23.23 72.61,-25.3 71.63,-18.37"/>
</a>
</g>
</g>
</g>
</svg>
