<?xml version="1.0" encoding="UTF-8" standalone="no"?>
<!DOCTYPE svg PUBLIC "-//W3C//DTD SVG 1.1//EN"
 "http://www.w3.org/Graphics/SVG/1.1/DTD/svg11.dtd">
<!-- Generated by graphviz version 2.43.0 (0)
 -->
<!-- Title: mathplot/mathplot.h Pages: 1 -->
<svg width="1579pt" height="82pt"
 viewBox="0.00 0.00 1579.00 82.00" xmlns="http://www.w3.org/2000/svg" xmlns:xlink="http://www.w3.org/1999/xlink">
<g id="graph0" class="graph" transform="scale(1 1) rotate(0) translate(4 78)">
<title>mathplot/mathplot.h</title>
<!-- Node1 -->
<g id="Node000001" class="node">
<title>Node1</title>
<g id="a_Node000001"><a xlink:title=" ">
<polygon fill="#999999" stroke="#666666" points="840.5,-74 723.5,-74 723.5,-55 840.5,-55 840.5,-74"/>
<text text-anchor="middle" x="782" y="-62" font-family="Helvetica,sans-Serif" font-size="10.00">mathplot/mathplot.h</text>
</a>
</g>
</g>
<!-- Node2 -->
<g id="Node000002" class="node">
<title>Node2</title>
<g id="a_Node000002"><a xlink:title=" ">
<polygon fill="#e0e0e0" stroke="#999999" points="52,-19 0,-19 0,0 52,0 52,-19"/>
<text text-anchor="middle" x="26" y="-7" font-family="Helvetica,sans-Serif" font-size="10.00">cassert</text>
</a>
</g>
</g>
<!-- Node1&#45;&gt;Node2 -->
<g id="edge1_Node000001_Node000002" class="edge">
<title>Node1&#45;&gt;Node2</title>
<g id="a_edge1_Node000001_Node000002"><a xlink:title=" ">
<path fill="none" stroke="#63b8ff" d="M723.22,-63.38C601.44,-62.36 312.72,-56.03 62.29,-18.91"/>
<polygon fill="#63b8ff" stroke="#63b8ff" points="62.68,-15.43 52.27,-17.41 61.64,-22.35 62.68,-15.43"/>
</a>
</g>
</g>
<!-- Node3 -->
<g id="Node000003" class="node">
<title>Node3</title>
<g id="a_Node000003"><a xlink:title=" ">
<polygon fill="#e0e0e0" stroke="#999999" points="117.5,-19 70.5,-19 70.5,0 117.5,0 117.5,-19"/>
<text text-anchor="middle" x="94" y="-7" font-family="Helvetica,sans-Serif" font-size="10.00">vector</text>
</a>
</g>
</g>
<!-- Node1&#45;&gt;Node3 -->
<g id="edge2_Node000001_Node000003" class="edge">
<title>Node1&#45;&gt;Node3</title>
<g id="a_edge2_Node000001_Node000003"><a xlink:title=" ">
<path fill="none" stroke="#63b8ff" d="M723.32,-63.13C609.9,-61.62 352.69,-54.39 127.7,-18.76"/>
<polygon fill="#63b8ff" stroke="#63b8ff" points="128.11,-15.29 117.68,-17.16 127,-22.2 128.11,-15.29"/>
</a>
</g>
</g>
<!-- Node4 -->
<g id="Node000004" class="node">
<title>Node4</title>
<g id="a_Node000004"><a xlink:title=" ">
<polygon fill="#e0e0e0" stroke="#999999" points="174,-19 136,-19 136,0 174,0 174,-19"/>
<text text-anchor="middle" x="155" y="-7" font-family="Helvetica,sans-Serif" font-size="10.00">map</text>
</a>
</g>
</g>
<!-- Node1&#45;&gt;Node4 -->
<g id="edge3_Node000001_Node000004" class="edge">
<title>Node1&#45;&gt;Node4</title>
<g id="a_edge3_Node000001_Node000004"><a xlink:title=" ">
<path fill="none" stroke="#63b8ff" d="M723.2,-63.41C616.98,-62.32 386.13,-55.7 184.05,-18.76"/>
<polygon fill="#63b8ff" stroke="#63b8ff" points="184.61,-15.3 174.14,-16.92 183.33,-22.19 184.61,-15.3"/>
</a>
</g>
</g>
<!-- Node5 -->
<g id="Node000005" class="node">
<title>Node5</title>
<g id="a_Node000005"><a xlink:title=" ">
<polygon fill="#e0e0e0" stroke="#999999" points="285.5,-19 192.5,-19 192.5,0 285.5,0 285.5,-19"/>
<text text-anchor="middle" x="239" y="-7" font-family="Helvetica,sans-Serif" font-size="10.00">unordered_map</text>
</a>
</g>
</g>
<!-- Node1&#45;&gt;Node5 -->
<g id="edge4_Node000001_Node000005" class="edge">
<title>Node1&#45;&gt;Node5</title>
<g id="a_edge4_Node000001_Node000005"><a xlink:title=" ">
<path fill="none" stroke="#63b8ff" d="M723.41,-59.28C633.7,-52.57 456.69,-38.33 295.81,-19.02"/>
<polygon fill="#63b8ff" stroke="#63b8ff" points="296.07,-15.53 285.72,-17.8 295.23,-22.48 296.07,-15.53"/>
</a>
</g>
</g>
<!-- Node6 -->
<g id="Node000006" class="node">
<title>Node6</title>
<g id="a_Node000006"><a xlink:title=" ">
<polygon fill="#e0e0e0" stroke="#999999" points="360,-19 304,-19 304,0 360,0 360,-19"/>
<text text-anchor="middle" x="332" y="-7" font-family="Helvetica,sans-Serif" font-size="10.00">optional</text>
</a>
</g>
</g>
<!-- Node1&#45;&gt;Node6 -->
<g id="edge5_Node000001_Node000006" class="edge">
<title>Node1&#45;&gt;Node6</title>
<g id="a_edge5_Node000001_Node000006"><a xlink:title=" ">
<path fill="none" stroke="#63b8ff" d="M723.22,-59.37C644.9,-53.38 501.84,-40.74 370.46,-19.06"/>
<polygon fill="#63b8ff" stroke="#63b8ff" points="370.65,-15.54 360.21,-17.34 369.5,-22.45 370.65,-15.54"/>
</a>
</g>
</g>
<!-- Node7 -->
<g id="Node000007" class="node">
<title>Node7</title>
<g id="a_Node000007"><a xlink:title=" ">
<polygon fill="#e0e0e0" stroke="#999999" points="442,-19 378,-19 378,0 442,0 442,-19"/>
<text text-anchor="middle" x="410" y="-7" font-family="Helvetica,sans-Serif" font-size="10.00">wx/defs.h</text>
</a>
</g>
</g>
<!-- Node1&#45;&gt;Node7 -->
<g id="edge6_Node000001_Node000007" class="edge">
<title>Node1&#45;&gt;Node7</title>
<g id="a_edge6_Node000001_Node000007"><a xlink:title=" ">
<path fill="none" stroke="#63b8ff" d="M723.21,-56.87C659.03,-49.35 552.99,-36.08 452.23,-19.11"/>
<polygon fill="#63b8ff" stroke="#63b8ff" points="452.63,-15.62 442.19,-17.4 451.46,-22.52 452.63,-15.62"/>
</a>
</g>
</g>
<!-- Node8 -->
<g id="Node000008" class="node">
<title>Node8</title>
<g id="a_Node000008"><a xlink:title=" ">
<polygon fill="#e0e0e0" stroke="#999999" points="531.5,-19 460.5,-19 460.5,0 531.5,0 531.5,-19"/>
<text text-anchor="middle" x="496" y="-7" font-family="Helvetica,sans-Serif" font-size="10.00">wx/menu.h</text>
</a>
</g>
</g>
<!-- Node1&#45;&gt;Node8 -->
<g id="edge7_Node000001_Node000008" class="edge">
<title>Node1&#45;&gt;Node8</title>
<g id="a_edge7_Node000001_Node000008"><a xlink:title=" ">
<path fill="none" stroke="#63b8ff" d="M734.68,-54.93C688.07,-46.46 614.56,-33.02 541.8,-19.33"/>
<polygon fill="#63b8ff" stroke="#63b8ff" points="542.01,-15.81 531.54,-17.39 540.72,-22.68 542.01,-15.81"/>
</a>
</g>
</g>
<!-- Node9 -->
<g id="Node000009" class="node">
<title>Node9</title>
<g id="a_Node000009"><a xlink:title=" ">
<polygon fill="#e0e0e0" stroke="#999999" points="632.5,-19 549.5,-19 549.5,0 632.5,0 632.5,-19"/>
<text text-anchor="middle" x="591" y="-7" font-family="Helvetica,sans-Serif" font-size="10.00">wx/scrolwin.h</text>
</a>
</g>
</g>
<!-- Node1&#45;&gt;Node9 -->
<g id="edge8_Node000001_Node000009" class="edge">
<title>Node1&#45;&gt;Node9</title>
<g id="a_edge8_Node000001_Node000009"><a xlink:title=" ">
<path fill="none" stroke="#63b8ff" d="M751.31,-54.98C718.83,-45.97 667.4,-31.7 631.59,-21.76"/>
<polygon fill="#63b8ff" stroke="#63b8ff" points="632.5,-18.38 621.93,-19.08 630.63,-25.13 632.5,-18.38"/>
</a>
</g>
</g>
<!-- Node10 -->
<g id="Node000010" class="node">
<title>Node10</title>
<g id="a_Node000010"><a xlink:title=" ">
<polygon fill="#e0e0e0" stroke="#999999" points="721.5,-19 650.5,-19 650.5,0 721.5,0 721.5,-19"/>
<text text-anchor="middle" x="686" y="-7" font-family="Helvetica,sans-Serif" font-size="10.00">wx/event.h</text>
</a>
</g>
</g>
<!-- Node1&#45;&gt;Node10 -->
<g id="edge9_Node000001_Node000010" class="edge">
<title>Node1&#45;&gt;Node10</title>
<g id="a_edge9_Node000001_Node000010"><a xlink:title=" ">
<path fill="none" stroke="#63b8ff" d="M766.58,-54.98C751.55,-46.69 728.46,-33.94 710.84,-24.22"/>
<polygon fill="#63b8ff" stroke="#63b8ff" points="712.15,-20.94 701.7,-19.17 708.77,-27.07 712.15,-20.94"/>
</a>
</g>
</g>
<!-- Node11 -->
<g id="Node000011" class="node">
<title>Node11</title>
<g id="a_Node000011"><a xlink:title=" ">
<polygon fill="#e0e0e0" stroke="#999999" points="824.5,-19 739.5,-19 739.5,0 824.5,0 824.5,-19"/>
<text text-anchor="middle" x="782" y="-7" font-family="Helvetica,sans-Serif" font-size="10.00">wx/dynarray.h</text>
</a>
</g>
</g>
<!-- Node1&#45;&gt;Node11 -->
<g id="edge10_Node000001_Node000011" class="edge">
<title>Node1&#45;&gt;Node11</title>
<g id="a_edge10_Node000001_Node000011"><a xlink:title=" ">
<path fill="none" stroke="#63b8ff" d="M782,-54.75C782,-47.8 782,-37.85 782,-29.13"/>
<polygon fill="#63b8ff" stroke="#63b8ff" points="785.5,-29.09 782,-19.09 778.5,-29.09 785.5,-29.09"/>
</a>
</g>
</g>
<!-- Node12 -->
<g id="Node000012" class="node">
<title>Node12</title>
<g id="a_Node000012"><a xlink:title=" ">
<polygon fill="#e0e0e0" stroke="#999999" points="903.5,-19 842.5,-19 842.5,0 903.5,0 903.5,-19"/>
<text text-anchor="middle" x="873" y="-7" font-family="Helvetica,sans-Serif" font-size="10.00">wx/pen.h</text>
</a>
</g>
</g>
<!-- Node1&#45;&gt;Node12 -->
<g id="edge11_Node000001_Node000012" class="edge">
<title>Node1&#45;&gt;Node12</title>
<g id="a_edge11_Node000001_Node000012"><a xlink:title=" ">
<path fill="none" stroke="#63b8ff" d="M796.62,-54.98C810.86,-46.69 832.75,-33.94 849.45,-24.22"/>
<polygon fill="#63b8ff" stroke="#63b8ff" points="851.23,-27.23 858.11,-19.17 847.71,-21.18 851.23,-27.23"/>
</a>
</g>
</g>
<!-- Node13 -->
<g id="Node000013" class="node">
<title>Node13</title>
<g id="a_Node000013"><a xlink:title=" ">
<polygon fill="#e0e0e0" stroke="#999999" points="1016,-19 922,-19 922,0 1016,0 1016,-19"/>
<text text-anchor="middle" x="969" y="-7" font-family="Helvetica,sans-Serif" font-size="10.00">wx/dcmemory.h</text>
</a>
</g>
</g>
<!-- Node1&#45;&gt;Node13 -->
<g id="edge12_Node000001_Node000013" class="edge">
<title>Node1&#45;&gt;Node13</title>
<g id="a_edge12_Node000001_Node000013"><a xlink:title=" ">
<path fill="none" stroke="#63b8ff" d="M812.04,-54.98C843.71,-46.01 893.77,-31.82 928.81,-21.89"/>
<polygon fill="#63b8ff" stroke="#63b8ff" points="930.05,-25.18 938.72,-19.08 928.14,-18.44 930.05,-25.18"/>
</a>
</g>
</g>
<!-- Node14 -->
<g id="Node000014" class="node">
<title>Node14</title>
<g id="a_Node000014"><a xlink:title=" ">
<polygon fill="#e0e0e0" stroke="#999999" points="1105.5,-19 1034.5,-19 1034.5,0 1105.5,0 1105.5,-19"/>
<text text-anchor="middle" x="1070" y="-7" font-family="Helvetica,sans-Serif" font-size="10.00">wx/string.h</text>
</a>
</g>
</g>
<!-- Node1&#45;&gt;Node14 -->
<g id="edge13_Node000001_Node000014" class="edge">
<title>Node1&#45;&gt;Node14</title>
<g id="a_edge13_Node000001_Node000014"><a xlink:title=" ">
<path fill="none" stroke="#63b8ff" d="M829.05,-54.96C875.91,-46.44 950.18,-32.89 1024.18,-19.14"/>
<polygon fill="#63b8ff" stroke="#63b8ff" points="1024.95,-22.56 1034.14,-17.29 1023.67,-15.68 1024.95,-22.56"/>
</a>
</g>
</g>
<!-- Node15 -->
<g id="Node000015" class="node">
<title>Node15</title>
<g id="a_Node000015"><a xlink:title=" ">
<polygon fill="#e0e0e0" stroke="#999999" points="1188.5,-19 1123.5,-19 1123.5,0 1188.5,0 1188.5,-19"/>
<text text-anchor="middle" x="1156" y="-7" font-family="Helvetica,sans-Serif" font-size="10.00">wx/print.h</text>
</a>
</g>
</g>
<!-- Node1&#45;&gt;Node15 -->
<g id="edge14_Node000001_Node000015" class="edge">
<title>Node1&#45;&gt;Node15</title>
<g id="a_edge14_Node000001_Node000015"><a xlink:title=" ">
<path fill="none" stroke="#63b8ff" d="M840.54,-56.96C905.05,-49.47 1012.09,-36.19 1113.28,-19.2"/>
<polygon fill="#63b8ff" stroke="#63b8ff" points="1114.09,-22.61 1123.37,-17.49 1112.92,-15.71 1114.09,-22.61"/>
</a>
</g>
</g>
<!-- Node16 -->
<g id="Node000016" class="node">
<title>Node16</title>
<g id="a_Node000016"><a xlink:title=" ">
<polygon fill="#e0e0e0" stroke="#999999" points="1281,-19 1207,-19 1207,0 1281,0 1281,-19"/>
<text text-anchor="middle" x="1244" y="-7" font-family="Helvetica,sans-Serif" font-size="10.00">wx/image.h</text>
</a>
</g>
</g>
<!-- Node1&#45;&gt;Node16 -->
<g id="edge15_Node000001_Node000016" class="edge">
<title>Node1&#45;&gt;Node16</title>
<g id="a_edge15_Node000001_Node000016"><a xlink:title=" ">
<path fill="none" stroke="#63b8ff" d="M840.74,-58.64C919.49,-51.8 1063.87,-38.17 1196.92,-19.05"/>
<polygon fill="#63b8ff" stroke="#63b8ff" points="1197.49,-22.51 1206.88,-17.61 1196.48,-15.58 1197.49,-22.51"/>
</a>
</g>
</g>
<!-- Node17 -->
<g id="Node000017" class="node">
<title>Node17</title>
<g id="a_Node000017"><a xlink:title=" ">
<polygon fill="#e0e0e0" stroke="#999999" points="1358.5,-19 1299.5,-19 1299.5,0 1358.5,0 1358.5,-19"/>
<text text-anchor="middle" x="1329" y="-7" font-family="Helvetica,sans-Serif" font-size="10.00">wx/intl.h</text>
</a>
</g>
</g>
<!-- Node1&#45;&gt;Node17 -->
<g id="edge16_Node000001_Node000017" class="edge">
<title>Node1&#45;&gt;Node17</title>
<g id="a_edge16_Node000001_Node000017"><a xlink:title=" ">
<path fill="none" stroke="#63b8ff" d="M840.57,-60.79C933.56,-55.97 1120.8,-44.08 1289.22,-18.91"/>
<polygon fill="#63b8ff" stroke="#63b8ff" points="1289.9,-22.35 1299.26,-17.39 1288.85,-15.43 1289.9,-22.35"/>
</a>
</g>
</g>
<!-- Node18 -->
<g id="Node000018" class="node">
<title>Node18</title>
<g id="a_Node000018"><a xlink:title=" ">
<polygon fill="#e0e0e0" stroke="#999999" points="1423.5,-19 1376.5,-19 1376.5,0 1423.5,0 1423.5,-19"/>
<text text-anchor="middle" x="1400" y="-7" font-family="Helvetica,sans-Serif" font-size="10.00">cmath</text>
</a>
</g>
</g>
<!-- Node1&#45;&gt;Node18 -->
<g id="edge17_Node000001_Node000018" class="edge">
<title>Node1&#45;&gt;Node18</title>
<g id="a_edge17_Node000001_Node000018"><a xlink:title=" ">
<path fill="none" stroke="#63b8ff" d="M840.65,-62.6C944.89,-60.24 1169.26,-51.65 1366.38,-18.98"/>
<polygon fill="#63b8ff" stroke="#63b8ff" points="1367.06,-22.41 1376.34,-17.3 1365.9,-15.51 1367.06,-22.41"/>
</a>
</g>
</g>
<!-- Node19 -->
<g id="Node000019" class="node">
<title>Node19</title>
<g id="a_Node000019"><a xlink:title=" ">
<polygon fill="#e0e0e0" stroke="#999999" points="1488.5,-19 1441.5,-19 1441.5,0 1488.5,0 1488.5,-19"/>
<text text-anchor="middle" x="1465" y="-7" font-family="Helvetica,sans-Serif" font-size="10.00">deque</text>
</a>
</g>
</g>
<!-- Node1&#45;&gt;Node19 -->
<g id="edge18_Node000001_Node000019" class="edge">
<title>Node1&#45;&gt;Node19</title>
<g id="a_edge18_Node000001_Node000019"><a xlink:title=" ">
<path fill="none" stroke="#63b8ff" d="M840.79,-63.24C953.79,-61.91 1209.11,-54.98 1431.45,-18.95"/>
<polygon fill="#63b8ff" stroke="#63b8ff" points="1432.04,-22.4 1441.34,-17.32 1430.91,-15.49 1432.04,-22.4"/>
</a>
</g>
</g>
<!-- Node20 -->
<g id="Node000020" class="node">
<title>Node20</title>
<g id="a_Node000020"><a xlink:title=" ">
<polygon fill="#e0e0e0" stroke="#999999" points="1571,-19 1507,-19 1507,0 1571,0 1571,-19"/>
<text text-anchor="middle" x="1539" y="-7" font-family="Helvetica,sans-Serif" font-size="10.00">algorithm</text>
</a>
</g>
</g>
<!-- Node1&#45;&gt;Node20 -->
<g id="edge19_Node000001_Node000020" class="edge">
<title>Node1&#45;&gt;Node20</title>
<g id="a_edge19_Node000001_Node000020"><a xlink:title=" ">
<path fill="none" stroke="#63b8ff" d="M840.75,-62.67C961.78,-60.36 1247.77,-51.74 1496.88,-18.94"/>
<polygon fill="#63b8ff" stroke="#63b8ff" points="1497.4,-22.41 1506.85,-17.62 1496.47,-15.47 1497.4,-22.41"/>
</a>
</g>
</g>
</g>
</svg>
