<?xml version="1.0" encoding="UTF-8" standalone="no"?>
<!DOCTYPE svg PUBLIC "-//W3C//DTD SVG 1.1//EN"
 "http://www.w3.org/Graphics/SVG/1.1/DTD/svg11.dtd">
<!-- Generated by graphviz version 2.43.0 (0)
 -->
<!-- Title: mathplot/mathplot.cpp Pages: 1 -->
<svg width="3970pt" height="137pt"
 viewBox="0.00 0.00 3970.00 137.00" xmlns="http://www.w3.org/2000/svg" xmlns:xlink="http://www.w3.org/1999/xlink">
<g id="graph0" class="graph" transform="scale(1 1) rotate(0) translate(4 133)">
<title>mathplot/mathplot.cpp</title>
<!-- Node1 -->
<g id="Node000001" class="node">
<title>Node1</title>
<g id="a_Node000001"><a xlink:title=" ">
<polygon fill="#999999" stroke="#666666" points="2067,-129 1939,-129 1939,-110 2067,-110 2067,-129"/>
<text text-anchor="middle" x="2003" y="-117" font-family="Helvetica,sans-Serif" font-size="10.00">mathplot/mathplot.cpp</text>
</a>
</g>
</g>
<!-- Node2 -->
<g id="Node000002" class="node">
<title>Node2</title>
<g id="a_Node000002"><a xlink:title=" ">
<polygon fill="#e0e0e0" stroke="#999999" points="64,-19 0,-19 0,0 64,0 64,-19"/>
<text text-anchor="middle" x="32" y="-7" font-family="Helvetica,sans-Serif" font-size="10.00">algorithm</text>
</a>
</g>
</g>
<!-- Node1&#45;&gt;Node2 -->
<g id="edge1_Node000001_Node000002" class="edge">
<title>Node1&#45;&gt;Node2</title>
<g id="a_edge1_Node000001_Node000002"><a xlink:title=" ">
<path fill="none" stroke="#63b8ff" d="M1938.67,-118.07C1675.99,-116.13 683.83,-106.73 372,-74 263.67,-62.63 138.14,-35.49 74.19,-20.64"/>
<polygon fill="#63b8ff" stroke="#63b8ff" points="74.63,-17.14 64.09,-18.28 73.03,-23.96 74.63,-17.14"/>
</a>
</g>
</g>
<!-- Node3 -->
<g id="Node000003" class="node">
<title>Node3</title>
<g id="a_Node000003"><a xlink:title=" ">
<polygon fill="#e0e0e0" stroke="#999999" points="792.5,-74 735.5,-74 735.5,-55 792.5,-55 792.5,-74"/>
<text text-anchor="middle" x="764" y="-62" font-family="Helvetica,sans-Serif" font-size="10.00">wx/wx.h</text>
</a>
</g>
</g>
<!-- Node1&#45;&gt;Node3 -->
<g id="edge2_Node000001_Node000003" class="edge">
<title>Node1&#45;&gt;Node3</title>
<g id="a_edge2_Node000001_Node000003"><a xlink:title=" ">
<path fill="none" stroke="#63b8ff" d="M1938.7,-117.67C1725.85,-114.68 1044.51,-103.14 802.68,-73.75"/>
<polygon fill="#63b8ff" stroke="#63b8ff" points="802.89,-70.25 792.53,-72.47 802.02,-77.19 802.89,-70.25"/>
</a>
</g>
</g>
<!-- Node4 -->
<g id="Node000004" class="node">
<title>Node4</title>
<g id="a_Node000004"><a xlink:title=" ">
<polygon fill="#e0e0e0" stroke="#999999" points="883.5,-74 810.5,-74 810.5,-55 883.5,-55 883.5,-74"/>
<text text-anchor="middle" x="847" y="-62" font-family="Helvetica,sans-Serif" font-size="10.00">wx/object.h</text>
</a>
</g>
</g>
<!-- Node1&#45;&gt;Node4 -->
<g id="edge3_Node000001_Node000004" class="edge">
<title>Node1&#45;&gt;Node4</title>
<g id="a_edge3_Node000001_Node000004"><a xlink:title=" ">
<path fill="none" stroke="#63b8ff" d="M1938.94,-119.12C1769.72,-120.07 1296.73,-118.3 893.69,-73.87"/>
<polygon fill="#63b8ff" stroke="#63b8ff" points="893.91,-70.38 883.59,-72.75 893.14,-77.33 893.91,-70.38"/>
</a>
</g>
</g>
<!-- Node5 -->
<g id="Node000005" class="node">
<title>Node5</title>
<g id="a_Node000005"><a xlink:title=" ">
<polygon fill="#e0e0e0" stroke="#999999" points="964,-74 902,-74 902,-55 964,-55 964,-74"/>
<text text-anchor="middle" x="933" y="-62" font-family="Helvetica,sans-Serif" font-size="10.00">wx/font.h</text>
</a>
</g>
</g>
<!-- Node1&#45;&gt;Node5 -->
<g id="edge4_Node000001_Node000005" class="edge">
<title>Node1&#45;&gt;Node5</title>
<g id="a_edge4_Node000001_Node000005"><a xlink:title=" ">
<path fill="none" stroke="#63b8ff" d="M1938.86,-117.13C1747.3,-112.8 1180.46,-98.38 974.48,-73.93"/>
<polygon fill="#63b8ff" stroke="#63b8ff" points="974.71,-70.43 964.36,-72.68 973.86,-77.38 974.71,-70.43"/>
</a>
</g>
</g>
<!-- Node6 -->
<g id="Node000006" class="node">
<title>Node6</title>
<g id="a_Node000006"><a xlink:title=" ">
<polygon fill="#e0e0e0" stroke="#999999" points="1054,-74 982,-74 982,-55 1054,-55 1054,-74"/>
<text text-anchor="middle" x="1018" y="-62" font-family="Helvetica,sans-Serif" font-size="10.00">wx/colour.h</text>
</a>
</g>
</g>
<!-- Node1&#45;&gt;Node6 -->
<g id="edge5_Node000001_Node000006" class="edge">
<title>Node1&#45;&gt;Node6</title>
<g id="a_edge5_Node000001_Node000006"><a xlink:title=" ">
<path fill="none" stroke="#63b8ff" d="M1938.92,-118.54C1788.1,-117.96 1398.86,-112.63 1064.65,-74.01"/>
<polygon fill="#63b8ff" stroke="#63b8ff" points="1064.62,-70.49 1054.28,-72.8 1063.81,-77.44 1064.62,-70.49"/>
</a>
</g>
</g>
<!-- Node7 -->
<g id="Node000007" class="node">
<title>Node7</title>
<g id="a_Node000007"><a xlink:title=" ">
<polygon fill="#e0e0e0" stroke="#999999" points="1154,-74 1072,-74 1072,-55 1154,-55 1154,-74"/>
<text text-anchor="middle" x="1113" y="-62" font-family="Helvetica,sans-Serif" font-size="10.00">wx/settings.h</text>
</a>
</g>
</g>
<!-- Node1&#45;&gt;Node7 -->
<g id="edge6_Node000001_Node000007" class="edge">
<title>Node1&#45;&gt;Node7</title>
<g id="a_edge6_Node000001_Node000007"><a xlink:title=" ">
<path fill="none" stroke="#63b8ff" d="M1938.86,-117.55C1799.74,-114.95 1459.75,-105.75 1164.19,-73.86"/>
<polygon fill="#63b8ff" stroke="#63b8ff" points="1164.46,-70.37 1154.14,-72.76 1163.7,-77.33 1164.46,-70.37"/>
</a>
</g>
</g>
<!-- Node8 -->
<g id="Node000008" class="node">
<title>Node8</title>
<g id="a_Node000008"><a xlink:title=" ">
<polygon fill="#e0e0e0" stroke="#999999" points="1237.5,-74 1172.5,-74 1172.5,-55 1237.5,-55 1237.5,-74"/>
<text text-anchor="middle" x="1205" y="-62" font-family="Helvetica,sans-Serif" font-size="10.00">wx/sizer.h</text>
</a>
</g>
</g>
<!-- Node1&#45;&gt;Node8 -->
<g id="edge7_Node000001_Node000008" class="edge">
<title>Node1&#45;&gt;Node8</title>
<g id="a_edge7_Node000001_Node000008"><a xlink:title=" ">
<path fill="none" stroke="#63b8ff" d="M1939,-117.77C1810.03,-115.64 1509.65,-107.34 1248.01,-73.92"/>
<polygon fill="#63b8ff" stroke="#63b8ff" points="1248.31,-70.43 1237.94,-72.62 1247.41,-77.38 1248.31,-70.43"/>
</a>
</g>
</g>
<!-- Node9 -->
<g id="Node000009" class="node">
<title>Node9</title>
<g id="a_Node000009"><a xlink:title=" ">
<polygon fill="#e0e0e0" stroke="#999999" points="1314,-74 1256,-74 1256,-55 1314,-55 1314,-74"/>
<text text-anchor="middle" x="1285" y="-62" font-family="Helvetica,sans-Serif" font-size="10.00">wx/log.h</text>
</a>
</g>
</g>
<!-- Node1&#45;&gt;Node9 -->
<g id="edge8_Node000001_Node000009" class="edge">
<title>Node1&#45;&gt;Node9</title>
<g id="a_edge8_Node000001_Node000009"><a xlink:title=" ">
<path fill="none" stroke="#63b8ff" d="M1938.55,-117.47C1819.25,-114.87 1555.9,-105.87 1324.26,-73.77"/>
<polygon fill="#63b8ff" stroke="#63b8ff" points="1324.69,-70.3 1314.3,-72.38 1323.72,-77.23 1324.69,-70.3"/>
</a>
</g>
</g>
<!-- Node10 -->
<g id="Node000010" class="node">
<title>Node10</title>
<g id="a_Node000010"><a xlink:title=" ">
<polygon fill="#e0e0e0" stroke="#999999" points="141.5,-19 82.5,-19 82.5,0 141.5,0 141.5,-19"/>
<text text-anchor="middle" x="112" y="-7" font-family="Helvetica,sans-Serif" font-size="10.00">wx/intl.h</text>
</a>
</g>
</g>
<!-- Node1&#45;&gt;Node10 -->
<g id="edge9_Node000001_Node000010" class="edge">
<title>Node1&#45;&gt;Node10</title>
<g id="a_edge9_Node000001_Node000010"><a xlink:title=" ">
<path fill="none" stroke="#63b8ff" d="M1938.95,-118.84C1736.55,-119.43 1092.72,-117.51 562,-74 381.12,-59.17 333.53,-51.68 151.71,-19.2"/>
<polygon fill="#63b8ff" stroke="#63b8ff" points="152.28,-15.74 141.82,-17.43 151.05,-22.63 152.28,-15.74"/>
</a>
</g>
</g>
<!-- Node11 -->
<g id="Node000011" class="node">
<title>Node11</title>
<g id="a_Node000011"><a xlink:title=" ">
<polygon fill="#e0e0e0" stroke="#999999" points="1413.5,-74 1332.5,-74 1332.5,-55 1413.5,-55 1413.5,-74"/>
<text text-anchor="middle" x="1373" y="-62" font-family="Helvetica,sans-Serif" font-size="10.00">wx/dcclient.h</text>
</a>
</g>
</g>
<!-- Node1&#45;&gt;Node11 -->
<g id="edge10_Node000001_Node000011" class="edge">
<title>Node1&#45;&gt;Node11</title>
<g id="a_edge10_Node000001_Node000011"><a xlink:title=" ">
<path fill="none" stroke="#63b8ff" d="M1938.87,-115.51C1833.56,-110.17 1617.24,-97.43 1423.69,-73.96"/>
<polygon fill="#63b8ff" stroke="#63b8ff" points="1423.96,-70.47 1413.61,-72.72 1423.11,-77.41 1423.96,-70.47"/>
</a>
</g>
</g>
<!-- Node12 -->
<g id="Node000012" class="node">
<title>Node12</title>
<g id="a_Node000012"><a xlink:title=" ">
<polygon fill="#e0e0e0" stroke="#999999" points="1504,-74 1432,-74 1432,-55 1504,-55 1504,-74"/>
<text text-anchor="middle" x="1468" y="-62" font-family="Helvetica,sans-Serif" font-size="10.00">wx/cursor.h</text>
</a>
</g>
</g>
<!-- Node1&#45;&gt;Node12 -->
<g id="edge11_Node000001_Node000012" class="edge">
<title>Node1&#45;&gt;Node12</title>
<g id="a_edge11_Node000001_Node000012"><a xlink:title=" ">
<path fill="none" stroke="#63b8ff" d="M1938.96,-114.66C1847.09,-108.7 1672.42,-95.76 1514.21,-74.04"/>
<polygon fill="#63b8ff" stroke="#63b8ff" points="1514.69,-70.57 1504.3,-72.67 1513.72,-77.51 1514.69,-70.57"/>
</a>
</g>
</g>
<!-- Node13 -->
<g id="Node000013" class="node">
<title>Node13</title>
<g id="a_Node000013"><a xlink:href="mathplot_8h.html" target="_top" xlink:title=" ">
<polygon fill="#fff0f0" stroke="red" points="641,-74 571,-74 571,-55 641,-55 641,-74"/>
<text text-anchor="middle" x="606" y="-62" font-family="Helvetica,sans-Serif" font-size="10.00">mathplot.h</text>
</a>
</g>
</g>
<!-- Node1&#45;&gt;Node13 -->
<g id="edge12_Node000001_Node000013" class="edge">
<title>Node1&#45;&gt;Node13</title>
<g id="a_edge12_Node000001_Node000013"><a xlink:title=" ">
<path fill="none" stroke="#63b8ff" d="M1938.7,-117.56C1706.06,-113.98 908.6,-100.05 655,-74 653.74,-73.87 652.47,-73.73 651.19,-73.58"/>
<polygon fill="#63b8ff" stroke="#63b8ff" points="651.63,-70.1 641.25,-72.22 650.68,-77.04 651.63,-70.1"/>
</a>
</g>
</g>
<!-- Node27 -->
<g id="Node000027" class="node">
<title>Node27</title>
<g id="a_Node000027"><a xlink:title=" ">
<polygon fill="#e0e0e0" stroke="#999999" points="1193,-19 1119,-19 1119,0 1193,0 1193,-19"/>
<text text-anchor="middle" x="1156" y="-7" font-family="Helvetica,sans-Serif" font-size="10.00">wx/image.h</text>
</a>
</g>
</g>
<!-- Node1&#45;&gt;Node27 -->
<g id="edge31_Node000001_Node000027" class="edge">
<title>Node1&#45;&gt;Node27</title>
<g id="a_edge31_Node000001_Node000027"><a xlink:title=" ">
<path fill="none" stroke="#63b8ff" d="M1938.85,-118.73C1684.28,-119.33 756.93,-118.44 714,-74 654.26,-12.16 998.6,-29.84 1108.7,-18.86"/>
<polygon fill="#63b8ff" stroke="#63b8ff" points="1109.37,-22.3 1118.89,-17.66 1108.55,-15.35 1109.37,-22.3"/>
</a>
</g>
</g>
<!-- Node28 -->
<g id="Node000028" class="node">
<title>Node28</title>
<g id="a_Node000028"><a xlink:title=" ">
<polygon fill="#e0e0e0" stroke="#999999" points="1258.5,-19 1211.5,-19 1211.5,0 1258.5,0 1258.5,-19"/>
<text text-anchor="middle" x="1235" y="-7" font-family="Helvetica,sans-Serif" font-size="10.00">cmath</text>
</a>
</g>
</g>
<!-- Node1&#45;&gt;Node28 -->
<g id="edge37_Node000001_Node000028" class="edge">
<title>Node1&#45;&gt;Node28</title>
<g id="a_edge37_Node000001_Node000028"><a xlink:title=" ">
<path fill="none" stroke="#63b8ff" d="M1938.64,-118.71C1685.42,-119.2 769.44,-117.95 727,-74 655.2,0.35 1073.27,-34.3 1201.23,-18.58"/>
<polygon fill="#63b8ff" stroke="#63b8ff" points="1201.91,-22.02 1211.31,-17.13 1200.92,-15.09 1201.91,-22.02"/>
</a>
</g>
</g>
<!-- Node30 -->
<g id="Node000030" class="node">
<title>Node30</title>
<g id="a_Node000030"><a xlink:title=" ">
<polygon fill="#e0e0e0" stroke="#999999" points="1612,-74 1522,-74 1522,-55 1612,-55 1612,-74"/>
<text text-anchor="middle" x="1567" y="-62" font-family="Helvetica,sans-Serif" font-size="10.00">wx/bmpbuttn.h</text>
</a>
</g>
</g>
<!-- Node1&#45;&gt;Node30 -->
<g id="edge28_Node000001_Node000030" class="edge">
<title>Node1&#45;&gt;Node30</title>
<g id="a_edge28_Node000001_Node000030"><a xlink:title=" ">
<path fill="none" stroke="#63b8ff" d="M1938.69,-111.81C1864.84,-103.94 1739.8,-90.07 1622.31,-74.13"/>
<polygon fill="#63b8ff" stroke="#63b8ff" points="1622.44,-70.62 1612.06,-72.73 1621.5,-77.55 1622.44,-70.62"/>
</a>
</g>
</g>
<!-- Node31 -->
<g id="Node000031" class="node">
<title>Node31</title>
<g id="a_Node000031"><a xlink:title=" ">
<polygon fill="#e0e0e0" stroke="#999999" points="1710,-74 1630,-74 1630,-55 1710,-55 1710,-74"/>
<text text-anchor="middle" x="1670" y="-62" font-family="Helvetica,sans-Serif" font-size="10.00">wx/module.h</text>
</a>
</g>
</g>
<!-- Node1&#45;&gt;Node31 -->
<g id="edge29_Node000001_Node000031" class="edge">
<title>Node1&#45;&gt;Node31</title>
<g id="a_edge29_Node000001_Node000031"><a xlink:title=" ">
<path fill="none" stroke="#63b8ff" d="M1947.39,-109.96C1890.3,-101.15 1798.9,-86.91 1720,-74 1719.9,-73.98 1719.8,-73.97 1719.7,-73.95"/>
<polygon fill="#63b8ff" stroke="#63b8ff" points="1720.55,-70.54 1710.11,-72.36 1719.4,-77.45 1720.55,-70.54"/>
</a>
</g>
</g>
<!-- Node32 -->
<g id="Node000032" class="node">
<title>Node32</title>
<g id="a_Node000032"><a xlink:title=" ">
<polygon fill="#e0e0e0" stroke="#999999" points="1807.5,-74 1728.5,-74 1728.5,-55 1807.5,-55 1807.5,-74"/>
<text text-anchor="middle" x="1768" y="-62" font-family="Helvetica,sans-Serif" font-size="10.00">wx/msgdlg.h</text>
</a>
</g>
</g>
<!-- Node1&#45;&gt;Node32 -->
<g id="edge30_Node000001_Node000032" class="edge">
<title>Node1&#45;&gt;Node32</title>
<g id="a_edge30_Node000001_Node000032"><a xlink:title=" ">
<path fill="none" stroke="#63b8ff" d="M1965.24,-109.98C1924.68,-100.84 1860.11,-86.27 1815.97,-76.32"/>
<polygon fill="#63b8ff" stroke="#63b8ff" points="1816.58,-72.87 1806.05,-74.08 1815.04,-79.7 1816.58,-72.87"/>
</a>
</g>
</g>
<!-- Node33 -->
<g id="Node000033" class="node">
<title>Node33</title>
<g id="a_Node000033"><a xlink:title=" ">
<polygon fill="#e0e0e0" stroke="#999999" points="1898.5,-74 1825.5,-74 1825.5,-55 1898.5,-55 1898.5,-74"/>
<text text-anchor="middle" x="1862" y="-62" font-family="Helvetica,sans-Serif" font-size="10.00">wx/tipwin.h</text>
</a>
</g>
</g>
<!-- Node1&#45;&gt;Node33 -->
<g id="edge32_Node000001_Node000033" class="edge">
<title>Node1&#45;&gt;Node33</title>
<g id="a_edge32_Node000001_Node000033"><a xlink:title=" ">
<path fill="none" stroke="#63b8ff" d="M1980.35,-109.98C1957.15,-101.27 1920.88,-87.63 1894.6,-77.75"/>
<polygon fill="#63b8ff" stroke="#63b8ff" points="1895.66,-74.41 1885.07,-74.17 1893.2,-80.97 1895.66,-74.41"/>
</a>
</g>
</g>
<!-- Node34 -->
<g id="Node000034" class="node">
<title>Node34</title>
<g id="a_Node000034"><a xlink:title=" ">
<polygon fill="#e0e0e0" stroke="#999999" points="1993,-74 1917,-74 1917,-55 1993,-55 1993,-74"/>
<text text-anchor="middle" x="1955" y="-62" font-family="Helvetica,sans-Serif" font-size="10.00">wx/clipbrd.h</text>
</a>
</g>
</g>
<!-- Node1&#45;&gt;Node34 -->
<g id="edge33_Node000001_Node000034" class="edge">
<title>Node1&#45;&gt;Node34</title>
<g id="a_edge33_Node000001_Node000034"><a xlink:title=" ">
<path fill="none" stroke="#63b8ff" d="M1995.07,-109.75C1988.15,-102.11 1977.93,-90.82 1969.55,-81.56"/>
<polygon fill="#63b8ff" stroke="#63b8ff" points="1972.09,-79.15 1962.78,-74.09 1966.9,-83.85 1972.09,-79.15"/>
</a>
</g>
</g>
<!-- Node35 -->
<g id="Node000035" class="node">
<title>Node35</title>
<g id="a_Node000035"><a xlink:title=" ">
<polygon fill="#e0e0e0" stroke="#999999" points="2093,-74 2011,-74 2011,-55 2093,-55 2093,-74"/>
<text text-anchor="middle" x="2052" y="-62" font-family="Helvetica,sans-Serif" font-size="10.00">wx/dcbuffer.h</text>
</a>
</g>
</g>
<!-- Node1&#45;&gt;Node35 -->
<g id="edge34_Node000001_Node000035" class="edge">
<title>Node1&#45;&gt;Node35</title>
<g id="a_edge34_Node000001_Node000035"><a xlink:title=" ">
<path fill="none" stroke="#63b8ff" d="M2011.09,-109.75C2018.16,-102.11 2028.59,-90.82 2037.15,-81.56"/>
<polygon fill="#63b8ff" stroke="#63b8ff" points="2039.84,-83.81 2044.06,-74.09 2034.7,-79.06 2039.84,-83.81"/>
</a>
</g>
</g>
<!-- Node36 -->
<g id="Node000036" class="node">
<title>Node36</title>
<g id="a_Node000036"><a xlink:title=" ">
<polygon fill="#e0e0e0" stroke="#999999" points="2197,-74 2111,-74 2111,-55 2197,-55 2197,-74"/>
<text text-anchor="middle" x="2154" y="-62" font-family="Helvetica,sans-Serif" font-size="10.00">wx/filename.h</text>
</a>
</g>
</g>
<!-- Node1&#45;&gt;Node36 -->
<g id="edge35_Node000001_Node000036" class="edge">
<title>Node1&#45;&gt;Node36</title>
<g id="a_edge35_Node000001_Node000036"><a xlink:title=" ">
<path fill="none" stroke="#63b8ff" d="M2027.26,-109.98C2052.32,-101.19 2091.63,-87.39 2119.83,-77.49"/>
<polygon fill="#63b8ff" stroke="#63b8ff" points="2121.02,-80.78 2129.3,-74.17 2118.7,-74.18 2121.02,-80.78"/>
</a>
</g>
</g>
<!-- Node37 -->
<g id="Node000037" class="node">
<title>Node37</title>
<g id="a_Node000037"><a xlink:title=" ">
<polygon fill="#e0e0e0" stroke="#999999" points="2300.5,-74 2215.5,-74 2215.5,-55 2300.5,-55 2300.5,-74"/>
<text text-anchor="middle" x="2258" y="-62" font-family="Helvetica,sans-Serif" font-size="10.00">wx/stdpaths.h</text>
</a>
</g>
</g>
<!-- Node1&#45;&gt;Node37 -->
<g id="edge36_Node000001_Node000037" class="edge">
<title>Node1&#45;&gt;Node37</title>
<g id="a_edge36_Node000001_Node000037"><a xlink:title=" ">
<path fill="none" stroke="#63b8ff" d="M2043.97,-109.98C2088.26,-100.78 2158.94,-86.09 2206.85,-76.13"/>
<polygon fill="#63b8ff" stroke="#63b8ff" points="2207.63,-79.54 2216.71,-74.08 2206.21,-72.69 2207.63,-79.54"/>
</a>
</g>
</g>
<!-- Node38 -->
<g id="Node000038" class="node">
<title>Node38</title>
<g id="a_Node000038"><a xlink:title=" ">
<polygon fill="#e0e0e0" stroke="#999999" points="2365,-74 2319,-74 2319,-55 2365,-55 2365,-74"/>
<text text-anchor="middle" x="2342" y="-62" font-family="Helvetica,sans-Serif" font-size="10.00">cstdio</text>
</a>
</g>
</g>
<!-- Node1&#45;&gt;Node38 -->
<g id="edge38_Node000001_Node000038" class="edge">
<title>Node1&#45;&gt;Node38</title>
<g id="a_edge38_Node000001_Node000038"><a xlink:title=" ">
<path fill="none" stroke="#63b8ff" d="M2067.17,-111.39C2127.29,-104.24 2219.79,-91.96 2308.68,-74.07"/>
<polygon fill="#63b8ff" stroke="#63b8ff" points="2309.56,-77.46 2318.66,-72.03 2308.16,-70.6 2309.56,-77.46"/>
</a>
</g>
</g>
<!-- Node39 -->
<g id="Node000039" class="node">
<title>Node39</title>
<g id="a_Node000039"><a xlink:title=" ">
<polygon fill="#e0e0e0" stroke="#999999" points="2427,-74 2383,-74 2383,-55 2427,-55 2427,-74"/>
<text text-anchor="middle" x="2405" y="-62" font-family="Helvetica,sans-Serif" font-size="10.00">ctime</text>
</a>
</g>
</g>
<!-- Node1&#45;&gt;Node39 -->
<g id="edge39_Node000001_Node000039" class="edge">
<title>Node1&#45;&gt;Node39</title>
<g id="a_edge39_Node000001_Node000039"><a xlink:title=" ">
<path fill="none" stroke="#63b8ff" d="M2067.13,-113.71C2139.34,-107.67 2260.28,-95.6 2372.92,-73.95"/>
<polygon fill="#63b8ff" stroke="#63b8ff" points="2373.6,-77.38 2382.74,-72.03 2372.26,-70.51 2373.6,-77.38"/>
</a>
</g>
</g>
<!-- Node40 -->
<g id="Node000040" class="node">
<title>Node40</title>
<g id="a_Node000040"><a xlink:title=" ">
<polygon fill="#e0e0e0" stroke="#999999" points="2500.5,-74 2445.5,-74 2445.5,-55 2500.5,-55 2500.5,-74"/>
<text text-anchor="middle" x="2473" y="-62" font-family="Helvetica,sans-Serif" font-size="10.00">fstream</text>
</a>
</g>
</g>
<!-- Node1&#45;&gt;Node40 -->
<g id="edge40_Node000001_Node000040" class="edge">
<title>Node1&#45;&gt;Node40</title>
<g id="a_edge40_Node000001_Node000040"><a xlink:title=" ">
<path fill="none" stroke="#63b8ff" d="M2067.16,-114.39C2149.91,-108.54 2298.43,-96.17 2434.97,-73.96"/>
<polygon fill="#63b8ff" stroke="#63b8ff" points="2435.9,-77.36 2445.19,-72.28 2434.76,-70.45 2435.9,-77.36"/>
</a>
</g>
</g>
<!-- Node41 -->
<g id="Node000041" class="node">
<title>Node41</title>
<g id="a_Node000041"><a xlink:title=" ">
<polygon fill="#e0e0e0" stroke="#999999" points="2579,-74 2519,-74 2519,-55 2579,-55 2579,-74"/>
<text text-anchor="middle" x="2549" y="-62" font-family="Helvetica,sans-Serif" font-size="10.00">iostream</text>
</a>
</g>
</g>
<!-- Node1&#45;&gt;Node41 -->
<g id="edge41_Node000001_Node000041" class="edge">
<title>Node1&#45;&gt;Node41</title>
<g id="a_edge41_Node000001_Node000041"><a xlink:title=" ">
<path fill="none" stroke="#63b8ff" d="M2067.34,-115.48C2161.93,-110.45 2344.22,-98.57 2508.54,-74.03"/>
<polygon fill="#63b8ff" stroke="#63b8ff" points="2509.47,-77.43 2518.84,-72.47 2508.43,-70.51 2509.47,-77.43"/>
</a>
</g>
</g>
<!-- Node42 -->
<g id="Node000042" class="node">
<title>Node42</title>
<g id="a_Node000042"><a xlink:title=" ">
<polygon fill="#e0e0e0" stroke="#999999" points="2647,-74 2597,-74 2597,-55 2647,-55 2647,-74"/>
<text text-anchor="middle" x="2622" y="-62" font-family="Helvetica,sans-Serif" font-size="10.00">cstring</text>
</a>
</g>
</g>
<!-- Node1&#45;&gt;Node42 -->
<g id="edge42_Node000001_Node000042" class="edge">
<title>Node1&#45;&gt;Node42</title>
<g id="a_edge42_Node000001_Node000042"><a xlink:title=" ">
<path fill="none" stroke="#63b8ff" d="M2067.04,-117.16C2173.25,-114.17 2392.57,-104.72 2586.74,-73.92"/>
<polygon fill="#63b8ff" stroke="#63b8ff" points="2587.53,-77.34 2596.85,-72.29 2586.42,-70.42 2587.53,-77.34"/>
</a>
</g>
</g>
<!-- Node43 -->
<g id="Node000043" class="node">
<title>Node43</title>
<g id="a_Node000043"><a xlink:href="Center_8h.html" target="_top" xlink:title=" ">
<polygon fill="white" stroke="#666666" points="2761,-74 2665,-74 2665,-55 2761,-55 2761,-74"/>
<text text-anchor="middle" x="2713" y="-62" font-family="Helvetica,sans-Serif" font-size="10.00">Images/Center.h</text>
</a>
</g>
</g>
<!-- Node1&#45;&gt;Node43 -->
<g id="edge43_Node000001_Node000043" class="edge">
<title>Node1&#45;&gt;Node43</title>
<g id="a_edge43_Node000001_Node000043"><a xlink:title=" ">
<path fill="none" stroke="#63b8ff" d="M2067.1,-115.84C2182.51,-110.67 2433.06,-97.74 2654.64,-74.06"/>
<polygon fill="#63b8ff" stroke="#63b8ff" points="2655.27,-77.51 2664.83,-72.96 2654.52,-70.55 2655.27,-77.51"/>
</a>
</g>
</g>
<!-- Node44 -->
<g id="Node000044" class="node">
<title>Node44</title>
<g id="a_Node000044"><a xlink:href="Config_8h.html" target="_top" xlink:title=" ">
<polygon fill="white" stroke="#666666" points="2874.5,-74 2779.5,-74 2779.5,-55 2874.5,-55 2874.5,-74"/>
<text text-anchor="middle" x="2827" y="-62" font-family="Helvetica,sans-Serif" font-size="10.00">Images/Config.h</text>
</a>
</g>
</g>
<!-- Node1&#45;&gt;Node44 -->
<g id="edge44_Node000001_Node000044" class="edge">
<title>Node1&#45;&gt;Node44</title>
<g id="a_edge44_Node000001_Node000044"><a xlink:title=" ">
<path fill="none" stroke="#63b8ff" d="M2067.05,-116.73C2197.23,-112.72 2502.25,-101.16 2769.18,-73.97"/>
<polygon fill="#63b8ff" stroke="#63b8ff" points="2769.87,-77.42 2779.45,-72.92 2769.15,-70.46 2769.87,-77.42"/>
</a>
</g>
</g>
<!-- Node45 -->
<g id="Node000045" class="node">
<title>Node45</title>
<g id="a_Node000045"><a xlink:href="Coordinates_8h.html" target="_top" xlink:title=" ">
<polygon fill="white" stroke="#666666" points="3015.5,-74 2892.5,-74 2892.5,-55 3015.5,-55 3015.5,-74"/>
<text text-anchor="middle" x="2954" y="-62" font-family="Helvetica,sans-Serif" font-size="10.00">Images/Coordinates.h</text>
</a>
</g>
</g>
<!-- Node1&#45;&gt;Node45 -->
<g id="edge45_Node000001_Node000045" class="edge">
<title>Node1&#45;&gt;Node45</title>
<g id="a_edge45_Node000001_Node000045"><a xlink:title=" ">
<path fill="none" stroke="#63b8ff" d="M2067.22,-116.8C2211.2,-112.67 2570.99,-100.47 2882.07,-74.11"/>
<polygon fill="#63b8ff" stroke="#63b8ff" points="2882.52,-77.58 2892.19,-73.24 2881.93,-70.61 2882.52,-77.58"/>
</a>
</g>
</g>
<!-- Node46 -->
<g id="Node000046" class="node">
<title>Node46</title>
<g id="a_Node000046"><a xlink:href="Fit_8h.html" target="_top" xlink:title=" ">
<polygon fill="white" stroke="#666666" points="3110.5,-74 3033.5,-74 3033.5,-55 3110.5,-55 3110.5,-74"/>
<text text-anchor="middle" x="3072" y="-62" font-family="Helvetica,sans-Serif" font-size="10.00">Images/Fit.h</text>
</a>
</g>
</g>
<!-- Node1&#45;&gt;Node46 -->
<g id="edge46_Node000001_Node000046" class="edge">
<title>Node1&#45;&gt;Node46</title>
<g id="a_edge46_Node000001_Node000046"><a xlink:title=" ">
<path fill="none" stroke="#63b8ff" d="M2067.21,-118.72C2227.22,-118.61 2656.64,-114.34 3023.32,-74.03"/>
<polygon fill="#63b8ff" stroke="#63b8ff" points="3023.78,-77.5 3033.33,-72.92 3023.01,-70.55 3023.78,-77.5"/>
</a>
</g>
</g>
<!-- Node47 -->
<g id="Node000047" class="node">
<title>Node47</title>
<g id="a_Node000047"><a xlink:href="Fullscreen_8h.html" target="_top" xlink:title=" ">
<polygon fill="white" stroke="#666666" points="3243,-74 3129,-74 3129,-55 3243,-55 3243,-74"/>
<text text-anchor="middle" x="3186" y="-62" font-family="Helvetica,sans-Serif" font-size="10.00">Images/Fullscreen.h</text>
</a>
</g>
</g>
<!-- Node1&#45;&gt;Node47 -->
<g id="edge47_Node000001_Node000047" class="edge">
<title>Node1&#45;&gt;Node47</title>
<g id="a_edge47_Node000001_Node000047"><a xlink:title=" ">
<path fill="none" stroke="#63b8ff" d="M2067.03,-117.92C2236.76,-115.98 2712.42,-107.76 3118.61,-74.03"/>
<polygon fill="#63b8ff" stroke="#63b8ff" points="3119.12,-77.5 3128.8,-73.18 3118.54,-70.53 3119.12,-77.5"/>
</a>
</g>
</g>
<!-- Node48 -->
<g id="Node000048" class="node">
<title>Node48</title>
<g id="a_Node000048"><a xlink:href="Grid_8h.html" target="_top" xlink:title=" ">
<polygon fill="white" stroke="#666666" points="3346.5,-74 3261.5,-74 3261.5,-55 3346.5,-55 3346.5,-74"/>
<text text-anchor="middle" x="3304" y="-62" font-family="Helvetica,sans-Serif" font-size="10.00">Images/Grid.h</text>
</a>
</g>
</g>
<!-- Node1&#45;&gt;Node48 -->
<g id="edge48_Node000001_Node000048" class="edge">
<title>Node1&#45;&gt;Node48</title>
<g id="a_edge48_Node000001_Node000048"><a xlink:title=" ">
<path fill="none" stroke="#63b8ff" d="M2067.21,-119.07C2250.5,-120.09 2791.91,-118.84 3251.33,-73.9"/>
<polygon fill="#63b8ff" stroke="#63b8ff" points="3251.88,-77.36 3261.49,-72.9 3251.2,-70.4 3251.88,-77.36"/>
</a>
</g>
</g>
<!-- Node49 -->
<g id="Node000049" class="node">
<title>Node49</title>
<g id="a_Node000049"><a xlink:href="Load_8h.html" target="_top" xlink:title=" ">
<polygon fill="white" stroke="#666666" points="3453,-74 3365,-74 3365,-55 3453,-55 3453,-74"/>
<text text-anchor="middle" x="3409" y="-62" font-family="Helvetica,sans-Serif" font-size="10.00">Images/Load.h</text>
</a>
</g>
</g>
<!-- Node1&#45;&gt;Node49 -->
<g id="edge49_Node000001_Node000049" class="edge">
<title>Node1&#45;&gt;Node49</title>
<g id="a_edge49_Node000001_Node000049"><a xlink:title=" ">
<path fill="none" stroke="#63b8ff" d="M2067.13,-117.47C2297.12,-113.59 3080.9,-98.91 3354.51,-73.98"/>
<polygon fill="#63b8ff" stroke="#63b8ff" points="3355.18,-77.43 3364.81,-73.01 3354.52,-70.46 3355.18,-77.43"/>
</a>
</g>
</g>
<!-- Node50 -->
<g id="Node000050" class="node">
<title>Node50</title>
<g id="a_Node000050"><a xlink:href="Mouse_8h.html" target="_top" xlink:title=" ">
<polygon fill="white" stroke="#666666" points="3567.5,-74 3470.5,-74 3470.5,-55 3567.5,-55 3567.5,-74"/>
<text text-anchor="middle" x="3519" y="-62" font-family="Helvetica,sans-Serif" font-size="10.00">Images/Mouse.h</text>
</a>
</g>
</g>
<!-- Node1&#45;&gt;Node50 -->
<g id="edge50_Node000001_Node000050" class="edge">
<title>Node1&#45;&gt;Node50</title>
<g id="a_edge50_Node000001_Node000050"><a xlink:title=" ">
<path fill="none" stroke="#63b8ff" d="M2067.04,-117.55C2308.52,-113.81 3164.75,-99.13 3459.96,-74.05"/>
<polygon fill="#63b8ff" stroke="#63b8ff" points="3460.57,-77.52 3470.23,-73.16 3459.96,-70.54 3460.57,-77.52"/>
</a>
</g>
</g>
<!-- Node51 -->
<g id="Node000051" class="node">
<title>Node51</title>
<g id="a_Node000051"><a xlink:href="Screenshot_8h.html" target="_top" xlink:title=" ">
<polygon fill="white" stroke="#666666" points="3704.5,-74 3585.5,-74 3585.5,-55 3704.5,-55 3704.5,-74"/>
<text text-anchor="middle" x="3645" y="-62" font-family="Helvetica,sans-Serif" font-size="10.00">Images/Screenshot.h</text>
</a>
</g>
</g>
<!-- Node1&#45;&gt;Node51 -->
<g id="edge51_Node000001_Node000051" class="edge">
<title>Node1&#45;&gt;Node51</title>
<g id="a_edge51_Node000001_Node000051"><a xlink:title=" ">
<path fill="none" stroke="#63b8ff" d="M2067.21,-118.89C2280.36,-119.73 2984.02,-118.74 3575.32,-74.05"/>
<polygon fill="#63b8ff" stroke="#63b8ff" points="3575.62,-77.54 3585.33,-73.29 3575.09,-70.56 3575.62,-77.54"/>
</a>
</g>
</g>
<!-- Node52 -->
<g id="Node000052" class="node">
<title>Node52</title>
<g id="a_Node000052"><a xlink:href="Zoom__in_8h.html" target="_top" xlink:title=" ">
<polygon fill="white" stroke="#666666" points="3829.5,-74 3722.5,-74 3722.5,-55 3829.5,-55 3829.5,-74"/>
<text text-anchor="middle" x="3776" y="-62" font-family="Helvetica,sans-Serif" font-size="10.00">Images/Zoom_in.h</text>
</a>
</g>
</g>
<!-- Node1&#45;&gt;Node52 -->
<g id="edge52_Node000001_Node000052" class="edge">
<title>Node1&#45;&gt;Node52</title>
<g id="a_edge52_Node000001_Node000052"><a xlink:title=" ">
<path fill="none" stroke="#63b8ff" d="M2067.21,-117.78C2334.98,-114.63 3364.5,-101.03 3712.18,-74.04"/>
<polygon fill="#63b8ff" stroke="#63b8ff" points="3712.58,-77.52 3722.27,-73.24 3712.03,-70.54 3712.58,-77.52"/>
</a>
</g>
</g>
<!-- Node53 -->
<g id="Node000053" class="node">
<title>Node53</title>
<g id="a_Node000053"><a xlink:href="Zoom__out_8h.html" target="_top" xlink:title=" ">
<polygon fill="white" stroke="#666666" points="3962,-74 3848,-74 3848,-55 3962,-55 3962,-74"/>
<text text-anchor="middle" x="3905" y="-62" font-family="Helvetica,sans-Serif" font-size="10.00">Images/Zoom_out.h</text>
</a>
</g>
</g>
<!-- Node1&#45;&gt;Node53 -->
<g id="edge53_Node000001_Node000053" class="edge">
<title>Node1&#45;&gt;Node53</title>
<g id="a_edge53_Node000001_Node000053"><a xlink:title=" ">
<path fill="none" stroke="#63b8ff" d="M2067.08,-117.84C2346.82,-114.83 3463.3,-101.36 3837.75,-73.99"/>
<polygon fill="#63b8ff" stroke="#63b8ff" points="3838.09,-77.47 3847.8,-73.24 3837.57,-70.49 3838.09,-77.47"/>
</a>
</g>
</g>
<!-- Node13&#45;&gt;Node2 -->
<g id="edge27_Node000013_Node000002" class="edge">
<title>Node13&#45;&gt;Node2</title>
<g id="a_edge27_Node000013_Node000002"><a xlink:title=" ">
<path fill="none" stroke="#63b8ff" d="M570.91,-62.04C486.86,-58.24 267.23,-46.44 74.21,-19"/>
<polygon fill="#63b8ff" stroke="#63b8ff" points="74.56,-15.51 64.16,-17.55 73.56,-22.44 74.56,-15.51"/>
</a>
</g>
</g>
<!-- Node13&#45;&gt;Node10 -->
<g id="edge25_Node000013_Node000010" class="edge">
<title>Node13&#45;&gt;Node10</title>
<g id="a_edge25_Node000013_Node000010"><a xlink:title=" ">
<path fill="none" stroke="#63b8ff" d="M570.92,-61.55C495.77,-57.06 313.58,-44.48 151.93,-19.14"/>
<polygon fill="#63b8ff" stroke="#63b8ff" points="152.23,-15.64 141.8,-17.53 151.13,-22.56 152.23,-15.64"/>
</a>
</g>
</g>
<!-- Node14 -->
<g id="Node000014" class="node">
<title>Node14</title>
<g id="a_Node000014"><a xlink:title=" ">
<polygon fill="#e0e0e0" stroke="#999999" points="1101,-19 1049,-19 1049,0 1101,0 1101,-19"/>
<text text-anchor="middle" x="1075" y="-7" font-family="Helvetica,sans-Serif" font-size="10.00">cassert</text>
</a>
</g>
</g>
<!-- Node13&#45;&gt;Node14 -->
<g id="edge13_Node000013_Node000014" class="edge">
<title>Node13&#45;&gt;Node14</title>
<g id="a_edge13_Node000013_Node000014"><a xlink:title=" ">
<path fill="none" stroke="#63b8ff" d="M641.01,-57.08C645.71,-56.32 650.46,-55.6 655,-55 822.11,-32.73 868.73,-46.79 1038.67,-18.98"/>
<polygon fill="#63b8ff" stroke="#63b8ff" points="1039.42,-22.41 1048.71,-17.32 1038.27,-15.5 1039.42,-22.41"/>
</a>
</g>
</g>
<!-- Node15 -->
<g id="Node000015" class="node">
<title>Node15</title>
<g id="a_Node000015"><a xlink:title=" ">
<polygon fill="#e0e0e0" stroke="#999999" points="206.5,-19 159.5,-19 159.5,0 206.5,0 206.5,-19"/>
<text text-anchor="middle" x="183" y="-7" font-family="Helvetica,sans-Serif" font-size="10.00">vector</text>
</a>
</g>
</g>
<!-- Node13&#45;&gt;Node15 -->
<g id="edge14_Node000013_Node000015" class="edge">
<title>Node13&#45;&gt;Node15</title>
<g id="a_edge14_Node000013_Node000015"><a xlink:title=" ">
<path fill="none" stroke="#63b8ff" d="M570.8,-61.13C503.81,-56.25 353.25,-43.62 216.91,-18.9"/>
<polygon fill="#63b8ff" stroke="#63b8ff" points="217.17,-15.39 206.71,-17.02 215.91,-22.28 217.17,-15.39"/>
</a>
</g>
</g>
<!-- Node16 -->
<g id="Node000016" class="node">
<title>Node16</title>
<g id="a_Node000016"><a xlink:title=" ">
<polygon fill="#e0e0e0" stroke="#999999" points="263,-19 225,-19 225,0 263,0 263,-19"/>
<text text-anchor="middle" x="244" y="-7" font-family="Helvetica,sans-Serif" font-size="10.00">map</text>
</a>
</g>
</g>
<!-- Node13&#45;&gt;Node16 -->
<g id="edge15_Node000013_Node000016" class="edge">
<title>Node13&#45;&gt;Node16</title>
<g id="a_edge15_Node000013_Node000016"><a xlink:title=" ">
<path fill="none" stroke="#63b8ff" d="M570.57,-60.68C510.96,-55.53 386.77,-43.05 273.08,-18.91"/>
<polygon fill="#63b8ff" stroke="#63b8ff" points="273.69,-15.46 263.17,-16.77 272.21,-22.3 273.69,-15.46"/>
</a>
</g>
</g>
<!-- Node17 -->
<g id="Node000017" class="node">
<title>Node17</title>
<g id="a_Node000017"><a xlink:title=" ">
<polygon fill="#e0e0e0" stroke="#999999" points="374.5,-19 281.5,-19 281.5,0 374.5,0 374.5,-19"/>
<text text-anchor="middle" x="328" y="-7" font-family="Helvetica,sans-Serif" font-size="10.00">unordered_map</text>
</a>
</g>
</g>
<!-- Node13&#45;&gt;Node17 -->
<g id="edge16_Node000013_Node000017" class="edge">
<title>Node13&#45;&gt;Node17</title>
<g id="a_edge16_Node000013_Node000017"><a xlink:title=" ">
<path fill="none" stroke="#63b8ff" d="M570.79,-56.79C523.48,-47.77 438.88,-31.64 383.1,-21"/>
<polygon fill="#63b8ff" stroke="#63b8ff" points="383.51,-17.52 373.03,-19.09 382.2,-24.4 383.51,-17.52"/>
</a>
</g>
</g>
<!-- Node18 -->
<g id="Node000018" class="node">
<title>Node18</title>
<g id="a_Node000018"><a xlink:title=" ">
<polygon fill="#e0e0e0" stroke="#999999" points="457,-19 393,-19 393,0 457,0 457,-19"/>
<text text-anchor="middle" x="425" y="-7" font-family="Helvetica,sans-Serif" font-size="10.00">wx/defs.h</text>
</a>
</g>
</g>
<!-- Node13&#45;&gt;Node18 -->
<g id="edge17_Node000013_Node000018" class="edge">
<title>Node13&#45;&gt;Node18</title>
<g id="a_edge17_Node000013_Node000018"><a xlink:title=" ">
<path fill="none" stroke="#63b8ff" d="M576.92,-54.98C546.4,-46.05 498.24,-31.94 464.34,-22.02"/>
<polygon fill="#63b8ff" stroke="#63b8ff" points="464.89,-18.53 454.31,-19.08 462.92,-25.25 464.89,-18.53"/>
</a>
</g>
</g>
<!-- Node19 -->
<g id="Node000019" class="node">
<title>Node19</title>
<g id="a_Node000019"><a xlink:title=" ">
<polygon fill="#e0e0e0" stroke="#999999" points="546.5,-19 475.5,-19 475.5,0 546.5,0 546.5,-19"/>
<text text-anchor="middle" x="511" y="-7" font-family="Helvetica,sans-Serif" font-size="10.00">wx/menu.h</text>
</a>
</g>
</g>
<!-- Node13&#45;&gt;Node19 -->
<g id="edge18_Node000013_Node000019" class="edge">
<title>Node13&#45;&gt;Node19</title>
<g id="a_edge18_Node000013_Node000019"><a xlink:title=" ">
<path fill="none" stroke="#63b8ff" d="M590.74,-54.98C575.87,-46.69 553.02,-33.94 535.58,-24.22"/>
<polygon fill="#63b8ff" stroke="#63b8ff" points="536.98,-20.99 526.54,-19.17 533.57,-27.1 536.98,-20.99"/>
</a>
</g>
</g>
<!-- Node20 -->
<g id="Node000020" class="node">
<title>Node20</title>
<g id="a_Node000020"><a xlink:title=" ">
<polygon fill="#e0e0e0" stroke="#999999" points="647.5,-19 564.5,-19 564.5,0 647.5,0 647.5,-19"/>
<text text-anchor="middle" x="606" y="-7" font-family="Helvetica,sans-Serif" font-size="10.00">wx/scrolwin.h</text>
</a>
</g>
</g>
<!-- Node13&#45;&gt;Node20 -->
<g id="edge19_Node000013_Node000020" class="edge">
<title>Node13&#45;&gt;Node20</title>
<g id="a_edge19_Node000013_Node000020"><a xlink:title=" ">
<path fill="none" stroke="#63b8ff" d="M606,-54.75C606,-47.8 606,-37.85 606,-29.13"/>
<polygon fill="#63b8ff" stroke="#63b8ff" points="609.5,-29.09 606,-19.09 602.5,-29.09 609.5,-29.09"/>
</a>
</g>
</g>
<!-- Node21 -->
<g id="Node000021" class="node">
<title>Node21</title>
<g id="a_Node000021"><a xlink:title=" ">
<polygon fill="#e0e0e0" stroke="#999999" points="736.5,-19 665.5,-19 665.5,0 736.5,0 736.5,-19"/>
<text text-anchor="middle" x="701" y="-7" font-family="Helvetica,sans-Serif" font-size="10.00">wx/event.h</text>
</a>
</g>
</g>
<!-- Node13&#45;&gt;Node21 -->
<g id="edge20_Node000013_Node000021" class="edge">
<title>Node13&#45;&gt;Node21</title>
<g id="a_edge20_Node000013_Node000021"><a xlink:title=" ">
<path fill="none" stroke="#63b8ff" d="M621.26,-54.98C636.13,-46.69 658.98,-33.94 676.42,-24.22"/>
<polygon fill="#63b8ff" stroke="#63b8ff" points="678.43,-27.1 685.46,-19.17 675.02,-20.99 678.43,-27.1"/>
</a>
</g>
</g>
<!-- Node22 -->
<g id="Node000022" class="node">
<title>Node22</title>
<g id="a_Node000022"><a xlink:title=" ">
<polygon fill="#e0e0e0" stroke="#999999" points="839.5,-19 754.5,-19 754.5,0 839.5,0 839.5,-19"/>
<text text-anchor="middle" x="797" y="-7" font-family="Helvetica,sans-Serif" font-size="10.00">wx/dynarray.h</text>
</a>
</g>
</g>
<!-- Node13&#45;&gt;Node22 -->
<g id="edge21_Node000013_Node000022" class="edge">
<title>Node13&#45;&gt;Node22</title>
<g id="a_edge21_Node000013_Node000022"><a xlink:title=" ">
<path fill="none" stroke="#63b8ff" d="M636.69,-54.98C669.17,-45.97 720.6,-31.7 756.41,-21.76"/>
<polygon fill="#63b8ff" stroke="#63b8ff" points="757.37,-25.13 766.07,-19.08 755.5,-18.38 757.37,-25.13"/>
</a>
</g>
</g>
<!-- Node23 -->
<g id="Node000023" class="node">
<title>Node23</title>
<g id="a_Node000023"><a xlink:title=" ">
<polygon fill="#e0e0e0" stroke="#999999" points="918.5,-19 857.5,-19 857.5,0 918.5,0 918.5,-19"/>
<text text-anchor="middle" x="888" y="-7" font-family="Helvetica,sans-Serif" font-size="10.00">wx/pen.h</text>
</a>
</g>
</g>
<!-- Node13&#45;&gt;Node23 -->
<g id="edge22_Node000013_Node000023" class="edge">
<title>Node13&#45;&gt;Node23</title>
<g id="a_edge22_Node000013_Node000023"><a xlink:title=" ">
<path fill="none" stroke="#63b8ff" d="M641.33,-57.18C695.04,-47.55 795.69,-29.4 847.4,-19.26"/>
<polygon fill="#63b8ff" stroke="#63b8ff" points="848.24,-22.66 857.36,-17.28 846.87,-15.79 848.24,-22.66"/>
</a>
</g>
</g>
<!-- Node24 -->
<g id="Node000024" class="node">
<title>Node24</title>
<g id="a_Node000024"><a xlink:title=" ">
<polygon fill="#e0e0e0" stroke="#999999" points="1031,-19 937,-19 937,0 1031,0 1031,-19"/>
<text text-anchor="middle" x="984" y="-7" font-family="Helvetica,sans-Serif" font-size="10.00">wx/dcmemory.h</text>
</a>
</g>
</g>
<!-- Node13&#45;&gt;Node24 -->
<g id="edge23_Node000013_Node000024" class="edge">
<title>Node13&#45;&gt;Node24</title>
<g id="a_edge23_Node000013_Node000024"><a xlink:title=" ">
<path fill="none" stroke="#63b8ff" d="M641.04,-57.24C645.73,-56.46 650.48,-55.69 655,-55 772.79,-37.02 805.14,-36.21 926.87,-19.13"/>
<polygon fill="#63b8ff" stroke="#63b8ff" points="927.54,-22.57 936.96,-17.71 926.56,-15.64 927.54,-22.57"/>
</a>
</g>
</g>
<!-- Node13&#45;&gt;Node27 -->
<g id="edge24_Node000013_Node000027" class="edge">
<title>Node13&#45;&gt;Node27</title>
<g id="a_edge24_Node000013_Node000027"><a xlink:title=" ">
<path fill="none" stroke="#63b8ff" d="M641,-57.02C645.7,-56.27 650.46,-55.57 655,-55 853.02,-30.05 907.15,-44.97 1108.86,-19.01"/>
<polygon fill="#63b8ff" stroke="#63b8ff" points="1109.43,-22.46 1118.9,-17.7 1108.53,-15.52 1109.43,-22.46"/>
</a>
</g>
</g>
<!-- Node13&#45;&gt;Node28 -->
<g id="edge26_Node000013_Node000028" class="edge">
<title>Node13&#45;&gt;Node28</title>
<g id="a_edge26_Node000013_Node000028"><a xlink:title=" ">
<path fill="none" stroke="#63b8ff" d="M641.12,-59.85C656.96,-58.26 675.91,-56.44 693,-55 915.68,-36.25 976.39,-54.87 1201.18,-18.79"/>
<polygon fill="#63b8ff" stroke="#63b8ff" points="1202.01,-22.21 1211.32,-17.15 1200.88,-15.3 1202.01,-22.21"/>
</a>
</g>
</g>
</g>
</svg>
