<?xml version="1.0" encoding="UTF-8" standalone="no"?>
<!DOCTYPE svg PUBLIC "-//W3C//DTD SVG 1.1//EN"
 "http://www.w3.org/Graphics/SVG/1.1/DTD/svg11.dtd">
<!-- Generated by graphviz version 2.43.0 (0)
 -->
<!-- Title: mpAxisData Pages: 1 -->
<!--zoomable 412 -->

<svg id="main" version="1.1" xmlns="http://www.w3.org/2000/svg" xmlns:xlink="http://www.w3.org/1999/xlink" xml:space="preserve" onload="init(evt)">
<style type="text/css"><![CDATA[
.node, .edge {opacity: 0.7;}
.node.selected, .edge.selected {opacity: 1;}
.edge:hover path { stroke: red; }
.edge:hover polygon { stroke: red; fill: red; }
]]></style>

<defs>
  <circle id="rim" cx="0" cy="0" r="7"/>
  <circle id="rim2" cx="0" cy="0" r="3.5"/>
  <g id="zoomPlus">
    <use xlink:href="#rim" fill="#404040"><set attributeName="fill" to="#808080" begin="zoomplus.mouseover" end="zoomplus.mouseout"/></use>
    <path d="M-4,0h8M0,-4v8" fill="none" stroke="white" stroke-width="1.5" pointer-events="none"/>
  </g>
  <g id="zoomMin">
    <use xlink:href="#rim" fill="#404040"><set attributeName="fill" to="#808080" begin="zoomminus.mouseover" end="zoomminus.mouseout"/></use>
    <path d="M-4,0h8" fill="none" stroke="white" stroke-width="1.5" pointer-events="none"/>
  </g>
  <g id="arrowUp" transform="translate(30 24)">
    <use xlink:href="#rim"/>
    <path pointer-events="none" fill="none" stroke="white" stroke-width="1.5" d="M0,-3.0v7 M-2.5,-0.5L0,-3.0L2.5,-0.5"/>
  </g>
  <g id="arrowRight" transform="rotate(90) translate(36 -43)">
    <use xlink:href="#rim"/>
    <path pointer-events="none" fill="none" stroke="white" stroke-width="1.5" d="M0,-3.0v7 M-2.5,-0.5L0,-3.0L2.5,-0.5"/>
  </g>
  <g id="arrowDown" transform="rotate(180) translate(-30 -48)">
    <use xlink:href="#rim"/>
    <path pointer-events="none" fill="none" stroke="white" stroke-width="1.5" d="M0,-3.0v7 M-2.5,-0.5L0,-3.0L2.5,-0.5"/>
  </g>
  <g id="arrowLeft" transform="rotate(270) translate(-36 17)">
    <use xlink:href="#rim"/>
    <path pointer-events="none" fill="none" stroke="white" stroke-width="1.5" d="M0,-3.0v7 M-2.5,-0.5L0,-3.0L2.5,-0.5"/>
  </g>
  <g id="resetDef">
    <use xlink:href="#rim2" fill="#404040"><set attributeName="fill" to="#808080" begin="reset.mouseover" end="reset.mouseout"/></use>
  </g>
</defs>
<script type="application/ecmascript">
var viewWidth = 775;
var viewHeight = 412;
var sectionId = 'dynsection-0';
</script>
<script type="application/ecmascript" xlink:href="svg.min.js"/>
<svg id="graph" class="graph">
<g id="viewport">
<title>mpAxisData</title>
<!-- Node1 -->
<g id="Node000001" class="node">
<title>Node1</title>
<g id="a_Node000001"><a xlink:title="Represents all the informations needed for plotting a layer in one direction (X or Y) This struct hol...">
<polygon fill="#999999" stroke="#666666" points="180,-316 103,-316 103,-297 180,-297 180,-316"/>
<text text-anchor="middle" x="141.5" y="-304" font-family="Helvetica,sans-Serif" font-size="10.00">mpAxisData</text>
</a>
</g>
</g>
<!-- Node5 -->
<g id="Node000005" class="node">
<title>Node5</title>
<g id="a_Node000005"><a xlink:href="classmpWindow.html" target="_top" xlink:title=" ">
<polygon fill="white" stroke="#666666" points="586,-217 515,-217 515,-198 586,-198 586,-217"/>
<text text-anchor="middle" x="550.5" y="-205" font-family="Helvetica,sans-Serif" font-size="10.00">mpWindow</text>
</a>
</g>
</g>
<!-- Node1&#45;&gt;Node5 -->
<g id="edge6_Node000005_Node000001" class="edge">
<title>Node1&#45;&gt;Node5</title>
<g id="a_edge6_Node000005_Node000001"><a xlink:title=" ">
<path fill="none" stroke="#9a32cd" stroke-dasharray="5,2" d="M152.12,-288.37C163.67,-271.45 183.83,-246.48 208.5,-235 268.44,-207.09 439.88,-225.15 505.5,-217 508.5,-216.63 511.6,-216.18 514.7,-215.68"/>
<polygon fill="#9a32cd" stroke="#9a32cd" points="149.14,-286.52 146.61,-296.81 155.01,-290.34 149.14,-286.52"/>
</a>
</g>
<text text-anchor="middle" x="243.5" y="-254.5" font-family="Helvetica,sans-Serif" font-size="10.00" fill="grey"> m_AxisDataX</text>
</g>
<!-- Node2 -->
<g id="Node000002" class="node">
<title>Node2</title>
<g id="a_Node000002"><a xlink:href="classmpScale.html" target="_top" xlink:title=" ">
<polygon fill="white" stroke="#666666" points="171,-85 112,-85 112,-66 171,-66 171,-85"/>
<text text-anchor="middle" x="141.5" y="-73" font-family="Helvetica,sans-Serif" font-size="10.00">mpScale</text>
</a>
</g>
</g>
<!-- Node2&#45;&gt;Node1 -->
<g id="edge1_Node000001_Node000002" class="edge">
<title>Node2&#45;&gt;Node1</title>
<g id="a_edge1_Node000001_Node000002"><a xlink:title=" ">
<path fill="none" stroke="#9a32cd" stroke-dasharray="5,2" d="M141.5,-95.49C141.5,-142.59 141.5,-263.36 141.5,-296.8"/>
<polygon fill="#9a32cd" stroke="#9a32cd" points="145,-95.21 141.5,-85.21 138,-95.21 145,-95.21"/>
</a>
</g>
<text text-anchor="middle" x="153.5" y="-172" font-family="Helvetica,sans-Serif" font-size="10.00" fill="grey"> axis</text>
</g>
<!-- Node3 -->
<g id="Node000003" class="node">
<title>Node3</title>
<g id="a_Node000003"><a xlink:href="classmpLayer.html" target="_top" xlink:title=" ">
<polygon fill="white" stroke="#666666" points="441,-151 382,-151 382,-132 441,-132 441,-151"/>
<text text-anchor="middle" x="411.5" y="-139" font-family="Helvetica,sans-Serif" font-size="10.00">mpLayer</text>
</a>
</g>
</g>
<!-- Node3&#45;&gt;Node2 -->
<g id="edge2_Node000002_Node000003" class="edge">
<title>Node3&#45;&gt;Node2</title>
<g id="a_edge2_Node000002_Node000003"><a xlink:title=" ">
<path fill="none" stroke="#63b8ff" d="M371.82,-131.1C317.19,-118.14 220.02,-95.11 171.22,-83.54"/>
<polygon fill="#63b8ff" stroke="#63b8ff" points="371.3,-134.57 381.83,-133.47 372.91,-127.76 371.3,-134.57"/>
</a>
</g>
</g>
<!-- Node8 -->
<g id="Node000008" class="node">
<title>Node8</title>
<g id="a_Node000008"><a xlink:href="classmpInfoLayer.html" target="_top" xlink:title="Base class to create small rectangular info boxes mpInfoLayer is the base class to create a small rec...">
<polygon fill="white" stroke="#666666" points="622.5,-85 544.5,-85 544.5,-66 622.5,-66 622.5,-85"/>
<text text-anchor="middle" x="583.5" y="-73" font-family="Helvetica,sans-Serif" font-size="10.00">mpInfoLayer</text>
</a>
</g>
</g>
<!-- Node3&#45;&gt;Node8 -->
<g id="edge9_Node000008_Node000003" class="edge">
<title>Node3&#45;&gt;Node8</title>
<g id="a_edge9_Node000008_Node000003"><a xlink:title=" ">
<path fill="none" stroke="#63b8ff" d="M434.5,-126.85C448.34,-119.07 466.52,-109.58 483.5,-103 503.09,-95.41 525.67,-89.22 544.4,-84.74"/>
<polygon fill="#63b8ff" stroke="#63b8ff" points="432.61,-123.9 425.68,-131.92 436.09,-129.97 432.61,-123.9"/>
</a>
</g>
</g>
<!-- Node11 -->
<g id="Node000011" class="node">
<title>Node11</title>
<g id="a_Node000011"><a xlink:href="classmpFunction.html" target="_top" xlink:title=" ">
<polygon fill="white" stroke="#666666" points="440.5,-85 366.5,-85 366.5,-66 440.5,-66 440.5,-85"/>
<text text-anchor="middle" x="403.5" y="-73" font-family="Helvetica,sans-Serif" font-size="10.00">mpFunction</text>
</a>
</g>
</g>
<!-- Node3&#45;&gt;Node11 -->
<g id="edge15_Node000011_Node000003" class="edge">
<title>Node3&#45;&gt;Node11</title>
<g id="a_edge15_Node000011_Node000003"><a xlink:title=" ">
<path fill="none" stroke="#63b8ff" d="M409.14,-121.58C407.64,-109.63 405.78,-94.72 404.61,-85.41"/>
<polygon fill="#63b8ff" stroke="#63b8ff" points="405.71,-122.38 410.42,-131.87 412.65,-121.51 405.71,-122.38"/>
</a>
</g>
</g>
<!-- Node4 -->
<g id="Node000004" class="node">
<title>Node4</title>
<g id="a_Node000004"><a xlink:title=" ">
<polygon fill="white" stroke="#666666" points="496.5,-217 434.5,-217 434.5,-198 496.5,-198 496.5,-217"/>
<text text-anchor="middle" x="465.5" y="-205" font-family="Helvetica,sans-Serif" font-size="10.00">wxObject</text>
</a>
</g>
</g>
<!-- Node4&#45;&gt;Node3 -->
<g id="edge3_Node000003_Node000004" class="edge">
<title>Node4&#45;&gt;Node3</title>
<g id="a_edge3_Node000003_Node000004"><a xlink:title=" ">
<path fill="none" stroke="#63b8ff" d="M446.58,-191.23C442.72,-187.73 438.83,-183.89 435.5,-180 427.66,-170.84 420.46,-158.92 416.03,-151"/>
<polygon fill="#63b8ff" stroke="#63b8ff" points="444.41,-193.98 454.27,-197.85 448.98,-188.67 444.41,-193.98"/>
</a>
</g>
</g>
<!-- Node5&#45;&gt;Node3 -->
<g id="edge4_Node000003_Node000005" class="edge">
<title>Node5&#45;&gt;Node3</title>
<g id="a_edge4_Node000003_Node000005"><a xlink:title=" ">
<path fill="none" stroke="#9a32cd" stroke-dasharray="5,2" d="M504.81,-195.73C485.02,-190.66 464.36,-184.71 455.5,-180 441.32,-172.46 427.68,-159.69 419.44,-151.18"/>
<polygon fill="#9a32cd" stroke="#9a32cd" points="504.16,-199.18 514.71,-198.22 505.87,-192.39 504.16,-199.18"/>
</a>
</g>
<text text-anchor="middle" x="473.5" y="-172" font-family="Helvetica,sans-Serif" font-size="10.00" fill="grey"> m_win</text>
</g>
<!-- Node6 -->
<g id="Node000006" class="node">
<title>Node6</title>
<g id="a_Node000006"><a xlink:title=" ">
<polygon fill="white" stroke="#666666" points="585.5,-316 515.5,-316 515.5,-297 585.5,-297 585.5,-316"/>
<text text-anchor="middle" x="550.5" y="-304" font-family="Helvetica,sans-Serif" font-size="10.00">wxWindow</text>
</a>
</g>
</g>
<!-- Node6&#45;&gt;Node5 -->
<g id="edge5_Node000005_Node000006" class="edge">
<title>Node6&#45;&gt;Node5</title>
<g id="a_edge5_Node000005_Node000006"><a xlink:title=" ">
<path fill="none" stroke="#63b8ff" d="M550.5,-286.68C550.5,-265.74 550.5,-232.81 550.5,-217.23"/>
<polygon fill="#63b8ff" stroke="#63b8ff" points="547,-286.89 550.5,-296.89 554,-286.89 547,-286.89"/>
</a>
</g>
</g>
<!-- Node7 -->
<g id="Node000007" class="node">
<title>Node7</title>
<g id="a_Node000007"><a xlink:href="structmpRect.html" target="_top" xlink:title="A rectangle structure in several (integer) flavors.">
<polygon fill="white" stroke="#666666" points="400.5,-316 346.5,-316 346.5,-297 400.5,-297 400.5,-316"/>
<text text-anchor="middle" x="373.5" y="-304" font-family="Helvetica,sans-Serif" font-size="10.00">mpRect</text>
</a>
</g>
</g>
<!-- Node7&#45;&gt;Node3 -->
<g id="edge17_Node000003_Node000007" class="edge">
<title>Node7&#45;&gt;Node3</title>
<g id="a_edge17_Node000003_Node000007"><a xlink:title=" ">
<path fill="none" stroke="#9a32cd" stroke-dasharray="5,2" d="M358.94,-288.96C341.81,-267.4 317.61,-228.8 333.5,-198 345.23,-175.25 371.08,-159.79 389.81,-151.08"/>
<polygon fill="#9a32cd" stroke="#9a32cd" points="356.4,-291.39 365.49,-296.84 361.78,-286.92 356.4,-291.39"/>
</a>
</g>
<text text-anchor="middle" x="379.5" y="-205" font-family="Helvetica,sans-Serif" font-size="10.00" fill="grey"> m_plotBoundaries</text>
</g>
<!-- Node7&#45;&gt;Node5 -->
<g id="edge7_Node000005_Node000007" class="edge">
<title>Node7&#45;&gt;Node5</title>
<g id="a_edge7_Node000005_Node000007"><a xlink:title=" ">
<path fill="none" stroke="#9a32cd" stroke-dasharray="5,2" d="M381.25,-287.92C389.39,-271.6 403.75,-247.94 423.5,-235 427.37,-232.46 478.71,-222.24 514.91,-215.26"/>
<polygon fill="#9a32cd" stroke="#9a32cd" points="378.09,-286.43 377,-296.97 384.42,-289.41 378.09,-286.43"/>
</a>
</g>
<text text-anchor="middle" x="485" y="-271" font-family="Helvetica,sans-Serif" font-size="10.00" fill="grey"> m_margin</text>
<text text-anchor="middle" x="485" y="-260" font-family="Helvetica,sans-Serif" font-size="10.00" fill="grey">m_marginOuter</text>
<text text-anchor="middle" x="485" y="-249" font-family="Helvetica,sans-Serif" font-size="10.00" fill="grey">m_plotBoundaries</text>
<text text-anchor="middle" x="485" y="-238" font-family="Helvetica,sans-Serif" font-size="10.00" fill="grey">m_plotBoundariesMargin</text>
</g>
<!-- Node8&#45;&gt;Node5 -->
<g id="edge8_Node000005_Node000008" class="edge">
<title>Node8&#45;&gt;Node5</title>
<g id="a_edge8_Node000005_Node000008"><a xlink:title=" ">
<path fill="none" stroke="#9a32cd" stroke-dasharray="5,2" d="M582.2,-95.57C581.6,-101.51 580.73,-108.06 579.5,-114 572.92,-145.64 559.9,-181.85 553.8,-197.98"/>
<polygon fill="#9a32cd" stroke="#9a32cd" points="585.72,-95.47 583.06,-85.21 578.74,-94.89 585.72,-95.47"/>
</a>
</g>
<text text-anchor="middle" x="625" y="-139" font-family="Helvetica,sans-Serif" font-size="10.00" fill="grey"> m_movingInfoLayer</text>
</g>
<!-- Node9 -->
<g id="Node000009" class="node">
<title>Node9</title>
<g id="a_Node000009"><a xlink:href="classmpInfoCoords.html" target="_top" xlink:title="Implements an overlay box which shows the mouse coordinates in plot units. When mouse is moved over t...">
<polygon fill="white" stroke="#666666" points="730,-19 645,-19 645,0 730,0 730,-19"/>
<text text-anchor="middle" x="687.5" y="-7" font-family="Helvetica,sans-Serif" font-size="10.00">mpInfoCoords</text>
</a>
</g>
</g>
<!-- Node8&#45;&gt;Node9 -->
<g id="edge11_Node000009_Node000008" class="edge">
<title>Node8&#45;&gt;Node9</title>
<g id="a_edge11_Node000009_Node000008"><a xlink:title=" ">
<path fill="none" stroke="#63b8ff" d="M606.22,-60.52C626.67,-47.93 656.1,-29.82 673.36,-19.2"/>
<polygon fill="#63b8ff" stroke="#63b8ff" points="604.21,-57.65 597.53,-65.87 607.88,-63.61 604.21,-57.65"/>
</a>
</g>
</g>
<!-- Node10 -->
<g id="Node000010" class="node">
<title>Node10</title>
<g id="a_Node000010"><a xlink:href="classmpInfoLegend.html" target="_top" xlink:title="Implement the legend to be added to the plot This layer allows you to add a legend to describe the pl...">
<polygon fill="white" stroke="#666666" points="548.5,-19 462.5,-19 462.5,0 548.5,0 548.5,-19"/>
<text text-anchor="middle" x="505.5" y="-7" font-family="Helvetica,sans-Serif" font-size="10.00">mpInfoLegend</text>
</a>
</g>
</g>
<!-- Node8&#45;&gt;Node10 -->
<g id="edge13_Node000010_Node000008" class="edge">
<title>Node8&#45;&gt;Node10</title>
<g id="a_edge13_Node000010_Node000008"><a xlink:title=" ">
<path fill="none" stroke="#63b8ff" d="M565.2,-59.49C549.93,-46.96 528.7,-29.54 516.1,-19.2"/>
<polygon fill="#63b8ff" stroke="#63b8ff" points="563.03,-62.23 572.98,-65.87 567.47,-56.82 563.03,-62.23"/>
</a>
</g>
</g>
<!-- Node9&#45;&gt;Node5 -->
<g id="edge10_Node000005_Node000009" class="edge">
<title>Node9&#45;&gt;Node5</title>
<g id="a_edge10_Node000005_Node000009"><a xlink:title=" ">
<path fill="none" stroke="#9a32cd" stroke-dasharray="5,2" d="M692.11,-29.03C698.16,-57.93 705.23,-114.25 679.5,-151 658.18,-181.46 616.48,-195.32 586.25,-201.56"/>
<polygon fill="#9a32cd" stroke="#9a32cd" points="695.48,-28.04 689.84,-19.08 688.65,-29.6 695.48,-28.04"/>
</a>
</g>
<text text-anchor="middle" x="731" y="-106" font-family="Helvetica,sans-Serif" font-size="10.00" fill="grey"> m_InfoCoords</text>
</g>
<!-- Node10&#45;&gt;Node5 -->
<g id="edge12_Node000005_Node000010" class="edge">
<title>Node10&#45;&gt;Node5</title>
<g id="a_edge12_Node000005_Node000010"><a xlink:title=" ">
<path fill="none" stroke="#9a32cd" stroke-dasharray="5,2" d="M501.99,-29.37C498.76,-50.36 495.45,-85.12 502.5,-114 510.65,-147.4 533.14,-182.17 544.2,-197.88"/>
<polygon fill="#9a32cd" stroke="#9a32cd" points="505.48,-29.7 503.71,-19.25 498.58,-28.52 505.48,-29.7"/>
</a>
</g>
<text text-anchor="middle" x="539" y="-106" font-family="Helvetica,sans-Serif" font-size="10.00" fill="grey"> m_InfoLegend</text>
</g>
<!-- Node11&#45;&gt;Node10 -->
<g id="edge14_Node000010_Node000011" class="edge">
<title>Node11&#45;&gt;Node10</title>
<g id="a_edge14_Node000010_Node000011"><a xlink:title=" ">
<path fill="none" stroke="#9a32cd" stroke-dasharray="5,2" d="M397.75,-55.67C396.92,-49.16 397.45,-42.21 401.5,-37 409.16,-27.14 437.3,-20.34 462.37,-16.1"/>
<polygon fill="#9a32cd" stroke="#9a32cd" points="394.43,-56.83 400.07,-65.8 401.25,-55.27 394.43,-56.83"/>
</a>
</g>
<text text-anchor="middle" x="446.5" y="-40" font-family="Helvetica,sans-Serif" font-size="10.00" fill="grey"> m_selectedSeries</text>
</g>
<!-- Node12 -->
<g id="Node000012" class="node">
<title>Node12</title>
<g id="a_Node000012"><a xlink:href="classmpMagnet.html" target="_top" xlink:title=" ">
<polygon fill="white" stroke="#666666" points="302,-316 233,-316 233,-297 302,-297 302,-316"/>
<text text-anchor="middle" x="267.5" y="-304" font-family="Helvetica,sans-Serif" font-size="10.00">mpMagnet</text>
</a>
</g>
</g>
<!-- Node12&#45;&gt;Node5 -->
<g id="edge16_Node000005_Node000012" class="edge">
<title>Node12&#45;&gt;Node5</title>
<g id="a_edge16_Node000005_Node000012"><a xlink:title=" ">
<path fill="none" stroke="#9a32cd" stroke-dasharray="5,2" d="M276.63,-287.87C286.32,-271.15 303.3,-246.87 325.5,-235 360.95,-216.04 465.71,-222.74 505.5,-217 508.49,-216.57 511.58,-216.08 514.69,-215.56"/>
<polygon fill="#9a32cd" stroke="#9a32cd" points="273.53,-286.24 271.78,-296.69 279.67,-289.61 273.53,-286.24"/>
</a>
</g>
<text text-anchor="middle" x="353.5" y="-254.5" font-family="Helvetica,sans-Serif" font-size="10.00" fill="grey"> m_magnet</text>
</g>
<!-- Node13 -->
<g id="Node000013" class="node">
<title>Node13</title>
<g id="a_Node000013"><a xlink:href="structmpRange.html" target="_top" xlink:title=" ">
<polygon fill="white" stroke="#666666" points="119,-404 0,-404 0,-385 119,-385 119,-404"/>
<text text-anchor="middle" x="59.5" y="-392" font-family="Helvetica,sans-Serif" font-size="10.00">mpRange&lt; double &gt;</text>
</a>
</g>
</g>
<!-- Node13&#45;&gt;Node1 -->
<g id="edge19_Node000001_Node000013" class="edge">
<title>Node13&#45;&gt;Node1</title>
<g id="a_edge19_Node000001_Node000013"><a xlink:title=" ">
<path fill="none" stroke="#9a32cd" stroke-dasharray="5,2" d="M74.82,-377.43C92.16,-359.24 119.76,-330.3 133.37,-316.03"/>
<polygon fill="#9a32cd" stroke="#9a32cd" points="72.03,-375.29 67.66,-384.94 77.1,-380.12 72.03,-375.29"/>
</a>
</g>
<text text-anchor="middle" x="143.5" y="-359" font-family="Helvetica,sans-Serif" font-size="10.00" fill="grey"> bound</text>
<text text-anchor="middle" x="143.5" y="-348" font-family="Helvetica,sans-Serif" font-size="10.00" fill="grey">desired</text>
<text text-anchor="middle" x="143.5" y="-337" font-family="Helvetica,sans-Serif" font-size="10.00" fill="grey">lastDesired</text>
</g>
<!-- Node13&#45;&gt;Node2 -->
<g id="edge18_Node000002_Node000013" class="edge">
<title>Node13&#45;&gt;Node2</title>
<g id="a_edge18_Node000002_Node000013"><a xlink:title=" ">
<path fill="none" stroke="#9a32cd" stroke-dasharray="5,2" d="M53.92,-374.63C49.31,-357.33 43.5,-330.92 43.5,-307.5 43.5,-307.5 43.5,-307.5 43.5,-140.5 43.5,-107.48 82.99,-90.59 111.83,-82.66"/>
<polygon fill="#9a32cd" stroke="#9a32cd" points="50.64,-375.88 56.71,-384.56 57.38,-373.99 50.64,-375.88"/>
</a>
</g>
<text text-anchor="middle" x="78.5" y="-205" font-family="Helvetica,sans-Serif" font-size="10.00" fill="grey"> m_axisRange</text>
</g>
</g>
</svg>

<g id="navigator" transform="translate(0 0)" fill="#404254">
  <rect fill="#f2f5e9" fill-opacity="0.5" stroke="#606060" stroke-width=".5" x="0" y="0" width="60" height="60"/>
  <use id="zoomplus" xlink:href="#zoomPlus" x="17" y="9" onmousedown="handleZoom(evt,'in')"/>
  <use id="zoomminus" xlink:href="#zoomMin" x="42" y="9" onmousedown="handleZoom(evt,'out')"/>
  <use id="reset" xlink:href="#resetDef" x="30" y="36" onmousedown="handleReset()"/>
   <use id="arrowup" xlink:href="#arrowUp" x="0" y="0" onmousedown="handlePan(0,-1)"/>
  <use id="arrowright" xlink:href="#arrowRight" x="0" y="0" onmousedown="handlePan(1,0)"/>
  <use id="arrowdown" xlink:href="#arrowDown" x="0" y="0" onmousedown="handlePan(0,1)"/>
  <use id="arrowleft" xlink:href="#arrowLeft" x="0" y="0" onmousedown="handlePan(-1,0)"/>
</g>
<svg viewBox="0 0 15 15" width="100%" height="30px" preserveAspectRatio="xMaxYMin meet">
 <g id="arrow_out" transform="scale(0.3 0.3)">
  <a xlink:href="structmpAxisData__coll__graph_org.svg" target="_base">
   <rect id="button" ry="5" rx="5" y="6" x="6" height="38" width="38"
        fill="#f2f5e9" fill-opacity="0.5" stroke="#606060" stroke-width="1.0"/>
   <path id="arrow"
     d="M 11.500037,31.436501 C 11.940474,20.09759 22.043105,11.32322 32.158766,21.979434 L 37.068811,17.246167 C 37.068811,17.246167 37.088388,32 37.088388,32 L 22.160133,31.978069 C 22.160133,31.978069 26.997745,27.140456 26.997745,27.140456 C 18.528582,18.264221 13.291696,25.230495 11.500037,31.436501 z"
     style="fill:#404040;"/>
  </a>
 </g>
</svg>

<style type='text/css'>
<![CDATA[
[data-mouse-over-selected='false'] { opacity: 0.7; }
[data-mouse-over-selected='true']  { opacity: 1.0; }
]]>
</style>
<script type="application/ecmascript"><![CDATA[
document.addEventListener('DOMContentLoaded', (event) => {
  highlightEdges();
  highlightAdjacentNodes();
});
]]></script>
</svg>
